<svg xmlns="http://www.w3.org/2000/svg" width="85" height="85" viewBox="0 0 85 85">
  <g id="Grupo_1182737" data-name="Grupo 1182737" transform="translate(-180 -1813.784)">
    <g id="Grupo_1181944" data-name="Grupo 1181944" transform="translate(16445.764 10833.31)">
      <g id="Grupo_1112415" data-name="Grupo 1112415" transform="translate(-16265.764 -9019.525)">
        <g id="Grupo_1098742" data-name="Grupo 1098742" transform="translate(0 0)">
          <g id="Rect치ngulo_400898" data-name="Rect치ngulo 400898" transform="translate(0.001 0)" fill="#ffea99" stroke="#997b00" stroke-width="3">
            <rect width="85" height="85" rx="42.5" stroke="none"/>
            <rect x="1.5" y="1.5" width="82" height="82" rx="41" fill="none"/>
          </g>
          <g id="Rect치ngulo_400907" data-name="Rect치ngulo 400907" transform="translate(0 0)" fill="none" stroke="#997b00" stroke-width="3">
            <rect width="85" height="85" rx="42.5" stroke="none"/>
            <rect x="1.5" y="1.5" width="82" height="82" rx="41" fill="none"/>
          </g>
        </g>
      </g>
    </g>
    <g id="Business-Project-Economic-Growth-Management" transform="translate(194.379 1827.945)">
      <path id="Trazado_916196" data-name="Trazado 916196" d="M53.5,49.448H3L8.224,39H48.277Z" transform="translate(-0.129 -4.784)" fill="#acabb1"/>
      <path id="Trazado_916197" data-name="Trazado 916197" d="M49.052,4.741v29.6H9V4.741A1.747,1.747,0,0,1,10.741,3h36.57a1.747,1.747,0,0,1,1.741,1.741Z" transform="translate(-0.905 -0.129)" fill="#c6c5ca"/>
      <path id="Trazado_916198" data-name="Trazado 916198" d="M53.5,51v3.483a1.747,1.747,0,0,1-1.741,1.741H4.741A1.747,1.747,0,0,1,3,54.483V51Z" transform="translate(-0.129 -6.335)" fill="#898890"/>
      <path id="Trazado_916199" data-name="Trazado 916199" d="M36.19,47l1.741,3.483H24L25.741,47Z" transform="translate(-2.844 -5.818)" fill="#c6c5ca"/>
      <path id="Trazado_916200" data-name="Trazado 916200" d="M25.741,48.845v1.741H24L25.393,47.8a1.752,1.752,0,0,1,.348,1.045Z" transform="translate(-2.844 -5.922)" fill="#acabb1"/>
      <path id="Trazado_916201" data-name="Trazado 916201" d="M13,7H46.087V31.38H13Z" transform="translate(-1.422 -0.646)" fill="#5aaae7"/>
      <g id="Grupo_1182736" data-name="Grupo 1182736" transform="translate(28.992 12.448)">
        <path id="Trazado_916202" data-name="Trazado 916202" d="M42.741,21.224a3.483,3.483,0,0,0,3.483-3.483V16H44.483A3.483,3.483,0,0,0,41,19.483v1.741Z" transform="translate(-34.034 -14.259)" fill="#3d9ae2"/>
        <path id="Trazado_916203" data-name="Trazado 916203" d="M38.483,19.224h1.741V17.483A3.483,3.483,0,0,0,36.741,14H35v1.741A3.483,3.483,0,0,0,38.483,19.224Z" transform="translate(-33.259 -14)" fill="#3d9ae2"/>
        <path id="Trazado_916204" data-name="Trazado 916204" d="M45.19,30.224a1.747,1.747,0,0,1,1.741,1.741v1.741H33V31.966a1.747,1.747,0,0,1,1.741-1.741A1.747,1.747,0,0,1,33,28.483V26.741A1.747,1.747,0,0,1,34.741,25H45.19a1.747,1.747,0,0,1,1.741,1.741v1.741a1.747,1.747,0,0,1-1.741,1.741Z" transform="translate(-33 -15.422)" fill="#3d9ae2"/>
      </g>
      <path id="Trazado_916205" data-name="Trazado 916205" d="M44.224,14v1.741a3.483,3.483,0,0,1-3.483,3.483H39V17.483A3.483,3.483,0,0,1,42.483,14Z" transform="translate(-4.784 -1.552)" fill="#00ccb3"/>
      <path id="Trazado_916206" data-name="Trazado 916206" d="M38.224,15.483v1.741H36.483A3.483,3.483,0,0,1,33,13.741V12h1.741A3.483,3.483,0,0,1,38.224,15.483Z" transform="translate(-4.008 -1.293)" fill="#00ccb3"/>
      <path id="Trazado_916207" data-name="Trazado 916207" d="M43.19,29a1.747,1.747,0,0,1,1.741,1.741v1.741a1.747,1.747,0,0,1-1.741,1.741H32.741A1.747,1.747,0,0,1,31,32.483V30.741A1.747,1.747,0,0,1,32.741,29Z" transform="translate(-3.75 -3.491)" fill="#ff9811"/>
      <path id="Trazado_916208" data-name="Trazado 916208" d="M43.19,23a1.747,1.747,0,0,1,1.741,1.741v1.741a1.747,1.747,0,0,1-1.741,1.741H32.741A1.747,1.747,0,0,1,31,26.483V24.741A1.747,1.747,0,0,1,32.741,23Z" transform="translate(-3.75 -2.715)" fill="#ee8700"/>
      <path id="Trazado_916209" data-name="Trazado 916209" d="M11.741,49A1.754,1.754,0,0,0,10,50.741h3.483A1.747,1.747,0,0,0,11.741,49Z" transform="translate(-1.034 -6.077)" fill="#787680"/>
      <path id="Trazado_916210" data-name="Trazado 916210" d="M10,51v5.224H23.931V51H10Z" transform="translate(-1.034 -6.335)" fill="#787680"/>
      <path id="Trazado_916211" data-name="Trazado 916211" d="M22.707,47a1.754,1.754,0,0,0-1.741,1.741,1.741,1.741,0,1,0-3.483,0v.871a1.741,1.741,0,0,0-3.483,0v.871H24.448V48.741A1.747,1.747,0,0,0,22.707,47Z" transform="translate(-1.552 -5.818)" fill="#898890"/>
      <path id="Trazado_916212" data-name="Trazado 916212" d="M25.741,48.845v1.741H24L25.393,47.8a1.752,1.752,0,0,1,.348,1.045Z" transform="translate(-2.844 -5.922)" fill="#acabb1"/>
      <path id="Trazado_916213" data-name="Trazado 916213" d="M30.754,55.151a1.741,1.741,0,0,0-.636-2.386,1.713,1.713,0,0,0-.862-.235,1.741,1.741,0,0,0-1.515.879L26,56.422h4.023Z" transform="translate(-3.103 -6.533)" fill="#787680"/>
      <path id="Trazado_916214" data-name="Trazado 916214" d="M38,52.53a1.713,1.713,0,0,0-.862.235,1.741,1.741,0,0,0-.636,2.386l.731,1.271h4.023l-1.741-3.013A1.741,1.741,0,0,0,38,52.53Z" transform="translate(-4.431 -6.533)" fill="#787680"/>
      <path id="Trazado_916215" data-name="Trazado 916215" d="M55.741,49A1.747,1.747,0,0,0,54,50.741h3.483A1.754,1.754,0,0,0,55.741,49Z" transform="translate(-6.723 -6.077)" fill="#898890"/>
      <path id="Trazado_916216" data-name="Trazado 916216" d="M42,51v5.224H55.931V51H42Z" transform="translate(-5.172 -6.335)" fill="#787680"/>
      <path id="Trazado_916217" data-name="Trazado 916217" d="M52.448,49.612a1.741,1.741,0,1,0-3.483,0v-.871a1.741,1.741,0,0,0-3.483,0,1.741,1.741,0,0,0-3.483,0v1.741H52.448Z" transform="translate(-5.172 -5.818)" fill="#787680"/>
      <path id="Trazado_916218" data-name="Trazado 916218" d="M18.448,46.741a1.741,1.741,0,0,1,3.483,0v6.966l1.741-3.013a1.741,1.741,0,0,1,1.515-.879,1.713,1.713,0,0,1,.862.235,1.741,1.741,0,0,1,.636,2.386L22.436,59.8H8V48.483a1.741,1.741,0,0,1,3.483,0v-.871a1.741,1.741,0,1,1,3.483,0v-.871a1.741,1.741,0,1,1,3.483,0Z" transform="translate(-0.776 -5.56)" fill="#ffc477"/>
      <path id="Trazado_916219" data-name="Trazado 916219" d="M49.707,48.483a1.741,1.741,0,1,1,3.483,0V59.8H38.754L34.5,52.436a1.741,1.741,0,0,1,.636-2.386A1.713,1.713,0,0,1,36,49.815a1.741,1.741,0,0,1,1.515.879l1.741,3.013V46.741a1.741,1.741,0,0,1,3.483,0,1.741,1.741,0,1,1,3.483,0v.871a1.741,1.741,0,0,1,3.483,0Z" transform="translate(-4.172 -5.56)" fill="#ffc477"/>
      <path id="Trazado_916220" data-name="Trazado 916220" d="M54.147,44.273,49.018,34.007V4.612A2.62,2.62,0,0,0,46.406,2H9.836A2.62,2.62,0,0,0,7.224,4.612v29.4L2.1,44.273a.871.871,0,0,0-.1.392v3.483A2.62,2.62,0,0,0,4.612,50.76H6.354v3.483H8.095V42.923a.871.871,0,0,1,1.741,0v2.612a.871.871,0,0,0,1.741,0V42.052a.871.871,0,1,1,1.741,0v3.483a.871.871,0,0,0,1.741,0V41.182a.871.871,0,0,1,1.741,0v4.354a.871.871,0,0,0,1.741,0V41.182a.871.871,0,0,1,1.741,0v6.966a.871.871,0,0,0,1.628.435l1.741-3.013a.86.86,0,0,1,1.184-.322.879.879,0,0,1,.322,1.193L20.9,53.807l1.506.871,2.264-3.918h6.9l2.264,3.918,1.506-.871-4.258-7.366a.879.879,0,0,1,.322-1.193.86.86,0,0,1,1.184.322l1.741,3.013a.89.89,0,0,0,.984.409.871.871,0,0,0,.644-.845V41.182a.871.871,0,0,1,1.741,0v4.354a.871.871,0,0,0,1.741,0V41.182a.871.871,0,0,1,1.741,0v4.354a.871.871,0,0,0,1.741,0V42.052a.871.871,0,1,1,1.741,0v3.483a.871.871,0,0,0,1.741,0V42.923a.871.871,0,0,1,1.741,0V54.242h1.741V50.76H51.63a2.62,2.62,0,0,0,2.612-2.612V44.665a.871.871,0,0,0-.1-.392ZM8.966,4.612a.871.871,0,0,1,.871-.871h36.57a.871.871,0,0,1,.871.871V33.345H8.966ZM6.354,49.018H4.612a.871.871,0,0,1-.871-.871V45.535H6.354Zm19.33,0,.984-1.707a2.612,2.612,0,0,0,.3-1.776h2.316a2.612,2.612,0,0,0,.3,1.776l.984,1.707ZM34.216,44.9l-.113-.2a2.612,2.612,0,0,0-3.57-.958l-.078.052H25.788l-.078-.052a2.612,2.612,0,0,0-3.57.958l-.113.2v-.026l1.411-2.821h9.369l1.411,2.821Zm13.061-4.589a2.555,2.555,0,0,0-1.28.34,2.612,2.612,0,0,0-2.2-1.21,2.555,2.555,0,0,0-1.28.34,2.612,2.612,0,0,0-2.2-1.21,2.582,2.582,0,0,0-1.741.67,2.6,2.6,0,0,0-4.336,1.768l-.113-.218a.851.851,0,0,0-.775-.479H22.9a.851.851,0,0,0-.775.479l-.113.218a2.6,2.6,0,0,0-4.336-1.768,2.582,2.582,0,0,0-1.741-.67,2.612,2.612,0,0,0-2.2,1.21,2.555,2.555,0,0,0-1.28-.34,2.612,2.612,0,0,0-2.2,1.21,2.555,2.555,0,0,0-1.28-.34,2.62,2.62,0,0,0-2.612,2.612v.871H4.281l4.354-8.707H47.608l4.354,8.707H49.889v-.871a2.62,2.62,0,0,0-2.612-2.612ZM52.5,48.147a.871.871,0,0,1-.871.871H49.889V45.535H52.5Z"/>
      <path id="Trazado_916221" data-name="Trazado 916221" d="M15,42h1.741v1.741H15Z" transform="translate(-1.681 -5.172)"/>
      <path id="Trazado_916222" data-name="Trazado 916222" d="M11,42h1.741v1.741H11Z" transform="translate(-1.164 -5.172)"/>
      <path id="Trazado_916223" data-name="Trazado 916223" d="M19,42h1.741v1.741H19Z" transform="translate(-2.198 -5.172)"/>
      <path id="Trazado_916224" data-name="Trazado 916224" d="M23,42h1.741v1.741H23Z" transform="translate(-2.715 -5.172)"/>
      <path id="Trazado_916225" data-name="Trazado 916225" d="M27,42h1.741v1.741H27Z" transform="translate(-3.232 -5.172)"/>
      <path id="Trazado_916226" data-name="Trazado 916226" d="M31,42h1.741v1.741H31Z" transform="translate(-3.75 -5.172)"/>
      <path id="Trazado_916227" data-name="Trazado 916227" d="M35,42h1.741v1.741H35Z" transform="translate(-4.267 -5.172)"/>
      <path id="Trazado_916228" data-name="Trazado 916228" d="M39,42h1.741v1.741H39Z" transform="translate(-4.784 -5.172)"/>
      <path id="Trazado_916229" data-name="Trazado 916229" d="M43,42h1.741v1.741H43Z" transform="translate(-5.301 -5.172)"/>
      <path id="Trazado_916230" data-name="Trazado 916230" d="M47,42h1.741v1.741H47Z" transform="translate(-5.818 -5.172)"/>
      <path id="Trazado_916231" data-name="Trazado 916231" d="M51,42h1.741v1.741H51Z" transform="translate(-6.335 -5.172)"/>
      <path id="Trazado_916232" data-name="Trazado 916232" d="M45.958,6H12.871A.871.871,0,0,0,12,6.871V31.25a.871.871,0,0,0,.871.871H45.958a.871.871,0,0,0,.871-.871V6.871A.871.871,0,0,0,45.958,6ZM41.6,29.509a.871.871,0,0,1-.871.871H30.285a.871.871,0,0,1-.871-.871V27.768a.871.871,0,0,1,.871-.871h.871v1.741H32.9V26.9h1.741v1.741H36.38V26.9h1.741v1.741h1.741V26.9h.871a.871.871,0,0,1,.871.871Zm0-5.224a.871.871,0,0,1-.871.871H30.285a.871.871,0,0,1-.871-.871V22.543a.871.871,0,0,1,.871-.871h.871v1.741H32.9V21.673h1.741v1.741H36.38V21.673h1.741v1.741h1.741V21.673h.871a.871.871,0,0,1,.871.871Zm-6.966-8.707h-.871a2.62,2.62,0,0,1-2.612-2.612v-.871h.871a2.62,2.62,0,0,1,2.612,2.612Zm10.448,14.8h-1.9a2.612,2.612,0,0,0,.157-.871V27.768a2.589,2.589,0,0,0-.679-1.741,2.589,2.589,0,0,0,.679-1.741V22.543a2.62,2.62,0,0,0-2.612-2.612H36.38v-.871h.871A4.354,4.354,0,0,0,41.6,14.707V12.966a.871.871,0,0,0-.871-.871H38.992A4.32,4.32,0,0,0,36.1,13.218a4.354,4.354,0,0,0-4.075-2.865H30.285a.871.871,0,0,0-.871.871v1.741a4.354,4.354,0,0,0,4.354,4.354h.871v2.612H30.285a2.62,2.62,0,0,0-2.612,2.612v1.741a2.589,2.589,0,0,0,.679,1.741,2.589,2.589,0,0,0-.679,1.741v1.741a2.612,2.612,0,0,0,.157.871H13.741V7.741H45.087ZM36.38,17.319v-.871a2.62,2.62,0,0,1,2.612-2.612h.871v.871a2.62,2.62,0,0,1-2.612,2.612Z" transform="translate(-1.293 -0.517)"/>
      <path id="Trazado_916233" data-name="Trazado 916233" d="M21.354,18.836H19.612a.871.871,0,0,1-.871-.871H17a2.612,2.612,0,0,0,2.612,2.612v.871h1.741v-.871a2.612,2.612,0,1,0,0-5.224H19.612a.871.871,0,1,1,0-1.741h1.741a.871.871,0,0,1,.871.871h1.741a2.612,2.612,0,0,0-2.612-2.612V11H19.612v.871a2.612,2.612,0,1,0,0,5.224h1.741a.871.871,0,1,1,0,1.741Z" transform="translate(-1.939 -1.164)"/>
      <path id="Trazado_916234" data-name="Trazado 916234" d="M16,26h1.741v1.741H16Z" transform="translate(-1.81 -3.103)"/>
      <path id="Trazado_916235" data-name="Trazado 916235" d="M20,26h5.224v1.741H20Z" transform="translate(-2.327 -3.103)"/>
      <path id="Trazado_916236" data-name="Trazado 916236" d="M16,30h8.707v1.741H16Z" transform="translate(-1.81 -3.62)"/>
    </g>
  </g>
</svg>
