<svg xmlns="http://www.w3.org/2000/svg" width="100" height="100" viewBox="0 0 100 100">
  <g id="Grupo_1150106" data-name="Grupo 1150106" transform="translate(16265.764 9019.525)">
    <g id="Grupo_1112415" data-name="Grupo 1112415" transform="translate(-16265.764 -9019.525)">
      <g id="Grupo_1098742" data-name="Grupo 1098742" transform="translate(0 0)">
        <g id="Rect치ngulo_400898" data-name="Rect치ngulo 400898" transform="translate(0.001 0)" fill="#ffea99" stroke="#997b00" stroke-width="3">
          <rect width="100" height="100" rx="50" stroke="none"/>
          <rect x="1.5" y="1.5" width="97" height="97" rx="48.5" fill="none"/>
        </g>
        <g id="Rect치ngulo_400907" data-name="Rect치ngulo 400907" transform="translate(0 0)" fill="none" stroke="#997b00" stroke-width="3">
          <rect width="100" height="100" rx="50" stroke="none"/>
          <rect x="1.5" y="1.5" width="97" height="97" rx="48.5" fill="none"/>
        </g>
      </g>
    </g>
    <g id="avatar_6002811" transform="translate(-16248.147 -9006.398)">
      <path id="Trazado_909716" data-name="Trazado 909716" d="M43.384,24.637a3.971,3.971,0,0,1-.108.961,4.33,4.33,0,0,1-4.21,3.346v2.364a4.318,4.318,0,0,1-1.479,3.249l-2.947,2.58L31.65,39.75a4.3,4.3,0,0,1-2.839,1.069H25.573a4.3,4.3,0,0,1-2.839-1.069l-2.99-2.612L16.8,34.557a4.318,4.318,0,0,1-1.479-3.249V28.944a4.33,4.33,0,0,1-4.21-3.346A3.971,3.971,0,0,1,11,24.637a4.318,4.318,0,0,1,4.318-4.307v-.151A3.2,3.2,0,0,1,17.542,17.1a32.84,32.84,0,0,1,9.65-1.1,32.839,32.839,0,0,1,9.65,1.1,3.2,3.2,0,0,1,2.224,3.076v.151a4.318,4.318,0,0,1,4.318,4.307Z" transform="translate(0.874 1.27)" fill="#ffe0b2"/>
      <path id="Trazado_909717" data-name="Trazado 909717" d="M37.993,20.33v-.151A3.2,3.2,0,0,0,35.77,17.1a32.839,32.839,0,0,0-9.65-1.1c-.567,0-1.1.009-1.619.023A29.865,29.865,0,0,1,32.531,17.1a3.2,3.2,0,0,1,2.224,3.075V31.308a4.318,4.318,0,0,1-1.479,3.249l-2.947,2.58-2.99,2.612A4.3,4.3,0,0,1,24.5,40.818h3.238a4.3,4.3,0,0,0,2.839-1.069l2.99-2.612,2.947-2.58a4.318,4.318,0,0,0,1.479-3.249V28.944A4.33,4.33,0,0,0,42.2,25.6a3.971,3.971,0,0,0,.108-.961,4.318,4.318,0,0,0-4.318-4.307Z" transform="translate(1.947 1.27)" fill="#dfc49c"/>
      <path id="Trazado_909718" data-name="Trazado 909718" d="M34.494,42.435a2.285,2.285,0,0,0-.119.227,2.137,2.137,0,0,0-.184.864v2.2a12.069,12.069,0,0,1-7.556,2.17C20.159,47.9,18,44.658,18,44.658a17.216,17.216,0,0,0,1.187-9.078l2.99,2.612a4.3,4.3,0,0,0,2.839,1.069h3.238a4.3,4.3,0,0,0,2.839-1.069l2.99-2.612A17.877,17.877,0,0,0,34.494,42.435Z" transform="translate(1.43 2.827)" fill="#ffe0b2"/>
      <path id="Trazado_909719" data-name="Trazado 909719" d="M34.51,45.059v7.578H16.159A2.165,2.165,0,0,1,14,50.478V45.458c2.429-.907,4.318-1.468,4.318-1.468s2.159,3.238,8.636,3.238A12.069,12.069,0,0,0,34.51,45.059Z" transform="translate(1.112 3.496)" fill="#ffdf00"/>
      <path id="Trazado_909720" data-name="Trazado 909720" d="M30,46.564v5.994h3.238V44.98A9.912,9.912,0,0,1,30,46.564Z" transform="translate(2.384 3.574)" fill="#fec108"/>
      <path id="Trazado_909721" data-name="Trazado 909721" d="M37.066,60.085H9V47.606c1.77-.853,3.713-1.641,5.4-2.256v5.019a2.165,2.165,0,0,0,2.159,2.159H34.907v5.4a2.159,2.159,0,0,0,.7,1.587,2.123,2.123,0,0,0,1.457.572Z" transform="translate(0.715 3.604)" fill="#02a9f4"/>
      <path id="Trazado_909722" data-name="Trazado 909722" d="M33.94,58.984a2.159,2.159,0,0,1-.7-1.587V52H30v5.4a2.159,2.159,0,0,0,.7,1.587,2.123,2.123,0,0,0,1.457.572H35.4a2.123,2.123,0,0,1-1.457-.572Z" transform="translate(2.384 4.132)" fill="#0377bc"/>
      <path id="Trazado_909723" data-name="Trazado 909723" d="M9.636,47.44V59.919H1C1,55.6,2.565,52.956,5.318,50.2A17.056,17.056,0,0,1,9.636,47.44Z" transform="translate(0.079 3.77)" fill="#ffdf00"/>
      <path id="Trazado_909724" data-name="Trazado 909724" d="M51.5,19.636c0,2.515-2.958,4.782-7.664,6.358a3.971,3.971,0,0,0,.108-.961,4.318,4.318,0,0,0-4.318-4.307v-.151A3.2,3.2,0,0,0,37.4,17.5a32.839,32.839,0,0,0-9.65-1.1,32.839,32.839,0,0,0-9.65,1.1,3.2,3.2,0,0,0-2.224,3.076v.151a4.318,4.318,0,0,0-4.318,4.307,3.971,3.971,0,0,0,.108.961C6.958,24.418,4,22.151,4,19.636c0-3.076,4.415-5.775,11.064-7.3A56.959,56.959,0,0,1,27.748,11a56.96,56.96,0,0,1,12.684,1.339C47.081,13.861,51.5,16.559,51.5,19.636Z" transform="translate(0.318 0.874)" fill="#ff9801"/>
      <path id="Trazado_909725" data-name="Trazado 909725" d="M38.8,12.339A56.959,56.959,0,0,0,26.119,11q-.816,0-1.619.021a55.546,55.546,0,0,1,11.064,1.318c6.649,1.522,11.064,4.221,11.064,7.3,0,1.858-1.619,3.579-4.359,4.988.013.137.041.269.041.409a3.971,3.971,0,0,1-.108.961c4.706-1.576,7.664-3.843,7.664-6.358,0-3.076-4.415-5.775-11.064-7.3Z" transform="translate(1.947 0.874)" fill="#f57c00"/>
      <path id="Trazado_909726" data-name="Trazado 909726" d="M39.617,13.133a56.959,56.959,0,0,0-12.684-1.339A56.96,56.96,0,0,0,14.25,13.133l1.328-9.348a3.256,3.256,0,0,1,4.059-2.677,28.694,28.694,0,0,0,7.3.972,28.694,28.694,0,0,0,7.3-.972A3.256,3.256,0,0,1,38.29,3.785Z" transform="translate(1.132 0.079)" fill="sienna"/>
      <path id="Trazado_909727" data-name="Trazado 909727" d="M33.653,3.785,34.89,12.5c1.158.181,2.274.392,3.329.637L36.891,3.785a3.256,3.256,0,0,0-4.059-2.677c-.3.079-.648.155-.984.233a3.229,3.229,0,0,1,1.8,2.444Z" transform="translate(2.531 0.079)" fill="#783e22"/>
      <path id="Trazado_909728" data-name="Trazado 909728" d="M60.313,59.222a2.123,2.123,0,0,1-1.457.572H35.107a2.123,2.123,0,0,1-1.457-.572l10.449-8.6,1.241-1.025a2.573,2.573,0,0,1,3.282,0l1.241,1.025Z" transform="translate(2.674 3.894)" fill="#ffeb3a"/>
      <path id="Trazado_909729" data-name="Trazado 909729" d="M59.821,43V58.181a2.159,2.159,0,0,1-.7,1.587l-10.449-8.6,5.754-4.739,5.214-4.285a2.137,2.137,0,0,1,.183.864Z" transform="translate(3.867 3.349)" fill="#ffdf00"/>
      <path id="Trazado_909730" data-name="Trazado 909730" d="M59.055,42.14,56,44.651V57.679l2.537,2.089a2.159,2.159,0,0,0,.7-1.587V43A2.137,2.137,0,0,0,59.055,42.14Z" transform="translate(4.45 3.349)" fill="#fec108"/>
      <path id="Trazado_909731" data-name="Trazado 909731" d="M59.214,42.478,54,46.764V37.88l4.609,3.8a2.181,2.181,0,0,1,.6.8Z" transform="translate(4.291 3.01)" fill="#ff9801"/>
      <path id="Trazado_909732" data-name="Trazado 909732" d="M38.384,37.88v8.884L33.17,42.478a2.284,2.284,0,0,1,.119-.227,2.243,2.243,0,0,1,.486-.572Z" transform="translate(2.636 3.01)" fill="#ff9801"/>
      <path id="Trazado_909733" data-name="Trazado 909733" d="M44.151,51.164,33.7,59.768a2.159,2.159,0,0,1-.7-1.587V43a2.137,2.137,0,0,1,.183-.864L38.4,46.425Z" transform="translate(2.622 3.349)" fill="#ffdf00"/>
      <path id="Trazado_909734" data-name="Trazado 909734" d="M55.271,36.079V46.993l-5.754,4.739-1.241-1.025a2.573,2.573,0,0,0-3.282,0l-1.241,1.025L38,46.993V36.079A1.079,1.079,0,0,1,39.079,35H54.192a1.079,1.079,0,0,1,1.079,1.079Z" transform="translate(3.019 2.781)" fill="#a4c400"/>
      <path id="Trazado_909735" data-name="Trazado 909735" d="M53.466,35H50.228a1.079,1.079,0,0,1,1.079,1.079V46.993L47.134,50.43a2.656,2.656,0,0,1,.417.276l1.241,1.025,5.754-4.739V36.079A1.079,1.079,0,0,0,53.466,35Z" transform="translate(3.745 2.781)" fill="#90ac00"/>
      <g id="Grupo_1181973" data-name="Grupo 1181973" transform="translate(41.019 37.781)">
        <circle id="Elipse_11689" data-name="Elipse 11689" cx="2.5" cy="2.5" r="2.5" transform="translate(7.003 4.963)" fill="#60a917"/>
        <path id="Trazado_909736" data-name="Trazado 909736" d="M54.318,36.079v3.238H52.159A2.165,2.165,0,0,1,50,37.159V35h3.238A1.079,1.079,0,0,1,54.318,36.079Z" transform="translate(-37.046 -35)" fill="#60a917"/>
        <path id="Trazado_909737" data-name="Trazado 909737" d="M42.318,35v2.159a2.165,2.165,0,0,1-2.159,2.159H38V36.079A1.079,1.079,0,0,1,39.079,35Z" transform="translate(-38 -35)" fill="#60a917"/>
      </g>
      <path id="Trazado_909745" data-name="Trazado 909745" d="M59.37,40.386V38.861A2.159,2.159,0,0,0,57.211,36.7H42.1a2.159,2.159,0,0,0-2.159,2.159v1.525l-3.346,2.752a17.062,17.062,0,0,1-.062-4.194l2.639-2.309a5.4,5.4,0,0,0,1.848-4.061V31.187a5.412,5.412,0,0,0,4-3.483c5.077-1.8,7.87-4.347,7.87-7.194,0-3.844-4.75-6.606-11.179-8.181L40.489,3.711a4.333,4.333,0,0,0-5.4-3.562,26.582,26.582,0,0,1-14.043,0,4.333,4.333,0,0,0-5.408,3.568l-1.224,8.615C7.988,13.9,3.238,16.666,3.238,20.51c0,2.847,2.794,5.389,7.87,7.194a5.412,5.412,0,0,0,4,3.483v1.387a5.4,5.4,0,0,0,1.844,4.061l2.638,2.309a16.212,16.212,0,0,1-.982,7.664c-2.2.691-10.957,3.578-13.978,6.6C1.852,55.992,0,58.837,0,63.688a1.079,1.079,0,0,0,1.079,1.079h60.45a3.238,3.238,0,0,0,3.238-3.238V46.356a3.224,3.224,0,0,0-1.181-2.5ZM19.079,48.725c1.057,1.065,3.747,3.079,8.987,3.079a14.6,14.6,0,0,0,6.477-1.339v4.588H17.271a1.079,1.079,0,0,1-1.079-1.079V49.707C17.293,49.31,18.295,48.973,19.079,48.725ZM42.1,43.178h1.079a3.238,3.238,0,0,0,3.238-3.238V38.861h6.477V39.94a3.238,3.238,0,0,0,3.238,3.238h1.079v6.09L52.539,53.11l-.559-.46a3.629,3.629,0,0,0-4.652,0l-.557.458L42.1,49.269Zm2.974,11.334L36.7,61.407V47.624Zm-27.8,2.7H34.543v4.318a3.2,3.2,0,0,0,.2,1.079H10.795V51.9c1.046-.488,2.154-.952,3.238-1.38v3.453a3.238,3.238,0,0,0,3.238,3.238ZM48.7,54.322a1.493,1.493,0,0,1,1.908,0l10.064,8.287H38.638Zm5.538.19,8.371-6.888V61.407Zm7.752-9.174L59.37,47.5V43.178ZM57.211,41.02H56.132a1.079,1.079,0,0,1-1.079-1.079V38.861h2.159ZM44.258,38.861V39.94a1.079,1.079,0,0,1-1.079,1.079H42.1V38.861ZM39.94,47.5l-2.619-2.159,2.619-2.159ZM17.779,4.021a2.143,2.143,0,0,1,.951-1.5A2.186,2.186,0,0,1,20.5,2.233a28.714,28.714,0,0,0,15.144,0,2.192,2.192,0,0,1,1.763.289,2.138,2.138,0,0,1,.95,1.5l1.112,7.82a62.815,62.815,0,0,0-22.8,0ZM10.856,25.3C7.412,23.918,5.4,22.173,5.4,20.51c0-3.574,9.309-7.556,22.669-7.556s22.669,3.982,22.669,7.556c0,1.663-2.014,3.408-5.459,4.793a5.378,5.378,0,0,0-4.343-4.685,4.241,4.241,0,0,0-2.893-3.277,34.713,34.713,0,0,0-9.974-1.149,34.713,34.713,0,0,0-9.974,1.151A4.241,4.241,0,0,0,15.2,20.618,5.378,5.378,0,0,0,10.856,25.3Zm6.415,7.271V30.215a1.079,1.079,0,0,0-1.079-1.079,3.219,3.219,0,0,1-1.079-6.261v1.943a1.079,1.079,0,1,0,2.159,0V21.449A2.117,2.117,0,0,1,18.736,19.4a31.961,31.961,0,0,1,9.33-1.052A31.962,31.962,0,0,1,37.4,19.4a2.117,2.117,0,0,1,1.465,2.046v3.369a1.079,1.079,0,1,0,2.159,0V22.875a3.219,3.219,0,0,1-1.079,6.261,1.079,1.079,0,0,0-1.079,1.079v2.359a3.239,3.239,0,0,1-1.106,2.438l-5.936,5.2a3.238,3.238,0,0,1-2.132.8H26.447a3.238,3.238,0,0,1-2.133-.8l-5.937-5.2a3.238,3.238,0,0,1-1.105-2.437ZM22.9,41.832a5.4,5.4,0,0,0,3.551,1.336h3.238a5.39,5.39,0,0,0,3.554-1.337l1.044-.914a18.475,18.475,0,0,0,.511,4.231,3.22,3.22,0,0,0-.252,1.207V48a11.476,11.476,0,0,1-6.477,1.648c-4.441,0-6.6-1.591-7.382-2.358a17.757,17.757,0,0,0,1.168-6.369ZM6.16,54.736A11.73,11.73,0,0,1,8.636,53v9.607H2.2C2.445,59.137,3.914,56.983,6.16,54.736Z"/>
      <path id="Trazado_909746" data-name="Trazado 909746" d="M46.238,45.477A3.238,3.238,0,1,0,43,42.238,3.238,3.238,0,0,0,46.238,45.477Zm0-4.318a1.079,1.079,0,1,1-1.079,1.079A1.079,1.079,0,0,1,46.238,41.159Z" transform="translate(3.417 3.099)"/>
    </g>
  </g>
</svg>
