<svg xmlns="http://www.w3.org/2000/svg" xmlns:xlink="http://www.w3.org/1999/xlink" width="118" height="118" viewBox="0 0 118 118">
  <defs>
    <filter id="Trazado_896985" x="0" y="0" width="118" height="118" filterUnits="userSpaceOnUse">
      <feOffset dy="3" input="SourceAlpha"/>
      <feGaussianBlur stdDeviation="3" result="blur"/>
      <feFlood flood-opacity="0.161"/>
      <feComposite operator="in" in2="blur"/>
      <feComposite in="SourceGraphic"/>
    </filter>
  </defs>
  <g id="Grupo_1182387" data-name="Grupo 1182387" transform="translate(-583.051 -4328.475)">
    <g id="Grupo_1181847" data-name="Grupo 1181847" transform="translate(592.051 4334.475)">
      <g id="Grupo_1111318" data-name="Grupo 1111318" transform="translate(0)">
        <g id="Grupo_1109826" data-name="Grupo 1109826" transform="translate(0 0)">
          <g id="Grupo_1098742" data-name="Grupo 1098742">
            <g transform="matrix(1, 0, 0, 1, -9, -6)" filter="url(#Trazado_896985)">
              <g id="Trazado_896985-2" data-name="Trazado 896985" transform="translate(9 6)" fill="#9ad354" opacity="0.859">
                <path d="M 49.99993515014648 98.5 C 43.45182037353516 98.5 37.10037612915039 97.21788024902344 31.12203598022461 94.68925476074219 C 25.34687805175781 92.24656677246094 20.15993499755859 88.74932098388672 15.70530700683594 84.29469299316406 C 11.25067806243896 79.84006500244141 7.753435134887695 74.65312194824219 5.310749530792236 68.87796783447266 C 2.782120943069458 62.89962387084961 1.500006556510925 56.54818344116211 1.500006556510925 50.00006866455078 C 1.500006556510925 43.45180892944336 2.782120943069458 37.10036849975586 5.310749530792236 31.12202453613281 C 7.753435134887695 25.34686851501465 11.25067806243896 20.15992546081543 15.70530700683594 15.70529651641846 C 20.15993499755859 11.25066757202148 25.34687805175781 7.753424644470215 31.12203598022461 5.310739040374756 C 37.10037612915039 2.782110452651978 43.45182037353516 1.499996185302734 49.99993515014648 1.499996185302734 C 56.54804992675781 1.499996185302734 62.89949417114258 2.782110452651978 68.87783813476562 5.310739040374756 C 74.65299224853516 7.753424644470215 79.83993530273438 11.25066757202148 84.29457855224609 15.70529651641846 C 88.74920654296875 20.15992546081543 92.24643707275391 25.34686851501465 94.68911743164062 31.12202453613281 C 97.21775054931641 37.10036849975586 98.4998779296875 43.45180892944336 98.4998779296875 49.99992370605469 C 98.4998779296875 56.54818344116211 97.21775054931641 62.89962387084961 94.68911743164062 68.87796783447266 C 92.24643707275391 74.65312194824219 88.74920654296875 79.84006500244141 84.29457855224609 84.29469299316406 C 79.83993530273438 88.74932098388672 74.65299224853516 92.24656677246094 68.87783813476562 94.68925476074219 C 62.89949417114258 97.21788024902344 56.54804992675781 98.5 49.99993515014648 98.5 Z" stroke="none"/>
                <path d="M 49.99993515014648 2.999992370605469 C 43.65365982055664 2.999992370605469 37.49881362915039 4.242256164550781 31.70636749267578 6.6922607421875 C 26.10999298095703 9.059318542480469 21.08332061767578 12.44859313964844 16.76596832275391 16.76596832275391 C 12.44859313964844 21.08332061767578 9.059318542480469 26.10999298095703 6.6922607421875 31.70636749267578 C 4.242256164550781 37.49880981445312 3 43.65365600585938 3 50.00005722045898 C 3 56.34633636474609 4.242256164550781 62.50118255615234 6.6922607421875 68.29362487792969 C 9.059318542480469 73.88999938964844 12.44859313964844 78.91667175292969 16.76596832275391 83.23402404785156 C 21.08332061767578 87.55139923095703 26.10999298095703 90.940673828125 31.70636749267578 93.30773162841797 C 37.49881362915039 95.75773620605469 43.65365982055664 97 49.99993515014648 97 C 56.34621047973633 97 62.50105667114258 95.75773620605469 68.29350280761719 93.30773162841797 C 73.88987731933594 90.940673828125 78.91654968261719 87.55139923095703 83.23390197753906 83.23402404785156 C 87.55126953125 78.91667175292969 90.9405517578125 73.88999938964844 93.30760955810547 68.29362487792969 C 95.75761413574219 62.50118255615234 96.99987030029297 56.34633636474609 96.99987030029297 49.99993515014648 C 96.99987030029297 43.65365600585938 95.75761413574219 37.49880981445312 93.30760955810547 31.70636749267578 C 90.9405517578125 26.10999298095703 87.55126953125 21.08332061767578 83.23390197753906 16.76596832275391 C 78.91654968261719 12.44859313964844 73.88987731933594 9.059318542480469 68.29350280761719 6.6922607421875 C 62.50105667114258 4.242256164550781 56.34621047973633 2.999992370605469 49.99993515014648 2.999992370605469 M 49.99993515014648 -7.62939453125e-06 C 77.6141357421875 -7.62939453125e-06 99.99987030029297 22.38573455810547 99.99987030029297 49.99993515014648 L 99.99987030029297 50.00005722045898 C 99.99987030029297 77.6142578125 77.6141357421875 100 49.99993515014648 100 C 22.38573455810547 100 0 77.6142578125 0 50.00005722045898 L 0 49.99993515014648 C 0 22.38573455810547 22.38573455810547 -7.62939453125e-06 49.99993515014648 -7.62939453125e-06 Z" stroke="none" fill="#fff"/>
              </g>
            </g>
            <g id="Rectángulo_400907" data-name="Rectángulo 400907" transform="translate(0)" fill="none" stroke="#fff" stroke-width="3">
              <rect width="100" height="100" rx="50" stroke="none"/>
              <rect x="1.5" y="1.5" width="97" height="97" rx="48.5" fill="none"/>
            </g>
          </g>
        </g>
      </g>
    </g>
    <g id="_x33_31_x2C__Farm_x2C__Farmer_x2C__Garden_x2C__Grow_x2C__Smart" transform="translate(589.375 4327.037)">
      <g id="Grupo_1182386" data-name="Grupo 1182386" transform="translate(21 26)">
        <ellipse id="Elipse_11701" data-name="Elipse 11701" cx="4" cy="3.5" rx="4" ry="3.5" transform="translate(41.18 47.401)" fill="#c03a2b"/>
        <path id="Trazado_915370" data-name="Trazado 915370" d="M53.734,96A2.734,2.734,0,1,1,51,98.734,2.733,2.733,0,0,1,53.734,96Z" transform="translate(-46.899 -86.432)" fill="#c03a2b"/>
        <path id="Trazado_915371" data-name="Trazado 915371" d="M75.244,405.295v1.64H49a5.467,5.467,0,0,1,6.633-5.342,6.56,6.56,0,0,1,12.8-.841,4.922,4.922,0,0,1,6.815,4.542Z" transform="translate(-45.173 -345.426)" fill="#5a5a5a"/>
        <path id="Trazado_915372" data-name="Trazado 915372" d="M58.772,279.9v.119l-.021.137c-3.684.908-7.35.262-9.922-2.115s-3.506-5.98-2.894-9.724c3.684-.908,7.35-.262,9.922,2.115a9.585,9.585,0,0,1,2.914,5.563V279.9Z" transform="translate(-42.371 -234.854)" fill="#ba6220"/>
        <path id="Trazado_915373" data-name="Trazado 915373" d="M141.068,279.9v-3.8l-.008-.053a9.6,9.6,0,0,1,2.922-5.617c2.572-2.377,6.238-3.022,9.922-2.115.614,3.744-.321,7.348-2.894,9.724s-6.238,3.022-9.922,2.115c-.011-.067-.02-.131-.029-.2Z" transform="translate(-124.65 -234.854)" fill="#e57e25"/>
        <path id="Trazado_915374" data-name="Trazado 915374" d="M110.161,146c2.984,1.894,4.881,4.733,4.881,7.909s-1.9,6.016-4.881,7.91c-2.984-1.894-4.881-4.735-4.881-7.91S107.177,147.894,110.161,146Z" transform="translate(-93.76 -129.598)" fill="#e57e25"/>
        <path id="Trazado_915375" data-name="Trazado 915375" d="M279.807,76.858a12.691,12.691,0,1,1-8.975-3.718A12.649,12.649,0,0,1,279.807,76.858Z" transform="translate(-225.726 -66.697)" fill="#24ae5f"/>
        <path id="Trazado_915376" data-name="Trazado 915376" d="M443.333,356.4a1.366,1.366,0,1,1-.966-.4A1.363,1.363,0,0,1,443.333,356.4Z" transform="translate(-383.592 -310.894)"/>
        <path id="Trazado_915377" data-name="Trazado 915377" d="M253.333,376.4a1.366,1.366,0,1,1-.966-.4A1.363,1.363,0,0,1,253.333,376.4Z" transform="translate(-219.562 -328.16)"/>
        <path id="Trazado_915378" data-name="Trazado 915378" d="M113.333,46.4a1.366,1.366,0,1,1-.966-.4A1.363,1.363,0,0,1,113.333,46.4Z" transform="translate(-98.698 -43.266)"/>
        <path id="Trazado_915379" data-name="Trazado 915379" d="M43.333,176.4a1.366,1.366,0,1,1-.966-.4A1.363,1.363,0,0,1,43.333,176.4Z" transform="translate(-38.266 -155.497)"/>
        <path id="Trazado_915380" data-name="Trazado 915380" d="M33.333,376.4a1.366,1.366,0,1,1-.966-.4A1.363,1.363,0,0,1,33.333,376.4Z" transform="translate(-29.633 -328.16)"/>
        <path id="Trazado_915381" data-name="Trazado 915381" d="M66.61,399.669a1.367,1.367,0,0,1-1.367-1.367v-1.64a3.555,3.555,0,0,0-4.923-3.28,1.367,1.367,0,0,1-1.84-.885,5.194,5.194,0,0,0-10.129.664,1.367,1.367,0,0,1-1.643,1.136,4.1,4.1,0,0,0-4.975,4.006,1.367,1.367,0,1,1-2.734,0,6.842,6.842,0,0,1,6.834-6.834h.119a7.926,7.926,0,0,1,14.666-1,6.292,6.292,0,0,1,7.358,6.2v1.64a1.367,1.367,0,0,1-1.367,1.367Z" transform="translate(-36.54 -336.793)"/>
        <path id="Trazado_915382" data-name="Trazado 915382" d="M132.357,263.488a1.367,1.367,0,0,1-1.367-1.367V253.1a1.367,1.367,0,1,1,2.734,0v9.024A1.367,1.367,0,0,1,132.357,263.488Z" transform="translate(-115.956 -220.876)"/>
        <path id="Trazado_915383" data-name="Trazado 915383" d="M132.357,353.8a1.367,1.367,0,0,1-1.367-1.367v-5.53a1.367,1.367,0,1,1,2.734,0v5.53A1.367,1.367,0,0,1,132.357,353.8Z" transform="translate(-115.956 -301.864)"/>
        <path id="Trazado_915384" data-name="Trazado 915384" d="M101.528,154.552a1.367,1.367,0,0,1-.733-.213c-3.505-2.225-5.515-5.529-5.515-9.064s2.01-6.837,5.515-9.062a1.367,1.367,0,0,1,1.465,0c3.505,2.225,5.515,5.529,5.515,9.063s-2.01,6.839-5.515,9.064A1.365,1.365,0,0,1,101.528,154.552Zm0-15.527a7.317,7.317,0,0,0,0,12.5,7.317,7.317,0,0,0,0-12.5Z" transform="translate(-85.127 -120.964)"/>
        <path id="Trazado_915385" data-name="Trazado 915385" d="M132.637,314.644a1.367,1.367,0,0,1-.921-2.378l6.171-5.621a1.367,1.367,0,0,1,1.841,2.021l-6.171,5.62A1.361,1.361,0,0,1,132.637,314.644Z" transform="translate(-116.198 -267.978)"/>
        <path id="Trazado_915386" data-name="Trazado 915386" d="M135.541,273.28h0a14.548,14.548,0,0,1-3.474-.433,1.367,1.367,0,0,1-1.022-1.107c-.012-.071-.022-.14-.031-.209,0-.023-.007-.046-.011-.068a1.473,1.473,0,0,1-.015-.2v-3.8a1.367,1.367,0,0,1,.016-.209c0-.03.01-.06.016-.091a10.968,10.968,0,0,1,3.34-6.375,11.114,11.114,0,0,1,7.7-2.871,14.551,14.551,0,0,1,3.474.433,1.367,1.367,0,0,1,1.022,1.106c.714,4.354-.495,8.344-3.315,10.949a11.115,11.115,0,0,1-7.7,2.871Zm-3.086-2.01-.1.015Zm1.267-.874a11.4,11.4,0,0,0,1.818.149,8.43,8.43,0,0,0,5.847-2.145,8.988,8.988,0,0,0,2.589-7.581,11.445,11.445,0,0,0-1.915-.165,8.43,8.43,0,0,0-5.847,2.145,8.258,8.258,0,0,0-2.493,4.782V270.4Z" transform="translate(-115.955 -226.221)"/>
        <path id="Trazado_915387" data-name="Trazado 915387" d="M93.228,314.645a1.362,1.362,0,0,1-.92-.356l-6.171-5.62a1.367,1.367,0,0,1,1.841-2.021l6.171,5.62a1.367,1.367,0,0,1-.921,2.377Z" transform="translate(-76.848 -267.979)"/>
        <path id="Trazado_915388" data-name="Trazado 915388" d="M46.964,273.28a11.114,11.114,0,0,1-7.7-2.871c-2.819-2.6-4.027-6.594-3.315-10.948a1.367,1.367,0,0,1,1.022-1.107,14.551,14.551,0,0,1,3.474-.433,11.114,11.114,0,0,1,7.7,2.871,10.953,10.953,0,0,1,3.33,6.316q.01.051.017.1l.008.048a1.364,1.364,0,0,1,.016.208v3.8a1.354,1.354,0,0,1-.014.194l-.008.059c0,.029-.009.06-.014.092l-.016.109a1.367,1.367,0,0,1-1.025,1.129,14.559,14.559,0,0,1-3.474.433Zm-8.436-12.46a8.992,8.992,0,0,0,2.588,7.581,8.429,8.429,0,0,0,5.848,2.145,11.4,11.4,0,0,0,1.818-.149v-2.818a8.252,8.252,0,0,0-2.492-4.778,8.43,8.43,0,0,0-5.848-2.146A11.437,11.437,0,0,0,38.528,260.82Z" transform="translate(-33.731 -226.221)"/>
        <path id="Trazado_915389" data-name="Trazado 915389" d="M81.142,468.734H22.367a1.367,1.367,0,0,1,0-2.734H81.142a1.367,1.367,0,0,1,0,2.734Z" transform="translate(-21 -405.858)"/>
        <path id="Trazado_915390" data-name="Trazado 915390" d="M45.1,94.2a4.1,4.1,0,1,1,4.1-4.1A4.105,4.105,0,0,1,45.1,94.2Zm0-5.467A1.367,1.367,0,1,0,46.467,90.1,1.368,1.368,0,0,0,45.1,88.734Z" transform="translate(-38.266 -77.799)"/>
        <path id="Trazado_915391" data-name="Trazado 915391" d="M316.467,366.935a5.467,5.467,0,1,1,5.467-5.467A5.473,5.473,0,0,1,316.467,366.935Zm0-8.2a2.734,2.734,0,1,0,2.734,2.734A2.737,2.737,0,0,0,316.467,358.734Z" transform="translate(-271.361 -310.894)"/>
        <path id="Trazado_915392" data-name="Trazado 915392" d="M262.2,91.259a14.061,14.061,0,1,1,9.941-4.118A13.972,13.972,0,0,1,262.2,91.259Zm0-25.385a11.327,11.327,0,1,0,8.009,3.318A11.256,11.256,0,0,0,262.2,65.874Z" transform="translate(-217.093 -58.063)"/>
        <path id="Trazado_915393" data-name="Trazado 915393" d="M342.367,240.138A1.367,1.367,0,0,1,341,238.771v-1.814a1.367,1.367,0,1,1,2.734,0v1.814A1.367,1.367,0,0,1,342.367,240.138Z" transform="translate(-297.261 -206.942)"/>
        <path id="Trazado_915394" data-name="Trazado 915394" d="M342.367,67.688A1.367,1.367,0,0,1,341,66.321V64.507a1.367,1.367,0,0,1,2.734,0v1.814A1.367,1.367,0,0,1,342.367,67.688Z" transform="translate(-297.261 -58.064)"/>
        <path id="Trazado_915395" data-name="Trazado 915395" d="M251.321,158.734h-1.814a1.367,1.367,0,0,1,0-2.734h1.814a1.367,1.367,0,1,1,0,2.734Z" transform="translate(-217.093 -138.231)"/>
        <path id="Trazado_915396" data-name="Trazado 915396" d="M423.77,158.734h-1.814a1.367,1.367,0,1,1,0-2.734h1.814a1.367,1.367,0,0,1,0,2.734Z" transform="translate(-365.971 -138.231)"/>
        <path id="Trazado_915397" data-name="Trazado 915397" d="M276.707,216.3a1.367,1.367,0,0,1-.966-2.333l1.282-1.282a1.367,1.367,0,1,1,1.933,1.933l-1.282,1.282A1.363,1.363,0,0,1,276.707,216.3Z" transform="translate(-240.576 -186.818)"/>
        <path id="Trazado_915398" data-name="Trazado 915398" d="M398.647,94.356a1.367,1.367,0,0,1-.966-2.333l1.282-1.282a1.367,1.367,0,0,1,1.933,1.933l-1.282,1.282A1.363,1.363,0,0,1,398.647,94.356Z" transform="translate(-345.848 -81.546)"/>
        <path id="Trazado_915399" data-name="Trazado 915399" d="M277.989,94.356a1.362,1.362,0,0,1-.966-.4l-1.282-1.282a1.367,1.367,0,0,1,1.933-1.933l1.282,1.282a1.367,1.367,0,0,1-.967,2.333Z" transform="translate(-240.576 -81.546)"/>
        <path id="Trazado_915400" data-name="Trazado 915400" d="M399.929,216.3a1.362,1.362,0,0,1-.967-.4l-1.282-1.282a1.367,1.367,0,0,1,1.933-1.933l1.282,1.282a1.367,1.367,0,0,1-.967,2.333Z" transform="translate(-345.848 -186.819)"/>
        <path id="Trazado_915401" data-name="Trazado 915401" d="M319.464,149.091a1.366,1.366,0,0,1-.967-.4l-3.626-3.628a1.367,1.367,0,0,1,1.933-1.933l2.93,2.931,2.745-1.373a1.367,1.367,0,0,1,1.223,2.445l-3.626,1.814A1.365,1.365,0,0,1,319.464,149.091Z" transform="translate(-274.357 -126.775)"/>
        <path id="Trazado_915402" data-name="Trazado 915402" d="M230.136,64.272a1.367,1.367,0,0,1,0-2.734,16.4,16.4,0,1,0-16.4-16.4,1.367,1.367,0,0,1-2.734,0,19.136,19.136,0,1,1,19.136,19.136Z" transform="translate(-185.03 -26)"/>
      </g>
    </g>
  </g>
</svg>
