<svg xmlns="http://www.w3.org/2000/svg" width="85" height="85" viewBox="0 0 85 85">
  <g id="Grupo_1182439" data-name="Grupo 1182439" transform="translate(-180 -8535.664)">
    <g id="Grupo_1181894" data-name="Grupo 1181894" transform="translate(16445.764 17555.189)">
      <g id="Grupo_1112415" data-name="Grupo 1112415" transform="translate(-16265.764 -9019.525)">
        <g id="Grupo_1098742" data-name="Grupo 1098742" transform="translate(0 0)">
          <g id="Rectángulo_400898" data-name="Rectángulo 400898" transform="translate(0.001 0)" fill="#ffea99" stroke="#997b00" stroke-width="3">
            <rect width="85" height="85" rx="42.5" stroke="none"/>
            <rect x="1.5" y="1.5" width="82" height="82" rx="41" fill="none"/>
          </g>
          <g id="Rectángulo_400907" data-name="Rectángulo 400907" transform="translate(0 0)" fill="none" stroke="#997b00" stroke-width="3">
            <rect width="85" height="85" rx="42.5" stroke="none"/>
            <rect x="1.5" y="1.5" width="82" height="82" rx="41" fill="none"/>
          </g>
        </g>
      </g>
    </g>
    <g id="growth_555099_1_" data-name="growth_555099 (1)" transform="translate(194.807 8550.485)">
      <rect id="Rectángulo_408461" data-name="Rectángulo 408461" width="9.224" height="19.46" transform="translate(1.098 34.811)" fill="#43cfef"/>
      <g id="Grupo_1182437" data-name="Grupo 1182437" transform="translate(18.94 22.928)">
        <path id="Trazado_915520" data-name="Trazado 915520" d="M255.978,220.759h0c0-.019-.438-4.357,1.973-6.723s6.676-1.946,6.694-1.944h0c0,.036.536,4.465-1.87,6.826S255.978,220.759,255.978,220.759Z" transform="translate(-247.199 -212.061)" fill="#68e09e"/>
        <path id="Trazado_915521" data-name="Trazado 915521" d="M176.968,218.916c-2.407-2.362-1.873-6.79-1.87-6.826h0c.019,0,4.283-.421,6.694,1.944s1.976,6.7,1.973,6.723h0S179.384,221.287,176.968,218.916Z" transform="translate(-175.045 -212.059)" fill="#68e09e"/>
      </g>
      <path id="Trazado_915522" data-name="Trazado 915522" d="M153.016,298.548a13.912,13.912,0,0,1,23.663,2.293l.59,1.219-7.572,3.946Z" transform="translate(-136.457 -261.3)" fill="#ffc757"/>
      <path id="Trazado_915523" data-name="Trazado 915523" d="M138.492,332.615h0a3.246,3.246,0,0,0-3.941-.739l-16.3,8.5-5.132-2.433a3.228,3.228,0,0,0,.375-1.514h0a3.243,3.243,0,0,0-3.243-3.243H95.329v12.108l14.23,4.235a9.888,9.888,0,0,0,7.538-.787l20.5-11.132A3.246,3.246,0,0,0,138.492,332.615Z" transform="translate(-85.008 -295.665)" fill="#ffac7f"/>
      <rect id="Rectángulo_408462" data-name="Rectángulo 408462" width="31.551" height="16.433" transform="translate(11.916 1.081)" fill="#00b783"/>
      <g id="Grupo_1182438" data-name="Grupo 1182438" transform="translate(11.917 1.081)">
        <path id="Trazado_915524" data-name="Trazado 915524" d="M363.9,10a4.108,4.108,0,0,0,4.108,4.108V10Z" transform="translate(-336.454 -9.999)" fill="#68e09e"/>
        <path id="Trazado_915525" data-name="Trazado 915525" d="M110.084,14.107A4.108,4.108,0,0,0,114.192,10h-4.108Z" transform="translate(-110.084 -9.999)" fill="#68e09e"/>
        <path id="Trazado_915526" data-name="Trazado 915526" d="M114.192,128.1a4.108,4.108,0,0,0-4.108-4.108V128.1Z" transform="translate(-110.084 -111.662)" fill="#68e09e"/>
        <path id="Trazado_915527" data-name="Trazado 915527" d="M368.005,123.987A4.108,4.108,0,0,0,363.9,128.1h4.108Z" transform="translate(-336.454 -111.662)" fill="#68e09e"/>
        <circle id="Elipse_11704" data-name="Elipse 11704" cx="4.324" cy="4.324" r="4.324" transform="translate(11.461 3.903)" fill="#68e09e"/>
      </g>
      <path id="Trazado_915528" data-name="Trazado 915528" d="M40.06,352.586a1.081,1.081,0,0,0,.76-1.85l-.009-.009a1.081,1.081,0,0,0-1.52,1.538l.009.009A1.078,1.078,0,0,0,40.06,352.586Z" transform="translate(-34.742 -312.528)"/>
      <path id="Trazado_915529" data-name="Trazado 915529" d="M54.3,36.238a4.316,4.316,0,0,0-5.254-.986L41.275,39.3a1.081,1.081,0,0,0-.08-.229,14.995,14.995,0,0,0-7.67-7.3,6.663,6.663,0,0,0,1.748-1.22c2.6-2.552,2.264-6.969,2.193-7.667a1.082,1.082,0,0,0-1-1.009c-.593-.053-4.889-.339-7.529,2.252-.056.055-.109.112-.163.168v-5.7H43.467a1.081,1.081,0,0,0,1.081-1.081V1.081A1.081,1.081,0,0,0,43.467,0H11.917a1.081,1.081,0,0,0-1.081,1.081V17.514a1.081,1.081,0,0,0,1.081,1.081H26.611V24.3c-.055-.058-.11-.117-.167-.173-2.629-2.579-6.9-2.307-7.517-2.252a1.081,1.081,0,0,0-1.013,1c-.069.664-.422,5.111,2.192,7.676h0a6.669,6.669,0,0,0,1.749,1.22c-.33.14-.656.291-.978.456a15.126,15.126,0,0,0-5.057,4.2H11.4V34.811a1.081,1.081,0,0,0-1.081-1.081H1.1a1.081,1.081,0,1,0,0,2.162H9.24v17.3H1.1a1.081,1.081,0,0,0,0,2.162h9.224A1.081,1.081,0,0,0,11.4,54.271v-3.2L24.243,54.9a10.9,10.9,0,0,0,8.363-.873L39.5,50.281a1.081,1.081,0,0,0-1.032-1.9l-6.893,3.743a8.745,8.745,0,0,1-6.714.7L11.4,48.819V38.6H25.24a2.162,2.162,0,1,1,0,4.324H17.456a1.081,1.081,0,1,0,0,2.162H25.24a4.314,4.314,0,0,0,3.224-1.446l4.313,2.045a1.081,1.081,0,0,0,.963-.018l16.3-8.5a2.165,2.165,0,0,1,2.033,3.822l-5.739,3.116a1.081,1.081,0,1,0,1.032,1.9l5.739-3.116a4.327,4.327,0,0,0,1.19-6.653ZM13,12.439V6.156a5.2,5.2,0,0,0,3.994-3.994h21.4a5.2,5.2,0,0,0,3.994,3.994v6.282a5.2,5.2,0,0,0-3.994,3.994h-21.4A5.2,5.2,0,0,0,13,12.439Zm27.643,3.994a3.042,3.042,0,0,1,1.746-1.746v1.746ZM42.386,3.908a3.042,3.042,0,0,1-1.746-1.746h1.746ZM14.744,2.162A3.042,3.042,0,0,1,13,3.908V2.162ZM13,14.687a3.042,3.042,0,0,1,1.746,1.746H13V14.687ZM30.45,25.674a7.472,7.472,0,0,1,4.908-1.66c.006,1.295-.2,3.625-1.6,5A6.037,6.037,0,0,1,30.4,30.481l2.431-2.431A1.081,1.081,0,1,0,31.3,26.521l-2.366,2.366A5.946,5.946,0,0,1,30.45,25.674Zm-8.83,3.339c-1.4-1.374-1.6-3.7-1.6-5a7.475,7.475,0,0,1,4.908,1.66,5.945,5.945,0,0,1,1.517,3.213l-2.366-2.366a1.081,1.081,0,1,0-1.529,1.529l2.423,2.423a6.044,6.044,0,0,1-3.355-1.46ZM33.218,43.5l-3.761-1.783a4.321,4.321,0,0,0-4.217-5.281H18.7a12.707,12.707,0,0,1,8.995-3.678,12.908,12.908,0,0,1,11.556,7.254,1.084,1.084,0,0,0,.172.255Z" transform="translate(0)"/>
      <path id="Trazado_915530" data-name="Trazado 915530" d="M387.835,426.523a1.082,1.082,0,1,0,.764.317A1.089,1.089,0,0,0,387.835,426.523Z" transform="translate(-344.923 -380.407)"/>
      <path id="Trazado_915531" data-name="Trazado 915531" d="M216.819,43.4a1.081,1.081,0,1,0-2.129-.375,3.244,3.244,0,1,1-3.948-3.724,1.081,1.081,0,1,0-.5-2.1,5.406,5.406,0,1,0,6.578,6.2Z" transform="translate(-183.793 -33.154)"/>
      <path id="Trazado_915532" data-name="Trazado 915532" d="M275.1,50.076a1.081,1.081,0,0,0,1.6-1.451,1.17,1.17,0,0,0-.371-.284,1,1,0,0,1,.294.2,1.081,1.081,0,0,0-1.549,1.508Zm.768-1.837.04,0c-.028,0-.056,0-.084,0Zm-.053,0a1.079,1.079,0,0,0-.673.284A1.058,1.058,0,0,1,275.813,48.241Z" transform="translate(-245.046 -43.004)"/>
    </g>
  </g>
</svg>
