<svg xmlns="http://www.w3.org/2000/svg" width="85" height="85" viewBox="0 0 85 85">
  <g id="Grupo_1182414" data-name="Grupo 1182414" transform="translate(-180 -5604.06)">
    <g id="Grupo_1181850" data-name="Grupo 1181850" transform="translate(16445.764 14623.585)">
      <g id="Grupo_1112415" data-name="Grupo 1112415" transform="translate(-16265.764 -9019.525)">
        <g id="Grupo_1098742" data-name="Grupo 1098742" transform="translate(0 0)">
          <g id="Rect치ngulo_400898" data-name="Rect치ngulo 400898" transform="translate(0.001 0)" fill="#ffea99" stroke="#997b00" stroke-width="3">
            <rect width="85" height="85" rx="42.5" stroke="none"/>
            <rect x="1.5" y="1.5" width="82" height="82" rx="41" fill="none"/>
          </g>
          <g id="Rect치ngulo_400907" data-name="Rect치ngulo 400907" transform="translate(0 0)" fill="none" stroke="#997b00" stroke-width="3">
            <rect width="85" height="85" rx="42.5" stroke="none"/>
            <rect x="1.5" y="1.5" width="82" height="82" rx="41" fill="none"/>
          </g>
        </g>
      </g>
    </g>
    <g id="saving_4804726" transform="translate(191.051 5616)">
      <g id="Grupo_1182412" data-name="Grupo 1182412">
        <g id="Grupo_1182394" data-name="Grupo 1182394">
          <path id="Trazado_915477" data-name="Trazado 915477" d="M50,33H47a3.995,3.995,0,0,1-4-4h3a3.995,3.995,0,0,1,4,4Z" fill="#a0d468"/>
        </g>
        <g id="Grupo_1182395" data-name="Grupo 1182395">
          <path id="Trazado_915478" data-name="Trazado 915478" d="M16,29h3a3.995,3.995,0,0,1-4,4H12a3.995,3.995,0,0,1,4-4Z" fill="#a0d468"/>
        </g>
        <g id="Grupo_1182396" data-name="Grupo 1182396">
          <path id="Trazado_915479" data-name="Trazado 915479" d="M56,42h5a6,6,0,0,1-6,6H50A6,6,0,0,1,56,42Z" fill="#b4dd7f"/>
        </g>
        <g id="Grupo_1182397" data-name="Grupo 1182397">
          <path id="Trazado_915480" data-name="Trazado 915480" d="M56,20h5a6,6,0,0,1-6,6H50A6,6,0,0,1,56,20Z" fill="#b4dd7f"/>
        </g>
        <g id="Grupo_1182398" data-name="Grupo 1182398">
          <path id="Trazado_915481" data-name="Trazado 915481" d="M56,32h5a6,6,0,0,1-6,6H50A6,6,0,0,1,56,32Z" fill="#b4dd7f"/>
        </g>
        <g id="Grupo_1182399" data-name="Grupo 1182399">
          <path id="Trazado_915482" data-name="Trazado 915482" d="M12,38H7a6,6,0,0,1-6-6H6A6,6,0,0,1,12,38Z" fill="#b4dd7f"/>
        </g>
        <g id="Grupo_1182400" data-name="Grupo 1182400">
          <path id="Trazado_915483" data-name="Trazado 915483" d="M6,42a6,6,0,0,1,6,6H7a6,6,0,0,1-6-6Z" fill="#b4dd7f"/>
        </g>
        <g id="Grupo_1182401" data-name="Grupo 1182401">
          <path id="Trazado_915484" data-name="Trazado 915484" d="M12,26H7a6,6,0,0,1-6-6H6A6,6,0,0,1,12,26Z" fill="#b4dd7f"/>
        </g>
        <g id="Grupo_1182402" data-name="Grupo 1182402">
          <path id="Trazado_915485" data-name="Trazado 915485" d="M26.16,10a1.423,1.423,0,0,0-1.39,1.14,4.823,4.823,0,0,1-1.67,2.77A4.751,4.751,0,0,1,20.06,15H19a3,3,0,0,0-2.11.87,7.152,7.152,0,0,1,3.07-9.85L20,6a6.208,6.208,0,0,1,6.1-5h9.54a10.36,10.36,0,0,1,9.37,14.78A2.98,2.98,0,0,0,43,15H34.59A3.593,3.593,0,0,1,31,11.41a1.414,1.414,0,0,0-2.41-1L28,11l-.59-.59a1.415,1.415,0,0,0-1-.41Z" fill="#b27946"/>
        </g>
        <g id="Grupo_1182403" data-name="Grupo 1182403">
          <path id="Trazado_915486" data-name="Trazado 915486" d="M44,52a3,3,0,0,0-3-3H40V46a4,4,0,0,0-1.6-3.2L36,41V39a2.006,2.006,0,0,0-2-2H31a3.995,3.995,0,0,0,4-4s15,3,15,16v2a6,6,0,0,1-6,6H41a3,3,0,0,0,3-3Z" fill="#fcd770"/>
        </g>
        <g id="Grupo_1182404" data-name="Grupo 1182404">
          <path id="Trazado_915487" data-name="Trazado 915487" d="M18,52v2a3,3,0,0,0,3,3H18a6,6,0,0,1-6-6V49c0-13,15-16,15-16a4,4,0,0,0,4,4H28a2.006,2.006,0,0,0-2,2v2l-2.4,1.8A4,4,0,0,0,22,46v3H21A3,3,0,0,0,18,52Z" fill="#fcd770"/>
        </g>
        <g id="Grupo_1182405" data-name="Grupo 1182405">
          <path id="Trazado_915488" data-name="Trazado 915488" d="M36,39v2H26V39a2.006,2.006,0,0,1,2-2h6A2.006,2.006,0,0,1,36,39Z" fill="#aab2bd"/>
        </g>
        <g id="Grupo_1182406" data-name="Grupo 1182406">
          <path id="Trazado_915489" data-name="Trazado 915489" d="M38.4,42.8,36,41H26l-2.4,1.8A4,4,0,0,0,22,46V57a4,4,0,0,0,4,4H36a4,4,0,0,0,4-4V46A4,4,0,0,0,38.4,42.8Z" fill="#e6e9ed"/>
        </g>
        <g id="Grupo_1182407" data-name="Grupo 1182407">
          <path id="Trazado_915490" data-name="Trazado 915490" d="M24,53v2a2.006,2.006,0,0,1-2,2H21a3,3,0,0,1-3-3V52a3,3,0,0,1,3-3h1a2.006,2.006,0,0,1,2,2Z" fill="#f0d0b4"/>
        </g>
        <g id="Grupo_1182408" data-name="Grupo 1182408">
          <path id="Trazado_915491" data-name="Trazado 915491" d="M38,53V51a2,2,0,0,1,2-2h1a3,3,0,0,1,3,3v2a3,3,0,0,1-3,3H40a2,2,0,0,1-2-2Z" fill="#f0d0b4"/>
        </g>
        <g id="Grupo_1182409" data-name="Grupo 1182409">
          <path id="Trazado_915492" data-name="Trazado 915492" d="M45.01,15.78A2.961,2.961,0,0,1,46,18a3,3,0,0,1-3,3H42V15h1a2.98,2.98,0,0,1,2.01.78Z" fill="#f0d0b4"/>
        </g>
        <g id="Grupo_1182410" data-name="Grupo 1182410">
          <path id="Trazado_915493" data-name="Trazado 915493" d="M24.77,11.14A1.423,1.423,0,0,1,26.16,10h.25a1.415,1.415,0,0,1,1,.41L28,11l.59-.59a1.414,1.414,0,0,1,2.41,1A3.593,3.593,0,0,0,34.59,15H42v6.07a9,9,0,0,1-5.46,8.27l-.33.14A2.014,2.014,0,0,0,35,31.32V33a4,4,0,1,1-8,0V31.32a2.014,2.014,0,0,0-1.21-1.84l-.33-.14A9,9,0,0,1,20,21.07V15h.06a4.751,4.751,0,0,0,3.04-1.09,4.823,4.823,0,0,0,1.67-2.77Z" fill="#f0d0b4"/>
        </g>
        <g id="Grupo_1182411" data-name="Grupo 1182411">
          <path id="Trazado_915494" data-name="Trazado 915494" d="M20,15v6H19a3,3,0,0,1-2.12-5.12l.01-.01A3,3,0,0,1,19,15Z" fill="#f0d0b4"/>
        </g>
      </g>
      <g id="Grupo_1182413" data-name="Grupo 1182413">
        <circle id="Elipse_11702" data-name="Elipse 11702" cx="1" cy="1" r="1" transform="translate(35 17)"/>
        <circle id="Elipse_11703" data-name="Elipse 11703" cx="1" cy="1" r="1" transform="translate(25 17)"/>
        <path id="Trazado_915495" data-name="Trazado 915495" d="M31.553,22.342a2,2,0,0,0,.895-2.684L32,18.764V17H30v2a1,1,0,0,0,.1.447l.553,1.1-1.1.553.9,1.789Z"/>
        <path id="Trazado_915496" data-name="Trazado 915496" d="M31,28a5,5,0,0,0,4.843-3.751l-1.938-.5a3,3,0,0,1-5.81,0l-1.938.5A5,5,0,0,0,31,28Z"/>
        <path id="Trazado_915497" data-name="Trazado 915497" d="M30,48h2a1,1,0,0,1,1,1h2a3,3,0,0,0-3-3V44H30v2a3,3,0,0,0,0,6h2a1,1,0,0,1,0,2H30a1,1,0,0,1-1-1H27a3,3,0,0,0,3,3v2h2V56a3,3,0,0,0,0-6H30a1,1,0,0,1,0-2Z"/>
        <path id="Trazado_915498" data-name="Trazado 915498" d="M51,27h4a7.008,7.008,0,0,0,7-7V19H56a7.008,7.008,0,0,0-7,7v3.026A4.948,4.948,0,0,0,46,28H42v1a5.006,5.006,0,0,0,5,5h2v7.322c-3.5-6.043-10.609-8.443-13-9.1v-.906a1,1,0,0,1,.6-.918l.332-.143A9.97,9.97,0,0,0,42.929,22H43a4,4,0,0,0,4-4,3.961,3.961,0,0,0-.832-2.414A11.325,11.325,0,0,0,35.636,0H26.1a7.242,7.242,0,0,0-6.968,5.329,8.112,8.112,0,0,0-3.416,10.4A3.993,3.993,0,0,0,19,22h.07a9.969,9.969,0,0,0,5.992,8.258l.331.142a1,1,0,0,1,.607.918v.905c-2.391.655-9.5,3.054-13,9.1V34h2a5.006,5.006,0,0,0,5-5V28H16a4.948,4.948,0,0,0-3,1.026V26a7.008,7.008,0,0,0-7-7H0v1a7.008,7.008,0,0,0,7,7h4v6.111A6.973,6.973,0,0,0,6,31H0v1a7.008,7.008,0,0,0,7,7h4v4.111A6.973,6.973,0,0,0,6,41H0v1a7.008,7.008,0,0,0,7,7h4v2a7.008,7.008,0,0,0,7,7h3.1A5.009,5.009,0,0,0,26,62H36a5.009,5.009,0,0,0,4.9-4H44a7.008,7.008,0,0,0,7-7V50h0V49h4a7.008,7.008,0,0,0,7-7V41H56a6.973,6.973,0,0,0-5,2.111V39h4a7.008,7.008,0,0,0,7-7V31H56a6.973,6.973,0,0,0-5,2.111V27Zm5-6h3.9A5.009,5.009,0,0,1,55,25H51.1A5.008,5.008,0,0,1,56,21ZM47,32a3.006,3.006,0,0,1-2.829-2H46a3.006,3.006,0,0,1,2.829,2ZM16,30h1.829A3.006,3.006,0,0,1,15,32H13.171A3.006,3.006,0,0,1,16,30ZM7,25a5.008,5.008,0,0,1-4.9-4H6a5.008,5.008,0,0,1,4.9,4ZM7,37a5.008,5.008,0,0,1-4.9-4H6a5.008,5.008,0,0,1,4.9,4ZM7,47a5.008,5.008,0,0,1-4.9-4H6a5.008,5.008,0,0,1,4.9,4Zm49-4h3.9A5.009,5.009,0,0,1,55,47H51.1A5.008,5.008,0,0,1,56,43ZM35,40H27V39a1,1,0,0,1,1-1h6a1,1,0,0,1,1,1Zm8-20V16a2,2,0,0,1,0,4ZM20.447,6.9l.438-.219.1-.48A5.233,5.233,0,0,1,26.1,2h9.537a9.35,9.35,0,0,1,8.885,12.3A3.973,3.973,0,0,0,43,14H42a2,2,0,0,1-2-2,3,3,0,0,0-3-3v2a1,1,0,0,1,1,1,3.962,3.962,0,0,0,.544,2H38a2,2,0,0,1-2-2,3,3,0,0,0-3-3v2a1,1,0,0,1,1,1,3.95,3.95,0,0,0,.555,2A2.588,2.588,0,0,1,32,11.414a2.414,2.414,0,0,0-4-1.82A2.434,2.434,0,0,0,26.414,9h-.255a2.421,2.421,0,0,0-2.367,1.94A3.809,3.809,0,0,1,21,13.873V12a1,1,0,0,1,1-1V9a3,3,0,0,0-3,3v2a3.974,3.974,0,0,0-1.669.376A6.107,6.107,0,0,1,20.447,6.9ZM17,18a2,2,0,0,1,2-2v4h0A2,2,0,0,1,17,18Zm8.849,10.419A7.994,7.994,0,0,1,21,21.066V15.917a5.822,5.822,0,0,0,4.753-4.583A.416.416,0,0,1,26.159,11h.255a.417.417,0,0,1,.293.121L28,12.414l1.294-1.293a.43.43,0,0,1,.706.293A4.591,4.591,0,0,0,34.586,16H41v5.067a7.992,7.992,0,0,1-4.849,7.352l-.333.143A3,3,0,0,0,34,31.318v1.694A3,3,0,0,1,28,33V31.318a3,3,0,0,0-1.819-2.757ZM13,51V49c0-10.245,9.9-13.849,13.173-14.761a4.953,4.953,0,0,0,.967,1.9A2.994,2.994,0,0,0,25,39v1.5L23,42a5.026,5.026,0,0,0-2,4v2H19V43H17v5H15v2h2.557A3.959,3.959,0,0,0,17,52v2a3.953,3.953,0,0,0,.531,1.953A4.99,4.99,0,0,1,13,51Zm10,3v1a1,1,0,0,1-1,1H21a2,2,0,0,1-2-2V52a2,2,0,0,1,2-2h1a1,1,0,0,1,1,1v1H21v2Zm13,6H26a3,3,0,0,1-2.884-2.22A3,3,0,0,0,25,55V51a3,3,0,0,0-2-2.816V46a3.016,3.016,0,0,1,1.2-2.4L26.333,42h9.334L37.8,43.6A3.014,3.014,0,0,1,39,46v2.184A3,3,0,0,0,37,51v4a3,3,0,0,0,1.885,2.78A3,3,0,0,1,36,60Zm7-8v2a2,2,0,0,1-2,2H40a1,1,0,0,1-1-1V54h2V52H39V51a1,1,0,0,1,1-1h1A2,2,0,0,1,43,52Zm6-1a4.99,4.99,0,0,1-4.531,4.953A3.951,3.951,0,0,0,45,54V52a3.959,3.959,0,0,0-.556-2H47V48H45V43H43v5H41V46a5.024,5.024,0,0,0-2-4l-2-1.5V39a2.994,2.994,0,0,0-2.139-2.859,4.951,4.951,0,0,0,.964-1.893C39.079,35.187,49,38.883,49,49Zm7-18h3.9A5.009,5.009,0,0,1,55,37H51.1A5.008,5.008,0,0,1,56,33Z"/>
      </g>
    </g>
  </g>
</svg>
