<svg xmlns="http://www.w3.org/2000/svg" width="85" height="85" viewBox="0 0 85 85">
  <g id="Grupo_1182326" data-name="Grupo 1182326" transform="translate(-180 -1496.667)">
    <g id="Grupo_1181827" data-name="Grupo 1181827" transform="translate(16445.764 10516.192)">
      <g id="Grupo_1112415" data-name="Grupo 1112415" transform="translate(-16265.764 -9019.525)">
        <g id="Grupo_1098742" data-name="Grupo 1098742" transform="translate(0 0)">
          <g id="Rect치ngulo_400898" data-name="Rect치ngulo 400898" transform="translate(0.001 0)" fill="#ffea99" stroke="#997b00" stroke-width="3">
            <rect width="85" height="85" rx="42.5" stroke="none"/>
            <rect x="1.5" y="1.5" width="82" height="82" rx="41" fill="none"/>
          </g>
          <g id="Rect치ngulo_400907" data-name="Rect치ngulo 400907" transform="translate(0 0)" fill="none" stroke="#997b00" stroke-width="3">
            <rect width="85" height="85" rx="42.5" stroke="none"/>
            <rect x="1.5" y="1.5" width="82" height="82" rx="41" fill="none"/>
          </g>
        </g>
      </g>
    </g>
    <g id="book_1470414" transform="translate(192.196 1511.628)">
      <path id="Trazado_915066" data-name="Trazado 915066" d="M100.309,61.435H97.724A1.723,1.723,0,0,1,96,59.711V9.724A1.723,1.723,0,0,1,97.724,8h2.586Zm0,0" transform="translate(-85.658 -7.138)" fill="#b35f39"/>
      <path id="Trazado_915067" data-name="Trazado 915067" d="M136,87.513V72h36.2v44.816a1.723,1.723,0,0,1-1.724,1.724h-32.75A1.723,1.723,0,0,1,136,116.816v-4.309" transform="translate(-121.349 -64.243)" fill="#fcb641"/>
      <path id="Trazado_915068" data-name="Trazado 915068" d="M200,128h22.408v11.2H200Zm0,0" transform="translate(-178.454 -114.21)" fill="#fce0b0"/>
      <path id="Trazado_915069" data-name="Trazado 915069" d="M170.474,11.447H136V9.724A1.723,1.723,0,0,1,137.724,8H172.2V9.724A1.723,1.723,0,0,1,170.474,11.447Zm0,0" transform="translate(-121.349 -7.138)" fill="#fcc871"/>
      <path id="Trazado_915070" data-name="Trazado 915070" d="M172.2,43.447H136V40h34.474a1.723,1.723,0,0,1,1.724,1.724Zm0,0" transform="translate(-121.349 -35.691)" fill="#fce0b0"/>
      <path id="Trazado_915071" data-name="Trazado 915071" d="M215.27,132.928H203.2V131.2h11.2v-9.48H193.724v6.033H192v-6.895a.862.862,0,0,1,.862-.862H215.27a.862.862,0,0,1,.862.862v11.2A.862.862,0,0,1,215.27,132.928Zm0,0" transform="translate(-171.316 -107.072)"/>
      <path id="Trazado_915072" data-name="Trazado 915072" d="M376,424h6.895v1.724H376Zm0,0" transform="translate(-335.493 -378.322)"/>
      <path id="Trazado_915073" data-name="Trazado 915073" d="M336,456h11.2v1.724H336Zm0,0" transform="translate(-299.803 -406.875)"/>
      <path id="Trazado_915074" data-name="Trazado 915074" d="M46.783,208.349A3.448,3.448,0,0,0,50.23,204.9v-.862H29.546l4.127-2.063a3.448,3.448,0,0,0,1.905-3.084V196.8l-11.236,3.1-6.128,4.137H8v13.79H18l2.589,2.877a1.725,1.725,0,0,0,1.281.571H41.612a3.448,3.448,0,0,0,3.447-3.447v-.862h1.724a3.448,3.448,0,0,0,3.447-3.447v-.862h-.862a3.448,3.448,0,0,0,3.447-3.447v-.862Zm0,0" transform="translate(-7.138 -175.599)" fill="#f5b9b0"/>
      <path id="Trazado_915075" data-name="Trazado 915075" d="M130.231.862A.862.862,0,0,0,129.369,0H90.586A2.589,2.589,0,0,0,88,2.586v23.27h1.724V2.586a.863.863,0,0,1,.862-.862h1.882a2.55,2.55,0,0,0-.159.862V23.27h1.724V8.618h34.474V52.573a.863.863,0,0,1-.862.862H94.895a.863.863,0,0,1-.862-.862V48.263H92.309v4.309a2.55,2.55,0,0,0,.159.862H90.586a.863.863,0,0,1-.862-.862V44.816H88v7.757a2.589,2.589,0,0,0,2.586,2.586h37.059a2.589,2.589,0,0,0,2.586-2.586V6.033a2.569,2.569,0,0,0-.672-1.724,2.569,2.569,0,0,0,.672-1.724Zm-1.724.862v.862a.863.863,0,0,1-.862.862H94.033V2.586a.863.863,0,0,1,.862-.862ZM94.033,6.895V5.171h33.612a.863.863,0,0,1,.862.862v.862Zm0,0" transform="translate(-78.52)"/>
      <path id="Trazado_915076" data-name="Trazado 915076" d="M10.475,211.548l2.332,2.591a2.587,2.587,0,0,0,1.922.856H34.474a4.314,4.314,0,0,0,4.309-4.309h.862a4.314,4.314,0,0,0,4.309-4.309v-.365a4.312,4.312,0,0,0,2.586-3.944v-.862a.862.862,0,0,0-.862-.862H43.07a4.266,4.266,0,0,0,.884-2.586V196.9a.862.862,0,0,0-.862-.862H26.058l.862-.431a4.286,4.286,0,0,0,2.382-3.854v-2.092a.861.861,0,0,0-1.091-.831l-11.236,3.1a.84.84,0,0,0-.252.117l-5.91,3.989H.862A.862.862,0,0,0,0,196.9v13.79a.862.862,0,0,0,.862.862Zm-8.752-1.724V197.758h9.353a.871.871,0,0,0,.483-.147l6.011-4.058,10.008-2.764v.961a2.57,2.57,0,0,1-1.429,2.312L22.2,196.034H18.1v1.724H42.23a2.589,2.589,0,0,1-2.586,2.586H24.131v1.724H44.816a2.589,2.589,0,0,1-2.586,2.586h-18.1v1.724h18.1a2.589,2.589,0,0,1-2.586,2.586H24.131v1.724H37.059a2.589,2.589,0,0,1-2.586,2.586H14.729a.863.863,0,0,1-.641-.285l-2.023-2.248v-4.362H10.342v3.447Zm0,0" transform="translate(0 -168.455)"/>
      <path id="Trazado_915077" data-name="Trazado 915077" d="M96,304h1.724v3.447H96Zm0,0" transform="translate(-85.658 -271.25)"/>
    </g>
  </g>
</svg>
