<svg xmlns="http://www.w3.org/2000/svg" xmlns:xlink="http://www.w3.org/1999/xlink" width="117.796" height="118" viewBox="0 0 117.796 118">
  <defs>
    <filter id="Trazado_896985" x="0" y="0" width="117.796" height="118" filterUnits="userSpaceOnUse">
      <feOffset dy="3" input="SourceAlpha"/>
      <feGaussianBlur stdDeviation="3" result="blur"/>
      <feFlood flood-opacity="0.161"/>
      <feComposite operator="in" in2="blur"/>
      <feComposite in="SourceGraphic"/>
    </filter>
  </defs>
  <g id="Grupo_1182025" data-name="Grupo 1182025" transform="translate(-741 -3975.238)">
    <g id="Grupo_1182018" data-name="Grupo 1182018" transform="translate(750 3981.238)">
      <g id="Grupo_1109826" data-name="Grupo 1109826" transform="translate(0)">
        <g id="Grupo_1098742" data-name="Grupo 1098742">
          <g transform="matrix(1, 0, 0, 1, -9, -6)" filter="url(#Trazado_896985)">
            <g id="Trazado_896985-2" data-name="Trazado 896985" transform="translate(9 6)" fill="#9ad354" opacity="0.859">
              <path d="M 49.8980712890625 98.5 C 43.36408615112305 98.5 37.02632904052734 97.21802520751953 31.06082916259766 94.68968200683594 C 25.29788589477539 92.24718475341797 20.12185668945312 88.75016784667969 15.67654228210449 84.29578399658203 C 11.23102855682373 79.84117889404297 7.740914344787598 74.65422821044922 5.303171157836914 68.87898254394531 C 2.779571294784546 62.90033721923828 1.49999988079071 56.54855346679688 1.49999988079071 50.00006866455078 C 1.49999988079071 43.45143890380859 2.779571294784546 37.09965515136719 5.303171157836914 31.12102508544922 C 7.740914344787598 25.34578132629395 11.23102855682373 20.1588249206543 15.67654228210449 15.70422458648682 C 20.12185668945312 11.24982452392578 25.29788589477539 7.752810478210449 31.06082916259766 5.310324668884277 C 37.02632904052734 2.781967639923096 43.36408615112305 1.499996185302734 49.8980712890625 1.499996185302734 C 56.43205642700195 1.499996185302734 62.76981353759766 2.781967639923096 68.73531341552734 5.310324668884277 C 74.49826049804688 7.752810478210449 79.67428588867188 11.24982452392578 84.11959838867188 15.70422458648682 C 88.56511688232422 20.1588249206543 92.05522918701172 25.34578132629395 94.49297332763672 31.12102508544922 C 97.01657104492188 37.09965515136719 98.296142578125 43.45143890380859 98.296142578125 49.99992370605469 C 98.296142578125 56.54855346679688 97.01657104492188 62.90033721923828 94.49297332763672 68.87898254394531 C 92.05522918701172 74.65422821044922 88.56511688232422 79.84117889404297 84.11959838867188 84.29578399658203 C 79.67428588867188 88.75016784667969 74.49826049804688 92.24718475341797 68.73531341552734 94.68968200683594 C 62.76981353759766 97.21802520751953 56.43205642700195 98.5 49.8980712890625 98.5 Z" stroke="none"/>
              <path d="M 49.8980712890625 2.999992370605469 C 43.56630325317383 2.999992370605469 37.42547225952148 4.241966247558594 31.64616394042969 6.691398620605469 C 26.06210327148438 9.058074951171875 21.04636383056641 12.44692230224609 16.73828887939453 16.7637939453125 C 12.42977905273438 21.08108520507812 9.047409057617188 26.10781097412109 6.685104370117188 31.70433807373047 C 4.239837646484375 37.49737930297852 2.999992370605469 43.65290451049805 2.999992370605469 50.00005722045898 C 2.999992370605469 56.34708786010742 4.239837646484375 62.50262832641602 6.685104370117188 68.295654296875 C 9.047409057617188 73.89218139648438 12.42977905273438 78.91889953613281 16.73828887939453 83.23619842529297 C 21.04636383056641 87.55307006835938 26.06208801269531 90.94191741943359 31.64616394042969 93.30859375 C 37.42547225952148 95.75802612304688 43.56630325317383 97 49.8980712890625 97 C 56.22983932495117 97 62.37065505981445 95.75802612304688 68.14997863769531 93.30859375 C 73.73403930664062 90.94191741943359 78.74977874755859 87.55307006835938 83.05785369873047 83.23619842529297 C 87.36634826660156 78.91889953613281 90.74873352050781 73.89218139648438 93.11103820800781 68.295654296875 C 95.55630493164062 62.50262832641602 96.79615020751953 56.34708786010742 96.79615020751953 49.99993515014648 C 96.79615020751953 43.65290451049805 95.55630493164062 37.49737930297852 93.11103820800781 31.70433807373047 C 90.74873352050781 26.10781097412109 87.36634826660156 21.08108520507812 83.05785369873047 16.7637939453125 C 78.74977874755859 12.44692230224609 73.73403930664062 9.058074951171875 68.14997863769531 6.691398620605469 C 62.37065505981445 4.241966247558594 56.22982406616211 2.999992370605469 49.8980712890625 2.999992370605469 M 49.8980712890625 -7.62939453125e-06 C 77.45600891113281 -7.62939453125e-06 99.79615020751953 22.38573455810547 99.79615020751953 49.99993515014648 L 99.79615020751953 50.00005722045898 C 99.79615020751953 77.61427307128906 77.45600891113281 100 49.8980712890625 100 C 22.34011840820312 100 -7.62939453125e-06 77.61427307128906 -7.62939453125e-06 50.00005722045898 L -7.62939453125e-06 49.99993515014648 C -7.62939453125e-06 22.38573455810547 22.34011840820312 -7.62939453125e-06 49.8980712890625 -7.62939453125e-06 Z" stroke="none" fill="#fff"/>
            </g>
          </g>
          <g id="Rectángulo_400907" data-name="Rectángulo 400907" transform="translate(0.204)" fill="none" stroke="#fff" stroke-width="3">
            <rect width="99.796" height="100" rx="49.898" stroke="none"/>
            <rect x="1.5" y="1.5" width="96.796" height="97" rx="48.398" fill="none"/>
          </g>
        </g>
      </g>
    </g>
    <g id="chicken_10144703" transform="translate(762.051 3987.81)">
      <g id="Grupo_1182022" data-name="Grupo 1182022" transform="translate(0 7.974)">
        <path id="Trazado_909796" data-name="Trazado 909796" d="M224.776,142.908c0,2.255-5.285,3.577-5.96.318a4.527,4.527,0,0,1,1.6-4.209h4.36Z" transform="translate(-189.611 -121.571)" fill="#fd3501"/>
        <path id="Trazado_909797" data-name="Trazado 909797" d="M224.548,19.919s-2.422-5.5.91-8.9a4.347,4.347,0,0,0,2.243,1.371s2.243-4.215,5.915-4.419c-.2,2.311,1.224,2.583,1.224,2.583s3.048-2.991,5.1-.952c-2.05,1.632-.36,5.116-.36,5.116Z" transform="translate(-193.916 -7.974)" fill="#ff6a47"/>
        <path id="Trazado_909798" data-name="Trazado 909798" d="M195.6,113.212c-1.558-1.875-6.1-10.687,3.909-37.419,2.407-6.43,2.285-9.58,1.746-11.1.765-1.141-.607-5.515-3.131-5.977l.415-.378a11.67,11.67,0,0,1,10.137-5.608c7.421,0,10.122,5.417,11.4,8.272,2.887,6.46,7.138,22.3,15.582,22.3v30.572H195.6Z" transform="translate(-167.489 -46.775)" fill="#fff"/>
        <path id="Trazado_909799" data-name="Trazado 909799" d="M202.834,75.793c2.09-5.582,3.624-11.464.417-15.415a3.086,3.086,0,0,1,.281-4.19,12.583,12.583,0,0,1,6.863-3.349,13.928,13.928,0,0,0-1.723-.1,11.67,11.67,0,0,0-10.137,5.608l-.415.378c2.524.462,3.9,4.835,3.131,5.977.54,1.516.661,4.666-1.745,11.1-10.006,26.732-5.467,35.544-3.909,37.419v.666h3.328v-.666C197.368,111.337,192.828,102.525,202.834,75.793Z" transform="translate(-167.489 -46.776)" fill="#e3e9ee"/>
        <path id="Trazado_909800" data-name="Trazado 909800" d="M192.33,97.627l-.085-.011-5.713,4.2,8.929,1.787C196.226,102.462,194.854,98.088,192.33,97.627Z" transform="translate(-161.698 -85.682)" fill="#fde31d"/>
        <circle id="Elipse_11690" data-name="Elipse 11690" cx="2.13" cy="2.13" r="2.13" transform="translate(39.292 10.277)" fill="#626169"/>
        <g id="Grupo_1182020" data-name="Grupo 1182020" transform="translate(48.21 29.02)">
          <path id="Trazado_909801" data-name="Trazado 909801" d="M366.534,257.212l-4.009-2.131s-4.949,33.139,19.545,33.139V274.773C368.561,274.773,366.534,257.212,366.534,257.212Z" transform="translate(-362.115 -251.203)" fill="#ff6a47"/>
          <path id="Trazado_909802" data-name="Trazado 909802" d="M426.155,225.952h0l-.2,3.634-2.356-.6h0s1.791,9.753,11.769,9.753v-5.276C431.514,233.462,428.532,230.158,426.155,225.952Z" transform="translate(-415.416 -225.952)" fill="#ff6a47"/>
          <path id="Trazado_909803" data-name="Trazado 909803" d="M399.077,244.749h0l-2.405-.613-1.362,3.588s2.027,17.561,15.535,17.561V254.5C400.868,254.5,399.077,244.749,399.077,244.749Z" transform="translate(-390.891 -241.715)" fill="#fff"/>
        </g>
        <path id="Trazado_909804" data-name="Trazado 909804" d="M251.294,142.588c-.076.976-.649,4.438-.156,5.937a2.955,2.955,0,0,0,5.734-.473c.527-2.548-1.619-4.058-2.9-4.719A11.885,11.885,0,0,0,251.294,142.588Z" transform="translate(-217.531 -124.666)" fill="#ff6a47"/>
        <path id="Trazado_909805" data-name="Trazado 909805" d="M150.777,312.825s-9.017-10.634-14.262-10.8c-3.913-.122-12.141,6.3-12.141,6.3h0a12.455,12.455,0,0,0,12.455,12.455h0a22.551,22.551,0,0,0,10.407-2.545l5.592-2.909Z" transform="translate(-107.816 -262.878)" fill="#e6cc9f"/>
        <g id="Grupo_1182021" data-name="Grupo 1182021" transform="translate(16.558 39.148)">
          <path id="Trazado_909806" data-name="Trazado 909806" d="M139.312,302.844c-4.078.4-11.613,6.277-11.613,6.277s-.107.181-.282.442a8.648,8.648,0,0,0-3.046-1.241s8.228-6.42,12.142-6.3A7.084,7.084,0,0,1,139.312,302.844Z" transform="translate(-124.37 -302.022)" fill="#dfba7f"/>
        </g>
        <path id="Trazado_909807" data-name="Trazado 909807" d="M53.067,352.489a5.715,5.715,0,0,0-7.387-1.7l-11.208,6.113a2.869,2.869,0,0,0,.055-.56h0a2.857,2.857,0,0,0-2.857-2.858H23.014s-1.355-2.956-2.449-3.72c-5.754-5.265-16.633.437-16.633.437H0v10.847H6.252L28.261,368.1,53.1,352.536Z" transform="translate(0 -302.329)" fill="#ffceb7"/>
        <rect id="Rectángulo_408359" data-name="Rectángulo 408359" width="3.328" height="10.847" transform="translate(0 47.876)" fill="#ffaa81"/>
      </g>
      <g id="Grupo_1182023" data-name="Grupo 1182023" transform="translate(0 7.974)">
        <path id="Trazado_909808" data-name="Trazado 909808" d="M0,449.055H6.252l5.094,1.632" transform="translate(0 -390.332)" fill="none" stroke="#000" stroke-miterlimit="10" stroke-width="1"/>
        <path id="Trazado_909809" data-name="Trazado 909809" d="M120.662,373.6l11.271-6.148a5.715,5.715,0,0,1,7.388,1.7l.035.047L114.514,384.76,99.5,379.95" transform="translate(-86.253 -318.985)" fill="none" stroke="#000" stroke-miterlimit="10" stroke-width="1"/>
        <path id="Trazado_909810" data-name="Trazado 909810" d="M19.526,359.2H31.67a2.857,2.857,0,0,0,2.857-2.857h0a2.857,2.857,0,0,0-2.857-2.857H23.014s-1.355-2.956-2.449-3.72c-5.754-5.265-16.633.437-16.633.437H0" transform="translate(0 -302.328)" fill="none" stroke="#000" stroke-miterlimit="10" stroke-width="1"/>
        <path id="Trazado_909811" data-name="Trazado 909811" d="M124.374,308.325s8.227-6.42,12.141-6.3c5.245.163,14.262,10.8,14.262,10.8" transform="translate(-107.816 -262.877)" fill="none" stroke="#000" stroke-miterlimit="10" stroke-width="1"/>
        <path id="Trazado_909812" data-name="Trazado 909812" d="M215.14,202.474c.876-3.05,1.985-6.417,3.375-10.13a40.1,40.1,0,0,0,1.59-5.159" transform="translate(-186.498 -163.326)" fill="none" stroke="#000" stroke-miterlimit="10" stroke-width="1"/>
        <path id="Trazado_909813" data-name="Trazado 909813" d="M251.294,142.588c-.076.976-.649,4.438-.156,5.937a2.955,2.955,0,0,0,5.734-.473c.527-2.548-1.619-4.058-2.9-4.719A11.885,11.885,0,0,0,251.294,142.588Z" transform="translate(-217.531 -124.666)" fill="none" stroke="#000" stroke-miterlimit="10" stroke-width="1"/>
        <path id="Trazado_909814" data-name="Trazado 909814" d="M220.413,139.015a4.527,4.527,0,0,0-1.6,4.21c.417,2.014,2.595,2.278,4.2,1.655" transform="translate(-189.609 -121.569)" fill="none" stroke="#000" stroke-miterlimit="10" stroke-width="1"/>
        <path id="Trazado_909815" data-name="Trazado 909815" d="M224.548,19.919s-2.422-5.5.91-8.9a4.347,4.347,0,0,0,2.243,1.371s2.243-4.215,5.915-4.419c-.2,2.311,1.224,2.583,1.224,2.583s3.048-2.991,5.1-.952c-2.05,1.632-.36,5.116-.36,5.116" transform="translate(-193.916 -7.974)" fill="none" stroke="#000" stroke-miterlimit="10" stroke-width="1"/>
        <circle id="Elipse_11691" data-name="Elipse 11691" cx="2.13" cy="2.13" r="2.13" transform="translate(39.292 10.277)" fill="none" stroke="#000" stroke-miterlimit="10" stroke-width="1"/>
        <path id="Trazado_909816" data-name="Trazado 909816" d="M230.518,229.634l2.416,3.157,3.912-2.583,2.464,3.107,3.383-2.928,3.188,2.739,2.566-3.295,4.009,2.131,1.362-3.588,4.761,1.213.2-3.634" transform="translate(-199.828 -196.933)" fill="none" stroke="#000" stroke-miterlimit="10" stroke-width="1"/>
        <path id="Trazado_909817" data-name="Trazado 909817" d="M375.02,400.025c2.269,7.282,7.338,13.842,18.237,13.842" transform="translate(-325.092 -347.83)" fill="none" stroke="#000" stroke-miterlimit="10" stroke-width="1"/>
        <path id="Trazado_909818" data-name="Trazado 909818" d="M362.776,269.972a52.607,52.607,0,0,1-.257-14.887" transform="translate(-313.9 -222.186)" fill="none" stroke="#000" stroke-miterlimit="10" stroke-width="1"/>
        <path id="Trazado_909819" data-name="Trazado 909819" d="M395.309,271.088s2.027,17.561,15.536,17.561" transform="translate(-342.68 -236.059)" fill="none" stroke="#000" stroke-miterlimit="10" stroke-width="1"/>
        <path id="Trazado_909820" data-name="Trazado 909820" d="M423.6,248.739s1.791,9.753,11.769,9.753" transform="translate(-367.206 -216.685)" fill="none" stroke="#000" stroke-miterlimit="10" stroke-width="1"/>
        <path id="Trazado_909821" data-name="Trazado 909821" d="M409.8,152.035c2.833,7.349,6.9,17.351,13.606,17.351" transform="translate(-355.242 -132.856)" fill="none" stroke="#000" stroke-miterlimit="10" stroke-width="1"/>
        <path id="Trazado_909822" data-name="Trazado 909822" d="M192.328,58.721c2.524.462,3.9,4.835,3.131,5.976L186.53,62.91l6.213-4.568a11.671,11.671,0,0,1,10.137-5.608c7.422,0,10.122,5.417,11.4,8.272.386.863.8,1.893,1.237,3.031" transform="translate(-161.697 -46.776)" fill="none" stroke="#000" stroke-miterlimit="10" stroke-width="1"/>
      </g>
      <g id="Grupo_1182024" data-name="Grupo 1182024" transform="translate(27.696 51.856)">
        <line id="Línea_665" data-name="Línea 665" x2="1.997" fill="none" stroke="#fff" stroke-miterlimit="10" stroke-width="1"/>
        <line id="Línea_666" data-name="Línea 666" x2="1.997" transform="translate(3.994 2.263)" fill="none" stroke="#fff" stroke-miterlimit="10" stroke-width="1"/>
      </g>
    </g>
  </g>
</svg>
