<svg xmlns="http://www.w3.org/2000/svg" width="85" height="85" viewBox="0 0 85 85">
  <g id="Grupo_1181746" data-name="Grupo 1181746" transform="translate(16265.764 9019.525)">
    <g id="Grupo_1112415" data-name="Grupo 1112415" transform="translate(-16265.764 -9019.525)">
      <g id="Grupo_1098742" data-name="Grupo 1098742" transform="translate(0 0)">
        <g id="Rect치ngulo_400898" data-name="Rect치ngulo 400898" transform="translate(0.001 0)" fill="#fffae6" stroke="#997b00" stroke-width="3">
          <rect width="85" height="85" rx="42.5" stroke="none"/>
          <rect x="1.5" y="1.5" width="82" height="82" rx="41" fill="none"/>
        </g>
        <g id="Rect치ngulo_400907" data-name="Rect치ngulo 400907" transform="translate(0 0)" fill="none" stroke="#997b00" stroke-width="3">
          <rect width="85" height="85" rx="42.5" stroke="none"/>
          <rect x="1.5" y="1.5" width="82" height="82" rx="41" fill="none"/>
        </g>
      </g>
    </g>
    <g id="financing_18242271" transform="translate(-16284.562 -9055.633)">
      <path id="Trazado_913693" data-name="Trazado 913693" d="M132.923,109.542a28.9,28.9,0,0,1,9.729,32.391H123.193a28.9,28.9,0,0,1,9.729-32.391Z" transform="translate(-78.671 -51.572)" fill="#999" fill-rule="evenodd"/>
      <g id="Grupo_1182096" data-name="Grupo 1182096" transform="translate(66.575 50.804)">
        <path id="Trazado_913694" data-name="Trazado 913694" d="M371.229,169.436a6.481,6.481,0,0,1-8.912,5.146,6.481,6.481,0,0,1,8.912-5.146Z" transform="translate(-353.405 -153.74)" fill="#19cfba" fill-rule="evenodd"/>
        <path id="Trazado_913695" data-name="Trazado 913695" d="M296.416,169.436a6.481,6.481,0,0,0,8.912,5.146,6.481,6.481,0,0,0-8.912-5.146Z" transform="translate(-296.416 -153.741)" fill="#19cfba" fill-rule="evenodd"/>
        <path id="Trazado_913696" data-name="Trazado 913696" d="M371.229,128.586a6.481,6.481,0,0,1-8.912,5.146,6.481,6.481,0,0,1,8.912-5.146Z" transform="translate(-353.405 -118.415)" fill="#19cfba" fill-rule="evenodd"/>
        <path id="Trazado_913697" data-name="Trazado 913697" d="M296.416,128.586a6.481,6.481,0,0,0,8.912,5.145,6.481,6.481,0,0,0-8.912-5.145Z" transform="translate(-296.416 -118.415)" fill="#19cfba" fill-rule="evenodd"/>
        <path id="Trazado_913698" data-name="Trazado 913698" d="M341.1,56.556A8.473,8.473,0,0,1,341.1,70,8.473,8.473,0,0,1,341.1,56.556Z" transform="translate(-332.191 -56.556)" fill="#19cfba" fill-rule="evenodd"/>
      </g>
      <path id="Trazado_913699" data-name="Trazado 913699" d="M82.539,264.7a13.536,13.536,0,0,0,3.541-.666c3.728-1.246,9.7-4.644,14.717-7.468a2.437,2.437,0,0,1,3.1.578l.114.138a2.45,2.45,0,0,1-.207,3.341A107.387,107.387,0,0,1,90.09,271.769c-3.033,1.967-6.917,4.309-10.585,4.608-2.91.237-5.79-.828-8.7-1.248a86.506,86.506,0,0,0-13.178-.508V262.39c1.535-.361,3.041-.7,4.54-1.111,3.492-.952,5.922-3.746,9.79-2.58l8.791,2.65A2.694,2.694,0,0,1,82.539,264.7Z" transform="translate(-23.342 -178.432)" fill="#f0b16e" fill-rule="evenodd"/>
      <path id="Trazado_913700" data-name="Trazado 913700" d="M42.422,305.8H38.5a1.225,1.225,0,0,1-1.223-1.223V293.551a1.226,1.226,0,0,1,1.223-1.223h3.221a.706.706,0,0,1,.7.7Z" transform="translate(-5.746 -209.638)" fill="#60b7fe" fill-rule="evenodd"/>
      <path id="Trazado_913701" data-name="Trazado 913701" d="M169.693,99.2l-1.106,6.931H157.6L156.493,99.2Z" transform="translate(-108.841 -42.629)" fill="#999" fill-rule="evenodd"/>
      <path id="Trazado_913702" data-name="Trazado 913702" d="M296.439,389.565c5.69,0,10.3,3.263,10.3,7.288H286.136C286.136,392.828,290.749,389.565,296.439,389.565Z" transform="translate(-220.951 -293.725)" fill="#c89d8d" fill-rule="evenodd"/>
      <path id="Trazado_913703" data-name="Trazado 913703" d="M55.894,74.434c0-.139-.179-.37-.574-.548a3.238,3.238,0,0,0-1.11-.2,4.824,4.824,0,0,1-1.684-.343.116.116,0,0,0-.03-.012,2.507,2.507,0,0,1-1.647-2.254,2.422,2.422,0,0,1,1.676-2.114,3.842,3.842,0,0,1,.827-.25v-.2a.9.9,0,1,1,1.8,0v.162a6.792,6.792,0,0,1,2.027.585.9.9,0,1,1-.775,1.625,4.315,4.315,0,0,0-3.174-.273c-.007,0-.007,0-.007,0-.395.162-.566.364-.574.493s.149.372.589.577a3.205,3.205,0,0,0,1.1.2,5,5,0,0,1,1.7.343l.022.009a2.481,2.481,0,0,1,1.639,2.2,2.451,2.451,0,0,1-1.654,2.165,4.172,4.172,0,0,1-.887.262v.19a.9.9,0,1,1-1.8,0V76.9a7.337,7.337,0,0,1-2.012-.579.9.9,0,1,1,.745-1.635,4.449,4.449,0,0,0,3.241.274c.387-.168.566-.383.566-.522Zm34.071,28.695a.9.9,0,0,0-.9-.9H86.62a7.506,7.506,0,0,0-3.33-4.987,13.319,13.319,0,0,0-6.9-2.273v-7.9c2.168-1.868,3.882-3.468,4.686-4.23a3.368,3.368,0,0,0,.291-4.565l-.119-.138a3.346,3.346,0,0,0-4.232-.788l-.529.3a.93.93,0,0,0-.1.054V72.866a7.282,7.282,0,0,0,1.587.178,7.4,7.4,0,0,0,7.316-6.428.9.9,0,0,0-.544-.948,7.587,7.587,0,0,0-1.438-.431,7.344,7.344,0,0,0,1.982-4.146.9.9,0,0,0-.544-.948,7.355,7.355,0,0,0-5.387-.113,9.355,9.355,0,0,0-3.33-9.94.9.9,0,0,0-1.1,0,9.407,9.407,0,0,0-3.33,9.94,7.317,7.317,0,0,0-5.372.113.89.89,0,0,0-.551.948,7.345,7.345,0,0,0,1.982,4.146,7.514,7.514,0,0,0-1.43.431.89.89,0,0,0-.551.948,7.4,7.4,0,0,0,7.309,6.428,7.521,7.521,0,0,0,1.6-.178v5.846c-2.8,1.565-5.685,3.151-8.2,4.368a29.571,29.571,0,0,0-5.7-19.808l1.051-6.559a.907.907,0,0,0-.2-.724.927.927,0,0,0-.685-.316H47.647a.877.877,0,0,0-.678.316.911.911,0,0,0-.209.724l1.058,6.559A29.444,29.444,0,0,0,42.037,80.5l-.358.18a16.854,16.854,0,0,1-3.092,1.3c-.44.118-.894.238-1.4.365a1.613,1.613,0,0,0-1.214-.553H32.746a2.124,2.124,0,0,0-2.116,2.123V94.941a2.124,2.124,0,0,0,2.116,2.122h1.326a.759.759,0,0,0,.224.024,86.076,86.076,0,0,1,13.038.5c.931.134,1.9.345,2.831.55a24.292,24.292,0,0,0,5.141.741c.313,0,.618-.012.931-.037,3.7-.3,7.473-2.46,11-4.75a81.922,81.922,0,0,0,7.361-5.5v6.378a13.349,13.349,0,0,0-6.914,2.273,7.558,7.558,0,0,0-3.33,4.987H61.907a.9.9,0,0,0,0,1.8H89.063A.9.9,0,0,0,89.965,103.128ZM83.371,67.095a5.591,5.591,0,0,1-6.854,3.954,5.6,5.6,0,0,1,3.569-3.839c.089-.028.179-.055.261-.083A5.525,5.525,0,0,1,83.371,67.095Zm-6.795.288c-.067.068-.127.14-.186.209v-.25C76.45,67.355,76.51,67.37,76.577,67.382Zm1.282-4.259a5.6,5.6,0,0,1,5.513-1.553,5.545,5.545,0,0,1-2.608,3.4,5.314,5.314,0,0,1-.969.442l-.149.051a5.539,5.539,0,0,1-3.129.063,5.774,5.774,0,0,1,.82-1.773C77.523,63.548,77.694,63.339,77.858,63.123Zm-4.791-5.6a7.5,7.5,0,0,1,2.421-5.549,7.563,7.563,0,0,1,.961,10.013c-.179.2-.343.4-.5.617-.149.162-.3.319-.462.467-.164-.148-.313-.306-.462-.466a7.308,7.308,0,0,0-.507-.618,7.512,7.512,0,0,1-1.453-4.464Zm-2.854,7.44a5.545,5.545,0,0,1-2.608-3.4,5.6,5.6,0,0,1,5.513,1.553c.156.216.335.427.514.63a5.443,5.443,0,0,1,.82,1.772,5.544,5.544,0,0,1-3.129-.063c-.052-.018-.1-.037-.149-.051A5.476,5.476,0,0,1,70.214,64.967Zm4.239,6.081a5.588,5.588,0,0,1-6.847-3.954,5.528,5.528,0,0,1,3.017.028c.089.031.179.059.268.086a5.583,5.583,0,0,1,3.561,3.839Zm.142-3.458c-.067-.069-.134-.141-.2-.209.067-.012.134-.027.2-.041ZM48.712,57.47H59.8l-.82,5.133H49.524Zm-4.85,22.2a7.363,7.363,0,0,1,5.007-.268l8.792,2.65a3.582,3.582,0,0,1,2.541,3.21,12.166,12.166,0,0,0,2.25-.521c.626-.206,1.319-.48,2.049-.8A27.818,27.818,0,0,0,59.3,64.4H49.212a27.66,27.66,0,0,0-5.35,15.272ZM32.746,95.265a.327.327,0,0,1-.32-.323V83.913a.328.328,0,0,1,.32-.325h3.032V95.265ZM74.9,85.972a86.96,86.96,0,0,1-8.635,6.61c-3.345,2.162-6.877,4.2-10.17,4.466a19.073,19.073,0,0,1-5.551-.668c-.954-.212-1.959-.43-2.965-.574a68.918,68.918,0,0,0-10.006-.545V84.1c.544-.134,1.021-.259,1.483-.385a18.161,18.161,0,0,0,3.427-1.428c1.952-.98,3.643-1.828,5.871-1.158l8.784,2.651A1.8,1.8,0,0,1,58.338,86a1.9,1.9,0,0,1-2.3,1.176c-.432-.092-.939-.206-1.468-.327a38.6,38.6,0,0,0-4.3-.823,9.309,9.309,0,0,0-2.235.063.9.9,0,1,0,.261,1.779,7.533,7.533,0,0,1,1.8-.051,36.955,36.955,0,0,1,4.075.785c.544.124,1.051.24,1.5.336a4.179,4.179,0,0,0,.857.089,3.654,3.654,0,0,0,3.286-1.912,14.29,14.29,0,0,0,3.211-.668c3.323-1.112,8.277-3.829,12.9-6.421.492-.276.969-.549,1.445-.819l.529-.3a1.529,1.529,0,0,1,1.959.365l.119.139a1.556,1.556,0,0,1-.134,2.116c-1.408,1.341-3.107,2.873-4.917,4.418Zm-8.724,16.255c.648-3.1,4.582-5.489,9.313-5.489s8.657,2.391,9.306,5.489Z" fill="#06111f" fill-rule="evenodd"/>
    </g>
  </g>
</svg>
