<svg xmlns="http://www.w3.org/2000/svg" xmlns:xlink="http://www.w3.org/1999/xlink" width="117.796" height="118" viewBox="0 0 117.796 118">
  <defs>
    <filter id="Trazado_896985" x="0" y="0" width="117.796" height="118" filterUnits="userSpaceOnUse">
      <feOffset dy="3" input="SourceAlpha"/>
      <feGaussianBlur stdDeviation="3" result="blur"/>
      <feFlood flood-opacity="0.161"/>
      <feComposite operator="in" in2="blur"/>
      <feComposite in="SourceGraphic"/>
    </filter>
    <clipPath id="clip-path">
      <path id="path11127" d="M0-682.665H65.185v65.185H0Z" transform="translate(0 682.665)"/>
    </clipPath>
  </defs>
  <g id="Grupo_1182086" data-name="Grupo 1182086" transform="translate(-1161 -3975.238)">
    <g id="Grupo_1182019" data-name="Grupo 1182019" transform="translate(1170 3981.238)">
      <g id="Grupo_1109826" data-name="Grupo 1109826" transform="translate(0)">
        <g id="Grupo_1098742" data-name="Grupo 1098742">
          <g transform="matrix(1, 0, 0, 1, -9, -6)" filter="url(#Trazado_896985)">
            <g id="Trazado_896985-2" data-name="Trazado 896985" transform="translate(9 6)" fill="#9ad354" opacity="0.859">
              <path d="M 49.8980712890625 98.5 C 43.36408615112305 98.5 37.02632904052734 97.21802520751953 31.06082916259766 94.68968200683594 C 25.29788589477539 92.24718475341797 20.12185668945312 88.75016784667969 15.67654228210449 84.29578399658203 C 11.23102855682373 79.84117889404297 7.740914344787598 74.65422821044922 5.303171157836914 68.87898254394531 C 2.779571294784546 62.90033721923828 1.49999988079071 56.54855346679688 1.49999988079071 50.00006866455078 C 1.49999988079071 43.45143890380859 2.779571294784546 37.09965515136719 5.303171157836914 31.12102508544922 C 7.740914344787598 25.34578132629395 11.23102855682373 20.1588249206543 15.67654228210449 15.70422458648682 C 20.12185668945312 11.24982452392578 25.29788589477539 7.752810478210449 31.06082916259766 5.310324668884277 C 37.02632904052734 2.781967639923096 43.36408615112305 1.499996185302734 49.8980712890625 1.499996185302734 C 56.43205642700195 1.499996185302734 62.76981353759766 2.781967639923096 68.73531341552734 5.310324668884277 C 74.49826049804688 7.752810478210449 79.67428588867188 11.24982452392578 84.11959838867188 15.70422458648682 C 88.56511688232422 20.1588249206543 92.05522918701172 25.34578132629395 94.49297332763672 31.12102508544922 C 97.01657104492188 37.09965515136719 98.296142578125 43.45143890380859 98.296142578125 49.99992370605469 C 98.296142578125 56.54855346679688 97.01657104492188 62.90033721923828 94.49297332763672 68.87898254394531 C 92.05522918701172 74.65422821044922 88.56511688232422 79.84117889404297 84.11959838867188 84.29578399658203 C 79.67428588867188 88.75016784667969 74.49826049804688 92.24718475341797 68.73531341552734 94.68968200683594 C 62.76981353759766 97.21802520751953 56.43205642700195 98.5 49.8980712890625 98.5 Z" stroke="none"/>
              <path d="M 49.8980712890625 2.999992370605469 C 43.56630325317383 2.999992370605469 37.42547225952148 4.241966247558594 31.64616394042969 6.691398620605469 C 26.06210327148438 9.058074951171875 21.04636383056641 12.44692230224609 16.73828887939453 16.7637939453125 C 12.42977905273438 21.08108520507812 9.047409057617188 26.10781097412109 6.685104370117188 31.70433807373047 C 4.239837646484375 37.49737930297852 2.999992370605469 43.65290451049805 2.999992370605469 50.00005722045898 C 2.999992370605469 56.34708786010742 4.239837646484375 62.50262832641602 6.685104370117188 68.295654296875 C 9.047409057617188 73.89218139648438 12.42977905273438 78.91889953613281 16.73828887939453 83.23619842529297 C 21.04636383056641 87.55307006835938 26.06208801269531 90.94191741943359 31.64616394042969 93.30859375 C 37.42547225952148 95.75802612304688 43.56630325317383 97 49.8980712890625 97 C 56.22983932495117 97 62.37065505981445 95.75802612304688 68.14997863769531 93.30859375 C 73.73403930664062 90.94191741943359 78.74977874755859 87.55307006835938 83.05785369873047 83.23619842529297 C 87.36634826660156 78.91889953613281 90.74873352050781 73.89218139648438 93.11103820800781 68.295654296875 C 95.55630493164062 62.50262832641602 96.79615020751953 56.34708786010742 96.79615020751953 49.99993515014648 C 96.79615020751953 43.65290451049805 95.55630493164062 37.49737930297852 93.11103820800781 31.70433807373047 C 90.74873352050781 26.10781097412109 87.36634826660156 21.08108520507812 83.05785369873047 16.7637939453125 C 78.74977874755859 12.44692230224609 73.73403930664062 9.058074951171875 68.14997863769531 6.691398620605469 C 62.37065505981445 4.241966247558594 56.22982406616211 2.999992370605469 49.8980712890625 2.999992370605469 M 49.8980712890625 -7.62939453125e-06 C 77.45600891113281 -7.62939453125e-06 99.79615020751953 22.38573455810547 99.79615020751953 49.99993515014648 L 99.79615020751953 50.00005722045898 C 99.79615020751953 77.61427307128906 77.45600891113281 100 49.8980712890625 100 C 22.34011840820312 100 -7.62939453125e-06 77.61427307128906 -7.62939453125e-06 50.00005722045898 L -7.62939453125e-06 49.99993515014648 C -7.62939453125e-06 22.38573455810547 22.34011840820312 -7.62939453125e-06 49.8980712890625 -7.62939453125e-06 Z" stroke="none" fill="#fff"/>
            </g>
          </g>
          <g id="Rectángulo_400907" data-name="Rectángulo 400907" transform="translate(0.204)" fill="none" stroke="#fff" stroke-width="3">
            <rect width="99.796" height="100" rx="49.898" stroke="none"/>
            <rect x="1.5" y="1.5" width="96.796" height="97" rx="48.398" fill="none"/>
          </g>
        </g>
      </g>
    </g>
    <g id="g11115" transform="translate(1187.407 4680.311)">
      <path id="path11117" d="M458.485-301.855h-3.819v-30.81h3.819Z" transform="translate(-411.251 -316.579)" fill="#ffa754"/>
      <path id="path11119" d="M636.485-301.855h-3.819v-30.81h3.819Z" transform="translate(-572.254 -316.579)" fill="#e18f4e"/>
      <path id="path11121" d="M280.485-301.855h-3.819v-30.81h3.819Z" transform="translate(-250.248 -316.579)" fill="#ffa754"/>
      <g id="g11123" transform="translate(0 -682.665)">
        <g id="g11125" clip-path="url(#clip-path)">
          <g id="g11131" transform="translate(13.05 33.42)">
            <path id="path11133" d="M0,0V9.549A5.729,5.729,0,0,0,5.729,3.819Z" fill="#084f6d"/>
          </g>
          <g id="g11135" transform="translate(7.321 33.42)">
            <path id="path11137" d="M-72.361-36.18-74.271-40-80-36.18a5.729,5.729,0,0,0,5.729,5.729c1.055,0,1.91-2.565,1.91-5.729" transform="translate(80 40)" fill="#116f97"/>
          </g>
          <g id="g11139" transform="translate(12.413 21.962)">
            <path id="path11141" d="M-36.18,0H-40l2.546,15.278h3.819V2.546A2.546,2.546,0,0,0-36.18,0" transform="translate(40 0)" fill="#49c9ff"/>
          </g>
          <g id="g11143" transform="translate(7.321 21.962)">
            <path id="path11145" d="M-48.241,0h-2.546a2.546,2.546,0,0,0-2.546,2.546V15.278h7.639V2.546A2.546,2.546,0,0,0-48.241,0" transform="translate(53.333 0)" fill="#7dd9ff"/>
          </g>
          <g id="g11147" transform="translate(5.411 55.955)">
            <path id="path11149" d="M-36.18,0V6.366L-40,7.639V0Z" transform="translate(40)" fill="#a45e43"/>
          </g>
          <g id="g11151" transform="translate(16.869 55.955)">
            <path id="path11153" d="M-36.18,0V7.639L-40,6.366V0Z" transform="translate(40)" fill="#a45e43"/>
          </g>
          <g id="g11155" transform="translate(13.05 6.684)">
            <path id="path11157" d="M0,0V11.458A5.729,5.729,0,0,0,0,0" fill="#ffb4a9"/>
          </g>
          <g id="g11159" transform="translate(7.321 6.684)">
            <path id="path11161" d="M-72.361-54.271c0-3.164-.855-5.729-1.91-5.729A5.729,5.729,0,0,0-80-54.271a5.729,5.729,0,0,0,5.729,5.729c1.055,0,1.91-2.565,1.91-5.729" transform="translate(80 60)" fill="#ffd9d4"/>
          </g>
          <g id="g11163" transform="translate(11.14 0.955)">
            <path id="path11165" d="M-55.3-18.335A2.228,2.228,0,0,0-57.5-20.271a2.223,2.223,0,0,0-1.719.81l-1.91,3.733L-59.223-12h4.764Z" transform="translate(61.133 20.271)" fill="#e18f4e"/>
          </g>
          <g id="g11167" transform="translate(8.285 0.955)">
            <path id="path11169" d="M-28.85,0a2.228,2.228,0,0,0-2.209,1.936l-.837,6.34h4.764V.81A2.224,2.224,0,0,0-28.85,0" transform="translate(31.896)" fill="#ffa754"/>
          </g>
          <path id="path11171" d="M458.485-301.855h-3.819v-30.81h3.819Z" transform="translate(-411.251 366.086)" fill="none" stroke="#000" stroke-linecap="round" stroke-linejoin="round" stroke-miterlimit="10" stroke-width="1"/>
          <path id="path11173" d="M636.485-301.855h-3.819v-30.81h3.819Z" transform="translate(-572.254 366.086)" fill="none" stroke="#000" stroke-linecap="round" stroke-linejoin="round" stroke-miterlimit="10" stroke-width="1"/>
          <path id="path11175" d="M280.485-301.855h-3.819v-30.81h3.819Z" transform="translate(-250.248 366.086)" fill="none" stroke="#000" stroke-linecap="round" stroke-linejoin="round" stroke-miterlimit="10" stroke-width="1"/>
          <g id="g11177" transform="translate(18.779 13.05)">
            <path id="path11179" d="M0-108.541A11.458,11.458,0,0,0,11.458-120" transform="translate(0 120)" fill="none" stroke="#000" stroke-linecap="round" stroke-linejoin="round" stroke-miterlimit="10" stroke-width="1"/>
          </g>
          <g id="g11181" transform="translate(3.501 41.509)">
            <path id="path11183" d="M-54.271,0V20.812L-60,22.722" transform="translate(60)" fill="none" stroke="#000" stroke-linecap="round" stroke-linejoin="round" stroke-miterlimit="10" stroke-width="1"/>
          </g>
          <g id="g11185" transform="translate(5.411 55.955)">
            <path id="path11187" d="M0-72.361V-80H3.819" transform="translate(0 80)" fill="none" stroke="#000" stroke-linecap="round" stroke-linejoin="round" stroke-miterlimit="10" stroke-width="1"/>
          </g>
          <g id="g11189" transform="translate(16.869 41.509)">
            <path id="path11191" d="M0,0V20.812l5.729,1.91" fill="none" stroke="#000" stroke-linecap="round" stroke-linejoin="round" stroke-miterlimit="10" stroke-width="1"/>
          </g>
          <g id="g11193" transform="translate(16.869 55.955)">
            <path id="path11195" d="M-36.18-72.361V-80H-40" transform="translate(40 80)" fill="none" stroke="#000" stroke-linecap="round" stroke-linejoin="round" stroke-miterlimit="10" stroke-width="1"/>
          </g>
          <g id="g11197" transform="translate(7.321 21.962)">
            <path id="path11199" d="M-84.421,0h-6.366a2.546,2.546,0,0,0-2.546,2.546V15.278A5.729,5.729,0,0,0-87.6,21.007a5.729,5.729,0,0,0,5.729-5.729V2.546A2.546,2.546,0,0,0-84.421,0Z" transform="translate(93.333 0)" fill="none" stroke="#000" stroke-linecap="round" stroke-linejoin="round" stroke-miterlimit="10" stroke-width="1"/>
          </g>
          <g id="g11201" transform="translate(0.955 24.508)">
            <path id="path11203" d="M-60.3,0a6.366,6.366,0,0,0-6.366,6.366A6.366,6.366,0,0,0-60.3,12.732h11.458" transform="translate(66.667)" fill="none" stroke="#000" stroke-linecap="round" stroke-linejoin="round" stroke-miterlimit="10" stroke-width="1"/>
          </g>
          <g id="g11205" transform="translate(3.501 9.23)">
            <path id="path11207" d="M-180.9,0H-200" transform="translate(199.999)" fill="none" stroke="#000" stroke-linecap="round" stroke-linejoin="round" stroke-miterlimit="10" stroke-width="1"/>
          </g>
          <g id="g11209" transform="translate(7.321 0.955)">
            <path id="path11211" d="M-99.4-78.391l-.837-6.34a2.228,2.228,0,0,0-2.209-1.936,2.224,2.224,0,0,0-1.719.81,2.224,2.224,0,0,0-1.719-.81,2.228,2.228,0,0,0-2.209,1.936l-.837,6.34a5.7,5.7,0,0,0-.965,3.183,5.729,5.729,0,0,0,5.729,5.729,5.729,5.729,0,0,0,5.729-5.729A5.7,5.7,0,0,0-99.4-78.391Z" transform="translate(109.897 86.666)" fill="none" stroke="#000" stroke-linecap="round" stroke-linejoin="round" stroke-miterlimit="10" stroke-width="1"/>
          </g>
          <g id="g11213" transform="translate(30.237 37.24)">
            <path id="path11215" d="M0,0H13.177" fill="none" stroke="#000" stroke-linecap="round" stroke-linejoin="round" stroke-miterlimit="10" stroke-width="1"/>
          </g>
          <g id="g11217" transform="translate(52.868 35.33)">
            <path id="path11219" d="M0,0V1.91" fill="none" stroke="#000" stroke-linecap="round" stroke-linejoin="round" stroke-miterlimit="10" stroke-width="1"/>
          </g>
          <g id="g11221" transform="translate(54.777 37.24)">
            <path id="path11223" d="M0,0V1.91" fill="none" stroke="#000" stroke-linecap="round" stroke-linejoin="round" stroke-miterlimit="10" stroke-width="1"/>
          </g>
          <g id="g11225" transform="translate(47.234 37.24)">
            <path id="path11227" d="M0,0H13.177" fill="none" stroke="#000" stroke-linecap="round" stroke-linejoin="round" stroke-miterlimit="10" stroke-width="1"/>
          </g>
          <g id="g11229" transform="translate(30.237 60.411)">
            <path id="path11231" d="M0,0H13.177" fill="none" stroke="#000" stroke-linecap="round" stroke-linejoin="round" stroke-miterlimit="10" stroke-width="1"/>
          </g>
          <g id="g11233" transform="translate(52.868 58.501)">
            <path id="path11235" d="M0,0V1.91" fill="none" stroke="#000" stroke-linecap="round" stroke-linejoin="round" stroke-miterlimit="10" stroke-width="1"/>
          </g>
          <g id="g11237" transform="translate(54.777 60.411)">
            <path id="path11239" d="M0,0V1.91" fill="none" stroke="#000" stroke-linecap="round" stroke-linejoin="round" stroke-miterlimit="10" stroke-width="1"/>
          </g>
          <g id="g11241" transform="translate(47.234 60.411)">
            <path id="path11243" d="M0,0H13.177" fill="none" stroke="#000" stroke-linecap="round" stroke-linejoin="round" stroke-miterlimit="10" stroke-width="1"/>
          </g>
          <g id="g11245" transform="translate(35.871 46.916)">
            <path id="path11247" d="M0,0V1.91" fill="none" stroke="#000" stroke-linecap="round" stroke-linejoin="round" stroke-miterlimit="10" stroke-width="1"/>
          </g>
          <g id="g11249" transform="translate(37.781 48.825)">
            <path id="path11251" d="M0,0V1.91" fill="none" stroke="#000" stroke-linecap="round" stroke-linejoin="round" stroke-miterlimit="10" stroke-width="1"/>
          </g>
          <g id="g11253" transform="translate(30.237 48.825)">
            <path id="path11255" d="M0,0H13.177" fill="none" stroke="#000" stroke-linecap="round" stroke-linejoin="round" stroke-miterlimit="10" stroke-width="1"/>
          </g>
          <g id="g11257" transform="translate(47.234 48.825)">
            <path id="path11259" d="M0,0H13.177" fill="none" stroke="#000" stroke-linecap="round" stroke-linejoin="round" stroke-miterlimit="10" stroke-width="1"/>
          </g>
        </g>
      </g>
    </g>
  </g>
</svg>
