<svg xmlns="http://www.w3.org/2000/svg" xmlns:xlink="http://www.w3.org/1999/xlink" width="107.999" height="108" viewBox="0 0 107.999 108">
  <defs>
    <filter id="Trazado_874925" x="0" y="0" width="107.999" height="108" filterUnits="userSpaceOnUse">
      <feOffset dy="3" input="SourceAlpha"/>
      <feGaussianBlur stdDeviation="3" result="blur"/>
      <feFlood flood-opacity="0.161"/>
      <feComposite operator="in" in2="blur"/>
      <feComposite in="SourceGraphic"/>
    </filter>
  </defs>
  <g id="Grupo_1182004" data-name="Grupo 1182004" transform="translate(-200.051 -1051.792)">
    <g id="Grupo_1181720" data-name="Grupo 1181720" transform="translate(-649 -4099.208)">
      <g id="Grupo_1111552" data-name="Grupo 1111552" transform="translate(858.051 5157)">
        <g id="Grupo_1111316" data-name="Grupo 1111316" transform="translate(0 0)">
          <g id="Grupo_1109835" data-name="Grupo 1109835" transform="translate(0 0)">
            <g id="Grupo_1107913" data-name="Grupo 1107913">
              <g transform="matrix(1, 0, 0, 1, -9, -6)" filter="url(#Trazado_874925)">
                <g id="Trazado_874925-2" data-name="Trazado 874925" transform="translate(9 6)" fill="#9cc8ff" opacity="0.859">
                  <path d="M 44.99971771240234 88.49987030029297 C 39.12662887573242 88.49987030029297 33.43001937866211 87.34996032714844 28.06811714172363 85.08206939697266 C 22.88839340209961 82.89122009277344 18.23619270324707 79.75453186035156 14.24076747894287 75.75910949707031 C 10.2453556060791 71.76369476318359 7.108654975891113 67.11151123046875 4.917805194854736 61.9317741394043 C 2.649917602539062 56.56988525390625 1.50000524520874 50.87327194213867 1.50000524520874 45.00019836425781 C 1.50000524520874 39.1265983581543 2.649917602539062 33.42998504638672 4.917805194854736 28.0680980682373 C 7.108654975891113 22.88836097717285 10.2453556060791 18.23617172241211 14.24076747894287 14.24075984954834 C 18.23619270324707 10.24533557891846 22.88839340209961 7.10864782333374 28.06811714172363 4.917797565460205 C 33.43001937866211 2.64991021156311 39.12662887573242 1.499997615814209 44.99971771240234 1.499997615814209 C 50.87280654907227 1.499997615814209 56.56941604614258 2.64991021156311 61.93131637573242 4.917797565460205 C 67.11105346679688 7.10864782333374 71.76324462890625 10.24533557891846 75.7586669921875 14.24075984954834 C 79.75408935546875 18.23617172241211 82.89079284667969 22.88836097717285 85.08162689208984 28.0680980682373 C 87.34953308105469 33.42998504638672 88.49944305419922 39.1265983581543 88.49944305419922 44.99967193603516 C 88.49944305419922 50.87327194213867 87.34953308105469 56.56988525390625 85.08162689208984 61.9317741394043 C 82.89079284667969 67.11151123046875 79.75408935546875 71.76369476318359 75.7586669921875 75.75910949707031 C 71.76324462890625 79.75453186035156 67.11105346679688 82.89122009277344 61.93131637573242 85.08206939697266 C 56.56941604614258 87.34996032714844 50.87280654907227 88.49987030029297 44.99971771240234 88.49987030029297 Z" stroke="none"/>
                  <path d="M 44.99971771240234 2.999992370605469 C 39.32847595214844 2.999992370605469 33.82846069335938 4.110038757324219 28.65244674682617 6.299308776855469 C 23.65151977539062 8.414520263671875 19.15959167480469 11.44326019287109 15.30142974853516 15.30142211914062 C 11.44329071044922 19.15956115722656 8.414535522460938 23.6514892578125 6.29931640625 28.65242004394531 C 4.11004638671875 33.82842254638672 3 39.32843399047852 3 45.00019073486328 C 3 50.67143630981445 4.11004638671875 56.17144775390625 6.29931640625 61.34745025634766 C 8.414535522460938 66.34837341308594 11.44329071044922 70.84030914306641 15.30142974853516 74.69844818115234 C 19.15957641601562 78.55659484863281 23.65151977539062 81.58533477783203 28.65244674682617 83.70054626464844 C 33.82846069335938 85.88982391357422 39.32847595214844 86.99986267089844 44.99971771240234 86.99986267089844 C 50.67095947265625 86.99986267089844 56.17097473144531 85.88982391357422 61.34698867797852 83.70054626464844 C 66.34791564941406 81.58533477783203 70.83985900878906 78.55659484863281 74.69800567626953 74.69844818115234 C 78.55614471435547 70.84030914306641 81.58489990234375 66.34837341308594 83.70011901855469 61.34745025634766 C 85.88938903808594 56.17144775390625 86.99943542480469 50.67143630981445 86.99943542480469 44.99967956542969 C 86.99943542480469 39.32843399047852 85.88938903808594 33.82842254638672 83.70011901855469 28.65242004394531 C 81.58489990234375 23.6514892578125 78.55614471435547 19.15956115722656 74.69800567626953 15.30142211914062 C 70.83984375 11.44326019287109 66.34791564941406 8.414520263671875 61.34698867797852 6.299308776855469 C 56.17097473144531 4.110038757324219 50.67095947265625 2.999992370605469 44.99971771240234 2.999992370605469 M 44.99971771240234 -7.62939453125e-06 C 69.85237121582031 -7.62939453125e-06 89.99943542480469 20.14703369140625 89.99943542480469 44.99967956542969 L 89.99943542480469 45.00019073486328 C 89.99943542480469 69.85283660888672 69.85237121582031 89.99986267089844 44.99971771240234 89.99986267089844 C 20.14706420898438 89.99986267089844 0 69.85283660888672 0 45.00019073486328 L 0 44.99967956542969 C 0 20.14703369140625 20.14706420898438 -7.62939453125e-06 44.99971771240234 -7.62939453125e-06 Z" stroke="none" fill="#fff"/>
                </g>
              </g>
              <g id="Trazado_874923" data-name="Trazado 874923" fill="none">
                <path d="M45,0A45,45,0,0,1,90,45h0A45,45,0,0,1,0,45H0A45,45,0,0,1,45,0Z" stroke="none"/>
                <path d="M 44.99971771240234 2.999992370605469 C 39.32847595214844 2.999992370605469 33.82846069335938 4.110038757324219 28.65244674682617 6.299308776855469 C 23.65151977539062 8.414520263671875 19.15959167480469 11.44326019287109 15.30142974853516 15.30142211914062 C 11.44329071044922 19.15956115722656 8.414535522460938 23.6514892578125 6.29931640625 28.65242004394531 C 4.11004638671875 33.82842254638672 3 39.32843399047852 3 45.00019073486328 C 3 50.67143630981445 4.11004638671875 56.17144775390625 6.29931640625 61.34745025634766 C 8.414535522460938 66.34837341308594 11.44329071044922 70.84030914306641 15.30142974853516 74.69844818115234 C 19.15957641601562 78.55659484863281 23.65151977539062 81.58533477783203 28.65244674682617 83.70054626464844 C 33.82846069335938 85.88982391357422 39.32847595214844 86.99986267089844 44.99971771240234 86.99986267089844 C 50.67095947265625 86.99986267089844 56.17097473144531 85.88982391357422 61.34698867797852 83.70054626464844 C 66.34791564941406 81.58533477783203 70.83985900878906 78.55659484863281 74.69800567626953 74.69844818115234 C 78.55614471435547 70.84030914306641 81.58489990234375 66.34837341308594 83.70011901855469 61.34745025634766 C 85.88938903808594 56.17144775390625 86.99943542480469 50.67143630981445 86.99943542480469 44.99967956542969 C 86.99943542480469 39.32843399047852 85.88938903808594 33.82842254638672 83.70011901855469 28.65242004394531 C 81.58489990234375 23.6514892578125 78.55614471435547 19.15956115722656 74.69800567626953 15.30142211914062 C 70.83984375 11.44326019287109 66.34791564941406 8.414520263671875 61.34698867797852 6.299308776855469 C 56.17097473144531 4.110038757324219 50.67095947265625 2.999992370605469 44.99971771240234 2.999992370605469 M 44.99971771240234 -7.62939453125e-06 C 69.85237121582031 -7.62939453125e-06 89.99943542480469 20.14703369140625 89.99943542480469 44.99967956542969 L 89.99943542480469 45.00019073486328 C 89.99943542480469 69.85283660888672 69.85237121582031 89.99986267089844 44.99971771240234 89.99986267089844 C 20.14706420898438 89.99986267089844 0 69.85283660888672 0 45.00019073486328 L 0 44.99967956542969 C 0 20.14703369140625 20.14706420898438 -7.62939453125e-06 44.99971771240234 -7.62939453125e-06 Z" stroke="none" fill="#fff"/>
              </g>
            </g>
          </g>
        </g>
      </g>
      <path id="Trazado_909642" data-name="Trazado 909642" d="M45,0A45,45,0,0,1,90,45h0A45,45,0,0,1,0,45H0A45,45,0,0,1,45,0Z" transform="translate(858.051 5157)" fill="none"/>
    </g>
    <g id="cultivation_4496263" transform="translate(223.412 1074.153)">
      <g id="Grupo_1182002" data-name="Grupo 1182002" transform="translate(0.923 0.924)">
        <g id="Grupo_1181975" data-name="Grupo 1181975" transform="translate(2.338 39.31)">
          <path id="Trazado_909747" data-name="Trazado 909747" d="M15.974,48.585a5.529,5.529,0,0,0,1.848,4.13V55.2A7.276,7.276,0,0,1,5.23,52.539l-1.7-5.922L15.974,43.55Z" transform="translate(-3.53 -43.55)" fill="#ccd1d9"/>
        </g>
        <g id="Grupo_1181976" data-name="Grupo 1181976" transform="translate(0 35.421)">
          <path id="Trazado_909748" data-name="Trazado 909748" d="M3.337,46.3l-.037.009a1.9,1.9,0,0,1-.453.055,1.838,1.838,0,0,1-1.792-1.4,1.812,1.812,0,0,1,.212-1.4,1.731,1.731,0,0,1,.637-.628,1.694,1.694,0,0,1,.5-.212l13.71-3.381h.009a3.583,3.583,0,0,0-.342,1.534v2.356Z" transform="translate(-0.999 -39.34)" fill="#aab2bd"/>
        </g>
        <g id="Grupo_1181977" data-name="Grupo 1181977" transform="translate(18.478 33.259)">
          <path id="Trazado_909749" data-name="Trazado 909749" d="M25.305,37.656a8.164,8.164,0,0,1,4.933,7.483v1.1H24.7V40.7A3.69,3.69,0,0,0,21,37h1.1c.092,0,.185,0,.277.009A7.987,7.987,0,0,1,25.305,37.656Z" transform="translate(-21 -37)" fill="#fcd770"/>
        </g>
        <g id="Grupo_1181978" data-name="Grupo 1181978" transform="translate(14.782 33.259)">
          <path id="Trazado_909750" data-name="Trazado 909750" d="M24.391,46.239h7.391a1.853,1.853,0,0,1,1.848,1.848v3.7a1.853,1.853,0,0,1-1.848,1.848H22.543A5.547,5.547,0,0,1,17,48.086V40.7a3.583,3.583,0,0,1,.342-1.534A3.67,3.67,0,0,1,20.7,37a3.69,3.69,0,0,1,3.7,3.7Z" transform="translate(-17 -37)" fill="#fcd770"/>
        </g>
        <g id="Grupo_1181979" data-name="Grupo 1181979" transform="translate(16.63 48.475)">
          <path id="Trazado_909751" data-name="Trazado 909751" d="M19,55.955V53.47a5.516,5.516,0,0,0,3.7,1.414h7.391v5.543H19Z" transform="translate(-19 -53.47)" fill="#fcd770"/>
        </g>
        <g id="Grupo_1181980" data-name="Grupo 1181980" transform="translate(36.04 3.695)">
          <path id="Trazado_909752" data-name="Trazado 909752" d="M53.859,5H46.468a5.548,5.548,0,0,0-5.543,5.543H43.7a.927.927,0,0,1,.924.924v1.848a.927.927,0,0,1-.924.924H40.925a11.247,11.247,0,0,1-.915,4.416,2.735,2.735,0,0,1,.915,2.051V51.193a5.548,5.548,0,0,0,5.543,5.543h7.391A5.548,5.548,0,0,0,59.4,51.193V10.543A5.548,5.548,0,0,0,53.859,5Z" transform="translate(-40.01 -5)" fill="#dfb28b"/>
        </g>
        <g id="Grupo_1181981" data-name="Grupo 1181981" transform="translate(46.194 46.193)">
          <path id="Trazado_909753" data-name="Trazado 909753" d="M56.543,51v.924A2.768,2.768,0,0,1,53.772,54.7H51v-.924A2.768,2.768,0,0,1,53.772,51Z" transform="translate(-51 -51)" fill="#b4dd7f"/>
        </g>
        <g id="Grupo_1181982" data-name="Grupo 1181982" transform="translate(40.65 46.193)">
          <path id="Trazado_909754" data-name="Trazado 909754" d="M50.543,53.772V54.7H47.772A2.768,2.768,0,0,1,45,51.924V51h2.772A2.768,2.768,0,0,1,50.543,53.772Z" transform="translate(-45 -51)" fill="#b4dd7f"/>
        </g>
        <g id="Grupo_1181983" data-name="Grupo 1181983" transform="translate(40.65 36.954)">
          <path id="Trazado_909755" data-name="Trazado 909755" d="M50.543,43.772V44.7H47.772A2.768,2.768,0,0,1,45,41.924V41h2.772A2.768,2.768,0,0,1,50.543,43.772Z" transform="translate(-45 -41)" fill="#b4dd7f"/>
        </g>
        <g id="Grupo_1181984" data-name="Grupo 1181984" transform="translate(46.194 36.954)">
          <path id="Trazado_909756" data-name="Trazado 909756" d="M56.543,41v.924A2.768,2.768,0,0,1,53.772,44.7H51v-.924A2.768,2.768,0,0,1,53.772,41Z" transform="translate(-51 -41)" fill="#b4dd7f"/>
        </g>
        <g id="Grupo_1181985" data-name="Grupo 1181985" transform="translate(46.194 27.716)">
          <path id="Trazado_909757" data-name="Trazado 909757" d="M56.543,31v.924A2.768,2.768,0,0,1,53.772,34.7H51v-.924A2.768,2.768,0,0,1,53.772,31Z" transform="translate(-51 -31)" fill="#b4dd7f"/>
        </g>
        <g id="Grupo_1181986" data-name="Grupo 1181986" transform="translate(40.65 27.716)">
          <path id="Trazado_909758" data-name="Trazado 909758" d="M50.543,33.772V34.7H47.772A2.768,2.768,0,0,1,45,31.924V31h2.772A2.768,2.768,0,0,1,50.543,33.772Z" transform="translate(-45 -31)" fill="#b4dd7f"/>
        </g>
        <g id="Grupo_1181987" data-name="Grupo 1181987" transform="translate(40.65 18.477)">
          <path id="Trazado_909759" data-name="Trazado 909759" d="M50.543,23.772V24.7H47.772A2.768,2.768,0,0,1,45,21.924V21h2.772A2.768,2.768,0,0,1,50.543,23.772Z" transform="translate(-45 -21)" fill="#b4dd7f"/>
        </g>
        <g id="Grupo_1181988" data-name="Grupo 1181988" transform="translate(46.194 18.477)">
          <path id="Trazado_909760" data-name="Trazado 909760" d="M56.543,21v.924A2.768,2.768,0,0,1,53.772,24.7H51v-.924A2.768,2.768,0,0,1,53.772,21Z" transform="translate(-51 -21)" fill="#b4dd7f"/>
        </g>
        <g id="Grupo_1181989" data-name="Grupo 1181989" transform="translate(46.194 9.239)">
          <path id="Trazado_909761" data-name="Trazado 909761" d="M56.543,11v.924A2.768,2.768,0,0,1,53.772,14.7H51v-.924A2.768,2.768,0,0,1,53.772,11Z" transform="translate(-51 -11)" fill="#b4dd7f"/>
        </g>
        <g id="Grupo_1181990" data-name="Grupo 1181990" transform="translate(40.65 9.239)">
          <path id="Trazado_909762" data-name="Trazado 909762" d="M50.543,13.772V14.7H47.772A2.768,2.768,0,0,1,45,11.924V11h2.772A2.768,2.768,0,0,1,50.543,13.772Z" transform="translate(-45 -11)" fill="#b4dd7f"/>
        </g>
        <g id="Grupo_1181991" data-name="Grupo 1181991" transform="translate(0.001 29.665)">
          <path id="Trazado_909763" data-name="Trazado 909763" d="M2.4,42.247a1.694,1.694,0,0,0-.5.212V42.45A2.776,2.776,0,0,1,1,40.4a2.747,2.747,0,0,1,2.051-2.661,2.767,2.767,0,0,1,5.072-2.208,3.651,3.651,0,0,1,2.116-.674,3.591,3.591,0,0,1,1.3.249,3.707,3.707,0,0,1,2.467-2h.009a9.244,9.244,0,0,0,6.837,3.585v.018c-.092-.009-.185-.009-.277-.009h-1.1a3.67,3.67,0,0,0-3.354,2.162h-.009Z" transform="translate(-1 -33.11)" fill="#b4dd7f"/>
        </g>
        <g id="Grupo_1181992" data-name="Grupo 1181992" transform="translate(7.391)">
          <path id="Trazado_909764" data-name="Trazado 909764" d="M38.564,10.239H9a9.14,9.14,0,0,0,2.716-3.261,9.153,9.153,0,0,0,.979-4.13A1.853,1.853,0,0,1,14.543,1H33.02a1.806,1.806,0,0,1,1.3.545,1.806,1.806,0,0,1,.545,1.3A9.232,9.232,0,0,0,38.564,10.239Z" transform="translate(-9 -1)" fill="#cf9e76"/>
        </g>
        <g id="Grupo_1181993" data-name="Grupo 1181993" transform="translate(3.696 9.239)">
          <path id="Trazado_909765" data-name="Trazado 909765" d="M41.954,11.924v1.848a.927.927,0,0,1-.924.924H5.924A.927.927,0,0,1,5,13.772V11.924A.927.927,0,0,1,5.924,11H41.031A.927.927,0,0,1,41.954,11.924Z" transform="translate(-5 -11)" fill="#d3a06c"/>
        </g>
        <g id="Grupo_1181994" data-name="Grupo 1181994" transform="translate(33.26 12.934)">
          <path id="Trazado_909766" data-name="Trazado 909766" d="M37,15h3.7a11.247,11.247,0,0,1-.915,4.416,2.753,2.753,0,0,0-1.857-.721H37Z" transform="translate(-37 -15)" fill="#656d78"/>
        </g>
        <g id="Grupo_1181995" data-name="Grupo 1181995" transform="translate(7.391 12.934)">
          <path id="Trazado_909767" data-name="Trazado 909767" d="M12.7,15v3.7h-.924a2.753,2.753,0,0,0-1.857.721A11.052,11.052,0,0,1,9,15Z" transform="translate(-9 -15)" fill="#656d78"/>
        </g>
        <g id="Grupo_1181996" data-name="Grupo 1181996" transform="translate(31.412 42.498)">
          <path id="Trazado_909768" data-name="Trazado 909768" d="M40.543,48.848V50.7A1.853,1.853,0,0,1,38.7,52.543H35v-3.7l.416-.822A1.848,1.848,0,0,1,37.069,47H38.7A1.853,1.853,0,0,1,40.543,48.848Z" transform="translate(-35 -47)" fill="#f0d0b4"/>
        </g>
        <g id="Grupo_1181997" data-name="Grupo 1181997" transform="translate(33.26 16.629)">
          <path id="Trazado_909769" data-name="Trazado 909769" d="M39.781,19.721a2.735,2.735,0,0,1,.915,2.051,2.776,2.776,0,0,1-2.772,2.772H37V19h.924a2.753,2.753,0,0,1,1.857.721Z" transform="translate(-37 -19)" fill="#f0d0b4"/>
        </g>
        <g id="Grupo_1181998" data-name="Grupo 1181998" transform="translate(11.087 12.934)">
          <path id="Trazado_909770" data-name="Trazado 909770" d="M35.173,24.239v1.848a9.242,9.242,0,0,1-9.239,9.239h-3.7c-.157,0-.314,0-.471-.009A9.256,9.256,0,0,1,13,26.086V15H35.173v9.239Z" transform="translate(-13 -15)" fill="#f0d0b4"/>
        </g>
        <g id="Grupo_1181999" data-name="Grupo 1181999" transform="translate(7.391 16.629)">
          <path id="Trazado_909771" data-name="Trazado 909771" d="M12.7,19v5.543h-.924A2.776,2.776,0,0,1,9,21.772,2.783,2.783,0,0,1,11.772,19Z" transform="translate(-9 -19)" fill="#f0d0b4"/>
        </g>
        <g id="Grupo_1182000" data-name="Grupo 1182000" transform="translate(18.478 25.868)">
          <path id="Trazado_909772" data-name="Trazado 909772" d="M21,29h7.391A3.7,3.7,0,1,1,21,29Z" transform="translate(-21 -29)" fill="#ff826e"/>
        </g>
        <g id="Grupo_1182001" data-name="Grupo 1182001" transform="translate(16.63 22.173)">
          <path id="Trazado_909773" data-name="Trazado 909773" d="M28.239,28.7H19A3.69,3.69,0,0,1,22.7,25h3.7a3.694,3.694,0,0,1,3.7,3.7Z" transform="translate(-19 -25)" fill="#969faa"/>
        </g>
      </g>
      <g id="Grupo_1182003" data-name="Grupo 1182003" transform="translate(-0.001 0)">
        <path id="Trazado_909774" data-name="Trazado 909774" d="M26.315,24h-3.7A4.625,4.625,0,0,0,18,28.619v.924h1.941a4.619,4.619,0,0,0,9.052,0h1.941v-.924A4.625,4.625,0,0,0,26.315,24Zm2.614,3.7h-1.69V26.01A2.781,2.781,0,0,1,28.928,27.7Zm-5.385-1.848h1.848V27.7H23.543ZM21.7,26.01V27.7h-1.69A2.786,2.786,0,0,1,21.7,26.01Zm2.772,5.381a2.768,2.768,0,0,1-2.6-1.848h5.2A2.766,2.766,0,0,1,24.467,31.391Z" transform="translate(-1.369 -1.827)"/>
        <path id="Trazado_909775" data-name="Trazado 909775" d="M19.7,19.848A1.85,1.85,0,0,1,21.543,21.7h1.848A3.7,3.7,0,0,0,16,21.7h1.848A1.85,1.85,0,0,1,19.7,19.848Z" transform="translate(-1.217 -1.371)"/>
        <path id="Trazado_909776" data-name="Trazado 909776" d="M29.7,19.848A1.85,1.85,0,0,1,31.543,21.7h1.848A3.7,3.7,0,1,0,26,21.7h1.848A1.85,1.85,0,0,1,29.7,19.848Z" transform="translate(-1.979 -1.371)"/>
        <path id="Trazado_909777" data-name="Trazado 909777" d="M50.812,3.7H43.421A6.476,6.476,0,0,0,37.231,8.3a8.348,8.348,0,0,1-2.124-5.529A2.775,2.775,0,0,0,32.335,0H13.858a2.775,2.775,0,0,0-2.772,2.772A8.35,8.35,0,0,1,7.978,9.239H5.543A1.85,1.85,0,0,0,3.7,11.086v1.848a1.85,1.85,0,0,0,1.848,1.848H7.437a11.957,11.957,0,0,0,.733,3.3,3.676,3.676,0,0,0,2.917,5.939v.924a10.086,10.086,0,0,0,1.46,5.221A4.6,4.6,0,0,0,11.034,31.5a4.492,4.492,0,0,0-2.689.287,3.687,3.687,0,0,0-6.5,2.4,3.576,3.576,0,0,0,.033.488,3.646,3.646,0,0,0-1.3,5.168,2.974,2.974,0,0,0-.188.252,2.764,2.764,0,0,0,2.187,4.182L4.07,49.479A8.188,8.188,0,0,0,16.63,53.96v3.319H29.564V51.736h.924a2.768,2.768,0,0,0,2.6-1.848H36.03a2.74,2.74,0,0,0,.924-.17v1.094a6.475,6.475,0,0,0,6.467,6.467h7.391a6.475,6.475,0,0,0,6.467-6.467V10.162A6.475,6.475,0,0,0,50.812,3.7ZM35.59,9.239H29.946L29.4,8.7A5.723,5.723,0,0,1,27.8,5.543h5.869A10.24,10.24,0,0,0,35.59,9.239Zm-9.66-3.7a7.523,7.523,0,0,0,1.509,3.7H18.755a7.531,7.531,0,0,0,1.509-3.7Zm-12.072-3.7H32.335a.925.925,0,0,1,.924.924c0,.31.027.617.055.924H12.879c.029-.307.055-.613.055-.924a.925.925,0,0,1,.924-.924Zm-1.329,3.7H18.4A5.724,5.724,0,0,1,16.788,8.7l-.541.541H10.6A10.227,10.227,0,0,0,12.528,5.543ZM5.543,11.086H40.65v1.848H5.543Zm26.9,32.223a2.762,2.762,0,0,0-1.959-.812h-.924V42.32a9.032,9.032,0,0,0-3.679-7.261,10.174,10.174,0,0,0,9.222-10.115V24.02a3.657,3.657,0,0,0,1.848-.514V42.668a2.736,2.736,0,0,0-.924-.17H34.4A2.754,2.754,0,0,0,32.446,43.31Zm-8.96-7.546a7.2,7.2,0,0,1,4.229,6.557V42.5h-3.7v-4.62a4.566,4.566,0,0,0-.533-2.114ZM12.934,14.782H33.259V24.944a8.324,8.324,0,0,1-8.315,8.315h-3.7a8.324,8.324,0,0,1-8.315-8.315Zm22.173,7.391v-3.7a1.848,1.848,0,1,1,0,3.7ZM36.49,16.9a3.684,3.684,0,0,0-1.383-.273V14.782h1.8A10.039,10.039,0,0,1,36.49,16.9Zm-25.4-2.121v1.848A3.666,3.666,0,0,0,9.7,16.9a10.106,10.106,0,0,1-.418-2.122ZM9.239,20.325a1.85,1.85,0,0,1,1.848-1.848v3.7A1.85,1.85,0,0,1,9.239,20.325ZM3.217,36.1l1-.272-.388-.965a1.829,1.829,0,0,1-.137-.686,1.85,1.85,0,0,1,1.848-1.848A1.829,1.829,0,0,1,7.209,33.4l.467.993.9-.631a2.672,2.672,0,0,1,2.563-.317l.79.3.368-.761a2.772,2.772,0,0,1,1.351-1.319,10.208,10.208,0,0,0,3.15,2.4,4.687,4.687,0,0,0-.662.545,4.6,4.6,0,0,0-.7.938L2.12,38.824a1.819,1.819,0,0,1,1.1-2.72ZM1.876,41.742a.915.915,0,0,1,.1-.7.9.9,0,0,1,.565-.419L14.808,37.6c-.006.091-.027.18-.027.273v1.635L3,42.413a.933.933,0,0,1-1.119-.672ZM11.96,53.584a6.386,6.386,0,0,1-6.113-4.611L4.416,43.966l10.366-2.552v3.853A6.438,6.438,0,0,0,15,46.9l-3.505-1.946.564-1.2-1.672-.787-.511,1.085-1.109-.615-.9,1.615,1.218.676-.665,1.414L6.916,46.31l-.9,1.615,1.615.9-.752,1.6,1.672.787.7-1.485,1.777.987-.791,1.582,1.653.827.755-1.51,1.688.938.9-1.615-1.758-.977.7-1.4,2.458,1.362v1.608a6.331,6.331,0,0,1-4.669,2.057Zm.594-5.927-.7,1.4L10.04,48.045l.665-1.414Zm15.161,7.774H18.477V51.1a6.409,6.409,0,0,0,2.772.633h6.467Zm3.7-6.467a.925.925,0,0,1-.924.924H21.249a4.625,4.625,0,0,1-4.619-4.619V37.876A2.771,2.771,0,0,1,19.4,35.106h.01a2.771,2.771,0,0,1,2.762,2.771v5.264L20.481,45.68,22.018,46.7l1.572-2.36h6.9a.925.925,0,0,1,.924.924Zm4.619-.924H33.259V45.487l.316-.632a.92.92,0,0,1,.827-.51h1.63a.925.925,0,0,1,.924.924v1.848A.926.926,0,0,1,36.03,48.041Zm19.4,2.772a4.625,4.625,0,0,1-4.619,4.619H43.421A4.625,4.625,0,0,1,38.8,50.812V20.325a3.663,3.663,0,0,0-.779-2.243,11.957,11.957,0,0,0,.733-3.3H40.65a1.841,1.841,0,0,0,1.482-.755,3.658,3.658,0,0,0,2.214.755h5.543a3.7,3.7,0,0,0,3.7-3.7V9.239h-3.7a3.672,3.672,0,0,0-2.772,1.277,3.672,3.672,0,0,0-2.772-1.277H38.9a4.628,4.628,0,0,1,4.526-3.7h7.391a4.625,4.625,0,0,1,4.619,4.619ZM42.5,11.086h1.848a1.85,1.85,0,0,1,1.848,1.848H44.345A1.85,1.85,0,0,1,42.5,11.086Zm5.543,1.848a1.85,1.85,0,0,1,1.848-1.848h1.848a1.85,1.85,0,0,1-1.848,1.848Z" transform="translate(0.001 0)"/>
        <path id="Trazado_909778" data-name="Trazado 909778" d="M50.467,51.277A3.672,3.672,0,0,0,47.7,50H44v1.848a3.7,3.7,0,0,0,3.7,3.7h5.543a3.7,3.7,0,0,0,3.7-3.7V50h-3.7A3.672,3.672,0,0,0,50.467,51.277ZM47.7,53.7a1.85,1.85,0,0,1-1.848-1.848H47.7A1.85,1.85,0,0,1,49.543,53.7Zm5.543,0H51.391a1.85,1.85,0,0,1,1.848-1.848h1.848A1.85,1.85,0,0,1,53.239,53.7Z" transform="translate(-3.349 -3.807)"/>
        <path id="Trazado_909779" data-name="Trazado 909779" d="M50.467,41.277A3.672,3.672,0,0,0,47.7,40H44v1.848a3.7,3.7,0,0,0,3.7,3.7h5.543a3.7,3.7,0,0,0,3.7-3.7V40h-3.7A3.672,3.672,0,0,0,50.467,41.277ZM47.7,43.7a1.85,1.85,0,0,1-1.848-1.848H47.7A1.85,1.85,0,0,1,49.543,43.7Zm5.543,0H51.391a1.85,1.85,0,0,1,1.848-1.848h1.848A1.85,1.85,0,0,1,53.239,43.7Z" transform="translate(-3.349 -3.046)"/>
        <path id="Trazado_909780" data-name="Trazado 909780" d="M50.467,31.277A3.672,3.672,0,0,0,47.7,30H44v1.848a3.7,3.7,0,0,0,3.7,3.7h5.543a3.7,3.7,0,0,0,3.7-3.7V30h-3.7A3.672,3.672,0,0,0,50.467,31.277ZM47.7,33.7a1.85,1.85,0,0,1-1.848-1.848H47.7A1.85,1.85,0,0,1,49.543,33.7Zm5.543,0H51.391a1.85,1.85,0,0,1,1.848-1.848h1.848A1.85,1.85,0,0,1,53.239,33.7Z" transform="translate(-3.349 -2.284)"/>
        <path id="Trazado_909781" data-name="Trazado 909781" d="M50.467,21.277A3.672,3.672,0,0,0,47.7,20H44v1.848a3.7,3.7,0,0,0,3.7,3.7h5.543a3.7,3.7,0,0,0,3.7-3.7V20h-3.7A3.672,3.672,0,0,0,50.467,21.277ZM47.7,23.7a1.85,1.85,0,0,1-1.848-1.848H47.7A1.85,1.85,0,0,1,49.543,23.7Zm5.543,0H51.391a1.85,1.85,0,0,1,1.848-1.848h1.848A1.85,1.85,0,0,1,53.239,23.7Z" transform="translate(-3.349 -1.523)"/>
      </g>
    </g>
  </g>
</svg>
