<svg xmlns="http://www.w3.org/2000/svg" xmlns:xlink="http://www.w3.org/1999/xlink" width="190.051" height="104.724" viewBox="0 0 190.051 104.724">
  <defs>
    <clipPath id="clip-path">
      <path id="influencer-their-pet-creating-content-online-spaces-social-media" d="M0,0H190.051V93H0Z" transform="translate(1230 6185.238)" fill="#2e435d"/>
    </clipPath>
    <filter id="Rectángulo_404882" x="-2.949" y="-9.515" width="208" height="137" filterUnits="userSpaceOnUse">
      <feOffset dx="6" dy="7" input="SourceAlpha"/>
      <feGaussianBlur stdDeviation="3" result="blur"/>
      <feFlood flood-opacity="0.161"/>
      <feComposite operator="in" in2="blur"/>
      <feComposite in="SourceGraphic"/>
    </filter>
    <clipPath id="clip-path-2">
      <rect id="Rectángulo_404877" data-name="Rectángulo 404877" width="190" height="119" rx="8" fill="#fff"/>
    </clipPath>
  </defs>
  <g id="Grupo_1182291" data-name="Grupo 1182291" transform="translate(-1230 -6173.515)">
    <g id="Enmascarar_grupo_1098806" data-name="Enmascarar grupo 1098806" clip-path="url(#clip-path)">
      <g id="Grupo_1114064" data-name="Grupo 1114064" transform="translate(595 1332.332)">
        <g id="Grupo_1114063" data-name="Grupo 1114063" transform="translate(635.051 4833.668)">
          <g transform="matrix(1, 0, 0, 1, -0.05, 7.51)" filter="url(#Rectángulo_404882)">
            <rect id="Rectángulo_404882-2" data-name="Rectángulo 404882" width="190" height="119" rx="8" transform="translate(0.05 -7.51)" fill="#fff"/>
          </g>
        </g>
        <g id="Enmascarar_grupo_1098775" data-name="Enmascarar grupo 1098775" transform="translate(635.051 4833.668)" clip-path="url(#clip-path-2)">
          <g id="Grupo_1114062" data-name="Grupo 1114062" transform="translate(-3.987 -18.25)">
            <g id="BACKGROUND">
              <rect id="Rectángulo_404878" data-name="Rectángulo 404878" width="196.98" height="151.339" fill="#f9e5d6"/>
            </g>
            <g id="OBJECTS" transform="translate(0 7.564)">
              <g id="Grupo_1113824" data-name="Grupo 1113824" transform="translate(0.076)">
                <g id="Grupo_1113799" data-name="Grupo 1113799" transform="translate(59.458 7.85)">
                  <g id="Grupo_1113798" data-name="Grupo 1113798">
                    <g id="Grupo_1113797" data-name="Grupo 1113797">
                      <path id="Trazado_906792" data-name="Trazado 906792" d="M231.762,58.247s-1.371-4.684-4.341-4.341-3.427,1.713-5.941.686-3.427-4.341-7.54-3.542-4.57,5.369-9.254,5.027-6.283-.457-8,2.171Z" transform="translate(-196.689 -50.927)" fill="#fff"/>
                    </g>
                  </g>
                </g>
                <g id="Grupo_1113801" data-name="Grupo 1113801" transform="translate(17.084 23.555)">
                  <g id="Grupo_1113800" data-name="Grupo 1113800">
                    <path id="Trazado_906793" data-name="Trazado 906793" d="M62.165,104.412s-3.191-2.426-5.472-1.163c0,0,3.828.125,5.51,2.177,0,0,2.319-2.631,5.087-2.2C67.29,103.224,65.276,101.737,62.165,104.412Z" transform="translate(-56.693 -102.812)" fill="#1e1c18"/>
                    <path id="Trazado_906794" data-name="Trazado 906794" d="M107.493,105.194s-2.124-1.462-3.551-.581c0,0,2.463-.036,3.606,1.232,0,0,1.41-1.761,3.2-1.569C110.749,104.276,109.41,103.381,107.493,105.194Z" transform="translate(-89.641 -103.679)" fill="#1e1c18"/>
                  </g>
                </g>
                <g id="Grupo_1113804" data-name="Grupo 1113804" transform="translate(8.441)">
                  <g id="Grupo_1113803" data-name="Grupo 1113803">
                    <g id="Grupo_1113802" data-name="Grupo 1113802">
                      <path id="Trazado_906795" data-name="Trazado 906795" d="M59.666,32.184a4.971,4.971,0,0,0-5.925-2.465c-4.287,1.035-6.134-5.105-9.952-4.711s-3.473,2.789-8.344,3.579-5.257,0-7.308,3.6Z" transform="translate(-28.137 -24.991)" fill="#fff"/>
                    </g>
                  </g>
                </g>
                <g id="Grupo_1113808" data-name="Grupo 1113808" transform="translate(161.331 49.717)">
                  <g id="Grupo_1113807" data-name="Grupo 1113807">
                    <g id="Grupo_1113806" data-name="Grupo 1113806">
                      <g id="Grupo_1113805" data-name="Grupo 1113805">
                        <path id="Trazado_906796" data-name="Trazado 906796" d="M555.966,194.427a3.58,3.58,0,0,0-4.267-1.775c-3.087.745-4.417-3.677-7.167-3.392s-2.5,2.008-6.008,2.577-3.786,0-5.263,2.59Z" transform="translate(-533.261 -189.246)" fill="#fff"/>
                      </g>
                    </g>
                  </g>
                </g>
                <g id="Grupo_1113811" data-name="Grupo 1113811" transform="translate(30.424 31.364)">
                  <g id="Grupo_1113810" data-name="Grupo 1113810">
                    <g id="Grupo_1113809" data-name="Grupo 1113809">
                      <path id="Trazado_906797" data-name="Trazado 906797" d="M123.47,133.792a3.58,3.58,0,0,0-4.266-1.775c-3.088.745-4.418-3.676-7.167-3.392s-2.5,2.008-6.008,2.577-3.786,0-5.263,2.59Z" transform="translate(-100.766 -128.612)" fill="#fff"/>
                    </g>
                  </g>
                </g>
                <g id="Grupo_1113814" data-name="Grupo 1113814" transform="translate(25.974 53.495)">
                  <g id="Grupo_1113813" data-name="Grupo 1113813">
                    <g id="Grupo_1113812" data-name="Grupo 1113812">
                      <path id="Trazado_906798" data-name="Trazado 906798" d="M117.669,208.941a4.983,4.983,0,0,0-5.939-2.47c-4.3,1.037-6.149-5.118-9.975-4.722s-3.481,2.8-8.364,3.587-5.269,0-7.326,3.605Z" transform="translate(-86.065 -201.73)" fill="#fff"/>
                    </g>
                  </g>
                </g>
                <g id="Grupo_1113817" data-name="Grupo 1113817" transform="translate(0 47.105)">
                  <g id="Grupo_1113816" data-name="Grupo 1113816">
                    <g id="Grupo_1113815" data-name="Grupo 1113815">
                      <path id="Trazado_906799" data-name="Trazado 906799" d="M.25,185.8H15.862a3.58,3.58,0,0,0-4.267-1.775c-3.087.745-4.417-3.677-7.167-3.392-2.149.222-2.467,1.325-4.179,2.067Z" transform="translate(-0.25 -180.617)" fill="#fff"/>
                    </g>
                  </g>
                </g>
                <g id="Grupo_1113820" data-name="Grupo 1113820" transform="translate(157.633 18.41)">
                  <g id="Grupo_1113819" data-name="Grupo 1113819" transform="translate(0 0)">
                    <g id="Grupo_1113818" data-name="Grupo 1113818">
                      <path id="Trazado_906800" data-name="Trazado 906800" d="M552.574,93.008a4.971,4.971,0,0,0-5.925-2.465c-4.287,1.035-6.134-5.106-9.952-4.711s-3.473,2.789-8.344,3.579-5.257,0-7.308,3.6Z" transform="translate(-521.045 -85.815)" fill="#fff"/>
                    </g>
                  </g>
                </g>
                <g id="Grupo_1113823" data-name="Grupo 1113823" transform="translate(111.904 28.059)">
                  <g id="Grupo_1113822" data-name="Grupo 1113822">
                    <g id="Grupo_1113821" data-name="Grupo 1113821">
                      <path id="Trazado_906801" data-name="Trazado 906801" d="M401.493,124.886a4.971,4.971,0,0,0-5.925-2.465c-4.287,1.035-6.134-5.106-9.952-4.711s-3.473,2.789-8.344,3.579-5.257,0-7.308,3.6Z" transform="translate(-369.964 -117.693)" fill="#fff"/>
                    </g>
                  </g>
                </g>
              </g>
              <g id="Grupo_1113859" data-name="Grupo 1113859" transform="translate(0.169 77.702)" opacity="0.71">
                <g id="Grupo_1113833" data-name="Grupo 1113833" transform="translate(27.913)">
                  <g id="Grupo_1113831" data-name="Grupo 1113831">
                    <path id="Trazado_906807" data-name="Trazado 906807" d="M109.011,271.716l-1.188.042-.9.032-2.792.1S89.445,251.87,93.483,243.817c3.148-6.279,12.97-7.636,15.336,1.254S109.011,271.716,109.011,271.716Z" transform="translate(-92.78 -238.756)" fill="#005454"/>
                  </g>
                  <g id="Grupo_1113832" data-name="Grupo 1113832" transform="translate(8.126 7.288)">
                    <path id="Trazado_906808" data-name="Trazado 906808" d="M126.545,288.549l-.9.032-6.012-25.345c-.045-.185.117-.363.358-.4a.451.451,0,0,1,.518.275Z" transform="translate(-119.628 -262.835)" fill="#003d3c"/>
                  </g>
                </g>
                <g id="Grupo_1113836" data-name="Grupo 1113836" transform="translate(36.485 4.083)">
                  <g id="Grupo_1113834" data-name="Grupo 1113834">
                    <path id="Trazado_906809" data-name="Trazado 906809" d="M148.42,280.853s-2.035.356-4.326.563c-.39.035-.787.066-1.182.09-.514.031-1.025.051-1.514.054-.31,0-.612,0-.9-.016-1.308-.058-2.341-.284-2.643-.805,0,0,.481-28.382,9.575-28.23,8.891.148-1.741,20.045-2.219,20.932.424-.732,8.6-14.656,16.766-11.414C170.365,265.356,148.42,280.853,148.42,280.853Z" transform="translate(-137.857 -252.508)" fill="#00666c"/>
                  </g>
                  <g id="Grupo_1113835" data-name="Grupo 1113835" transform="translate(2.643 6.108)">
                    <path id="Trazado_906810" data-name="Trazado 906810" d="M152.31,273.083l-4.823,22.548c-.31,0-.612,0-.9-.016l4.842-22.643a.448.448,0,0,1,.512-.281C152.184,272.722,152.349,272.9,152.31,273.083Z" transform="translate(-146.588 -272.687)" fill="#005454"/>
                    <path id="Trazado_906811" data-name="Trazado 906811" d="M168.876,300.618l-13.134,13.97c-.39.035-.787.066-1.182.09l13.592-14.457a.538.538,0,0,1,.621-.078A.293.293,0,0,1,168.876,300.618Z" transform="translate(-152.147 -291.788)" fill="#005454"/>
                  </g>
                </g>
                <g id="Grupo_1113841" data-name="Grupo 1113841" transform="translate(0 8.637)">
                  <g id="Grupo_1113837" data-name="Grupo 1113837" transform="translate(0 9.586)">
                    <path id="Trazado_906812" data-name="Trazado 906812" d="M.56,298.963v14.065c4.184,3.148,7.765,5.385,7.765,5.385l3.237-1.3S6.607,305.782.56,298.963Z" transform="translate(-0.56 -298.963)" fill="#003d3c"/>
                  </g>
                  <g id="Grupo_1113840" data-name="Grupo 1113840">
                    <g id="Grupo_1113838" data-name="Grupo 1113838">
                      <path id="Trazado_906813" data-name="Trazado 906813" d="M14.473,293.854l-1.216.176-.881.126-1.495.216S4.091,286.623.559,279.4V268.256a5.466,5.466,0,0,1,.672-.352C13.367,262.565,14.473,293.854,14.473,293.854Z" transform="translate(-0.559 -267.291)" fill="#005454"/>
                    </g>
                    <g id="Grupo_1113839" data-name="Grupo 1113839" transform="translate(3.853 7.091)">
                      <path id="Trazado_906814" data-name="Trazado 906814" d="M22.134,310.367l-.881.126-7.945-19.331c-.073-.179.057-.371.292-.427a.482.482,0,0,1,.558.223Z" transform="translate(-13.288 -290.72)" fill="#003d3c"/>
                    </g>
                  </g>
                </g>
                <g id="Grupo_1113844" data-name="Grupo 1113844" transform="translate(3.931 1.257)">
                  <g id="Grupo_1113842" data-name="Grupo 1113842">
                    <path id="Trazado_906815" data-name="Trazado 906815" d="M40.683,274.977l-2.586.069-1.772.047-2.76.074S6.83,250.636,15.154,245.421c8.252-5.17,19.33,22.044,19.52,22.511-.12-.468-6.841-26.771,3.562-24.932C48.732,244.856,40.683,274.977,40.683,274.977Z" transform="translate(-13.547 -242.908)" fill="#00666c"/>
                  </g>
                  <g id="Grupo_1113843" data-name="Grupo 1113843" transform="translate(7.039 8.044)">
                    <path id="Trazado_906816" data-name="Trazado 906816" d="M55.224,269.833l-.911,23.744-1.772.047L36.857,271.5a.3.3,0,0,1,.179-.462.521.521,0,0,1,.6.137l15.786,22.27.907-23.632a.412.412,0,0,1,.458-.331C55.038,269.488,55.231,269.645,55.224,269.833Z" transform="translate(-36.803 -269.483)" fill="#005454"/>
                  </g>
                </g>
                <g id="Grupo_1113849" data-name="Grupo 1113849" transform="translate(183.87 8.637)">
                  <g id="Grupo_1113845" data-name="Grupo 1113845" transform="translate(2.91 9.586)">
                    <path id="Trazado_906817" data-name="Trazado 906817" d="M628.652,298.963v14.065c-4.184,3.148-7.765,5.385-7.765,5.385l-3.237-1.3S622.605,305.782,628.652,298.963Z" transform="translate(-617.649 -298.963)" fill="#003d3c"/>
                  </g>
                  <g id="Grupo_1113848" data-name="Grupo 1113848">
                    <g id="Grupo_1113846" data-name="Grupo 1113846">
                      <path id="Trazado_906818" data-name="Trazado 906818" d="M621.947,268.256V279.4c-3.531,7.223-10.323,14.972-10.323,14.972l-1.494-.216-.882-.127-1.214-.175s1.105-31.289,13.241-25.95A5.347,5.347,0,0,1,621.947,268.256Z" transform="translate(-608.034 -267.291)" fill="#005454"/>
                    </g>
                    <g id="Grupo_1113847" data-name="Grupo 1113847" transform="translate(1.214 7.091)">
                      <path id="Trazado_906819" data-name="Trazado 906819" d="M620.871,291.163l-7.944,19.331-.882-.127,7.976-19.408a.482.482,0,0,1,.558-.223C620.815,290.792,620.945,290.983,620.871,291.163Z" transform="translate(-612.046 -290.72)" fill="#003d3c"/>
                    </g>
                  </g>
                </g>
                <g id="Grupo_1113852" data-name="Grupo 1113852" transform="translate(163.767 1.257)">
                  <g id="Grupo_1113850" data-name="Grupo 1113850">
                    <path id="Trazado_906820" data-name="Trazado 906820" d="M551.686,275.166l-2.759-.074-1.774-.047-2.586-.069s-8.048-30.12,2.448-31.977c10.4-1.839,3.682,24.464,3.562,24.933.19-.467,11.267-27.681,19.52-22.511C578.421,250.636,551.686,275.166,551.686,275.166Z" transform="translate(-541.618 -242.908)" fill="#00666c"/>
                  </g>
                  <g id="Grupo_1113851" data-name="Grupo 1113851" transform="translate(4.624 8.044)">
                    <path id="Trazado_906821" data-name="Trazado 906821" d="M575.264,271.5l-15.683,22.124-1.774-.047-.911-23.744c-.007-.188.187-.345.433-.35a.412.412,0,0,1,.458.331l.907,23.632,15.787-22.27a.521.521,0,0,1,.6-.137A.3.3,0,0,1,575.264,271.5Z" transform="translate(-556.896 -269.483)" fill="#005454"/>
                  </g>
                </g>
                <g id="Grupo_1113858" data-name="Grupo 1113858" transform="translate(139.858 4.29)">
                  <g id="Grupo_1113856" data-name="Grupo 1113856">
                    <path id="Trazado_906824" data-name="Trazado 906824" d="M472.223,285.1l-2.578-.171-1.768-.117-2.751-.183s-22.65-26.825-13.561-31.23c9.022-4.373,15.713,23.747,15.809,24.154-.037-.4-2.562-27.213,7.486-24.42C484.985,255.947,472.223,285.1,472.223,285.1Z" transform="translate(-449.413 -252.929)" fill="#00666c"/>
                  </g>
                  <g id="Grupo_1113857" data-name="Grupo 1113857" transform="translate(6.37 8.003)">
                    <path id="Trazado_906825" data-name="Trazado 906825" d="M488.987,279.882l-4.666,23.485-1.768-.117-12.062-23.415c-.09-.176.023-.373.251-.442a.5.5,0,0,1,.578.192l12.141,23.568,4.644-23.374a.445.445,0,0,1,.508-.285C488.857,279.522,489.025,279.7,488.987,279.882Z" transform="translate(-470.46 -279.369)" fill="#005454"/>
                  </g>
                </g>
              </g>
              <g id="Grupo_1113871" data-name="Grupo 1113871" transform="translate(0 106.242)" opacity="0.69">
                <g id="Grupo_1113860" data-name="Grupo 1113860">
                  <path id="Trazado_906826" data-name="Trazado 906826" d="M197.952,341.087v42.494H0v-43.2C66.05,330.391,130.3,330.592,197.952,341.087Z" transform="translate(0 -333.048)" fill="#008985"/>
                </g>
                <path id="Trazado_906827" data-name="Trazado 906827" d="M484.789,443.495s-7.718-6.856-5.114-7.852,6.077,6.371,6.077,6.371.251-5.672,3.646-6-2.166,7.615-2.166,7.615Z" transform="translate(-334.114 -404.525)" fill="#00666c"/>
                <path id="Trazado_906828" data-name="Trazado 906828" d="M83.08,413.364s-7.718-6.856-5.114-7.851,6.077,6.371,6.077,6.371.251-5.672,3.646-6-2.172,7.291-2.172,7.291Z" transform="translate(-53.993 -383.515)" fill="#00666c"/>
                <path id="Trazado_906829" data-name="Trazado 906829" d="M535.866,414.645s-7.718-6.856-5.114-7.851,6.077,6.371,6.077,6.371.251-5.672,3.646-6-2.166,7.616-2.166,7.616Z" transform="translate(-369.731 -384.408)" fill="#00666c"/>
                <path id="Trazado_906830" data-name="Trazado 906830" d="M205.936,471.341s-7.718-6.856-5.114-7.851,6.077,6.371,6.077,6.371.251-5.672,3.646-6-1.41,7.206-1.41,7.206Z" transform="translate(-139.663 -423.944)" fill="#00666c"/>
                <path id="Trazado_906831" data-name="Trazado 906831" d="M101.648,351.582s-7.718-6.856-5.114-7.851,6.076,6.371,6.076,6.371.251-5.673,3.646-6-1.41,7.206-1.41,7.206Z" transform="translate(-66.941 -340.433)" fill="#00666c"/>
                <path id="Trazado_906832" data-name="Trazado 906832" d="M462.537,378.4s-7.348-6.519-4.744-7.515,6.077,6.371,6.077,6.371.251-5.673,3.646-6-1.559,7.48-1.559,7.48Z" transform="translate(-318.84 -359.365)" fill="#00666c"/>
                <path id="Trazado_906833" data-name="Trazado 906833" d="M538.489,353.118s7.946-7.144,5.341-8.139-6.077,6.371-6.077,6.371-.251-5.672-3.646-6,1.559,7.48,1.559,7.48Z" transform="translate(-371.616 -341.303)" fill="#00666c"/>
                <path id="Trazado_906834" data-name="Trazado 906834" d="M350.657,371.9s7.945-7.144,5.341-8.139-6.077,6.371-6.077,6.371-.251-5.672-3.646-6,1.671,7.768,1.671,7.768Z" transform="translate(-240.649 -354.4)" fill="#00666c"/>
                <path id="Trazado_906835" data-name="Trazado 906835" d="M366.907,469.886s-7.086-6.856-4.482-7.851,6.077,6.371,6.077,6.371.251-5.672,3.646-6-1.559,7.48-1.559,7.48Z" transform="translate(-252.326 -422.929)" fill="#00666c"/>
                <g id="Grupo_1113862" data-name="Grupo 1113862" transform="translate(0 8.009)">
                  <g id="Grupo_1113861" data-name="Grupo 1113861">
                    <path id="Trazado_906836" data-name="Trazado 906836" d="M197.952,367.113v.618a688.256,688.256,0,0,0-101.107-7.588A667.862,667.862,0,0,0,0,367.242v-.616c16.347-2.384,32.789-4.188,48.895-5.364,16.664-1.217,33.553-1.8,50.195-1.75s33.646.761,50.5,2.095C165.444,362.861,181.7,364.711,197.952,367.113Z" transform="translate(0 -359.508)" fill="#00666c"/>
                  </g>
                </g>
                <g id="Grupo_1113864" data-name="Grupo 1113864" transform="translate(0 36.504)">
                  <g id="Grupo_1113863" data-name="Grupo 1113863">
                    <path id="Trazado_906837" data-name="Trazado 906837" d="M197.952,461.255v.617a688.338,688.338,0,0,0-101.107-7.588A667.8,667.8,0,0,0,0,461.384v-.617c16.347-2.384,32.789-4.188,48.895-5.364,16.664-1.217,33.553-1.806,50.195-1.749s33.646.761,50.5,2.094C165.444,457,181.7,458.853,197.952,461.255Z" transform="translate(0 -453.651)" fill="#00666c"/>
                  </g>
                </g>
                <g id="Grupo_1113866" data-name="Grupo 1113866" transform="translate(22.836 46.361)">
                  <g id="Grupo_1113865" data-name="Grupo 1113865">
                    <path id="Trazado_906838" data-name="Trazado 906838" d="M224.008,490.388h-5.789a675.646,675.646,0,0,0-68.764-3.538,662.206,662.206,0,0,0-68.31,3.538h-5.7c8.739-.981,17.448-1.79,26.059-2.419,16.664-1.217,33.553-1.805,50.195-1.749s33.646.761,50.5,2.094Q213,489.169,224.008,490.388Z" transform="translate(-75.445 -486.216)" fill="#00666c"/>
                  </g>
                </g>
                <g id="Grupo_1113868" data-name="Grupo 1113868" transform="translate(0 26.197)">
                  <g id="Grupo_1113867" data-name="Grupo 1113867">
                    <path id="Trazado_906839" data-name="Trazado 906839" d="M197.952,427.2v.618a688.257,688.257,0,0,0-101.107-7.588A667.884,667.884,0,0,0,0,427.333v-.616c16.347-2.385,32.789-4.188,48.895-5.364,16.664-1.217,33.553-1.808,50.195-1.749s33.646.761,50.5,2.094C165.444,422.951,181.7,424.8,197.952,427.2Z" transform="translate(0 -419.599)" fill="#00666c"/>
                  </g>
                </g>
                <g id="Grupo_1113870" data-name="Grupo 1113870" transform="translate(0 17.103)">
                  <g id="Grupo_1113869" data-name="Grupo 1113869">
                    <path id="Trazado_906840" data-name="Trazado 906840" d="M197.952,397.157v.618a688.269,688.269,0,0,0-101.107-7.588A667.884,667.884,0,0,0,0,397.287v-.616c16.347-2.385,32.789-4.188,48.895-5.365,16.664-1.217,33.553-1.806,50.195-1.749s33.646.761,50.5,2.095C165.444,392.9,181.7,394.756,197.952,397.157Z" transform="translate(0 -389.553)" fill="#00666c"/>
                  </g>
                </g>
                <path id="Trazado_906841" data-name="Trazado 906841" d="M164.3,377.608s-7.718-6.856-5.114-7.851,6.077,6.371,6.077,6.371.251-5.672,3.646-6-1.41,7.206-1.41,7.206Z" transform="translate(-110.63 -358.581)" fill="#00666c"/>
                <path id="Trazado_906842" data-name="Trazado 906842" d="M229.907,345.385s-7.246-6.436-4.8-7.371,5.7,5.982,5.7,5.982.235-5.326,3.423-5.633-1.323,6.766-1.323,6.766Z" transform="translate(-156.62 -336.45)" fill="#00666c"/>
              </g>
              <g id="Grupo_1114061" data-name="Grupo 1114061" transform="translate(0 102.742)">
                <g id="Grupo_1114048" data-name="Grupo 1114048">
                  <g id="Grupo_1114047" data-name="Grupo 1114047">
                    <path id="Trazado_906945" data-name="Trazado 906945" d="M77.94,475.136l4.076-5.975c2-2.635,3.833-4.254,5.076-4.351,2.976-.233-2.066,7.023-2.066,7.023s6.048-6.822,9.653-7.45-5.031,9.254-5.031,9.254,6.63-2.9,9.819-2.166c1.643.379-1.164,2.093-4.273,3.665Z" transform="translate(-54.349 -434.11)" fill="#003d3c"/>
                    <g id="Grupo_1114046" data-name="Grupo 1114046">
                      <path id="Trazado_906946" data-name="Trazado 906946" d="M0,391.79a2.015,2.015,0,0,0,.179.154c1.757,1.331,4.8-3.766,1.989-8.868s-.5-11.84,3.28-12.1.493,4.221,5.36,3.533,5.616-10.6,11.9-10.053c5.5.478,1.974,7.819-.757,10.912-2.576,2.92-1.812,5.889,1.081,5.24s5.782,2.421,1.477,7.187-10.136,9.51-7.33,10.057,8.644-4.137,11.131,1.408c1.111,2.478-1.29,4.607-4.286,6.2H0Z" transform="translate(0 -364.432)" fill="#005454"/>
                      <g id="Grupo_1114038" data-name="Grupo 1114038" transform="translate(0.972 6.349)">
                        <g id="Grupo_1114037" data-name="Grupo 1114037">
                          <path id="Trazado_906947" data-name="Trazado 906947" d="M4.076,420.089c6.618-13.428,17.741-34,17.876-34.253.086-.157-.012-.339-.219-.4a.457.457,0,0,0-.529.169c-.136.252-11.382,21.05-17.994,34.489Z" transform="translate(-3.21 -385.408)" fill="#003d3c"/>
                        </g>
                      </g>
                      <g id="Grupo_1114040" data-name="Grupo 1114040" transform="translate(6.678 13.894)">
                        <g id="Grupo_1114039" data-name="Grupo 1114039">
                          <path id="Trazado_906948" data-name="Trazado 906948" d="M27.086,417.8a.487.487,0,0,0,.191-.052.268.268,0,0,0,.107-.431c-.035-.039-3.5-3.943-4.524-6.758a.431.431,0,0,0-.5-.215c-.216.046-.341.217-.281.382,1.064,2.914,4.49,6.778,4.635,6.941A.46.46,0,0,0,27.086,417.8Z" transform="translate(-22.064 -410.336)" fill="#003d3c"/>
                        </g>
                      </g>
                      <g id="Grupo_1114041" data-name="Grupo 1114041" transform="translate(9.769 21.695)">
                        <path id="Trazado_906949" data-name="Trazado 906949" d="M32.718,439.079l.024,0a44.923,44.923,0,0,0,10.1-2.387.277.277,0,0,0,.161-.421.476.476,0,0,0-.55-.123,44.8,44.8,0,0,1-9.83,2.318c-.221.026-.373.183-.34.353A.4.4,0,0,0,32.718,439.079Z" transform="translate(-32.277 -436.108)" fill="#003d3c"/>
                      </g>
                      <g id="Grupo_1114043" data-name="Grupo 1114043" transform="translate(0 34.19)">
                        <g id="Grupo_1114042" data-name="Grupo 1114042">
                          <path id="Trazado_906950" data-name="Trazado 906950" d="M0,477.389a32.1,32.1,0,0,0,3.565,2.8.263.263,0,0,1,.044.437.453.453,0,0,1-.271.107.491.491,0,0,1-.3-.073A32.271,32.271,0,0,1,0,478.346Z" transform="translate(0 -477.389)" fill="#003d3c"/>
                        </g>
                      </g>
                      <g id="Grupo_1114045" data-name="Grupo 1114045" transform="translate(1.524 38.423)">
                        <g id="Grupo_1114044" data-name="Grupo 1114044">
                          <path id="Trazado_906951" data-name="Trazado 906951" d="M11.9,493.148a30.191,30.191,0,0,0,6.938-1.179c.206-.067.3-.249.214-.406a.459.459,0,0,0-.532-.164c-4.988,1.623-12.971,1.212-13.051,1.208a.385.385,0,0,0-.433.287c-.016.171.152.319.376.331A57.872,57.872,0,0,0,11.9,493.148Z" transform="translate(-5.037 -491.374)" fill="#003d3c"/>
                        </g>
                      </g>
                    </g>
                  </g>
                </g>
                <g id="Grupo_1114060" data-name="Grupo 1114060" transform="translate(152.349)">
                  <g id="Grupo_1114059" data-name="Grupo 1114059">
                    <path id="Trazado_906952" data-name="Trazado 906952" d="M525.348,475.136l-4.076-5.975c-2-2.635-3.833-4.254-5.076-4.351-2.976-.233,2.067,7.023,2.067,7.023s-6.048-6.822-9.653-7.45,5.031,9.254,5.031,9.254-6.63-2.9-9.819-2.166c-1.643.379,1.164,2.093,4.273,3.665Z" transform="translate(-503.336 -434.11)" fill="#003d3c"/>
                    <g id="Grupo_1114058" data-name="Grupo 1114058" transform="translate(17.02)">
                      <path id="Trazado_906953" data-name="Trazado 906953" d="M588.15,391.79a2.036,2.036,0,0,1-.179.154c-1.757,1.331-4.8-3.766-1.989-8.868s.5-11.84-3.28-12.1-.493,4.221-5.36,3.533-5.616-10.6-11.9-10.053c-5.5.478-1.974,7.819.757,10.912,2.576,2.92,1.812,5.889-1.081,5.24s-5.782,2.421-1.477,7.187,10.136,9.51,7.33,10.057-8.644-4.137-11.131,1.408c-1.112,2.478,1.29,4.607,4.286,6.2H588.15Z" transform="translate(-559.567 -364.432)" fill="#005454"/>
                      <g id="Grupo_1114050" data-name="Grupo 1114050" transform="translate(8.838 6.349)">
                        <g id="Grupo_1114049" data-name="Grupo 1114049">
                          <path id="Trazado_906954" data-name="Trazado 906954" d="M606.674,420.089c-6.618-13.428-17.741-34-17.876-34.253-.086-.157.012-.339.219-.4a.457.457,0,0,1,.529.169c.136.252,11.382,21.05,17.993,34.489Z" transform="translate(-588.766 -385.408)" fill="#003d3c"/>
                        </g>
                      </g>
                      <g id="Grupo_1114052" data-name="Grupo 1114052" transform="translate(16.515 13.894)">
                        <g id="Grupo_1114051" data-name="Grupo 1114051">
                          <path id="Trazado_906955" data-name="Trazado 906955" d="M614.5,417.8a.487.487,0,0,1-.191-.052.268.268,0,0,1-.107-.431c.035-.039,3.5-3.943,4.524-6.758a.431.431,0,0,1,.5-.215c.216.046.341.217.281.382-1.064,2.914-4.49,6.778-4.635,6.941A.46.46,0,0,1,614.5,417.8Z" transform="translate(-614.128 -410.336)" fill="#003d3c"/>
                        </g>
                      </g>
                      <g id="Grupo_1114053" data-name="Grupo 1114053" transform="translate(8.039 21.695)">
                        <path id="Trazado_906956" data-name="Trazado 906956" d="M596.46,439.079l-.024,0a44.923,44.923,0,0,1-10.1-2.387.277.277,0,0,1-.161-.421.476.476,0,0,1,.55-.123,44.8,44.8,0,0,0,9.83,2.318c.221.026.373.183.34.353A.4.4,0,0,1,596.46,439.079Z" transform="translate(-586.128 -436.108)" fill="#003d3c"/>
                      </g>
                      <g id="Grupo_1114055" data-name="Grupo 1114055" transform="translate(24.876 34.19)">
                        <g id="Grupo_1114054" data-name="Grupo 1114054">
                          <path id="Trazado_906957" data-name="Trazado 906957" d="M645.461,477.389a32.118,32.118,0,0,1-3.565,2.8.262.262,0,0,0-.044.437.453.453,0,0,0,.271.107.491.491,0,0,0,.3-.073,32.286,32.286,0,0,0,3.038-2.309Z" transform="translate(-641.754 -477.389)" fill="#003d3c"/>
                        </g>
                      </g>
                      <g id="Grupo_1114057" data-name="Grupo 1114057" transform="translate(13.009 38.423)">
                        <g id="Grupo_1114056" data-name="Grupo 1114056">
                          <path id="Trazado_906958" data-name="Trazado 906958" d="M609.732,493.148a30.191,30.191,0,0,1-6.938-1.179c-.206-.067-.3-.249-.214-.406a.459.459,0,0,1,.531-.164c4.988,1.623,12.971,1.212,13.052,1.208a.385.385,0,0,1,.433.287c.016.171-.152.319-.376.331A57.871,57.871,0,0,1,609.732,493.148Z" transform="translate(-602.547 -491.374)" fill="#003d3c"/>
                        </g>
                      </g>
                    </g>
                  </g>
                </g>
              </g>
            </g>
          </g>
        </g>
      </g>
    </g>
    <g id="Filled_outline" data-name="Filled outline" transform="translate(1275.881 6171.774)">
      <g id="Color" transform="translate(3.738 3.929)">
        <circle id="Elipse_11695" data-name="Elipse 11695" cx="30.413" cy="30.413" r="30.413" transform="translate(0 9.558)" fill="#ffc834"/>
        <path id="Trazado_914827" data-name="Trazado 914827" d="M29.005,10.71V38.151a7.833,7.833,0,1,0,15.641.869V37.282A30.378,30.378,0,0,0,29.005,10.71Z" transform="translate(16.18 2.689)" fill="#e9a300"/>
        <g id="Grupo_1182290" data-name="Grupo 1182290" transform="translate(8.238 5.214)">
          <path id="Trazado_914828" data-name="Trazado 914828" d="M26.689,24.665A21.81,21.81,0,0,0,22.345,12.5,21.811,21.811,0,0,0,18,24.665,21.81,21.81,0,0,0,22.345,36.83,21.81,21.81,0,0,0,26.689,24.665Z" transform="translate(-0.169 -1.204)" fill="#004a31"/>
          <path id="Trazado_914829" data-name="Trazado 914829" d="M34.547,29.8a17.674,17.674,0,0,0,5.214-8.533,16.11,16.11,0,0,0-9.68,3.25,20.507,20.507,0,0,0-5.631,8.915A18.839,18.839,0,0,0,34.547,29.8Z" transform="translate(4.59 5.268)" fill="#004a31"/>
          <path id="Trazado_914830" data-name="Trazado 914830" d="M28.435,38.034a11.9,11.9,0,0,0,7.577,1.025,11.783,11.783,0,0,0-4.675-6.048,11.783,11.783,0,0,0-7.577-1.025A11.852,11.852,0,0,0,28.435,38.034Z" transform="translate(4.081 13.008)" fill="#004a31"/>
          <path id="Trazado_914831" data-name="Trazado 914831" d="M12.954,29.8A17.674,17.674,0,0,1,7.74,21.27a16.11,16.11,0,0,1,9.68,3.25,20.507,20.507,0,0,1,5.631,8.915,18.839,18.839,0,0,1-10.1-3.632Z" transform="translate(-7.74 5.268)" fill="#004a31"/>
          <path id="Trazado_914832" data-name="Trazado 914832" d="M17.767,38.034a11.9,11.9,0,0,1-7.577,1.025,11.783,11.783,0,0,1,4.675-6.048,11.783,11.783,0,0,1,7.577-1.025A11.852,11.852,0,0,1,17.767,38.034Z" transform="translate(-5.932 13.008)" fill="#004a31"/>
          <path id="Trazado_914833" data-name="Trazado 914833" d="M36,6H70.758V40.758H36Z" transform="translate(13.113 -6)" fill="#004a31"/>
        </g>
        <path id="Trazado_914834" data-name="Trazado 914834" d="M53.427,26H43V81.612a5.214,5.214,0,0,0,10.427,0Z" transform="translate(26.516 13.971)" fill="#a66d00"/>
        <rect id="Rectángulo_408436" data-name="Rectángulo 408436" width="45.185" height="8.689" rx="2.5" transform="translate(100.798) rotate(90)" fill="#a66d00"/>
        <rect id="Rectángulo_408437" data-name="Rectángulo 408437" width="45.185" height="8.689" rx="2.5" transform="translate(57.35) rotate(90)" fill="#a66d00"/>
        <rect id="Rectángulo_408438" data-name="Rectángulo 408438" width="46.923" height="6.952" rx="2" transform="translate(6.952 85.157)" fill="#c78700"/>
        <rect id="Rectángulo_408439" data-name="Rectángulo 408439" width="29.544" height="6.952" rx="2" transform="translate(15.641 78.205)" fill="#e9a300"/>
        <rect id="Rectángulo_408440" data-name="Rectángulo 408440" width="60.826" height="8.689" rx="2.5" transform="translate(0 92.108)" fill="#a66d00"/>
        <path id="Trazado_914835" data-name="Trazado 914835" d="M43,49H53.427v6.952H43Z" transform="translate(26.516 30.943)" fill="#004a31"/>
      </g>
      <g id="Outline" transform="translate(2 1.741)">
        <path id="Trazado_914836" data-name="Trazado 914836" d="M23.083,39.3a1.738,1.738,0,0,0,1.356-.66A23.444,23.444,0,0,0,29.165,25.4a23.444,23.444,0,0,0-4.727-13.243,1.738,1.738,0,0,0-2.711,0A23.444,23.444,0,0,0,17,25.4a23.444,23.444,0,0,0,4.727,13.243,1.738,1.738,0,0,0,1.356.66Zm0-22.888A18.908,18.908,0,0,1,25.689,25.4a18.908,18.908,0,0,1-2.607,8.985A18.908,18.908,0,0,1,20.476,25.4a18.908,18.908,0,0,1,2.607-8.985Z" transform="translate(9.068 5.464)" fill="#1e120b"/>
        <path id="Trazado_914837" data-name="Trazado 914837" d="M22.99,31.817a1.738,1.738,0,0,0-.156,1.39,13.712,13.712,0,0,0,5.561,7.038,12.165,12.165,0,0,0,6.048,1.477,14.389,14.389,0,0,0,2.781-.261,1.727,1.727,0,0,0,1.269-2.224,13.538,13.538,0,0,0-5.457-6.952,13.712,13.712,0,0,0-8.828-1.217,1.738,1.738,0,0,0-1.217.747Zm8.22,3.476a8.411,8.411,0,0,1,2.9,3.024,8.5,8.5,0,0,1-3.98-1.095,8.324,8.324,0,0,1-2.92-3.024,8.689,8.689,0,0,1,4,1.025Z" transform="translate(13.315 19.71)" fill="#1e120b"/>
        <path id="Trazado_914838" data-name="Trazado 914838" d="M12.611,31.937a20.438,20.438,0,0,0,11.122,4.015A1.743,1.743,0,0,0,25.4,33.727a22.228,22.228,0,0,0-6.17-9.767A17.848,17.848,0,0,0,8.371,20.31,1.742,1.742,0,0,0,6.72,22.448a19.621,19.621,0,0,0,5.891,9.489Zm4.449-5.3a16.51,16.51,0,0,1,4.084,5.3,14.859,14.859,0,0,1-6.222-2.8,14.685,14.685,0,0,1-3.806-5.214,13.017,13.017,0,0,1,5.944,2.624Z" transform="translate(1.449 11.961)" fill="#1e120b"/>
        <path id="Trazado_914839" data-name="Trazado 914839" d="M23.562,31.019a13.712,13.712,0,0,0-8.828,1.217,13.538,13.538,0,0,0-5.457,6.952,1.727,1.727,0,0,0,1.269,2.224,14.389,14.389,0,0,0,2.781.261A12.165,12.165,0,0,0,19.373,40.2a13.712,13.712,0,0,0,5.474-7.038,1.738,1.738,0,0,0-1.286-2.224Zm-5.926,6.239a8.5,8.5,0,0,1-4.067,1.025,8.411,8.411,0,0,1,2.9-3.024,8.568,8.568,0,0,1,4.084-1.025A8.689,8.689,0,0,1,17.635,37.258Z" transform="translate(3.306 19.673)" fill="#1e120b"/>
        <path id="Trazado_914840" data-name="Trazado 914840" d="M21.238,33.5A1.738,1.738,0,0,0,19.5,35.238v6.952a1.738,1.738,0,0,0,3.476,0V35.238A1.738,1.738,0,0,0,21.238,33.5Z" transform="translate(10.913 21.694)" fill="#1e120b"/>
        <circle id="Elipse_11696" data-name="Elipse 11696" cx="1.738" cy="1.738" r="1.738" transform="translate(30.413 48.242)" fill="#1e120b"/>
        <path id="Trazado_914841" data-name="Trazado 914841" d="M34.151,76.051A32.151,32.151,0,0,0,66.3,45.638h5.214V99.513a6.952,6.952,0,0,0,13.9,0V45.638h8.689a6.1,6.1,0,1,0,12.165-.869V8.274A6.1,6.1,0,1,0,94.108,7.4H62.826a6.1,6.1,0,0,0-12.165.869v8.1a31.682,31.682,0,0,0-16.51-4.623,32.151,32.151,0,0,0,0,64.3Zm40.84,9.558h6.952v3.476H74.991Zm6.03,16.319a3.684,3.684,0,0,1-5.109,0,3.285,3.285,0,0,1-.921-2.416V92.561h6.952v6.952a3.232,3.232,0,0,1-.921,2.416Zm.921-19.795H74.991v-36.5h6.952ZM97.584,8.274a2.607,2.607,0,1,1,5.214,0v36.5a2.607,2.607,0,1,1-5.214,0ZM94.108,42.163H62.826V10.881H94.108ZM54.137,8.274a2.607,2.607,0,1,1,5.214,0v36.5a2.607,2.607,0,1,1-5.214,0ZM50,42.893a14.859,14.859,0,0,1-6.291,2.746,16.51,16.51,0,0,1,4.015-5.44,10.81,10.81,0,0,1,2.868-1.738v3.667A2.012,2.012,0,0,1,50,42.893ZM34.151,15.225a28.31,28.31,0,0,1,16.51,5.3V34.881a15.12,15.12,0,0,0-5.109,2.711,22.228,22.228,0,0,0-6.169,9.784A1.743,1.743,0,0,0,41.05,49.6a21.446,21.446,0,0,0,9.819-3.076,6.048,6.048,0,0,0,11.957-.886A28.658,28.658,0,1,1,34.151,15.225Z" transform="translate(-2 -1.741)" fill="#1e120b"/>
        <path id="Trazado_914842" data-name="Trazado 914842" d="M8.083,73.068H60.219a6.083,6.083,0,0,0,0-12.165H59.038a5.214,5.214,0,0,0-4.9-6.952H50.348A5.214,5.214,0,0,0,45.447,47H22.855a5.214,5.214,0,0,0-4.9,6.952H14.165a5.214,5.214,0,0,0-4.9,6.952H8.083a6.083,6.083,0,0,0,0,12.165ZM21.117,52.214a1.738,1.738,0,0,1,1.738-1.738H45.447a1.738,1.738,0,0,1,0,3.476H22.855A1.738,1.738,0,0,1,21.117,52.214Zm-8.689,6.952a1.738,1.738,0,0,1,1.738-1.738H54.137a1.738,1.738,0,0,1,0,3.476H14.165A1.738,1.738,0,0,1,12.427,59.165ZM8.083,64.379H60.219a2.607,2.607,0,1,1,0,5.214H8.083a2.607,2.607,0,1,1,0-5.214Z" transform="translate(-2 31.655)" fill="#1e120b"/>
        <circle id="Elipse_11697" data-name="Elipse 11697" cx="1.738" cy="1.738" r="1.738" transform="translate(85.157 29.994)" fill="#1e120b"/>
        <path id="Trazado_914843" data-name="Trazado 914843" d="M52.738,22.9a1.738,1.738,0,0,0,1.738-1.738V10.738a1.738,1.738,0,1,0-3.476,0V21.165A1.738,1.738,0,0,0,52.738,22.9Z" transform="translate(34.157 3.615)" fill="#1e120b"/>
      </g>
    </g>
  </g>
</svg>
