<svg xmlns="http://www.w3.org/2000/svg" width="85" height="85" viewBox="0 0 85 85">
  <g id="Grupo_1181778" data-name="Grupo 1181778" transform="translate(16265.764 9019.525)">
    <g id="Grupo_1112415" data-name="Grupo 1112415" transform="translate(-16265.764 -9019.525)">
      <g id="Grupo_1098742" data-name="Grupo 1098742" transform="translate(0 0)">
        <g id="Rect치ngulo_400898" data-name="Rect치ngulo 400898" transform="translate(0.001 0)" fill="#fffae6" stroke="#997b00" stroke-width="3">
          <rect width="85" height="85" rx="42.5" stroke="none"/>
          <rect x="1.5" y="1.5" width="82" height="82" rx="41" fill="none"/>
        </g>
        <g id="Rect치ngulo_400907" data-name="Rect치ngulo 400907" transform="translate(0 0)" fill="none" stroke="#997b00" stroke-width="3">
          <rect width="85" height="85" rx="42.5" stroke="none"/>
          <rect x="1.5" y="1.5" width="82" height="82" rx="41" fill="none"/>
        </g>
      </g>
    </g>
    <g id="sow_3397582" transform="translate(-16252.723 -9009.523)">
      <g id="Grupo_1182435" data-name="Grupo 1182435" transform="translate(5.518 1.904)">
        <g id="Grupo_1182416" data-name="Grupo 1182416" transform="translate(16.264)">
          <path id="Trazado_915499" data-name="Trazado 915499" d="M29.421,9.228a8.95,8.95,0,0,1-.786,3.668l-.126-.054A4.5,4.5,0,0,1,24,8.334V7.421A5.426,5.426,0,0,1,29.421,2h7.03A9.226,9.226,0,0,1,42.36,18.318l-2.1,1.753V15.553l1.166-1.166a2.174,2.174,0,0,0,.642-1.545,1.82,1.82,0,0,0-1.807-1.807A3.613,3.613,0,0,0,36.65,7.421a1.812,1.812,0,0,1-1.807,1.807Z" transform="translate(-24 -2)" fill="#b27946"/>
        </g>
        <g id="Grupo_1182417" data-name="Grupo 1182417" transform="translate(32.365 35.013)">
          <path id="Trazado_915500" data-name="Trazado 915500" d="M51.018,41.879,49.889,40.75a9.169,9.169,0,0,1-1.446,1.9L47.4,43.687,44.693,46.4l-1.961,1.961a2.515,2.515,0,0,1-.913.587L45.6,52.722V50.011a.906.906,0,0,1,.9-.9h2.711a7.415,7.415,0,0,1,1.626.181l.181-.181,3.614-3.614Z" transform="translate(-41.82 -40.75)" fill="#ccd1d9"/>
        </g>
        <g id="Grupo_1182418" data-name="Grupo 1182418" transform="translate(26.203 28.914)">
          <path id="Trazado_915501" data-name="Trazado 915501" d="M43.132,34l-3.614,3.614L35,42.132l2.873,2.873a2.515,2.515,0,0,1,.587-.913l1.057-1.057.9-.9,2.665-2.665.045-.045a6.157,6.157,0,0,0,1.229-1.807h.009a6,6,0,0,0,.515-1.861Z" transform="translate(-35 -34)" fill="#ccd1d9"/>
        </g>
        <g id="Grupo_1182419" data-name="Grupo 1182419" transform="translate(31.624 34.335)">
          <path id="Trazado_915502" data-name="Trazado 915502" d="M47.325,43.614l-2.711,2.711L41,42.711l2.665-2.665L43.711,40Z" transform="translate(-41 -40)" fill="#ffc729"/>
        </g>
        <g id="Grupo_1182420" data-name="Grupo 1182420" transform="translate(10.843 23.492)">
          <path id="Trazado_915503" data-name="Trazado 915503" d="M18,28h3.614v5.421H18Z" transform="translate(-18 -28)" fill="#ffc729"/>
        </g>
        <g id="Grupo_1182423" data-name="Grupo 1182423" transform="translate(14.457 22.589)">
          <g id="Grupo_1182421" data-name="Grupo 1182421" transform="translate(18.071)">
            <path id="Trazado_915504" data-name="Trazado 915504" d="M45.56,35.078a6,6,0,0,1-.515,1.861h-.009a6.157,6.157,0,0,1-1.229,1.807l3.614,3.614,1.039-1.039a9.169,9.169,0,0,0,1.446-1.9,9.327,9.327,0,0,0,.461-.958,8.851,8.851,0,0,0,.669-3.361A8.755,8.755,0,0,0,45.614,27L42,31.518l1.807,1.807Z" transform="translate(-42 -27)" fill="#fcd770"/>
          </g>
          <g id="Grupo_1182422" data-name="Grupo 1182422" transform="translate(0 0.904)">
            <path id="Trazado_915505" data-name="Trazado 915505" d="M32.843,58.721H50.914a7.226,7.226,0,0,1-7.228-7.228l-3.777-3.777a2.491,2.491,0,0,1-.895.163,2.561,2.561,0,0,1-2.557-2.557,2.492,2.492,0,0,1,.163-.895l-2.873-2.873-2.711-2.711,8.132-8.132.9.9L37.36,28,34.65,31.614,31.758,28H22v5.421h7.228V47.878a7.226,7.226,0,0,1,7.228,7.228,3.609,3.609,0,0,1-3.614,3.614Z" transform="translate(-22 -28)" fill="#fcd770"/>
          </g>
        </g>
        <g id="Grupo_1182424" data-name="Grupo 1182424" transform="translate(29.817 21.387)">
          <path id="Trazado_915506" data-name="Trazado 915506" d="M45.325,26.872,41.711,31.39,39,27.775l3.153-2.105a1.824,1.824,0,0,0,1.012.587l.515.108A8.461,8.461,0,0,1,45.325,26.872Z" transform="translate(-39 -25.67)" fill="#ffc729"/>
        </g>
        <g id="Grupo_1182425" data-name="Grupo 1182425" transform="translate(24.215 21.604)">
          <path id="Trazado_915507" data-name="Trazado 915507" d="M35.691,31.413,32.8,27.8h.181a2.687,2.687,0,0,0,2.575-1.888h.009L38.4,27.8Z" transform="translate(-32.8 -25.91)" fill="#ffc729"/>
        </g>
        <g id="Grupo_1182426" data-name="Grupo 1182426" transform="translate(23.492 26.203)">
          <path id="Trazado_915508" data-name="Trazado 915508" d="M41.036,31.9l1.807,1.807-3.614,3.614-4.518,4.518L32,39.132,40.132,31Z" transform="translate(-32 -31)" fill="#aab2bd"/>
        </g>
        <g id="Grupo_1182427" data-name="Grupo 1182427" transform="translate(28.914 37.046)">
          <path id="Trazado_915509" data-name="Trazado 915509" d="M40.711,43l3.614,3.614-1.961,1.961a2.561,2.561,0,0,1-1.807.75A2.561,2.561,0,0,1,38,46.768a2.561,2.561,0,0,1,.75-1.807L39.807,43.9Z" transform="translate(-38 -43)" fill="#f0d0b4"/>
        </g>
        <g id="Grupo_1182428" data-name="Grupo 1182428" transform="translate(19.878 5.421)">
          <path id="Trazado_915510" data-name="Trazado 915510" d="M29.807,18.843V16.132L28,15.228l.307-.452a9.106,9.106,0,0,0,.714-1.3,8.95,8.95,0,0,0,.786-3.668h5.421A1.812,1.812,0,0,0,37.036,8a3.613,3.613,0,0,1,3.614,3.614,1.82,1.82,0,0,1,1.807,1.807,2.174,2.174,0,0,1-.642,1.545L40.65,16.132v6.65a1.776,1.776,0,0,0,.443,1.184l-3.153,2.105L35.1,24.183h-.009a2.453,2.453,0,0,0,.136-.822V21.915l-2.467.5a2.97,2.97,0,0,1-.488.045,2.464,2.464,0,0,1-2.467-2.467Z" transform="translate(-28 -8)" fill="#f0d0b4"/>
        </g>
        <g id="Grupo_1182429" data-name="Grupo 1182429" transform="translate(3.614 23.492)">
          <path id="Trazado_915511" data-name="Trazado 915511" d="M17.228,28v5.421H12.711a2.711,2.711,0,0,1,0-5.421Z" transform="translate(-10 -28)" fill="#f0d0b4"/>
        </g>
        <g id="Grupo_1182430" data-name="Grupo 1182430" transform="translate(10.843 37.949)">
          <path id="Trazado_915512" data-name="Trazado 915512" d="M21.614,44.9v.9a1.812,1.812,0,0,1-1.807,1.807h-.9a.906.906,0,0,1-.9-.9v-.9A1.812,1.812,0,0,1,19.807,44h.9A.906.906,0,0,1,21.614,44.9Z" transform="translate(-18 -44)" fill="#e6e9ed"/>
        </g>
        <g id="Grupo_1182431" data-name="Grupo 1182431" transform="translate(5.421 32.528)">
          <path id="Trazado_915513" data-name="Trazado 915513" d="M15.614,39.807v.9a.906.906,0,0,1-.9.9h-.9A1.812,1.812,0,0,1,12,39.807v-.9a.906.906,0,0,1,.9-.9h.9A1.812,1.812,0,0,1,15.614,39.807Z" transform="translate(-12 -38)" fill="#e6e9ed"/>
        </g>
        <g id="Grupo_1182432" data-name="Grupo 1182432" transform="translate(36.142 43.371)">
          <path id="Trazado_915514" data-name="Trazado 915514" d="M56.843,57.228a3.609,3.609,0,0,1-3.614,3.614A7.226,7.226,0,0,1,46,53.614V50.9a.906.906,0,0,1,.9-.9h2.711a7.415,7.415,0,0,1,1.626.181A7.238,7.238,0,0,1,56.843,57.228Z" transform="translate(-46 -50)" fill="#cf9e76"/>
        </g>
        <g id="Grupo_1182433" data-name="Grupo 1182433" transform="translate(18.071 43.371)">
          <path id="Trazado_915515" data-name="Trazado 915515" d="M36.843,57.228a3.609,3.609,0,0,1-3.614,3.614A7.226,7.226,0,0,1,26,53.614V50.9a.906.906,0,0,1,.9-.9h2.711A7.226,7.226,0,0,1,36.843,57.228Z" transform="translate(-26 -50)" fill="#cf9e76"/>
        </g>
        <g id="Grupo_1182434" data-name="Grupo 1182434" transform="translate(0 43.371)">
          <path id="Trazado_915516" data-name="Trazado 915516" d="M16.843,57.228a3.609,3.609,0,0,1-3.614,3.614A7.226,7.226,0,0,1,6,53.614V50.9a.906.906,0,0,1,.9-.9H9.614A7.226,7.226,0,0,1,16.843,57.228Z" transform="translate(-6 -50)" fill="#cf9e76"/>
        </g>
      </g>
      <g id="Grupo_1182436" data-name="Grupo 1182436" transform="translate(1 1)">
        <path id="Trazado_915517" data-name="Trazado 915517" d="M52.479,55.213a4.471,4.471,0,0,0,.927-2.711,8.14,8.14,0,0,0-4.845-7.432l3.412-3.411L47.05,36.737A9.675,9.675,0,0,0,40.194,23.1l-.519-.1a.906.906,0,0,1-.726-.886V20.4l1.775-1.48A10.133,10.133,0,0,0,34.236,1H27.2a6.332,6.332,0,0,0-6.325,6.325v.913a5.416,5.416,0,0,0,4.13,5.251c-.023.034-.038.072-.061.107L24.077,14.9,26.3,16.014v3.3a3.374,3.374,0,0,0,3.369,3.371,3.276,3.276,0,0,0,.66-.066l1.391-.277v.343a1.809,1.809,0,0,1-1.807,1.807H11.843a3.614,3.614,0,1,0,0,7.228H26.3v12.65H24.492a1.809,1.809,0,0,0-1.807,1.807v2.711a8.116,8.116,0,0,0,3.032,6.325H16.337a4.471,4.471,0,0,0,.927-2.711,8.141,8.141,0,0,0-8.132-8.132H6.421a1.809,1.809,0,0,0-1.807,1.807v2.711a8.116,8.116,0,0,0,3.032,6.325H1v1.807H57.021V55.213ZM6.421,48.889V46.178H9.132a6.328,6.328,0,0,1,6.305,5.931l-2.052-2.052-1.278,1.278L14.9,54.128a2.708,2.708,0,0,1-1.1.868L9.771,50.96,8.493,52.238l2.8,2.8a6.33,6.33,0,0,1-4.872-6.15Zm45.158,3.22-2.052-2.052L48.25,51.334l2.795,2.794a2.708,2.708,0,0,1-1.1.868L45.913,50.96l-1.278,1.278,2.8,2.8a6.331,6.331,0,0,1-4.872-6.15V46.178h2.711a6.328,6.328,0,0,1,6.305,5.931ZM40.756,46.178v.529l-1.444-1.444c.039-.035.083-.061.12-.1l3.131-3.131v2.337a1.809,1.809,0,0,0-1.807,1.807Zm-6.216-5.9c-.037.037-.063.081-.1.12L33,38.949l2.337-2.337v2.866Zm11.552-1.938.085.085v2.337H44.371v-.529l.775-.775a9.782,9.782,0,0,0,.947-1.117Zm-1.722,4.229h1.807v1.86a8.074,8.074,0,0,0-.9-.053h-.9Zm-3.614-1.278L38.42,38.949l1.433-1.433,2.337,2.337Zm-1.588-5.641-2.027,2.027V35.335H39.45C39.36,35.441,39.268,35.546,39.169,35.645Zm1.307-2.117H38.42l1.433-1.433.8.8a5.478,5.478,0,0,1-.173.637Zm-1.9-2.711-6.854,6.854-1.433-1.433,6.854-6.854ZM35.819,41.55l1.324-1.323,2.337,2.337-1.324,1.324a1.652,1.652,0,0,1-2.82-1.169A1.644,1.644,0,0,1,35.819,41.55Zm12.166,1.543V40.227l1.433,1.433ZM46.178,32.6a7.827,7.827,0,0,1-2.309,5.574l-.4.4L41.08,36.188a7.173,7.173,0,0,0,1.484-4.376V28.107H40.756v2.337l-1.5-1.5,2.667-3.334A7.9,7.9,0,0,1,46.178,32.6Zm-6.856-7.834.519.1c.1.021.2.05.3.074l-2.073,2.591-1.438-1.917,1.8-1.2a2.677,2.677,0,0,0,.886.351ZM22.685,8.238V7.325A4.523,4.523,0,0,1,27.2,2.807h7.033a8.327,8.327,0,0,1,5.331,14.723l-.618.515V15.831l.9-.9a3.064,3.064,0,0,0,.9-2.182,2.716,2.716,0,0,0-1.873-2.579,4.525,4.525,0,0,0-3.693-3.677,2.706,2.706,0,0,0-2.566-1.875h-.9V6.421h.9a.9.9,0,1,1,0,1.807H27.2a.9.9,0,1,1,0-1.807h.9V4.614h-.9a2.705,2.705,0,0,0-.957,5.238,7.988,7.988,0,0,1-.419,1.944,3.6,3.6,0,0,1-3.142-3.557Zm7.288,12.61a1.582,1.582,0,0,1-1.867-1.532V14.9l-1.4-.7a9.793,9.793,0,0,0,1.34-4.162h4.579a2.712,2.712,0,0,0,2.512-1.7,2.7,2.7,0,0,1,2.006,2.6v.9h.9a.9.9,0,0,1,.9.9,1.265,1.265,0,0,1-.374.9l-1.433,1.433v7.024A2.686,2.686,0,0,0,37.3,23L35.335,24.31l-1.847-1.232a3.508,3.508,0,0,0,.04-.393v-.732a3.577,3.577,0,0,0,2.3-1.858l.311-.622-1.616-.809-.311.622a1.818,1.818,0,0,1-1.261.964Zm2.852,3.959,1.214.81L32.6,27.535,31.366,25.99a3.627,3.627,0,0,0,1.459-1.182ZM19.071,26.3v3.614H17.264V26.3Zm-9.036,1.807A1.809,1.809,0,0,1,11.843,26.3h3.614v3.614H11.843A1.809,1.809,0,0,1,10.036,28.107Zm10.843,1.807V26.3H29.3l3.349,4.186L35.335,26.9l.744.991-7.972,7.971V28.107H26.3v1.807Zm3.614,18.975V46.178H27.2a6.328,6.328,0,0,1,6.305,5.931l-2.052-2.052-1.278,1.278,2.795,2.794a2.708,2.708,0,0,1-1.1.868L27.842,50.96l-1.278,1.278,2.8,2.8a6.33,6.33,0,0,1-4.872-6.15Zm9.916,6.325a4.471,4.471,0,0,0,.927-2.711,8.141,8.141,0,0,0-7.228-8.079V36.613L33.589,42.1a3.44,3.44,0,0,0,4.023,4.022l3.165,3.166a8.115,8.115,0,0,0,3.012,5.931h-9.38Z" transform="translate(-1 -1)"/>
        <path id="Trazado_915518" data-name="Trazado 915518" d="M13.711,37h-.9A1.809,1.809,0,0,0,11,38.807v.9a2.714,2.714,0,0,0,2.711,2.711h.9a1.809,1.809,0,0,0,1.807-1.807v-.9A2.714,2.714,0,0,0,13.711,37Zm0,3.614a.9.9,0,0,1-.9-.9v-.9h.9a.9.9,0,0,1,.9.9v.9Z" transform="translate(-1.964 -4.472)"/>
        <path id="Trazado_915519" data-name="Trazado 915519" d="M17,46.614a1.809,1.809,0,0,0,1.807,1.807h.9a2.714,2.714,0,0,0,2.711-2.711v-.9A1.809,1.809,0,0,0,20.614,43h-.9A2.714,2.714,0,0,0,17,45.711Zm1.807-.9a.9.9,0,0,1,.9-.9h.9v.9a.9.9,0,0,1-.9.9h-.9Z" transform="translate(-2.543 -5.051)"/>
      </g>
    </g>
  </g>
</svg>
