<svg xmlns="http://www.w3.org/2000/svg" xmlns:xlink="http://www.w3.org/1999/xlink" width="190.051" height="108.742" viewBox="0 0 190.051 108.742">
  <defs>
    <clipPath id="clip-path">
      <path id="influencer-their-pet-creating-content-online-spaces-social-media" d="M0,0H190.051V93H0Z" transform="translate(1230 6185.238)" fill="#2e435d"/>
    </clipPath>
    <filter id="Rectángulo_404882" x="-2.949" y="-5.497" width="208" height="137" filterUnits="userSpaceOnUse">
      <feOffset dx="6" dy="7" input="SourceAlpha"/>
      <feGaussianBlur stdDeviation="3" result="blur"/>
      <feFlood flood-opacity="0.161"/>
      <feComposite operator="in" in2="blur"/>
      <feComposite in="SourceGraphic"/>
    </filter>
    <clipPath id="clip-path-2">
      <rect id="Rectángulo_404877" data-name="Rectángulo 404877" width="190" height="119" rx="8" fill="#fff"/>
    </clipPath>
  </defs>
  <g id="Grupo_1182829" data-name="Grupo 1182829" transform="translate(-1230 -6169.497)">
    <g id="Enmascarar_grupo_1098806" data-name="Enmascarar grupo 1098806" clip-path="url(#clip-path)">
      <g id="Grupo_1114064" data-name="Grupo 1114064" transform="translate(595 1332.332)">
        <g id="Grupo_1114063" data-name="Grupo 1114063" transform="translate(635.051 4833.668)">
          <g transform="matrix(1, 0, 0, 1, -0.05, 3.5)" filter="url(#Rectángulo_404882)">
            <rect id="Rectángulo_404882-2" data-name="Rectángulo 404882" width="190" height="119" rx="8" transform="translate(0.05 -3.5)" fill="#fff"/>
          </g>
        </g>
        <g id="Enmascarar_grupo_1098775" data-name="Enmascarar grupo 1098775" transform="translate(635.051 4833.668)" clip-path="url(#clip-path-2)">
          <g id="Grupo_1114062" data-name="Grupo 1114062" transform="translate(-3.987 -18.25)">
            <g id="BACKGROUND">
              <rect id="Rectángulo_404878" data-name="Rectángulo 404878" width="196.98" height="151.339" fill="#f9e5d6"/>
            </g>
            <g id="OBJECTS" transform="translate(0 7.564)">
              <g id="Grupo_1113824" data-name="Grupo 1113824" transform="translate(0.076)">
                <g id="Grupo_1113799" data-name="Grupo 1113799" transform="translate(59.458 7.85)">
                  <g id="Grupo_1113798" data-name="Grupo 1113798">
                    <g id="Grupo_1113797" data-name="Grupo 1113797">
                      <path id="Trazado_906792" data-name="Trazado 906792" d="M231.762,58.247s-1.371-4.684-4.341-4.341-3.427,1.713-5.941.686-3.427-4.341-7.54-3.542-4.57,5.369-9.254,5.027-6.283-.457-8,2.171Z" transform="translate(-196.689 -50.927)" fill="#fff"/>
                    </g>
                  </g>
                </g>
                <g id="Grupo_1113801" data-name="Grupo 1113801" transform="translate(17.084 23.555)">
                  <g id="Grupo_1113800" data-name="Grupo 1113800">
                    <path id="Trazado_906793" data-name="Trazado 906793" d="M62.165,104.412s-3.191-2.426-5.472-1.163c0,0,3.828.125,5.51,2.177,0,0,2.319-2.631,5.087-2.2C67.29,103.224,65.276,101.737,62.165,104.412Z" transform="translate(-56.693 -102.812)" fill="#1e1c18"/>
                    <path id="Trazado_906794" data-name="Trazado 906794" d="M107.493,105.194s-2.124-1.462-3.551-.581c0,0,2.463-.036,3.606,1.232,0,0,1.41-1.761,3.2-1.569C110.749,104.276,109.41,103.381,107.493,105.194Z" transform="translate(-89.641 -103.679)" fill="#1e1c18"/>
                  </g>
                </g>
                <g id="Grupo_1113804" data-name="Grupo 1113804" transform="translate(8.441)">
                  <g id="Grupo_1113803" data-name="Grupo 1113803">
                    <g id="Grupo_1113802" data-name="Grupo 1113802">
                      <path id="Trazado_906795" data-name="Trazado 906795" d="M59.666,32.184a4.971,4.971,0,0,0-5.925-2.465c-4.287,1.035-6.134-5.105-9.952-4.711s-3.473,2.789-8.344,3.579-5.257,0-7.308,3.6Z" transform="translate(-28.137 -24.991)" fill="#fff"/>
                    </g>
                  </g>
                </g>
                <g id="Grupo_1113808" data-name="Grupo 1113808" transform="translate(161.331 49.717)">
                  <g id="Grupo_1113807" data-name="Grupo 1113807">
                    <g id="Grupo_1113806" data-name="Grupo 1113806">
                      <g id="Grupo_1113805" data-name="Grupo 1113805">
                        <path id="Trazado_906796" data-name="Trazado 906796" d="M555.966,194.427a3.58,3.58,0,0,0-4.267-1.775c-3.087.745-4.417-3.677-7.167-3.392s-2.5,2.008-6.008,2.577-3.786,0-5.263,2.59Z" transform="translate(-533.261 -189.246)" fill="#fff"/>
                      </g>
                    </g>
                  </g>
                </g>
                <g id="Grupo_1113811" data-name="Grupo 1113811" transform="translate(30.424 31.364)">
                  <g id="Grupo_1113810" data-name="Grupo 1113810">
                    <g id="Grupo_1113809" data-name="Grupo 1113809">
                      <path id="Trazado_906797" data-name="Trazado 906797" d="M123.47,133.792a3.58,3.58,0,0,0-4.266-1.775c-3.088.745-4.418-3.676-7.167-3.392s-2.5,2.008-6.008,2.577-3.786,0-5.263,2.59Z" transform="translate(-100.766 -128.612)" fill="#fff"/>
                    </g>
                  </g>
                </g>
                <g id="Grupo_1113814" data-name="Grupo 1113814" transform="translate(25.974 53.495)">
                  <g id="Grupo_1113813" data-name="Grupo 1113813">
                    <g id="Grupo_1113812" data-name="Grupo 1113812">
                      <path id="Trazado_906798" data-name="Trazado 906798" d="M117.669,208.941a4.983,4.983,0,0,0-5.939-2.47c-4.3,1.037-6.149-5.118-9.975-4.722s-3.481,2.8-8.364,3.587-5.269,0-7.326,3.605Z" transform="translate(-86.065 -201.73)" fill="#fff"/>
                    </g>
                  </g>
                </g>
                <g id="Grupo_1113817" data-name="Grupo 1113817" transform="translate(0 47.105)">
                  <g id="Grupo_1113816" data-name="Grupo 1113816">
                    <g id="Grupo_1113815" data-name="Grupo 1113815">
                      <path id="Trazado_906799" data-name="Trazado 906799" d="M.25,185.8H15.862a3.58,3.58,0,0,0-4.267-1.775c-3.087.745-4.417-3.677-7.167-3.392-2.149.222-2.467,1.325-4.179,2.067Z" transform="translate(-0.25 -180.617)" fill="#fff"/>
                    </g>
                  </g>
                </g>
                <g id="Grupo_1113820" data-name="Grupo 1113820" transform="translate(157.633 18.41)">
                  <g id="Grupo_1113819" data-name="Grupo 1113819" transform="translate(0 0)">
                    <g id="Grupo_1113818" data-name="Grupo 1113818">
                      <path id="Trazado_906800" data-name="Trazado 906800" d="M552.574,93.008a4.971,4.971,0,0,0-5.925-2.465c-4.287,1.035-6.134-5.106-9.952-4.711s-3.473,2.789-8.344,3.579-5.257,0-7.308,3.6Z" transform="translate(-521.045 -85.815)" fill="#fff"/>
                    </g>
                  </g>
                </g>
                <g id="Grupo_1113823" data-name="Grupo 1113823" transform="translate(111.904 28.059)">
                  <g id="Grupo_1113822" data-name="Grupo 1113822">
                    <g id="Grupo_1113821" data-name="Grupo 1113821">
                      <path id="Trazado_906801" data-name="Trazado 906801" d="M401.493,124.886a4.971,4.971,0,0,0-5.925-2.465c-4.287,1.035-6.134-5.106-9.952-4.711s-3.473,2.789-8.344,3.579-5.257,0-7.308,3.6Z" transform="translate(-369.964 -117.693)" fill="#fff"/>
                    </g>
                  </g>
                </g>
              </g>
              <g id="Grupo_1113859" data-name="Grupo 1113859" transform="translate(0.169 77.702)" opacity="0.71">
                <g id="Grupo_1113833" data-name="Grupo 1113833" transform="translate(27.913)">
                  <g id="Grupo_1113831" data-name="Grupo 1113831">
                    <path id="Trazado_906807" data-name="Trazado 906807" d="M109.011,271.716l-1.188.042-.9.032-2.792.1S89.445,251.87,93.483,243.817c3.148-6.279,12.97-7.636,15.336,1.254S109.011,271.716,109.011,271.716Z" transform="translate(-92.78 -238.756)" fill="#005454"/>
                  </g>
                  <g id="Grupo_1113832" data-name="Grupo 1113832" transform="translate(8.126 7.288)">
                    <path id="Trazado_906808" data-name="Trazado 906808" d="M126.545,288.549l-.9.032-6.012-25.345c-.045-.185.117-.363.358-.4a.451.451,0,0,1,.518.275Z" transform="translate(-119.628 -262.835)" fill="#003d3c"/>
                  </g>
                </g>
                <g id="Grupo_1113836" data-name="Grupo 1113836" transform="translate(36.485 4.083)">
                  <g id="Grupo_1113834" data-name="Grupo 1113834">
                    <path id="Trazado_906809" data-name="Trazado 906809" d="M148.42,280.853s-2.035.356-4.326.563c-.39.035-.787.066-1.182.09-.514.031-1.025.051-1.514.054-.31,0-.612,0-.9-.016-1.308-.058-2.341-.284-2.643-.805,0,0,.481-28.382,9.575-28.23,8.891.148-1.741,20.045-2.219,20.932.424-.732,8.6-14.656,16.766-11.414C170.365,265.356,148.42,280.853,148.42,280.853Z" transform="translate(-137.857 -252.508)" fill="#00666c"/>
                  </g>
                  <g id="Grupo_1113835" data-name="Grupo 1113835" transform="translate(2.643 6.108)">
                    <path id="Trazado_906810" data-name="Trazado 906810" d="M152.31,273.083l-4.823,22.548c-.31,0-.612,0-.9-.016l4.842-22.643a.448.448,0,0,1,.512-.281C152.184,272.722,152.349,272.9,152.31,273.083Z" transform="translate(-146.588 -272.687)" fill="#005454"/>
                    <path id="Trazado_906811" data-name="Trazado 906811" d="M168.876,300.618l-13.134,13.97c-.39.035-.787.066-1.182.09l13.592-14.457a.538.538,0,0,1,.621-.078A.293.293,0,0,1,168.876,300.618Z" transform="translate(-152.147 -291.788)" fill="#005454"/>
                  </g>
                </g>
                <g id="Grupo_1113841" data-name="Grupo 1113841" transform="translate(0 8.637)">
                  <g id="Grupo_1113837" data-name="Grupo 1113837" transform="translate(0 9.586)">
                    <path id="Trazado_906812" data-name="Trazado 906812" d="M.56,298.963v14.065c4.184,3.148,7.765,5.385,7.765,5.385l3.237-1.3S6.607,305.782.56,298.963Z" transform="translate(-0.56 -298.963)" fill="#003d3c"/>
                  </g>
                  <g id="Grupo_1113840" data-name="Grupo 1113840">
                    <g id="Grupo_1113838" data-name="Grupo 1113838">
                      <path id="Trazado_906813" data-name="Trazado 906813" d="M14.473,293.854l-1.216.176-.881.126-1.495.216S4.091,286.623.559,279.4V268.256a5.466,5.466,0,0,1,.672-.352C13.367,262.565,14.473,293.854,14.473,293.854Z" transform="translate(-0.559 -267.291)" fill="#005454"/>
                    </g>
                    <g id="Grupo_1113839" data-name="Grupo 1113839" transform="translate(3.853 7.091)">
                      <path id="Trazado_906814" data-name="Trazado 906814" d="M22.134,310.367l-.881.126-7.945-19.331c-.073-.179.057-.371.292-.427a.482.482,0,0,1,.558.223Z" transform="translate(-13.288 -290.72)" fill="#003d3c"/>
                    </g>
                  </g>
                </g>
                <g id="Grupo_1113844" data-name="Grupo 1113844" transform="translate(3.931 1.257)">
                  <g id="Grupo_1113842" data-name="Grupo 1113842">
                    <path id="Trazado_906815" data-name="Trazado 906815" d="M40.683,274.977l-2.586.069-1.772.047-2.76.074S6.83,250.636,15.154,245.421c8.252-5.17,19.33,22.044,19.52,22.511-.12-.468-6.841-26.771,3.562-24.932C48.732,244.856,40.683,274.977,40.683,274.977Z" transform="translate(-13.547 -242.908)" fill="#00666c"/>
                  </g>
                  <g id="Grupo_1113843" data-name="Grupo 1113843" transform="translate(7.039 8.044)">
                    <path id="Trazado_906816" data-name="Trazado 906816" d="M55.224,269.833l-.911,23.744-1.772.047L36.857,271.5a.3.3,0,0,1,.179-.462.521.521,0,0,1,.6.137l15.786,22.27.907-23.632a.412.412,0,0,1,.458-.331C55.038,269.488,55.231,269.645,55.224,269.833Z" transform="translate(-36.803 -269.483)" fill="#005454"/>
                  </g>
                </g>
                <g id="Grupo_1113849" data-name="Grupo 1113849" transform="translate(183.87 8.637)">
                  <g id="Grupo_1113845" data-name="Grupo 1113845" transform="translate(2.91 9.586)">
                    <path id="Trazado_906817" data-name="Trazado 906817" d="M628.652,298.963v14.065c-4.184,3.148-7.765,5.385-7.765,5.385l-3.237-1.3S622.605,305.782,628.652,298.963Z" transform="translate(-617.649 -298.963)" fill="#003d3c"/>
                  </g>
                  <g id="Grupo_1113848" data-name="Grupo 1113848">
                    <g id="Grupo_1113846" data-name="Grupo 1113846">
                      <path id="Trazado_906818" data-name="Trazado 906818" d="M621.947,268.256V279.4c-3.531,7.223-10.323,14.972-10.323,14.972l-1.494-.216-.882-.127-1.214-.175s1.105-31.289,13.241-25.95A5.347,5.347,0,0,1,621.947,268.256Z" transform="translate(-608.034 -267.291)" fill="#005454"/>
                    </g>
                    <g id="Grupo_1113847" data-name="Grupo 1113847" transform="translate(1.214 7.091)">
                      <path id="Trazado_906819" data-name="Trazado 906819" d="M620.871,291.163l-7.944,19.331-.882-.127,7.976-19.408a.482.482,0,0,1,.558-.223C620.815,290.792,620.945,290.983,620.871,291.163Z" transform="translate(-612.046 -290.72)" fill="#003d3c"/>
                    </g>
                  </g>
                </g>
                <g id="Grupo_1113852" data-name="Grupo 1113852" transform="translate(163.767 1.257)">
                  <g id="Grupo_1113850" data-name="Grupo 1113850">
                    <path id="Trazado_906820" data-name="Trazado 906820" d="M551.686,275.166l-2.759-.074-1.774-.047-2.586-.069s-8.048-30.12,2.448-31.977c10.4-1.839,3.682,24.464,3.562,24.933.19-.467,11.267-27.681,19.52-22.511C578.421,250.636,551.686,275.166,551.686,275.166Z" transform="translate(-541.618 -242.908)" fill="#00666c"/>
                  </g>
                  <g id="Grupo_1113851" data-name="Grupo 1113851" transform="translate(4.624 8.044)">
                    <path id="Trazado_906821" data-name="Trazado 906821" d="M575.264,271.5l-15.683,22.124-1.774-.047-.911-23.744c-.007-.188.187-.345.433-.35a.412.412,0,0,1,.458.331l.907,23.632,15.787-22.27a.521.521,0,0,1,.6-.137A.3.3,0,0,1,575.264,271.5Z" transform="translate(-556.896 -269.483)" fill="#005454"/>
                  </g>
                </g>
                <g id="Grupo_1113858" data-name="Grupo 1113858" transform="translate(139.858 4.29)">
                  <g id="Grupo_1113856" data-name="Grupo 1113856">
                    <path id="Trazado_906824" data-name="Trazado 906824" d="M472.223,285.1l-2.578-.171-1.768-.117-2.751-.183s-22.65-26.825-13.561-31.23c9.022-4.373,15.713,23.747,15.809,24.154-.037-.4-2.562-27.213,7.486-24.42C484.985,255.947,472.223,285.1,472.223,285.1Z" transform="translate(-449.413 -252.929)" fill="#00666c"/>
                  </g>
                  <g id="Grupo_1113857" data-name="Grupo 1113857" transform="translate(6.37 8.003)">
                    <path id="Trazado_906825" data-name="Trazado 906825" d="M488.987,279.882l-4.666,23.485-1.768-.117-12.062-23.415c-.09-.176.023-.373.251-.442a.5.5,0,0,1,.578.192l12.141,23.568,4.644-23.374a.445.445,0,0,1,.508-.285C488.857,279.522,489.025,279.7,488.987,279.882Z" transform="translate(-470.46 -279.369)" fill="#005454"/>
                  </g>
                </g>
              </g>
              <g id="Grupo_1113871" data-name="Grupo 1113871" transform="translate(0 106.242)" opacity="0.69">
                <g id="Grupo_1113860" data-name="Grupo 1113860">
                  <path id="Trazado_906826" data-name="Trazado 906826" d="M197.952,341.087v42.494H0v-43.2C66.05,330.391,130.3,330.592,197.952,341.087Z" transform="translate(0 -333.048)" fill="#008985"/>
                </g>
                <path id="Trazado_906827" data-name="Trazado 906827" d="M484.789,443.495s-7.718-6.856-5.114-7.852,6.077,6.371,6.077,6.371.251-5.672,3.646-6-2.166,7.615-2.166,7.615Z" transform="translate(-334.114 -404.525)" fill="#00666c"/>
                <path id="Trazado_906828" data-name="Trazado 906828" d="M83.08,413.364s-7.718-6.856-5.114-7.851,6.077,6.371,6.077,6.371.251-5.672,3.646-6-2.172,7.291-2.172,7.291Z" transform="translate(-53.993 -383.515)" fill="#00666c"/>
                <path id="Trazado_906829" data-name="Trazado 906829" d="M535.866,414.645s-7.718-6.856-5.114-7.851,6.077,6.371,6.077,6.371.251-5.672,3.646-6-2.166,7.616-2.166,7.616Z" transform="translate(-369.731 -384.408)" fill="#00666c"/>
                <path id="Trazado_906830" data-name="Trazado 906830" d="M205.936,471.341s-7.718-6.856-5.114-7.851,6.077,6.371,6.077,6.371.251-5.672,3.646-6-1.41,7.206-1.41,7.206Z" transform="translate(-139.663 -423.944)" fill="#00666c"/>
                <path id="Trazado_906831" data-name="Trazado 906831" d="M101.648,351.582s-7.718-6.856-5.114-7.851,6.076,6.371,6.076,6.371.251-5.673,3.646-6-1.41,7.206-1.41,7.206Z" transform="translate(-66.941 -340.433)" fill="#00666c"/>
                <path id="Trazado_906832" data-name="Trazado 906832" d="M462.537,378.4s-7.348-6.519-4.744-7.515,6.077,6.371,6.077,6.371.251-5.673,3.646-6-1.559,7.48-1.559,7.48Z" transform="translate(-318.84 -359.365)" fill="#00666c"/>
                <path id="Trazado_906833" data-name="Trazado 906833" d="M538.489,353.118s7.946-7.144,5.341-8.139-6.077,6.371-6.077,6.371-.251-5.672-3.646-6,1.559,7.48,1.559,7.48Z" transform="translate(-371.616 -341.303)" fill="#00666c"/>
                <path id="Trazado_906834" data-name="Trazado 906834" d="M350.657,371.9s7.945-7.144,5.341-8.139-6.077,6.371-6.077,6.371-.251-5.672-3.646-6,1.671,7.768,1.671,7.768Z" transform="translate(-240.649 -354.4)" fill="#00666c"/>
                <path id="Trazado_906835" data-name="Trazado 906835" d="M366.907,469.886s-7.086-6.856-4.482-7.851,6.077,6.371,6.077,6.371.251-5.672,3.646-6-1.559,7.48-1.559,7.48Z" transform="translate(-252.326 -422.929)" fill="#00666c"/>
                <g id="Grupo_1113862" data-name="Grupo 1113862" transform="translate(0 8.009)">
                  <g id="Grupo_1113861" data-name="Grupo 1113861">
                    <path id="Trazado_906836" data-name="Trazado 906836" d="M197.952,367.113v.618a688.256,688.256,0,0,0-101.107-7.588A667.862,667.862,0,0,0,0,367.242v-.616c16.347-2.384,32.789-4.188,48.895-5.364,16.664-1.217,33.553-1.8,50.195-1.75s33.646.761,50.5,2.095C165.444,362.861,181.7,364.711,197.952,367.113Z" transform="translate(0 -359.508)" fill="#00666c"/>
                  </g>
                </g>
                <g id="Grupo_1113864" data-name="Grupo 1113864" transform="translate(0 36.504)">
                  <g id="Grupo_1113863" data-name="Grupo 1113863">
                    <path id="Trazado_906837" data-name="Trazado 906837" d="M197.952,461.255v.617a688.338,688.338,0,0,0-101.107-7.588A667.8,667.8,0,0,0,0,461.384v-.617c16.347-2.384,32.789-4.188,48.895-5.364,16.664-1.217,33.553-1.806,50.195-1.749s33.646.761,50.5,2.094C165.444,457,181.7,458.853,197.952,461.255Z" transform="translate(0 -453.651)" fill="#00666c"/>
                  </g>
                </g>
                <g id="Grupo_1113866" data-name="Grupo 1113866" transform="translate(22.836 46.361)">
                  <g id="Grupo_1113865" data-name="Grupo 1113865">
                    <path id="Trazado_906838" data-name="Trazado 906838" d="M224.008,490.388h-5.789a675.646,675.646,0,0,0-68.764-3.538,662.206,662.206,0,0,0-68.31,3.538h-5.7c8.739-.981,17.448-1.79,26.059-2.419,16.664-1.217,33.553-1.805,50.195-1.749s33.646.761,50.5,2.094Q213,489.169,224.008,490.388Z" transform="translate(-75.445 -486.216)" fill="#00666c"/>
                  </g>
                </g>
                <g id="Grupo_1113868" data-name="Grupo 1113868" transform="translate(0 26.197)">
                  <g id="Grupo_1113867" data-name="Grupo 1113867">
                    <path id="Trazado_906839" data-name="Trazado 906839" d="M197.952,427.2v.618a688.257,688.257,0,0,0-101.107-7.588A667.884,667.884,0,0,0,0,427.333v-.616c16.347-2.385,32.789-4.188,48.895-5.364,16.664-1.217,33.553-1.808,50.195-1.749s33.646.761,50.5,2.094C165.444,422.951,181.7,424.8,197.952,427.2Z" transform="translate(0 -419.599)" fill="#00666c"/>
                  </g>
                </g>
                <g id="Grupo_1113870" data-name="Grupo 1113870" transform="translate(0 17.103)">
                  <g id="Grupo_1113869" data-name="Grupo 1113869">
                    <path id="Trazado_906840" data-name="Trazado 906840" d="M197.952,397.157v.618a688.269,688.269,0,0,0-101.107-7.588A667.884,667.884,0,0,0,0,397.287v-.616c16.347-2.385,32.789-4.188,48.895-5.365,16.664-1.217,33.553-1.806,50.195-1.749s33.646.761,50.5,2.095C165.444,392.9,181.7,394.756,197.952,397.157Z" transform="translate(0 -389.553)" fill="#00666c"/>
                  </g>
                </g>
                <path id="Trazado_906841" data-name="Trazado 906841" d="M164.3,377.608s-7.718-6.856-5.114-7.851,6.077,6.371,6.077,6.371.251-5.672,3.646-6-1.41,7.206-1.41,7.206Z" transform="translate(-110.63 -358.581)" fill="#00666c"/>
                <path id="Trazado_906842" data-name="Trazado 906842" d="M229.907,345.385s-7.246-6.436-4.8-7.371,5.7,5.982,5.7,5.982.235-5.326,3.423-5.633-1.323,6.766-1.323,6.766Z" transform="translate(-156.62 -336.45)" fill="#00666c"/>
              </g>
              <g id="Grupo_1114061" data-name="Grupo 1114061" transform="translate(0 102.742)">
                <g id="Grupo_1114048" data-name="Grupo 1114048">
                  <g id="Grupo_1114047" data-name="Grupo 1114047">
                    <path id="Trazado_906945" data-name="Trazado 906945" d="M77.94,475.136l4.076-5.975c2-2.635,3.833-4.254,5.076-4.351,2.976-.233-2.066,7.023-2.066,7.023s6.048-6.822,9.653-7.45-5.031,9.254-5.031,9.254,6.63-2.9,9.819-2.166c1.643.379-1.164,2.093-4.273,3.665Z" transform="translate(-54.349 -434.11)" fill="#003d3c"/>
                    <g id="Grupo_1114046" data-name="Grupo 1114046">
                      <path id="Trazado_906946" data-name="Trazado 906946" d="M0,391.79a2.015,2.015,0,0,0,.179.154c1.757,1.331,4.8-3.766,1.989-8.868s-.5-11.84,3.28-12.1.493,4.221,5.36,3.533,5.616-10.6,11.9-10.053c5.5.478,1.974,7.819-.757,10.912-2.576,2.92-1.812,5.889,1.081,5.24s5.782,2.421,1.477,7.187-10.136,9.51-7.33,10.057,8.644-4.137,11.131,1.408c1.111,2.478-1.29,4.607-4.286,6.2H0Z" transform="translate(0 -364.432)" fill="#005454"/>
                      <g id="Grupo_1114038" data-name="Grupo 1114038" transform="translate(0.972 6.349)">
                        <g id="Grupo_1114037" data-name="Grupo 1114037">
                          <path id="Trazado_906947" data-name="Trazado 906947" d="M4.076,420.089c6.618-13.428,17.741-34,17.876-34.253.086-.157-.012-.339-.219-.4a.457.457,0,0,0-.529.169c-.136.252-11.382,21.05-17.994,34.489Z" transform="translate(-3.21 -385.408)" fill="#003d3c"/>
                        </g>
                      </g>
                      <g id="Grupo_1114040" data-name="Grupo 1114040" transform="translate(6.678 13.894)">
                        <g id="Grupo_1114039" data-name="Grupo 1114039">
                          <path id="Trazado_906948" data-name="Trazado 906948" d="M27.086,417.8a.487.487,0,0,0,.191-.052.268.268,0,0,0,.107-.431c-.035-.039-3.5-3.943-4.524-6.758a.431.431,0,0,0-.5-.215c-.216.046-.341.217-.281.382,1.064,2.914,4.49,6.778,4.635,6.941A.46.46,0,0,0,27.086,417.8Z" transform="translate(-22.064 -410.336)" fill="#003d3c"/>
                        </g>
                      </g>
                      <g id="Grupo_1114041" data-name="Grupo 1114041" transform="translate(9.769 21.695)">
                        <path id="Trazado_906949" data-name="Trazado 906949" d="M32.718,439.079l.024,0a44.923,44.923,0,0,0,10.1-2.387.277.277,0,0,0,.161-.421.476.476,0,0,0-.55-.123,44.8,44.8,0,0,1-9.83,2.318c-.221.026-.373.183-.34.353A.4.4,0,0,0,32.718,439.079Z" transform="translate(-32.277 -436.108)" fill="#003d3c"/>
                      </g>
                      <g id="Grupo_1114043" data-name="Grupo 1114043" transform="translate(0 34.19)">
                        <g id="Grupo_1114042" data-name="Grupo 1114042">
                          <path id="Trazado_906950" data-name="Trazado 906950" d="M0,477.389a32.1,32.1,0,0,0,3.565,2.8.263.263,0,0,1,.044.437.453.453,0,0,1-.271.107.491.491,0,0,1-.3-.073A32.271,32.271,0,0,1,0,478.346Z" transform="translate(0 -477.389)" fill="#003d3c"/>
                        </g>
                      </g>
                      <g id="Grupo_1114045" data-name="Grupo 1114045" transform="translate(1.524 38.423)">
                        <g id="Grupo_1114044" data-name="Grupo 1114044">
                          <path id="Trazado_906951" data-name="Trazado 906951" d="M11.9,493.148a30.191,30.191,0,0,0,6.938-1.179c.206-.067.3-.249.214-.406a.459.459,0,0,0-.532-.164c-4.988,1.623-12.971,1.212-13.051,1.208a.385.385,0,0,0-.433.287c-.016.171.152.319.376.331A57.872,57.872,0,0,0,11.9,493.148Z" transform="translate(-5.037 -491.374)" fill="#003d3c"/>
                        </g>
                      </g>
                    </g>
                  </g>
                </g>
                <g id="Grupo_1114060" data-name="Grupo 1114060" transform="translate(152.349)">
                  <g id="Grupo_1114059" data-name="Grupo 1114059">
                    <path id="Trazado_906952" data-name="Trazado 906952" d="M525.348,475.136l-4.076-5.975c-2-2.635-3.833-4.254-5.076-4.351-2.976-.233,2.067,7.023,2.067,7.023s-6.048-6.822-9.653-7.45,5.031,9.254,5.031,9.254-6.63-2.9-9.819-2.166c-1.643.379,1.164,2.093,4.273,3.665Z" transform="translate(-503.336 -434.11)" fill="#003d3c"/>
                    <g id="Grupo_1114058" data-name="Grupo 1114058" transform="translate(17.02)">
                      <path id="Trazado_906953" data-name="Trazado 906953" d="M588.15,391.79a2.036,2.036,0,0,1-.179.154c-1.757,1.331-4.8-3.766-1.989-8.868s.5-11.84-3.28-12.1-.493,4.221-5.36,3.533-5.616-10.6-11.9-10.053c-5.5.478-1.974,7.819.757,10.912,2.576,2.92,1.812,5.889-1.081,5.24s-5.782,2.421-1.477,7.187,10.136,9.51,7.33,10.057-8.644-4.137-11.131,1.408c-1.112,2.478,1.29,4.607,4.286,6.2H588.15Z" transform="translate(-559.567 -364.432)" fill="#005454"/>
                      <g id="Grupo_1114050" data-name="Grupo 1114050" transform="translate(8.838 6.349)">
                        <g id="Grupo_1114049" data-name="Grupo 1114049">
                          <path id="Trazado_906954" data-name="Trazado 906954" d="M606.674,420.089c-6.618-13.428-17.741-34-17.876-34.253-.086-.157.012-.339.219-.4a.457.457,0,0,1,.529.169c.136.252,11.382,21.05,17.993,34.489Z" transform="translate(-588.766 -385.408)" fill="#003d3c"/>
                        </g>
                      </g>
                      <g id="Grupo_1114052" data-name="Grupo 1114052" transform="translate(16.515 13.894)">
                        <g id="Grupo_1114051" data-name="Grupo 1114051">
                          <path id="Trazado_906955" data-name="Trazado 906955" d="M614.5,417.8a.487.487,0,0,1-.191-.052.268.268,0,0,1-.107-.431c.035-.039,3.5-3.943,4.524-6.758a.431.431,0,0,1,.5-.215c.216.046.341.217.281.382-1.064,2.914-4.49,6.778-4.635,6.941A.46.46,0,0,1,614.5,417.8Z" transform="translate(-614.128 -410.336)" fill="#003d3c"/>
                        </g>
                      </g>
                      <g id="Grupo_1114053" data-name="Grupo 1114053" transform="translate(8.039 21.695)">
                        <path id="Trazado_906956" data-name="Trazado 906956" d="M596.46,439.079l-.024,0a44.923,44.923,0,0,1-10.1-2.387.277.277,0,0,1-.161-.421.476.476,0,0,1,.55-.123,44.8,44.8,0,0,0,9.83,2.318c.221.026.373.183.34.353A.4.4,0,0,1,596.46,439.079Z" transform="translate(-586.128 -436.108)" fill="#003d3c"/>
                      </g>
                      <g id="Grupo_1114055" data-name="Grupo 1114055" transform="translate(24.876 34.19)">
                        <g id="Grupo_1114054" data-name="Grupo 1114054">
                          <path id="Trazado_906957" data-name="Trazado 906957" d="M645.461,477.389a32.118,32.118,0,0,1-3.565,2.8.262.262,0,0,0-.044.437.453.453,0,0,0,.271.107.491.491,0,0,0,.3-.073,32.286,32.286,0,0,0,3.038-2.309Z" transform="translate(-641.754 -477.389)" fill="#003d3c"/>
                        </g>
                      </g>
                      <g id="Grupo_1114057" data-name="Grupo 1114057" transform="translate(13.009 38.423)">
                        <g id="Grupo_1114056" data-name="Grupo 1114056">
                          <path id="Trazado_906958" data-name="Trazado 906958" d="M609.732,493.148a30.191,30.191,0,0,1-6.938-1.179c-.206-.067-.3-.249-.214-.406a.459.459,0,0,1,.531-.164c4.988,1.623,12.971,1.212,13.052,1.208a.385.385,0,0,1,.433.287c.016.171-.152.319-.376.331A57.871,57.871,0,0,1,609.732,493.148Z" transform="translate(-602.547 -491.374)" fill="#003d3c"/>
                        </g>
                      </g>
                    </g>
                  </g>
                </g>
              </g>
            </g>
          </g>
        </g>
      </g>
    </g>
    <g id="planting_1142726" transform="translate(1273.414 6168.997)">
      <path id="Trazado_916626" data-name="Trazado 916626" d="M285.823,28.775c-5.451,2.541-25.384,6.455-27.925,1s13.269-18.2,18.719-20.743a10.89,10.89,0,1,1,9.206,19.739Zm0,0" transform="translate(-202.398 -5.902)" fill="#50e199"/>
      <path id="Trazado_916627" data-name="Trazado 916627" d="M289.975,30.9a10.8,10.8,0,0,1-4.15,3.389c-5.45,2.54-25.383,6.455-27.923,1a3.193,3.193,0,0,1-.266-1.576c6.665,1.576,20.013-1.29,24.319-3.3a10.887,10.887,0,0,0,5.267-14.47c-.148-.317-.309-.623-.485-.919a10.892,10.892,0,0,1,3.237,15.87Zm0,0" transform="translate(-202.4 -11.413)" fill="#3ad391"/>
      <path id="Trazado_916628" data-name="Trazado 916628" d="M185.657,191.488c2.057.96,9.584,2.438,10.543.379s-5.01-6.872-7.068-7.831a4.111,4.111,0,1,0-3.476,7.452Zm0,0" transform="translate(-143.993 -143.888)" fill="#50e199"/>
      <path id="Trazado_916629" data-name="Trazado 916629" d="M196.2,201.377c-.961,2.057-8.487.581-10.544-.379a4.107,4.107,0,0,1-2.084-5.244,4.209,4.209,0,0,0,.517.929,4.076,4.076,0,0,0,1.568,1.277c1.785.834,7.682,2.054,9.843,1.021C196.158,199.908,196.486,200.764,196.2,201.377Zm0,0" transform="translate(-143.992 -153.397)" fill="#3ad391"/>
      <path id="Trazado_916630" data-name="Trazado 916630" d="M86.259,384.7a30.731,30.731,0,0,0-6.88.781,38.306,38.306,0,0,0-49.146,6.851A20.237,20.237,0,0,0,7.842,401.8a2.4,2.4,0,0,0,2.077,3.6H111.652a2.4,2.4,0,0,0,2.158-3.446A30.62,30.62,0,0,0,86.259,384.7Zm0,0" transform="translate(-5.905 -297.76)" fill="#c87c5b"/>
      <path id="Trazado_916631" data-name="Trazado 916631" d="M111.654,405.394h-.333a30.631,30.631,0,0,0-31.039-12.434,2.372,2.372,0,0,1-1.686-.293,38.3,38.3,0,0,0-47.455,6.355,2.394,2.394,0,0,1-2.16.71,20.239,20.239,0,0,0-18.014,5.662H9.918a2.4,2.4,0,0,1-2.076-3.6,20.233,20.233,0,0,1,22.392-9.462,38.3,38.3,0,0,1,49.145-6.851,30.639,30.639,0,0,1,34.431,16.464,2.4,2.4,0,0,1-2.157,3.447Zm0,0" transform="translate(-5.905 -297.76)" fill="#a46243"/>
      <path id="Trazado_916632" data-name="Trazado 916632" d="M162.2,258.486v-2.613a5.53,5.53,0,0,1,5.53-5.53h12.116v8.143Zm0,0" transform="translate(-127.426 -196.285)" fill="#eea97b"/>
      <path id="Trazado_916633" data-name="Trazado 916633" d="M285.147,258.486v-2.613a5.531,5.531,0,0,0-5.531-5.53H267.5v8.143Zm0,0" transform="translate(-210.156 -196.285)" fill="#f4bb91"/>
      <path id="Trazado_916634" data-name="Trazado 916634" d="M248.3,103.081h-5.785V32.041a2.893,2.893,0,1,1,5.785,0Zm0,0" transform="translate(-190.525 -22.507)" fill="#a46243"/>
      <path id="Trazado_916635" data-name="Trazado 916635" d="M67.741,283.883h-31.7v18.674H67.657Zm0,0" transform="translate(-28.312 -222.634)" fill="#eea97b"/>
      <path id="Trazado_916636" data-name="Trazado 916636" d="M173.549,284.72a4.213,4.213,0,0,1-1.409,8.183h-.01a4.213,4.213,0,0,1-1.494,8.153h-.011a4.213,4.213,0,0,1,2.717,4.058,4.27,4.27,0,0,1-4.3,4.094H158.9a10.386,10.386,0,0,1-10.385-10.385V282.473a6.15,6.15,0,0,1,6.15-6.149h18.377a4.213,4.213,0,0,1,.507,8.4Zm0,0" transform="translate(-116.679 -216.696)" fill="#f4bb91"/>
      <path id="Trazado_916637" data-name="Trazado 916637" d="M328.078,283.883h31.7v18.674H328.162Zm0,0" transform="translate(-257.748 -222.634)" fill="#f4bb91"/>
      <path id="Trazado_916638" data-name="Trazado 916638" d="M233.133,284.72a4.213,4.213,0,0,0,1.408,8.183h.01a4.214,4.214,0,0,0,1.495,8.153h.01a4.213,4.213,0,0,0-2.716,4.058,4.27,4.27,0,0,0,4.3,4.094h10.142a10.385,10.385,0,0,0,10.384-10.385V282.473a6.149,6.149,0,0,0-6.149-6.149H233.639a4.213,4.213,0,0,0-.506,8.4Zm0,0" transform="translate(-180.245 -216.696)" fill="#fedbbc"/>
      <path id="Trazado_916639" data-name="Trazado 916639" d="M134.7,71.92c4.028,1.878,18.759,4.77,20.638.742s-9.807-13.452-13.834-15.33a8.048,8.048,0,0,0-6.8,14.588Zm0,0" transform="translate(-102.177 -44.055)" fill="#50e199"/>
      <path id="Trazado_916640" data-name="Trazado 916640" d="M155.341,76.064c-1.878,4.028-16.609,1.135-20.637-.742a8.047,8.047,0,0,1-.345-14.416c-.06.114-.118.228-.172.345a8.049,8.049,0,0,0,3.893,10.7c3.066,1.429,12.326,3.445,17.407,2.553A2.562,2.562,0,0,1,155.341,76.064Zm0,0" transform="translate(-102.176 -47.457)" fill="#3ad391"/>
      <path id="Trazado_916641" data-name="Trazado 916641" d="M273.012,163.15c-2.058.96-9.584,2.437-10.544.379s5.01-6.872,7.068-7.832a4.112,4.112,0,1,1,3.476,7.453Zm0,0" transform="translate(-206.122 -121.624)" fill="#50e199"/>
      <path id="Trazado_916642" data-name="Trazado 916642" d="M274.578,171.38a4.05,4.05,0,0,1-1.565,1.278c-2.057.96-9.584,2.437-10.544.379-.286-.613.043-1.469.7-2.4,2.16,1.033,8.058-.187,9.843-1.018a4.077,4.077,0,0,0,1.565-1.28,4.162,4.162,0,0,0,.517-.929,4.108,4.108,0,0,1-.517,3.966Zm0,0" transform="translate(-206.122 -131.133)" fill="#3ad391"/>
      <path id="Trazado_916643" data-name="Trazado 916643" d="M109.351,103.486a32.167,32.167,0,0,0-7.373-9.817,1.608,1.608,0,0,0-2.159,2.383,28.979,28.979,0,0,1,6.64,8.84.768.768,0,0,1-.041.763.781.781,0,0,1-.671.372H4.013a.779.779,0,0,1-.687-.4.756.756,0,0,1,0-.782A18.631,18.631,0,0,1,23.94,96.133a1.611,1.611,0,0,0,1.589-.49,36.859,36.859,0,0,1,7.185-6.219,11.978,11.978,0,0,0,9.508,4.7H52.364a5.944,5.944,0,0,0,2.518-.562,5.89,5.89,0,0,0,2.512.562H67.537a11.99,11.99,0,0,0,10.033-5.434c.924-.089,1.858-.136,2.785-.136a29.045,29.045,0,0,1,13.708,3.44,1.608,1.608,0,0,0,1.522-2.833,32.285,32.285,0,0,0-15.23-3.823c-.424,0-.847.012-1.272.028a11.96,11.96,0,0,0,.446-3.235v-.6h22.505a1.608,1.608,0,1,0,0-3.216H79.529V65.778a7.712,7.712,0,0,0-.573-2.922h23.078a1.608,1.608,0,0,0,0-3.216H76.6V59.59a7.146,7.146,0,0,0-7.138-7.139H59.38v-7.9l.11,0a18.6,18.6,0,0,0,1.882-.1,22.811,22.811,0,0,0,6.2-1.464,5.719,5.719,0,0,0-4.834-10.366,18.314,18.314,0,0,0-3.355,2.258V27.867a24.182,24.182,0,0,0,4.414.361,66.132,66.132,0,0,0,15.635-2.292,1.608,1.608,0,0,0-.849-3.1c-6.268,1.716-14.807,2.828-19.2,1.748V17.509C63.48,12.295,71.442,6.2,74.9,4.591a9.282,9.282,0,0,1,9.8,15.6,1.608,1.608,0,1,0,2.033,2.491,12.5,12.5,0,0,0-13.19-21c-3.165,1.476-9.488,6.07-14.162,10.953v-3.1a4.5,4.5,0,1,0-9,0V19.777q-.383-.392-.8-.795a43.67,43.67,0,0,0-9.572-7.161,9.655,9.655,0,0,0-8.16,17.5A43.673,43.673,0,0,0,43.488,32.05a34.628,34.628,0,0,0,3.51.2,17.983,17.983,0,0,0,3.381-.283V41.987a22.1,22.1,0,0,0-4.56-3.3,5.718,5.718,0,1,0-4.833,10.365,23.345,23.345,0,0,0,7.994,1.568,11.732,11.732,0,0,0,1.4-.08v1.907H40.3a7.146,7.146,0,0,0-7.139,7.138v.052H7.724a1.608,1.608,0,1,0,0,3.216H30.8a7.709,7.709,0,0,0-.574,2.922V78.315h-5.79a1.608,1.608,0,1,0,0,3.216h5.79v.6a11.913,11.913,0,0,0,.882,4.505A40.018,40.018,0,0,0,23.772,92.8,21.846,21.846,0,0,0,.547,103.229a4,4,0,0,0,3.466,6.013H105.747a4.006,4.006,0,0,0,3.6-5.756ZM33.444,82.127V65.778a4.547,4.547,0,0,1,4.542-4.542H48.191a5.805,5.805,0,0,0-.017,5.179H44.669a1.608,1.608,0,1,0,0,3.216H48.98A5.788,5.788,0,0,0,49.1,74.6H42.9a1.608,1.608,0,1,0,0,3.216h7.577a5.751,5.751,0,0,0,.122,4.936H41.65a1.608,1.608,0,1,0,0,3.216H51.98a5.806,5.806,0,0,0-.492,2.495A5.658,5.658,0,0,0,52.12,90.9h-9.9a8.787,8.787,0,0,1-8.777-8.777ZM67.537,90.9H57.394A2.669,2.669,0,0,1,54.7,88.373a2.61,2.61,0,0,1,1.445-2.406H68.109a1.608,1.608,0,0,0,0-3.216H55.8a2.6,2.6,0,0,1-1.159-4.937H66.857a1.608,1.608,0,0,0,0-3.216H54.3a2.6,2.6,0,0,1-1.1-4.967H65.09a1.608,1.608,0,0,0,0-3.216H53.011a2.6,2.6,0,0,1,.384-5.179H71.773a4.547,4.547,0,0,1,4.541,4.541V82.127A8.788,8.788,0,0,1,67.537,90.9Zm1.923-35.238a3.927,3.927,0,0,1,3.641,2.47,7.8,7.8,0,0,0-1.328-.116H59.38V55.667ZM60.274,38.349a19.509,19.509,0,0,1,3.82-2.819,2.5,2.5,0,0,1,2.115,4.539A19.553,19.553,0,0,1,61.6,41.183a9.653,9.653,0,0,1-3.671-.014,9.675,9.675,0,0,1,2.35-2.82Zm-16.458-9.5a40.441,40.441,0,0,1-10.609-2.444A6.439,6.439,0,1,1,38.65,14.735a40.414,40.414,0,0,1,8.691,6.556c3.769,3.655,4.675,5.972,4.364,6.637S49.039,29.387,43.816,28.851Zm10.8.435c.7-1.5.351-3.359-1.027-5.561V9.535a1.285,1.285,0,1,1,2.57,0V38.016c-1.444,1.8-1.865,3.3-1.274,4.569A2.857,2.857,0,0,0,56.164,43.9v14.12h-2.57V30.6a3.807,3.807,0,0,0,1.027-1.317ZM42.344,46.142a2.5,2.5,0,1,1,2.116-4.537,19.6,19.6,0,0,1,5.919,5.183v.53a18.991,18.991,0,0,1-8.035-1.176ZM40.3,55.667h10.08v2.355H37.986a7.8,7.8,0,0,0-1.328.116,3.927,3.927,0,0,1,3.641-2.47Zm0,0"/>
      <path id="Trazado_916644" data-name="Trazado 916644" d="M384.9,458.848h-.012a1.608,1.608,0,0,0-.011,3.215h.04a1.608,1.608,0,0,0,.012-3.215Zm0,0" transform="translate(-301.118 -360.092)"/>
      <path id="Trazado_916645" data-name="Trazado 916645" d="M366.341,449.9h-.012a1.608,1.608,0,0,0-.011,3.216h.04a1.608,1.608,0,0,0,.012-3.216Zm0,0" transform="translate(-286.537 -353.064)"/>
      <path id="Trazado_916646" data-name="Trazado 916646" d="M158.069,449.9h-.012a1.608,1.608,0,0,0-.012,3.216h.041a1.608,1.608,0,0,0,.011-3.216Zm0,0" transform="translate(-122.912 -353.064)"/>
      <path id="Trazado_916647" data-name="Trazado 916647" d="M38.927,366.708a1.608,1.608,0,0,0,0-3.216H30.143a1.608,1.608,0,0,0,0,3.216Zm0,0" transform="translate(-22.419 -285.177)"/>
    </g>
  </g>
</svg>
