<svg xmlns="http://www.w3.org/2000/svg" xmlns:xlink="http://www.w3.org/1999/xlink" width="107.999" height="108" viewBox="0 0 107.999 108">
  <defs>
    <filter id="Trazado_874925" x="0" y="0" width="107.999" height="108" filterUnits="userSpaceOnUse">
      <feOffset dy="3" input="SourceAlpha"/>
      <feGaussianBlur stdDeviation="3" result="blur"/>
      <feFlood flood-opacity="0.161"/>
      <feComposite operator="in" in2="blur"/>
      <feComposite in="SourceGraphic"/>
    </filter>
    <clipPath id="clip-path">
      <path id="Trazado_909641" data-name="Trazado 909641" d="M41.9,0a41.9,41.9,0,0,1,41.9,41.9h0a41.9,41.9,0,0,1-83.81,0H0A41.9,41.9,0,0,1,41.9,0Z" fill="#9ad354"/>
    </clipPath>
  </defs>
  <g id="Grupo_1181720" data-name="Grupo 1181720" transform="translate(-849.051 -5151)">
    <g id="Grupo_1111552" data-name="Grupo 1111552" transform="translate(858.051 5157)">
      <g id="Grupo_1111316" data-name="Grupo 1111316" transform="translate(0 0)">
        <g id="Grupo_1109835" data-name="Grupo 1109835" transform="translate(0 0)">
          <g id="Grupo_1107913" data-name="Grupo 1107913">
            <g transform="matrix(1, 0, 0, 1, -9, -6)" filter="url(#Trazado_874925)">
              <g id="Trazado_874925-2" data-name="Trazado 874925" transform="translate(9 6)" fill="#9cc8ff" opacity="0.859">
                <path d="M 44.99971771240234 88.49987030029297 C 39.12662887573242 88.49987030029297 33.43001937866211 87.34996032714844 28.06811714172363 85.08206939697266 C 22.88839340209961 82.89122009277344 18.23619270324707 79.75453186035156 14.24076747894287 75.75910949707031 C 10.2453556060791 71.76369476318359 7.108654975891113 67.11151123046875 4.917805194854736 61.9317741394043 C 2.649917602539062 56.56988525390625 1.50000524520874 50.87327194213867 1.50000524520874 45.00019836425781 C 1.50000524520874 39.1265983581543 2.649917602539062 33.42998504638672 4.917805194854736 28.0680980682373 C 7.108654975891113 22.88836097717285 10.2453556060791 18.23617172241211 14.24076747894287 14.24075984954834 C 18.23619270324707 10.24533557891846 22.88839340209961 7.10864782333374 28.06811714172363 4.917797565460205 C 33.43001937866211 2.64991021156311 39.12662887573242 1.499997615814209 44.99971771240234 1.499997615814209 C 50.87280654907227 1.499997615814209 56.56941604614258 2.64991021156311 61.93131637573242 4.917797565460205 C 67.11105346679688 7.10864782333374 71.76324462890625 10.24533557891846 75.7586669921875 14.24075984954834 C 79.75408935546875 18.23617172241211 82.89079284667969 22.88836097717285 85.08162689208984 28.0680980682373 C 87.34953308105469 33.42998504638672 88.49944305419922 39.1265983581543 88.49944305419922 44.99967193603516 C 88.49944305419922 50.87327194213867 87.34953308105469 56.56988525390625 85.08162689208984 61.9317741394043 C 82.89079284667969 67.11151123046875 79.75408935546875 71.76369476318359 75.7586669921875 75.75910949707031 C 71.76324462890625 79.75453186035156 67.11105346679688 82.89122009277344 61.93131637573242 85.08206939697266 C 56.56941604614258 87.34996032714844 50.87280654907227 88.49987030029297 44.99971771240234 88.49987030029297 Z" stroke="none"/>
                <path d="M 44.99971771240234 2.999992370605469 C 39.32847595214844 2.999992370605469 33.82846069335938 4.110038757324219 28.65244674682617 6.299308776855469 C 23.65151977539062 8.414520263671875 19.15959167480469 11.44326019287109 15.30142974853516 15.30142211914062 C 11.44329071044922 19.15956115722656 8.414535522460938 23.6514892578125 6.29931640625 28.65242004394531 C 4.11004638671875 33.82842254638672 3 39.32843399047852 3 45.00019073486328 C 3 50.67143630981445 4.11004638671875 56.17144775390625 6.29931640625 61.34745025634766 C 8.414535522460938 66.34837341308594 11.44329071044922 70.84030914306641 15.30142974853516 74.69844818115234 C 19.15957641601562 78.55659484863281 23.65151977539062 81.58533477783203 28.65244674682617 83.70054626464844 C 33.82846069335938 85.88982391357422 39.32847595214844 86.99986267089844 44.99971771240234 86.99986267089844 C 50.67095947265625 86.99986267089844 56.17097473144531 85.88982391357422 61.34698867797852 83.70054626464844 C 66.34791564941406 81.58533477783203 70.83985900878906 78.55659484863281 74.69800567626953 74.69844818115234 C 78.55614471435547 70.84030914306641 81.58489990234375 66.34837341308594 83.70011901855469 61.34745025634766 C 85.88938903808594 56.17144775390625 86.99943542480469 50.67143630981445 86.99943542480469 44.99967956542969 C 86.99943542480469 39.32843399047852 85.88938903808594 33.82842254638672 83.70011901855469 28.65242004394531 C 81.58489990234375 23.6514892578125 78.55614471435547 19.15956115722656 74.69800567626953 15.30142211914062 C 70.83984375 11.44326019287109 66.34791564941406 8.414520263671875 61.34698867797852 6.299308776855469 C 56.17097473144531 4.110038757324219 50.67095947265625 2.999992370605469 44.99971771240234 2.999992370605469 M 44.99971771240234 -7.62939453125e-06 C 69.85237121582031 -7.62939453125e-06 89.99943542480469 20.14703369140625 89.99943542480469 44.99967956542969 L 89.99943542480469 45.00019073486328 C 89.99943542480469 69.85283660888672 69.85237121582031 89.99986267089844 44.99971771240234 89.99986267089844 C 20.14706420898438 89.99986267089844 0 69.85283660888672 0 45.00019073486328 L 0 44.99967956542969 C 0 20.14703369140625 20.14706420898438 -7.62939453125e-06 44.99971771240234 -7.62939453125e-06 Z" stroke="none" fill="#fff"/>
              </g>
            </g>
            <g id="Trazado_874923" data-name="Trazado 874923" fill="none">
              <path d="M45,0A45,45,0,0,1,90,45h0A45,45,0,0,1,0,45H0A45,45,0,0,1,45,0Z" stroke="none"/>
              <path d="M 44.99971771240234 2.999992370605469 C 39.32847595214844 2.999992370605469 33.82846069335938 4.110038757324219 28.65244674682617 6.299308776855469 C 23.65151977539062 8.414520263671875 19.15959167480469 11.44326019287109 15.30142974853516 15.30142211914062 C 11.44329071044922 19.15956115722656 8.414535522460938 23.6514892578125 6.29931640625 28.65242004394531 C 4.11004638671875 33.82842254638672 3 39.32843399047852 3 45.00019073486328 C 3 50.67143630981445 4.11004638671875 56.17144775390625 6.29931640625 61.34745025634766 C 8.414535522460938 66.34837341308594 11.44329071044922 70.84030914306641 15.30142974853516 74.69844818115234 C 19.15957641601562 78.55659484863281 23.65151977539062 81.58533477783203 28.65244674682617 83.70054626464844 C 33.82846069335938 85.88982391357422 39.32847595214844 86.99986267089844 44.99971771240234 86.99986267089844 C 50.67095947265625 86.99986267089844 56.17097473144531 85.88982391357422 61.34698867797852 83.70054626464844 C 66.34791564941406 81.58533477783203 70.83985900878906 78.55659484863281 74.69800567626953 74.69844818115234 C 78.55614471435547 70.84030914306641 81.58489990234375 66.34837341308594 83.70011901855469 61.34745025634766 C 85.88938903808594 56.17144775390625 86.99943542480469 50.67143630981445 86.99943542480469 44.99967956542969 C 86.99943542480469 39.32843399047852 85.88938903808594 33.82842254638672 83.70011901855469 28.65242004394531 C 81.58489990234375 23.6514892578125 78.55614471435547 19.15956115722656 74.69800567626953 15.30142211914062 C 70.83984375 11.44326019287109 66.34791564941406 8.414520263671875 61.34698867797852 6.299308776855469 C 56.17097473144531 4.110038757324219 50.67095947265625 2.999992370605469 44.99971771240234 2.999992370605469 M 44.99971771240234 -7.62939453125e-06 C 69.85237121582031 -7.62939453125e-06 89.99943542480469 20.14703369140625 89.99943542480469 44.99967956542969 L 89.99943542480469 45.00019073486328 C 89.99943542480469 69.85283660888672 69.85237121582031 89.99986267089844 44.99971771240234 89.99986267089844 C 20.14706420898438 89.99986267089844 0 69.85283660888672 0 45.00019073486328 L 0 44.99967956542969 C 0 20.14703369140625 20.14706420898438 -7.62939453125e-06 44.99971771240234 -7.62939453125e-06 Z" stroke="none" fill="#fff"/>
            </g>
          </g>
        </g>
      </g>
    </g>
    <g id="Enmascarar_grupo_1098790" data-name="Enmascarar grupo 1098790" transform="translate(861.146 5160.095)" clip-path="url(#clip-path)">
      <g id="nurse_6928038" transform="translate(19.809 10.77)">
        <g id="Grupo_1182733" data-name="Grupo 1182733" transform="translate(1.004 1.004)">
          <g id="Grupo_1182724" data-name="Grupo 1182724" transform="translate(8.035)">
            <path id="Trazado_916165" data-name="Trazado 916165" d="M98.113,24.07a6.9,6.9,0,0,0-4.24-4.776h0a5.589,5.589,0,0,1-1.417,2.4l-.368.368L89.452,20.3a5.581,5.581,0,0,1-1.014,1.389l-.368.368-5.249-3.5a3.084,3.084,0,0,0-4.795,2.565V24.07H76.017a4.015,4.015,0,0,0-3.3,1.724l-.659-5.274a7.561,7.561,0,0,1,7.505-8.5h.471A7.269,7.269,0,0,1,86.536,8H94.1a12.052,12.052,0,0,1,12.052,12.052l-2.009-1v9.039a4.018,4.018,0,0,0-4.017-4.017Z" transform="translate(-72 -8)" fill="#656d78"/>
          </g>
          <g id="Grupo_1182725" data-name="Grupo 1182725" transform="translate(11.456 34.148)">
            <path id="Trazado_916166" data-name="Trazado 916166" d="M117.006,295.288h0l-2.093,2.79H103.864V287.031a1,1,0,0,0-1-1h-2.009l-1.6-1.6A15.976,15.976,0,0,1,107.881,280l2.009,4.017L115.916,280l4.813.8a8.663,8.663,0,0,1,7.239,8.545v8.732h-4.017l-.2,0A10.039,10.039,0,0,1,117.006,295.288Z" transform="translate(-99.25 -280)" fill="#b4dd7f"/>
          </g>
          <g id="Grupo_1182726" data-name="Grupo 1182726" transform="translate(0 40.175)">
            <path id="Trazado_916167" data-name="Trazado 916167" d="M24.07,345.844v1.239a1,1,0,0,1-1,1H9a1,1,0,0,1-1-1V329a1,1,0,0,1,1-1h3.013v3.013a1,1,0,0,0,1,1h6.026a1,1,0,0,0,1-1V328h3.013a1,1,0,0,1,1,1v11.048l-1.42-1.42a2.01,2.01,0,0,0-1.421-.589H18.044a2.008,2.008,0,0,0-2.009,2.009v2.388a2.008,2.008,0,0,0,1.594,1.965Z" transform="translate(-8 -328)" fill="#e6e9ed"/>
          </g>
          <g id="Grupo_1182727" data-name="Grupo 1182727" transform="translate(4.017 40.175)">
            <path id="Trazado_916168" data-name="Trazado 916168" d="M48.035,328v3.013a1,1,0,0,1-1,1H41a1,1,0,0,1-1-1V328h8.035Z" transform="translate(-40 -328)" fill="#fcd770"/>
          </g>
          <g id="Grupo_1182728" data-name="Grupo 1182728" transform="translate(0 30.131)">
            <path id="Trazado_916169" data-name="Trazado 916169" d="M21.057,258.044H15.031l-6.407-6.407a2.131,2.131,0,0,1,3.013-3.013l7.819,7.819Z" transform="translate(-8 -248)" fill="#969faa"/>
          </g>
          <g id="Grupo_1182729" data-name="Grupo 1182729" transform="translate(8.035 49.436)">
            <path id="Trazado_916170" data-name="Trazado 916170" d="M91.083,404.561l2.093-2.79h0a10.039,10.039,0,0,0,6.746,2.788l-2.66,4.433a7.424,7.424,0,0,1-7.983,3.426l-9.244-2.065-6.44-1.439A2.008,2.008,0,0,1,72,406.949v-2.388a2.008,2.008,0,0,1,2.009-2.009h3.185a2.01,2.01,0,0,1,1.421.589l1.42,1.42Z" transform="translate(-72 -401.77)" fill="#f0d0b4"/>
          </g>
          <g id="Grupo_1182730" data-name="Grupo 1182730" transform="translate(34.142 16.07)">
            <path id="Trazado_916171" data-name="Trazado 916171" d="M279.956,142.026V136h2.009a4.017,4.017,0,1,1,0,8.035H279.95c0-.108.006-.217.006-.326Z" transform="translate(-279.95 -136)" fill="#f0d0b4"/>
          </g>
          <g id="Grupo_1182731" data-name="Grupo 1182731" transform="translate(8.035 16.07)">
            <path id="Trazado_916172" data-name="Trazado 916172" d="M78.026,142.026v1.682c0,.109,0,.218.006.326H76.017a4.018,4.018,0,0,1-3.3-6.31h0a4.015,4.015,0,0,1,3.3-1.724h2.009Z" transform="translate(-72 -136)" fill="#f0d0b4"/>
          </g>
          <g id="Grupo_1182732" data-name="Grupo 1182732" transform="translate(14.061 10.044)">
            <path id="Trazado_916173" data-name="Trazado 916173" d="M140.087,100.052v1.682c0,.109,0,.218-.006.326a8.813,8.813,0,0,1-6.02,8.035V112.1l-6.026,4.017-2.009-4.017V110.1a8.812,8.812,0,0,1-6.02-8.035c0-.108-.006-.217-.006-.326V91.083a3.083,3.083,0,0,1,4.795-2.565l5.249,3.5.368-.368a5.581,5.581,0,0,0,1.014-1.389l2.635,1.756.368-.368a5.589,5.589,0,0,0,1.417-2.4h0a6.9,6.9,0,0,1,4.24,4.776Z" transform="translate(-120 -88)" fill="#f0d0b4"/>
          </g>
        </g>
        <g id="Grupo_1182734" data-name="Grupo 1182734" transform="translate(0)">
          <circle id="Elipse_11708" data-name="Elipse 11708" cx="1.5" cy="1.5" r="1.5" transform="translate(19.459 18.041)"/>
          <circle id="Elipse_11709" data-name="Elipse 11709" cx="1.5" cy="1.5" r="1.5" transform="translate(27.825 18.041)"/>
          <path id="Trazado_916174" data-name="Trazado 916174" d="M174.764,212.633a2.246,2.246,0,0,1-4.017,0l-.106-.212-1.8.9.106.212a4.255,4.255,0,0,0,7.611,0l.106-.212-1.8-.9Z" transform="translate(-147.646 -185.753)"/>
          <path id="Trazado_916175" data-name="Trazado 916175" d="M175.406,151.741l1.42-1.42-1.343-1.343a7.8,7.8,0,0,0,1.637-4.8V144h-2.009v.172a5.815,5.815,0,0,1-1.714,4.139l-.71.71Z" transform="translate(-151.007 -125.921)"/>
          <path id="Trazado_916176" data-name="Trazado 916176" d="M31.135,0H23.575a8.222,8.222,0,0,0-7.1,4.018A8.569,8.569,0,0,0,8.1,13.649l.615,4.922a5.018,5.018,0,0,0,4.34,7.543h1.1a9.8,9.8,0,0,0,5.935,7.726v.484a16.848,16.848,0,0,0-7.6,3.859L5.352,31.049A3.135,3.135,0,0,0,.918,35.483L5.61,40.175h-3.6A2.011,2.011,0,0,0,0,42.183V60.262a2.011,2.011,0,0,0,2.009,2.009H16.07a2.011,2.011,0,0,0,2.008-1.994L26.1,62.068a8.428,8.428,0,0,0,9.064-3.889l2.366-3.943h4.654V44.5a9.637,9.637,0,0,0-8.078-9.535L30.131,34.3v-.463a9.8,9.8,0,0,0,5.935-7.726h1.1a5.028,5.028,0,0,0,5.022-5.022V13.677l2.009,1V13.057A13.071,13.071,0,0,0,31.135,0ZM16.6,6.026h1.092l.278-.555a6.229,6.229,0,0,1,5.6-3.462h7.561a11.066,11.066,0,0,1,10.919,9.358l-1.88-.94v6.65a5,5,0,0,0-3.013-1.007h-1V10.876a7.811,7.811,0,0,0-2.3-5.56l-1.42,1.42a5.816,5.816,0,0,1,1.715,4.139v2.389a7.9,7.9,0,0,0-2.081-1.548,6.707,6.707,0,0,0,.072-.981A6.586,6.586,0,0,0,31.03,7.07l-1.068-1.6L28.291,6.583l1.068,1.6a4.6,4.6,0,0,1-.368,5.583l-1.243-.829a6.625,6.625,0,0,0-.735-5.868l-1.068-1.6L24.273,6.583l1.068,1.6a4.6,4.6,0,0,1-.368,5.583L20.417,10.73a4.088,4.088,0,0,0-6.356,3.4V16.07h-1a4.99,4.99,0,0,0-2.542.694L10.094,13.4A6.56,6.56,0,0,1,16.6,6.026Zm-6.56,15.065a3.017,3.017,0,0,1,3.013-3.013h1v2.6l-1.3-1.3-1.42,1.42,2.719,2.719V24.1h-1a3.017,3.017,0,0,1-3.013-3.013ZM6.026,42.183h6.026v2.009H6.026ZM2.339,34.062a1.126,1.126,0,0,1,1.593-1.593l7.7,7.705H8.451Zm13.731,26.2H2.009V42.183H4.017v2.009A2.011,2.011,0,0,0,6.026,46.2h6.026a2.011,2.011,0,0,0,2.009-2.009V42.183H16.07v8.66a2.99,2.99,0,0,0-1.836-.625H11.048a3.017,3.017,0,0,0-3.013,3.013v2.388a3.023,3.023,0,0,0,2.38,2.946l5.655,1.263Zm17.371-3.116a6.419,6.419,0,0,1-6.9,2.962L10.841,56.6a1.009,1.009,0,0,1-.8-.983V53.231a1.006,1.006,0,0,1,1-1h3.185a1,1,0,0,1,.71.294l1.715,1.715H27.706l1.715,1.715,1.42-1.42-1.393-1.393.927-1.236a11.143,11.143,0,0,0,4.909,2.172Zm.335-20.2a7.634,7.634,0,0,1,6.4,7.554v7.727H37.161a9.088,9.088,0,0,1-6.875-3.171l2.776-6.477-1.846-.791-3.242,7.564.348.465q.274.366.577.7l-1.28,1.706H18.079V42.183a2.011,2.011,0,0,0-2.009-2.009H14.477l-.569-.569a14.851,14.851,0,0,1,6.626-3.321L22.1,39.407v2.776H20.087v2.009H22.1v4.017H24.1V44.192h2.009V42.183H24.1V39.708l5.248-3.5Zm-4.966-4.755-.687.229v2.2L23.49,37.7,22.1,34.916v-2.5l-.687-.229a7.8,7.8,0,0,1-5.339-7.408V14.132A2.079,2.079,0,0,1,19.3,12.4l5.934,3.956.95-.95a6.707,6.707,0,0,0,.6-.693l2.465,1.643.95-.95a6.616,6.616,0,0,0,1.249-1.737,5.9,5.9,0,0,1,2.695,3.541v7.572a7.8,7.8,0,0,1-5.339,7.408ZM37.161,24.1h-1v-.588L38.876,20.8l-1.42-1.42-1.3,1.3v-2.6h1a3.013,3.013,0,0,1,0,6.026Z" transform="translate(0)"/>
        </g>
      </g>
    </g>
    <path id="Trazado_909642" data-name="Trazado 909642" d="M45,0A45,45,0,0,1,90,45h0A45,45,0,0,1,0,45H0A45,45,0,0,1,45,0Z" transform="translate(858.051 5157)" fill="none"/>
  </g>
</svg>
