<svg xmlns="http://www.w3.org/2000/svg" width="85" height="85" viewBox="0 0 85 85">
  <g id="Grupo_1181934" data-name="Grupo 1181934" transform="translate(16265.764 9019.525)">
    <g id="Grupo_1112415" data-name="Grupo 1112415" transform="translate(-16265.764 -9019.525)">
      <g id="Grupo_1098742" data-name="Grupo 1098742" transform="translate(0 0)">
        <g id="Rect치ngulo_400898" data-name="Rect치ngulo 400898" transform="translate(0.001 0)" fill="#ffea99" stroke="#997b00" stroke-width="3">
          <rect width="85" height="85" rx="42.5" stroke="none"/>
          <rect x="1.5" y="1.5" width="82" height="82" rx="41" fill="none"/>
        </g>
        <g id="Rect치ngulo_400907" data-name="Rect치ngulo 400907" transform="translate(0 0)" fill="none" stroke="#997b00" stroke-width="3">
          <rect width="85" height="85" rx="42.5" stroke="none"/>
          <rect x="1.5" y="1.5" width="82" height="82" rx="41" fill="none"/>
        </g>
      </g>
    </g>
    <g id="environmental-regulations_18780449_2_" data-name="environmental-regulations_18780449 (2)" transform="translate(-16262.405 -9001.885)">
      <g id="Grupo_1182447" data-name="Grupo 1182447" transform="translate(14.648 0.838)">
        <path id="Trazado_915724" data-name="Trazado 915724" d="M43.912,8.01H27.325a5.519,5.519,0,0,0-5.5,5.5v7.312H43.913V8.01Z" transform="translate(-21.82 -8.01)" fill="#8bd7fa" fill-rule="evenodd"/>
        <path id="Trazado_915725" data-name="Trazado 915725" d="M112.422,8.01a5.518,5.518,0,0,1,5.5,5.5V59.886H79.943V13.513a5.518,5.518,0,0,0-5.5-5.5Z" transform="translate(-68.936 -8.01)" fill="#daeafa" fill-rule="evenodd"/>
        <path id="Trazado_915726" data-name="Trazado 915726" d="M258.684,191.53h8.561a1.057,1.057,0,0,1,1.053,1.053v2.585H257.63v-2.585A1.059,1.059,0,0,1,258.684,191.53Z" transform="translate(-232.966 -172.335)" fill="#223c55" fill-rule="evenodd"/>
        <path id="Trazado_915727" data-name="Trazado 915727" d="M286.468,37.51A2.589,2.589,0,1,1,283.88,40.1,2.59,2.59,0,0,1,286.468,37.51Z" transform="translate(-256.47 -34.425)" fill="#986b54" fill-rule="evenodd"/>
        <path id="Trazado_915728" data-name="Trazado 915728" d="M187.914,318.73A13.166,13.166,0,0,0,200.2,335.02c.907-3.707,2.455-8.515-2.276-11.062C193.489,321.862,190.786,322.138,187.914,318.73Z" transform="translate(-170.203 -286.231)" fill="#70da40" fill-rule="evenodd"/>
        <path id="Trazado_915729" data-name="Trazado 915729" d="M284.117,385.81a13.57,13.57,0,0,0,1.77.187c.826-3.382,2.187-7.675-1.168-10.337a7.439,7.439,0,0,0-1.476,4.294A20.508,20.508,0,0,0,284.117,385.81Z" transform="translate(-255.889 -337.206)" fill="#65c43a" fill-rule="evenodd"/>
        <path id="Trazado_915730" data-name="Trazado 915730" d="M312.5,318.73a13.166,13.166,0,0,1-12.288,16.29c-.9-3.707-2.455-8.515,2.279-11.062C306.922,321.862,309.622,322.138,312.5,318.73Z" transform="translate(-270.211 -286.231)" fill="#70da40" fill-rule="evenodd"/>
        <path id="Trazado_915731" data-name="Trazado 915731" d="M306.94,412.6c-.317.035-.633.061-.953.072-.1-.4-.2-.817-.307-1.244a20.231,20.231,0,0,1,1.96-2.861,15.083,15.083,0,0,1,3.209-2.979.835.835,0,1,1,.92,1.393,13.326,13.326,0,0,0-2.841,2.645,18.64,18.64,0,0,0-1.988,2.973Z" transform="translate(-275.99 -363.886)" fill="#70da40" fill-rule="evenodd"/>
        <path id="Trazado_915732" data-name="Trazado 915732" d="M388.927,41.33a2.187,2.187,0,1,1-2.187,2.187A2.187,2.187,0,0,1,388.927,41.33Z" transform="translate(-348.572 -37.845)" fill="#986b54" fill-rule="evenodd"/>
        <path id="Trazado_915733" data-name="Trazado 915733" d="M190.907,41.33a2.187,2.187,0,1,1-2.187,2.187A2.187,2.187,0,0,1,190.907,41.33Z" transform="translate(-171.263 -37.845)" fill="#986b54" fill-rule="evenodd"/>
        <path id="Trazado_915734" data-name="Trazado 915734" d="M374.518,138.51H365.76v1.755a1.764,1.764,0,0,0,1.758,1.758h5.243a1.763,1.763,0,0,0,1.755-1.758V138.51Z" transform="translate(-329.786 -124.861)" fill="#fea832" fill-rule="evenodd"/>
        <path id="Trazado_915735" data-name="Trazado 915735" d="M176.528,138.51H167.77v1.755a1.761,1.761,0,0,0,1.755,1.758h5.243a1.764,1.764,0,0,0,1.758-1.758V138.51Z" transform="translate(-152.505 -124.861)" fill="#fea832" fill-rule="evenodd"/>
        <path id="Trazado_915736" data-name="Trazado 915736" d="M68.876,13.513v7.312h2.1V13.513a5.515,5.515,0,0,0-5.476-5.5h-.026a5.487,5.487,0,0,0-1.048.1,5.525,5.525,0,0,1,4.456,5.4Z" transform="translate(-59.964 -8.01)" fill="#7dc2e1" fill-rule="evenodd"/>
        <path id="Trazado_915737" data-name="Trazado 915737" d="M169.408,139.44v-.92H167.77v1.755a1.761,1.761,0,0,0,1.755,1.758h1.64a1.764,1.764,0,0,1-1.758-1.758v-.835Z" transform="translate(-152.505 -124.87)" fill="#e5972d" fill-rule="evenodd"/>
        <path id="Trazado_915738" data-name="Trazado 915738" d="M365.77,138.51v1.755a1.764,1.764,0,0,0,1.758,1.758h1.638a1.764,1.764,0,0,1-1.758-1.758V138.51H365.77Z" transform="translate(-329.795 -124.861)" fill="#e5972d" fill-rule="evenodd"/>
        <path id="Trazado_915739" data-name="Trazado 915739" d="M259.28,195.168v-2.585a1.055,1.055,0,0,1,1.053-1.053h-1.64a1.058,1.058,0,0,0-1.053,1.053v2.585Z" transform="translate(-232.975 -172.335)" fill="#1f364d" fill-rule="evenodd"/>
        <path id="Trazado_915740" data-name="Trazado 915740" d="M189.755,43.508a2.187,2.187,0,0,1,1.663-2.124,2.186,2.186,0,1,0-.52,4.31,2.037,2.037,0,0,0,.521-.064,2.184,2.184,0,0,1-1.664-2.122Z" transform="translate(-171.254 -37.836)" fill="#89604c" fill-rule="evenodd"/>
        <path id="Trazado_915741" data-name="Trazado 915741" d="M286.477,37.51a2.585,2.585,0,0,0-2.449,1.75A2.587,2.587,0,0,0,287,42.634a2.57,2.57,0,0,1-1.359-.754,2.659,2.659,0,0,1-.573-.943A2.588,2.588,0,0,1,287,37.563,2.482,2.482,0,0,0,286.477,37.51Z" transform="translate(-256.479 -34.425)" fill="#89604c" fill-rule="evenodd"/>
        <path id="Trazado_915742" data-name="Trazado 915742" d="M386.894,42.68a2.188,2.188,0,0,0,2.023,3.025,2.048,2.048,0,0,0,.521-.064,2.187,2.187,0,0,1-1.667-2.123,2.14,2.14,0,0,1,.167-.838,2.184,2.184,0,0,1,1.5-1.286,2.184,2.184,0,0,0-2.543,1.286Z" transform="translate(-348.563 -37.845)" fill="#89604c" fill-rule="evenodd"/>
      </g>
      <path id="Trazado_915743" data-name="Trazado 915743" d="M58.131,0H20.151A6.349,6.349,0,0,0,13.81,6.343v7.311a.836.836,0,0,0,.836.836H24.818V52.715a.835.835,0,0,0,.836.836H63.637a.835.835,0,0,0,.836-.836V6.343A6.349,6.349,0,0,0,58.131,0ZM15.482,12.818V6.343a4.669,4.669,0,1,1,9.337,0v6.475ZM62.8,51.879H26.491V6.343a6.33,6.33,0,0,0-2.054-4.67H58.131A4.674,4.674,0,0,1,62.8,6.343ZM59.379,13.65h-.947L56.763,8.964A3.022,3.022,0,1,0,52.1,5.675H47.966a3.424,3.424,0,0,0-6.642,0H37.195A3.022,3.022,0,1,0,32.53,8.964L30.86,13.65h-.947a.835.835,0,0,0-.836.836v1.758a2.6,2.6,0,0,0,2.594,2.591h5.242a2.6,2.6,0,0,0,2.594-2.591V14.486a.835.835,0,0,0-.836-.836h-.947l-1.67-4.688a3.024,3.024,0,0,0,1.14-1.616h4.13a3.438,3.438,0,0,0,2.484,2.485V19.2H40.367a1.891,1.891,0,0,0-1.889,1.889v2.586a.835.835,0,0,0,.836.836H49.978a.835.835,0,0,0,.836-.836V21.086A1.891,1.891,0,0,0,48.925,19.2H45.48V9.832a3.434,3.434,0,0,0,2.484-2.485h4.13a3.032,3.032,0,0,0,1.143,1.617l-1.67,4.687H50.62a.835.835,0,0,0-.836.836v1.758a2.6,2.6,0,0,0,2.594,2.591h5.242a2.6,2.6,0,0,0,2.594-2.591V14.486a.835.835,0,0,0-.836-.836ZM49.141,21.086v1.749H40.15V21.086a.22.22,0,0,1,.217-.217h8.56A.219.219,0,0,1,49.141,21.086ZM55,5.16a1.351,1.351,0,1,1-1.351,1.352A1.354,1.354,0,0,1,55,5.16Zm-20.709,0a1.351,1.351,0,1,1-1.351,1.352A1.353,1.353,0,0,1,34.29,5.16Zm3.544,11.085a.921.921,0,0,1-.923.919H31.669a.922.922,0,0,1-.923-.919v-.923h7.086v.923ZM35.948,13.65H32.633L34.1,9.526c.062,0,.124.006.187.006s.126,0,.187-.006Zm8.7-5.387A1.752,1.752,0,1,1,46.4,6.512,1.754,1.754,0,0,1,44.644,8.264ZM54.813,9.526c.062,0,.124.006.187.006s.126,0,.187-.006l1.47,4.124H53.341Zm3.731,6.718a.921.921,0,0,1-.923.919H52.379a.922.922,0,0,1-.923-.919v-.923h7.086v.923Zm-.1,10.944a.835.835,0,0,1-.836.836H31.679a.836.836,0,0,1,0-1.671H57.612A.836.836,0,0,1,58.448,27.188Zm-26.77,4.436a.836.836,0,1,1,0-1.671H44.644a.836.836,0,0,1,0,1.671Zm25.445.9a.836.836,0,0,0-.83.275c-1.775,2.107-3.44,2.672-5.746,3.458a35.406,35.406,0,0,0-3.982,1.555l-.039.019a7.826,7.826,0,0,0-1.887,1.386,7.729,7.729,0,0,0-1.878-1.387l-.038-.019a35.4,35.4,0,0,0-3.982-1.555C36.437,35.471,34.77,34.9,33,32.8a.836.836,0,0,0-1.452.341A14.007,14.007,0,0,0,44.611,50.464h.065A14,14,0,0,0,57.744,33.139a.833.833,0,0,0-.62-.616ZM35.3,43.9a12.293,12.293,0,0,1-2.41-8.8A13.857,13.857,0,0,0,38.2,37.839a34.155,34.155,0,0,1,3.785,1.475,5.842,5.842,0,0,1,1.636,1.269c-1.36,2.505-.7,5.585-.074,8.115A12.286,12.286,0,0,1,35.3,43.9Zm18.687,0a12.287,12.287,0,0,1-7.866,4.746,14.293,14.293,0,0,1,4.306-4.7.836.836,0,1,0-.926-1.392,15.75,15.75,0,0,0-4.555,4.809c-.726-3.15-1.008-6.222,2.353-8.042a34.157,34.157,0,0,1,3.785-1.475A13.85,13.85,0,0,0,56.4,35.1a12.3,12.3,0,0,1-2.409,8.8Z"/>
    </g>
  </g>
</svg>
