<svg xmlns="http://www.w3.org/2000/svg" xmlns:xlink="http://www.w3.org/1999/xlink" width="93" height="93" viewBox="0 0 93 93">
  <defs>
    <filter id="Trazado_874925" x="0" y="0" width="93" height="93" filterUnits="userSpaceOnUse">
      <feOffset dy="3" input="SourceAlpha"/>
      <feGaussianBlur stdDeviation="3" result="blur"/>
      <feFlood flood-opacity="0.161"/>
      <feComposite operator="in" in2="blur"/>
      <feComposite in="SourceGraphic"/>
    </filter>
  </defs>
  <g id="Grupo_1181754" data-name="Grupo 1181754" transform="translate(9 6)">
    <g id="Grupo_1111316" data-name="Grupo 1111316" transform="translate(0 0)">
      <g id="Grupo_1109835" data-name="Grupo 1109835" transform="translate(0 0)">
        <g id="Grupo_1107913" data-name="Grupo 1107913">
          <g transform="matrix(1, 0, 0, 1, -9, -6)" filter="url(#Trazado_874925)">
            <g id="Trazado_874925-2" data-name="Trazado 874925" transform="translate(9 6)" fill="#9ad354" opacity="0.859">
              <path d="M 37.49980926513672 73.49993133544922 C 32.63919830322266 73.49993133544922 27.9247875213623 72.54830932617188 23.48752021789551 70.6715087890625 C 19.20086479187012 68.85840606689453 15.35074234008789 66.26248168945312 12.04409790039062 62.95585250854492 C 8.737453460693359 59.64920806884766 6.141531467437744 55.79909515380859 4.328420162200928 51.512451171875 C 2.45162034034729 47.0751838684082 1.499998211860657 42.36078262329102 1.499998211860657 37.50018310546875 C 1.499998211860657 32.63914108276367 2.45162034034729 27.92473983764648 4.328420162200928 23.48748397827148 C 6.141520500183105 19.20083999633789 8.737453460693359 15.35071754455566 12.04409790039062 12.0440845489502 C 15.35074234008789 8.73745059967041 19.20086479187012 6.141528606414795 23.48752021789551 4.328428745269775 C 27.9247875213623 2.451628446578979 32.63919830322266 1.500006318092346 37.49980926513672 1.500006318092346 C 42.36042022705078 1.500006318092346 47.07483291625977 2.451628446578979 51.5120964050293 4.328428745269775 C 55.79875183105469 6.141528606414795 59.64887619018555 8.73745059967041 62.95552062988281 12.0440845489502 C 66.26216125488281 15.35071754455566 68.85810089111328 19.20083999633789 70.67119598388672 23.48748397827148 C 72.54799652099609 27.92473983764648 73.49961853027344 32.63914108276367 73.49961853027344 37.49974060058594 C 73.49961853027344 42.36078262329102 72.54799652099609 47.0751838684082 70.67119598388672 51.512451171875 C 68.85808563232422 55.79909515380859 66.26216125488281 59.64920806884766 62.95552062988281 62.95585250854492 C 59.64887619018555 66.26248168945312 55.79875183105469 68.85840606689453 51.5120964050293 70.6715087890625 C 47.07483291625977 72.54830932617188 42.36042022705078 73.49993133544922 37.49980926513672 73.49993133544922 Z" stroke="none"/>
              <path d="M 37.49980926513672 3 C 32.84104537963867 3 28.32322311401367 3.911750793457031 24.07184600830078 5.709922790527344 C 19.96398544311523 7.447402954101562 16.27412033081055 9.935371398925781 13.10475921630859 13.1047477722168 C 9.935386657714844 16.27411270141602 7.447410583496094 19.96396255493164 5.709938049316406 24.07181167602539 C 3.9117431640625 28.32317352294922 3 32.84098815917969 3 37.50017547607422 C 3 42.158935546875 3.9117431640625 46.67673492431641 5.709938049316406 50.9281120300293 C 7.447410583496094 55.03596115112305 9.935386657714844 58.72581100463867 13.10475921630859 61.89517211914062 C 16.27412033081055 65.06455230712891 19.96398544311523 67.55252075195312 24.07184600830078 69.29000091552734 C 28.32322311401367 71.08817291259766 32.84104537963867 71.99992370605469 37.49980926513672 71.99992370605469 C 42.15857315063477 71.99992370605469 46.67639923095703 71.08817291259766 50.92777252197266 69.29000091552734 C 55.03563690185547 67.55252075195312 58.72549438476562 65.06455230712891 61.89485931396484 61.89517211914062 C 65.06423187255859 58.72581100463867 67.55220794677734 55.03596115112305 69.28968811035156 50.9281120300293 C 71.08787536621094 46.67673492431641 71.99961853027344 42.158935546875 71.99961853027344 37.49973678588867 C 71.99961853027344 32.84098815917969 71.08787536621094 28.32317352294922 69.28968811035156 24.07181167602539 C 67.55220794677734 19.96396255493164 65.06423187255859 16.27411270141602 61.89485931396484 13.1047477722168 C 58.72549438476562 9.935371398925781 55.03563690185547 7.447402954101562 50.92777252197266 5.709922790527344 C 46.67639923095703 3.911750793457031 42.15857315063477 3 37.49980926513672 3 M 37.49980926513672 0 C 58.21038436889648 0 74.99961853027344 16.78921127319336 74.99961853027344 37.49973678588867 L 74.99961853027344 37.50017547607422 C 74.99961853027344 58.21071243286133 58.21038436889648 74.99992370605469 37.49980926513672 74.99992370605469 C 16.78923416137695 74.99992370605469 0 58.21071243286133 0 37.50017547607422 L 0 37.49973678588867 C 0 16.78921127319336 16.78923416137695 0 37.49980926513672 0 Z" stroke="none" fill="#fff"/>
            </g>
          </g>
          <g id="Trazado_874923" data-name="Trazado 874923" fill="none">
            <path d="M37.5,0A37.5,37.5,0,0,1,75,37.5h0a37.5,37.5,0,0,1-75,0H0A37.5,37.5,0,0,1,37.5,0Z" stroke="none"/>
            <path d="M 37.49980926513672 3 C 32.84104537963867 3 28.32322311401367 3.911750793457031 24.07184600830078 5.709922790527344 C 19.96398544311523 7.447402954101562 16.27412033081055 9.935371398925781 13.10475921630859 13.1047477722168 C 9.935386657714844 16.27411270141602 7.447410583496094 19.96396255493164 5.709938049316406 24.07181167602539 C 3.9117431640625 28.32317352294922 3 32.84098815917969 3 37.50017547607422 C 3 42.158935546875 3.9117431640625 46.67673492431641 5.709938049316406 50.9281120300293 C 7.447410583496094 55.03596115112305 9.935386657714844 58.72581100463867 13.10475921630859 61.89517211914062 C 16.27412033081055 65.06455230712891 19.96398544311523 67.55252075195312 24.07184600830078 69.29000091552734 C 28.32322311401367 71.08817291259766 32.84104537963867 71.99992370605469 37.49980926513672 71.99992370605469 C 42.15857315063477 71.99992370605469 46.67639923095703 71.08817291259766 50.92777252197266 69.29000091552734 C 55.03563690185547 67.55252075195312 58.72549438476562 65.06455230712891 61.89485931396484 61.89517211914062 C 65.06423187255859 58.72581100463867 67.55220794677734 55.03596115112305 69.28968811035156 50.9281120300293 C 71.08787536621094 46.67673492431641 71.99961853027344 42.158935546875 71.99961853027344 37.49973678588867 C 71.99961853027344 32.84098815917969 71.08787536621094 28.32317352294922 69.28968811035156 24.07181167602539 C 67.55220794677734 19.96396255493164 65.06423187255859 16.27411270141602 61.89485931396484 13.1047477722168 C 58.72549438476562 9.935371398925781 55.03563690185547 7.447402954101562 50.92777252197266 5.709922790527344 C 46.67639923095703 3.911750793457031 42.15857315063477 3 37.49980926513672 3 M 37.49980926513672 0 C 58.21038436889648 0 74.99961853027344 16.78921127319336 74.99961853027344 37.49973678588867 L 74.99961853027344 37.50017547607422 C 74.99961853027344 58.21071243286133 58.21038436889648 74.99992370605469 37.49980926513672 74.99992370605469 C 16.78923416137695 74.99992370605469 0 58.21071243286133 0 37.50017547607422 L 0 37.49973678588867 C 0 16.78921127319336 16.78923416137695 0 37.49980926513672 0 Z" stroke="none" fill="#fff"/>
          </g>
        </g>
      </g>
    </g>
    <g id="clipboard_3848173" transform="translate(11.395 13.046)">
      <path id="Trazado_916177" data-name="Trazado 916177" d="M44.681,58v1.528a2.293,2.293,0,0,1-2.293,2.293h-32.1A2.293,2.293,0,0,1,8,59.528V58Z" transform="translate(-0.236 -13.677)" fill="#bcab86"/>
      <path id="Trazado_916178" data-name="Trazado 916178" d="M52.7,6.293V7.821H42V4h8.406A2.293,2.293,0,0,1,52.7,6.293Z" transform="translate(-8.253 -0.943)" fill="#d6c9a5"/>
      <path id="Trazado_916179" data-name="Trazado 916179" d="M18.7,4V7.821H8V6.293A2.293,2.293,0,0,1,10.293,4Z" transform="translate(-0.236 -0.943)" fill="#d6c9a5"/>
      <path id="Trazado_916180" data-name="Trazado 916180" d="M27,1h7.642V4.821H27Z" transform="translate(-4.716 -0.236)" fill="gray"/>
      <path id="Trazado_916181" data-name="Trazado 916181" d="M37.284,7.114V8.642H22V3.293A2.293,2.293,0,0,1,24.293,1h1.528V4.821h7.642V1h1.528a2.293,2.293,0,0,1,2.293,2.293Z" transform="translate(-3.537 -0.236)" fill="#b3b3b3"/>
      <path id="Trazado_916182" data-name="Trazado 916182" d="M36.6,37.252A13.7,13.7,0,0,0,40.1,28.1a13.514,13.514,0,0,0-.29-2.8,11,11,0,0,0,1.032-5.785,13.6,13.6,0,0,0-5.815-2.086,13.749,13.749,0,0,0-17.362,0,13.6,13.6,0,0,0-5.815,2.086,11,11,0,0,0,1.032,5.785,13.514,13.514,0,0,0-.29,2.8A13.749,13.749,0,0,0,36.6,37.252ZM44.681,9V46.445H8V9H18.7v1.528H33.982V9Z" transform="translate(-0.236 -2.122)" fill="#e8debf"/>
      <path id="Trazado_916183" data-name="Trazado 916183" d="M26.227,33.137v5.349a11.692,11.692,0,0,0-8.735,3.8A13.7,13.7,0,0,1,14,33.137a13.514,13.514,0,0,1,.29-2.8C15.7,33.007,18.944,35.185,26.227,33.137Z" transform="translate(-1.651 -7.154)" fill="#47a3e2"/>
      <path id="Trazado_916184" data-name="Trazado 916184" d="M39.1,44.8a13.733,13.733,0,0,1-20.526,0A11.692,11.692,0,0,1,27.3,41v3.057a1.528,1.528,0,0,0,3.057,0V41A11.692,11.692,0,0,1,39.1,44.8Z" transform="translate(-2.728 -9.668)" fill="#8c6239"/>
      <path id="Trazado_916185" data-name="Trazado 916185" d="M45.937,30.34a13.514,13.514,0,0,1,.29,2.8,13.7,13.7,0,0,1-3.492,9.147A11.692,11.692,0,0,0,34,38.486V33.137C41.283,35.185,44.523,33.007,45.937,30.34Z" transform="translate(-6.367 -7.154)" fill="#47a3e2"/>
      <path id="Trazado_916186" data-name="Trazado 916186" d="M40.681,20.031A13.6,13.6,0,0,1,46.5,22.117L32,27.917C33.765,21.162,37.464,19.763,40.681,20.031Z" transform="translate(-5.895 -4.716)" fill="#87cc46"/>
      <path id="Trazado_916187" data-name="Trazado 916187" d="M40.977,28.555c-1.414,2.667-4.654,4.845-11.937,2.8v8.406a1.528,1.528,0,1,1-3.057,0V31.352c-7.283,2.048-10.523-.13-11.937-2.8a11,11,0,0,1-1.032-5.785l14.5,5.8,14.5-5.8a11,11,0,0,1-1.032,5.785Z" transform="translate(-1.407 -5.369)" fill="#5bb234"/>
      <path id="Trazado_916188" data-name="Trazado 916188" d="M18.845,20.031c3.217-.267,6.916,1.131,8.681,7.886l-14.5-5.8a13.6,13.6,0,0,1,5.815-2.086Z" transform="translate(-1.422 -4.716)" fill="#87cc46"/>
      <path id="Trazado_916189" data-name="Trazado 916189" d="M38,19.087c-3.217-.267-6.916,1.131-8.681,7.886-1.765-6.755-5.464-8.154-8.681-7.886A13.749,13.749,0,0,1,38,19.087Z" transform="translate(-3.216 -3.773)" fill="#65beef"/>
      <g id="Grupo_1182735" data-name="Grupo 1182735" transform="translate(7)">
        <path id="Trazado_916190" data-name="Trazado 916190" d="M42.153,2.293H34.4A3.057,3.057,0,0,0,31.454,0h-10.7a3.057,3.057,0,0,0-2.948,2.293h-7.75A3.063,3.063,0,0,0,7,5.349v40.5a3.063,3.063,0,0,0,3.057,3.057h32.1a3.063,3.063,0,0,0,3.057-3.057V5.349a3.063,3.063,0,0,0-3.057-3.057ZM8.528,7.642H17.7v.764a.764.764,0,0,0,.764.764H33.747a.764.764,0,0,0,.764-.764V7.642h9.17V43.559H8.528ZM43.681,5.349v.764h-9.17V3.821h7.642A1.528,1.528,0,0,1,43.681,5.349ZM23.048,1.528h6.114V3.821H23.048Zm-2.293,0h.764V4.585a.764.764,0,0,0,.764.764h7.642a.764.764,0,0,0,.764-.764V1.528h.764a1.528,1.528,0,0,1,1.528,1.528V7.642H19.227V3.057A1.528,1.528,0,0,1,20.755,1.528Zm-10.7,2.293H17.7V6.114H8.528V5.349A1.528,1.528,0,0,1,10.057,3.821Zm32.1,43.559h-32.1a1.528,1.528,0,0,1-1.528-1.528v-.764H43.681v.764A1.528,1.528,0,0,1,42.153,47.38Z" transform="translate(-7)" fill="#252525"/>
        <path id="Trazado_916191" data-name="Trazado 916191" d="M42.2,21.25a14.29,14.29,0,0,0-6.185-2.216c-2.885-.245-6.584.717-8.744,6.17-2.16-5.454-5.861-6.409-8.742-6.171a14.3,14.3,0,0,0-6.186,2.216.764.764,0,0,0-.327.535,11.7,11.7,0,0,0,1.116,6.237c1.367,2.58,4.531,5.2,11.845,3.429v3.62a12.472,12.472,0,0,0-7.906,3.395,13.056,13.056,0,0,1-2.28-4.393.764.764,0,1,0-1.467.425,14.588,14.588,0,0,0,3.113,5.621c.018.019.037.035.053.054a14.485,14.485,0,0,0,21.562,0c.016-.018.035-.034.051-.052A14.588,14.588,0,0,0,41.223,34.5a.764.764,0,1,0-1.467-.425,13.046,13.046,0,0,1-2.28,4.392,12.475,12.475,0,0,0-7.907-3.39V31.456c7.316,1.771,10.48-.849,11.845-3.427a11.7,11.7,0,0,0,1.116-6.238.764.764,0,0,0-.326-.541ZM35.9,20.556A11.813,11.813,0,0,1,40,21.765L28.474,26.379C29.926,22.229,32.411,20.267,35.9,20.556Zm-17.238,0c3.481-.277,5.967,1.677,7.42,5.823L14.549,21.765a11.816,11.816,0,0,1,4.109-1.21ZM36.463,39.611a12.91,12.91,0,0,1-18.38,0,10.962,10.962,0,0,1,6.9-3.011v2.268a2.293,2.293,0,1,0,4.585,0V36.6a10.962,10.962,0,0,1,6.9,3.01Zm-7.452-9.885a.764.764,0,0,0-.971.736v8.406a.747.747,0,0,1-.234.545.737.737,0,0,1-.53.219.764.764,0,0,1-.764-.764V30.463a.764.764,0,0,0-.306-.611.7.7,0,0,0-.669-.127c-5.644,1.586-9.363.773-11.056-2.421A9.6,9.6,0,0,1,13.5,22.99l13.541,5.42a.74.74,0,0,0,.474,0l13.538-5.417a9.608,9.608,0,0,1-.986,4.315c-1.691,3.193-5.41,4.007-11.054,2.419Z" transform="translate(-8.171 -4.48)" fill="#252525"/>
        <path id="Trazado_916192" data-name="Trazado 916192" d="M11.764,50.528h2.293a.764.764,0,0,0,0-1.528H11.764a.764.764,0,0,0,0,1.528Z" transform="translate(-7.943 -11.555)" fill="#252525"/>
        <path id="Trazado_916193" data-name="Trazado 916193" d="M16.349,53H11.764a.764.764,0,0,0,0,1.528h4.585a.764.764,0,1,0,0-1.528Z" transform="translate(-7.943 -12.498)" fill="#252525"/>
        <path id="Trazado_916194" data-name="Trazado 916194" d="M51.057,16H48.764a.764.764,0,1,0,0,1.528h2.293a.764.764,0,0,0,0-1.528Z" transform="translate(-16.668 -3.773)" fill="#252525"/>
        <path id="Trazado_916195" data-name="Trazado 916195" d="M45.764,13.528h4.585a.764.764,0,0,0,0-1.528H45.764a.764.764,0,1,0,0,1.528Z" transform="translate(-15.961 -2.83)" fill="#252525"/>
        <ellipse id="Elipse_11710" data-name="Elipse 11710" cx="1" cy="0.5" rx="1" ry="0.5" transform="translate(18.105 15.454)" fill="#252525"/>
        <ellipse id="Elipse_11711" data-name="Elipse 11711" cx="1" cy="0.5" rx="1" ry="0.5" transform="translate(18.105 12.454)" fill="#252525"/>
      </g>
    </g>
  </g>
</svg>
