<svg xmlns="http://www.w3.org/2000/svg" xmlns:xlink="http://www.w3.org/1999/xlink" width="107.999" height="108" viewBox="0 0 107.999 108">
  <defs>
    <filter id="Trazado_874925" x="0" y="0" width="107.999" height="108" filterUnits="userSpaceOnUse">
      <feOffset dy="3" input="SourceAlpha"/>
      <feGaussianBlur stdDeviation="3" result="blur"/>
      <feFlood flood-opacity="0.161"/>
      <feComposite operator="in" in2="blur"/>
      <feComposite in="SourceGraphic"/>
    </filter>
  </defs>
  <g id="Grupo_1182323" data-name="Grupo 1182323" transform="translate(-200.051 -545.845)">
    <g id="Grupo_1181720" data-name="Grupo 1181720" transform="translate(-649 -4605.155)">
      <g id="Grupo_1111552" data-name="Grupo 1111552" transform="translate(858.051 5157)">
        <g id="Grupo_1111316" data-name="Grupo 1111316" transform="translate(0 0)">
          <g id="Grupo_1109835" data-name="Grupo 1109835" transform="translate(0 0)">
            <g id="Grupo_1107913" data-name="Grupo 1107913">
              <g transform="matrix(1, 0, 0, 1, -9, -6)" filter="url(#Trazado_874925)">
                <g id="Trazado_874925-2" data-name="Trazado 874925" transform="translate(9 6)" fill="#9cc8ff" opacity="0.859">
                  <path d="M 44.99971771240234 88.49987030029297 C 39.12662887573242 88.49987030029297 33.43001937866211 87.34996032714844 28.06811714172363 85.08206939697266 C 22.88839340209961 82.89122009277344 18.23619270324707 79.75453186035156 14.24076747894287 75.75910949707031 C 10.2453556060791 71.76369476318359 7.108654975891113 67.11151123046875 4.917805194854736 61.9317741394043 C 2.649917602539062 56.56988525390625 1.50000524520874 50.87327194213867 1.50000524520874 45.00019836425781 C 1.50000524520874 39.1265983581543 2.649917602539062 33.42998504638672 4.917805194854736 28.0680980682373 C 7.108654975891113 22.88836097717285 10.2453556060791 18.23617172241211 14.24076747894287 14.24075984954834 C 18.23619270324707 10.24533557891846 22.88839340209961 7.10864782333374 28.06811714172363 4.917797565460205 C 33.43001937866211 2.64991021156311 39.12662887573242 1.499997615814209 44.99971771240234 1.499997615814209 C 50.87280654907227 1.499997615814209 56.56941604614258 2.64991021156311 61.93131637573242 4.917797565460205 C 67.11105346679688 7.10864782333374 71.76324462890625 10.24533557891846 75.7586669921875 14.24075984954834 C 79.75408935546875 18.23617172241211 82.89079284667969 22.88836097717285 85.08162689208984 28.0680980682373 C 87.34953308105469 33.42998504638672 88.49944305419922 39.1265983581543 88.49944305419922 44.99967193603516 C 88.49944305419922 50.87327194213867 87.34953308105469 56.56988525390625 85.08162689208984 61.9317741394043 C 82.89079284667969 67.11151123046875 79.75408935546875 71.76369476318359 75.7586669921875 75.75910949707031 C 71.76324462890625 79.75453186035156 67.11105346679688 82.89122009277344 61.93131637573242 85.08206939697266 C 56.56941604614258 87.34996032714844 50.87280654907227 88.49987030029297 44.99971771240234 88.49987030029297 Z" stroke="none"/>
                  <path d="M 44.99971771240234 2.999992370605469 C 39.32847595214844 2.999992370605469 33.82846069335938 4.110038757324219 28.65244674682617 6.299308776855469 C 23.65151977539062 8.414520263671875 19.15959167480469 11.44326019287109 15.30142974853516 15.30142211914062 C 11.44329071044922 19.15956115722656 8.414535522460938 23.6514892578125 6.29931640625 28.65242004394531 C 4.11004638671875 33.82842254638672 3 39.32843399047852 3 45.00019073486328 C 3 50.67143630981445 4.11004638671875 56.17144775390625 6.29931640625 61.34745025634766 C 8.414535522460938 66.34837341308594 11.44329071044922 70.84030914306641 15.30142974853516 74.69844818115234 C 19.15957641601562 78.55659484863281 23.65151977539062 81.58533477783203 28.65244674682617 83.70054626464844 C 33.82846069335938 85.88982391357422 39.32847595214844 86.99986267089844 44.99971771240234 86.99986267089844 C 50.67095947265625 86.99986267089844 56.17097473144531 85.88982391357422 61.34698867797852 83.70054626464844 C 66.34791564941406 81.58533477783203 70.83985900878906 78.55659484863281 74.69800567626953 74.69844818115234 C 78.55614471435547 70.84030914306641 81.58489990234375 66.34837341308594 83.70011901855469 61.34745025634766 C 85.88938903808594 56.17144775390625 86.99943542480469 50.67143630981445 86.99943542480469 44.99967956542969 C 86.99943542480469 39.32843399047852 85.88938903808594 33.82842254638672 83.70011901855469 28.65242004394531 C 81.58489990234375 23.6514892578125 78.55614471435547 19.15956115722656 74.69800567626953 15.30142211914062 C 70.83984375 11.44326019287109 66.34791564941406 8.414520263671875 61.34698867797852 6.299308776855469 C 56.17097473144531 4.110038757324219 50.67095947265625 2.999992370605469 44.99971771240234 2.999992370605469 M 44.99971771240234 -7.62939453125e-06 C 69.85237121582031 -7.62939453125e-06 89.99943542480469 20.14703369140625 89.99943542480469 44.99967956542969 L 89.99943542480469 45.00019073486328 C 89.99943542480469 69.85283660888672 69.85237121582031 89.99986267089844 44.99971771240234 89.99986267089844 C 20.14706420898438 89.99986267089844 0 69.85283660888672 0 45.00019073486328 L 0 44.99967956542969 C 0 20.14703369140625 20.14706420898438 -7.62939453125e-06 44.99971771240234 -7.62939453125e-06 Z" stroke="none" fill="#fff"/>
                </g>
              </g>
              <g id="Trazado_874923" data-name="Trazado 874923" fill="none">
                <path d="M45,0A45,45,0,0,1,90,45h0A45,45,0,0,1,0,45H0A45,45,0,0,1,45,0Z" stroke="none"/>
                <path d="M 44.99971771240234 2.999992370605469 C 39.32847595214844 2.999992370605469 33.82846069335938 4.110038757324219 28.65244674682617 6.299308776855469 C 23.65151977539062 8.414520263671875 19.15959167480469 11.44326019287109 15.30142974853516 15.30142211914062 C 11.44329071044922 19.15956115722656 8.414535522460938 23.6514892578125 6.29931640625 28.65242004394531 C 4.11004638671875 33.82842254638672 3 39.32843399047852 3 45.00019073486328 C 3 50.67143630981445 4.11004638671875 56.17144775390625 6.29931640625 61.34745025634766 C 8.414535522460938 66.34837341308594 11.44329071044922 70.84030914306641 15.30142974853516 74.69844818115234 C 19.15957641601562 78.55659484863281 23.65151977539062 81.58533477783203 28.65244674682617 83.70054626464844 C 33.82846069335938 85.88982391357422 39.32847595214844 86.99986267089844 44.99971771240234 86.99986267089844 C 50.67095947265625 86.99986267089844 56.17097473144531 85.88982391357422 61.34698867797852 83.70054626464844 C 66.34791564941406 81.58533477783203 70.83985900878906 78.55659484863281 74.69800567626953 74.69844818115234 C 78.55614471435547 70.84030914306641 81.58489990234375 66.34837341308594 83.70011901855469 61.34745025634766 C 85.88938903808594 56.17144775390625 86.99943542480469 50.67143630981445 86.99943542480469 44.99967956542969 C 86.99943542480469 39.32843399047852 85.88938903808594 33.82842254638672 83.70011901855469 28.65242004394531 C 81.58489990234375 23.6514892578125 78.55614471435547 19.15956115722656 74.69800567626953 15.30142211914062 C 70.83984375 11.44326019287109 66.34791564941406 8.414520263671875 61.34698867797852 6.299308776855469 C 56.17097473144531 4.110038757324219 50.67095947265625 2.999992370605469 44.99971771240234 2.999992370605469 M 44.99971771240234 -7.62939453125e-06 C 69.85237121582031 -7.62939453125e-06 89.99943542480469 20.14703369140625 89.99943542480469 44.99967956542969 L 89.99943542480469 45.00019073486328 C 89.99943542480469 69.85283660888672 69.85237121582031 89.99986267089844 44.99971771240234 89.99986267089844 C 20.14706420898438 89.99986267089844 0 69.85283660888672 0 45.00019073486328 L 0 44.99967956542969 C 0 20.14703369140625 20.14706420898438 -7.62939453125e-06 44.99971771240234 -7.62939453125e-06 Z" stroke="none" fill="#fff"/>
              </g>
            </g>
          </g>
        </g>
      </g>
      <path id="Trazado_909642" data-name="Trazado 909642" d="M45,0A45,45,0,0,1,90,45h0A45,45,0,0,1,0,45H0A45,45,0,0,1,45,0Z" transform="translate(858.051 5157)" fill="none"/>
    </g>
    <g id="architect_6927983" transform="translate(222.26 565.055)">
      <g id="Grupo_1182321" data-name="Grupo 1182321" transform="translate(1.025 1.026)">
        <g id="Grupo_1182300" data-name="Grupo 1182300" transform="translate(24.787 2.089)">
          <path id="Trazado_914880" data-name="Trazado 914880" d="M221.918,25.378a13.352,13.352,0,0,1,7.808,10.05,110.807,110.807,0,0,0-28.366,0A13.32,13.32,0,0,1,213.5,24.3c0,.038.009.078.015.117l.831,4.987a1.211,1.211,0,0,0,2.389,0l.831-4.987c.006-.038.012-.078.015-.117A13.271,13.271,0,0,1,221.918,25.378Z" transform="translate(-201.36 -24.3)" fill="#fcd770"/>
        </g>
        <g id="Grupo_1182301" data-name="Grupo 1182301" transform="translate(36.919)">
          <path id="Trazado_914881" data-name="Trazado 914881" d="M300.1,9.895c0,.065,0,.129-.01.195,0,.038-.009.078-.015.117l-.831,4.987a1.211,1.211,0,0,1-2.389,0l-.831-4.987c-.006-.038-.012-.078-.015-.117-.006-.065-.01-.129-.01-.195A1.9,1.9,0,0,1,297.895,8h.313A1.9,1.9,0,0,1,300.1,9.895Z" transform="translate(-296 -8)" fill="#ffc729"/>
        </g>
        <g id="Grupo_1182302" data-name="Grupo 1182302" transform="translate(16.408 12.306)">
          <path id="Trazado_914882" data-name="Trazado 914882" d="M148.306,108.549c-1.468.136-2.843.3-4.1.491-5.011.752-8.2,1.89-8.2,3.164v-4.1c0-1.288,3.268-2.438,8.378-3.191a110.808,110.808,0,0,1,28.366,0c5.111.752,8.378,1.9,8.378,3.191v4.1c0-1.274-3.193-2.411-8.2-3.164-1.259-.19-2.634-.355-4.1-.491-1.624-.151-3.362-.268-5.185-.344-.2-.008-.4-.017-.606-.023-1.442-.053-2.936-.081-4.464-.081-.959,0-1.9.01-2.833.032C153.085,108.194,150.583,108.338,148.306,108.549Z" transform="translate(-136 -104)" fill="#ffc729"/>
        </g>
        <g id="Grupo_1182303" data-name="Grupo 1182303" transform="translate(53.327 17.347)">
          <path id="Trazado_914883" data-name="Trazado 914883" d="M432.2,146.484c0,1.109-2.418,2.114-6.347,2.852a4.118,4.118,0,0,0-1.857-2.3V143.32C429.011,144.072,432.2,145.21,432.2,146.484Z" transform="translate(-424 -143.32)" fill="#ffeaa7"/>
        </g>
        <g id="Grupo_1182304" data-name="Grupo 1182304" transform="translate(30.765 39.763)">
          <path id="Trazado_914884" data-name="Trazado 914884" d="M260.306,331.754,257.23,325.6l1.231-1.846,1.846,1.846,3.7-7.411,3.357.719a9.232,9.232,0,0,1,7.3,9.026v5.87a6.153,6.153,0,0,1-6.153,6.153H248v-8.2h12.306Z" transform="translate(-248 -318.19)" fill="#4fc1e9"/>
        </g>
        <g id="Grupo_1182305" data-name="Grupo 1182305" transform="translate(49.218 20.51)">
          <path id="Trazado_914885" data-name="Trazado 914885" d="M391.956,174.153V168h2.051a4.1,4.1,0,1,1,0,8.2H391.95c0-.11.006-.222.006-.333Z" transform="translate(-391.95 -168)" fill="#f0d0b4"/>
        </g>
        <g id="Grupo_1182306" data-name="Grupo 1182306" transform="translate(49.225 16.856)">
          <path id="Trazado_914886" data-name="Trazado 914886" d="M396.1,139.981v3.712a4.087,4.087,0,0,0-2.051-.549H392V139.49C393.468,139.626,394.843,139.791,396.1,139.981Z" transform="translate(-392 -139.49)" fill="#b27946"/>
        </g>
        <g id="Grupo_1182307" data-name="Grupo 1182307" transform="translate(28.714 16.44)">
          <path id="Trazado_914887" data-name="Trazado 914887" d="M252.51,146.473v1.718c0,.112,0,.223-.006.333a9,9,0,0,1-6.147,8.2v2.051l-4.1,4.1-4.1-4.1v-2.051a9,9,0,0,1-6.147-8.2c0-.11-.006-.222-.006-.333V136.665c2.277-.212,4.779-.355,7.422-.415l4.884,4.07,2.413-4.021c.2.006.405.015.606.023l5.185,6.049Z" transform="translate(-232 -136.25)" fill="#f0d0b4"/>
        </g>
        <g id="Grupo_1182308" data-name="Grupo 1182308" transform="translate(44.04 16.512)">
          <path id="Trazado_914888" data-name="Trazado 914888" d="M356.735,140.808v2.051l-5.185-6.049c1.823.076,3.561.192,5.185.344v3.655Z" transform="translate(-351.55 -136.81)" fill="#b27946"/>
        </g>
        <g id="Grupo_1182309" data-name="Grupo 1182309" transform="translate(38.97 38.97)">
          <path id="Trazado_914889" data-name="Trazado 914889" d="M319.807,312.793l-3.7,7.411-1.846-1.846L312,316.1l4.1-4.1Z" transform="translate(-312 -312)" fill="#3bafda"/>
        </g>
        <g id="Grupo_1182310" data-name="Grupo 1182310" transform="translate(36.137 16.408)">
          <path id="Trazado_914890" data-name="Trazado 914890" d="M297.2,136.081l-2.413,4.021-4.884-4.07c.928-.022,1.874-.032,2.833-.032C294.261,136,295.754,136.028,297.2,136.081Z" transform="translate(-289.9 -136)" fill="#b27946"/>
        </g>
        <g id="Grupo_1182311" data-name="Grupo 1182311" transform="translate(34.868 47.174)">
          <path id="Trazado_914891" data-name="Trazado 914891" d="M285.128,376l3.077,6.153H280L283.077,376Z" transform="translate(-280 -376)" fill="#e6e9ed"/>
        </g>
        <g id="Grupo_1182312" data-name="Grupo 1182312" transform="translate(36.713 43.072)">
          <path id="Trazado_914892" data-name="Trazado 914892" d="M298.912,346.256l-1.231,1.846h-2.051l-1.231-1.846L296.656,344Z" transform="translate(-294.4 -344)" fill="#ccd1d9"/>
        </g>
        <g id="Grupo_1182313" data-name="Grupo 1182313" transform="translate(31.163 38.97)">
          <path id="Trazado_914893" data-name="Trazado 914893" d="M258.907,316.1l-2.256,2.256L254.8,320.2l-3.7-7.411,3.7-.793Z" transform="translate(-251.1 -312)" fill="#3bafda"/>
        </g>
        <g id="Grupo_1182314" data-name="Grupo 1182314" transform="translate(26.663 39.763)">
          <path id="Trazado_914894" data-name="Trazado 914894" d="M226.05,323.755l1.231,1.846-3.077,6.153h-4.1l-1.627-1.627A1.451,1.451,0,0,0,216,331.153v-11.92a9.335,9.335,0,0,1,1.142-.323l3.357-.719,3.7,7.411Z" transform="translate(-216 -318.19)" fill="#4fc1e9"/>
        </g>
        <g id="Grupo_1182315" data-name="Grupo 1182315" transform="translate(20.51 51.276)">
          <path id="Trazado_914895" data-name="Trazado 914895" d="M178.255,410.051v8.2h-8.2A2.05,2.05,0,0,1,168,416.2v-4.1a2.05,2.05,0,0,1,2.051-2.051h4.1v-.6a1.45,1.45,0,0,1,2.475-1.026Z" transform="translate(-168 -408)" fill="#f0d0b4"/>
        </g>
        <g id="Grupo_1182316" data-name="Grupo 1182316" transform="translate(22.561 20.51)">
          <path id="Trazado_914896" data-name="Trazado 914896" d="M190.153,174.153v1.718c0,.112,0,.223.006.333H188.1a4.1,4.1,0,1,1,0-8.2h2.051Z" transform="translate(-184 -168)" fill="#f0d0b4"/>
        </g>
        <g id="Grupo_1182317" data-name="Grupo 1182317" transform="translate(24.612 16.856)">
          <path id="Trazado_914897" data-name="Trazado 914897" d="M204.1,139.49v3.655h-2.051a4.087,4.087,0,0,0-2.051.549v-3.712C201.259,139.791,202.634,139.626,204.1,139.49Z" transform="translate(-200 -139.49)" fill="#b27946"/>
        </g>
        <g id="Grupo_1182318" data-name="Grupo 1182318" transform="translate(6.153 34.868)">
          <path id="Trazado_914898" data-name="Trazado 914898" d="M76.51,297.858v.6h-4.1a2.05,2.05,0,0,0-2.051,2.051v4.1H57.026A1.025,1.025,0,0,1,56,303.587V286.153H69.332a1.025,1.025,0,0,0,1.026-1.026v-2.051a3.077,3.077,0,0,1,6.153,0v14.782Z" transform="translate(-56 -280)" fill="#e6e9ed"/>
        </g>
        <g id="Grupo_1182319" data-name="Grupo 1182319" transform="translate(16.408 17.347)">
          <path id="Trazado_914899" data-name="Trazado 914899" d="M144.2,143.32v3.712a4.118,4.118,0,0,0-1.857,2.3c-3.929-.738-6.347-1.743-6.347-2.852C136,145.21,139.193,144.072,144.2,143.32Z" transform="translate(-136 -143.32)" fill="#ffeaa7"/>
        </g>
        <g id="Grupo_1182320" data-name="Grupo 1182320" transform="translate(0 34.868)">
          <path id="Trazado_914900" data-name="Trazado 914900" d="M11.077,280h20.51a3.077,3.077,0,0,0-3.077,3.077v2.051a1.025,1.025,0,0,1-1.026,1.026H9.026A1.025,1.025,0,0,1,8,285.128v-2.051A3.077,3.077,0,0,1,11.077,280Z" transform="translate(-8 -280)" fill="#ccd1d9"/>
        </g>
      </g>
      <g id="Grupo_1182322" data-name="Grupo 1182322" transform="translate(0 0)">
        <circle id="Elipse_11698" data-name="Elipse 11698" cx="1" cy="1" r="1" transform="translate(34.791 22.791)"/>
        <circle id="Elipse_11699" data-name="Elipse 11699" cx="1" cy="1" r="1" transform="translate(42.791 22.791)"/>
        <path id="Trazado_914901" data-name="Trazado 914901" d="M286.89,244.638a2.293,2.293,0,0,1-4.1,0l-.108-.217-1.834.917.108.216a4.344,4.344,0,0,0,7.771,0l.108-.217L287,244.421Z" transform="translate(-244.844 -213.089)"/>
        <path id="Trazado_914902" data-name="Trazado 914902" d="M287.463,183.9l1.45-1.45-1.371-1.372a7.967,7.967,0,0,0,1.672-4.906V176h-2.051v.176a5.938,5.938,0,0,1-1.751,4.227l-.725.725Z" transform="translate(-248.193 -153.439)"/>
        <path id="Trazado_914903" data-name="Trazado 914903" d="M56.132,13.524c-.352-.064-.715-.125-1.086-.185a14.32,14.32,0,0,0-7.389-9.657l.476-1.271-1.92-.72-.44,1.173a14.317,14.317,0,0,0-2.795-.677A2.925,2.925,0,0,0,40.152,0h-.314a2.925,2.925,0,0,0-2.827,2.187,14.315,14.315,0,0,0-2.795.677l-.44-1.173-1.92.72.476,1.271a14.32,14.32,0,0,0-7.389,9.657c-.371.059-.733.121-1.086.185-6.678,1.214-7.45,2.813-7.45,3.91v4.1c0,1.019.666,2.479,6.174,3.658-.013.147-.021.295-.021.444a5.133,5.133,0,0,0,5.128,5.128h1.119a10.008,10.008,0,0,0,6.06,7.889v.512l-6.153,1.319V38.97a4.107,4.107,0,0,0-4.1-4.1H4.1A4.107,4.107,0,0,0,0,38.97v2.051a2.053,2.053,0,0,0,2.051,2.051h4.1V59.48A2.053,2.053,0,0,0,8.2,61.531H20.687a3.082,3.082,0,0,0,2.9,2.051H52.3A7.187,7.187,0,0,0,59.48,56.4v-5.87a10.255,10.255,0,0,0-8.106-10.028l-6.251-1.339v-.512a10.008,10.008,0,0,0,6.06-7.889H52.3a5.133,5.133,0,0,0,5.128-5.128c0-.15-.008-.3-.021-.444,5.508-1.178,6.174-2.639,6.174-3.658v-4.1C63.582,16.337,62.81,14.738,56.132,13.524ZM39.838,2.051h.314a.869.869,0,0,1,.857,1.012l-.831,4.987a.185.185,0,0,1-.365,0l-.831-4.987a.869.869,0,0,1,.857-1.012ZM33.053,5.6l1.879,5.012,1.92-.72-1.92-5.121a12.328,12.328,0,0,1,2.166-.53l.69,4.142a2.236,2.236,0,0,0,4.412,0l.69-4.142a12.34,12.34,0,0,1,2.166.53L43.137,9.9l1.92.72L46.937,5.6a12.239,12.239,0,0,1,5.92,7.426A106.445,106.445,0,0,0,40,12.306a106.417,106.417,0,0,0-12.862.723A12.238,12.238,0,0,1,33.053,5.6ZM24.9,15.425A96,96,0,0,1,40,14.357a96,96,0,0,1,15.1,1.067c4.722.789,6.225,1.734,6.44,2.066v1.668a21.95,21.95,0,0,0-5.4-1.532A94.865,94.865,0,0,0,40,16.408a94.88,94.88,0,0,0-16.137,1.218,21.938,21.938,0,0,0-5.4,1.532V17.491c.215-.332,1.718-1.277,6.44-2.066ZM52.3,20.51H51.276v-1.5q1.059.113,2.051.247v1.352A5.122,5.122,0,0,0,52.3,20.51Zm-3.077.3L47.4,18.688q.927.059,1.823.133Zm-6.546-2.326-.9,1.493-1.827-1.522H40Q41.349,18.459,42.679,18.489ZM28.714,20.51H27.689a5.131,5.131,0,0,0-1.026.1V19.261q.991-.134,2.051-.247Zm-5.546,2.711c-3.5-.731-4.439-1.455-4.661-1.689.336-.368,1.864-1.221,6.105-1.956v1.963a5.165,5.165,0,0,0-1.444,1.683Zm1.444,2.417a3.08,3.08,0,0,1,3.077-3.077h1.026v2.652l-1.326-1.326-1.45,1.45,2.776,2.776v.6H27.689A3.08,3.08,0,0,1,24.612,25.638Zm10.95,15.477L38.545,44.1l-2.371,2.371L33.7,41.515Zm4.041,8.11h.783l2.051,4.1H37.552Zm1.328-2.741-.46.69h-.953l-.46-.69L40,45.548ZM29.046,42.511l2.58-.553,3.986,7.972,1.967-1.967.207.31-2.527,5.054H32.216L30.89,52a2.467,2.467,0,0,0-2.175-.688V42.59c.11-.028.221-.056.332-.079Zm-27-3.541A2.053,2.053,0,0,1,4.1,36.919H21.061a4.077,4.077,0,0,0-.55,2.051v2.051H2.051Zm6.153,4.1H20.51a2.053,2.053,0,0,0,2.051-2.051V38.97a2.051,2.051,0,0,1,4.1,0V53.327H23.587A3.08,3.08,0,0,0,20.51,56.4V59.48H8.2ZM22.561,60.505V56.4a1.027,1.027,0,0,1,1.026-1.026h5.128V53.752a.425.425,0,0,1,.725-.3l1.326,1.326v6.754H23.587A1.027,1.027,0,0,1,22.561,60.505Zm34.868-9.972V56.4A5.133,5.133,0,0,1,52.3,61.531H32.816V55.378H49.825l1.751,1.751,1.45-1.45-1.751-1.751V47.174H49.225v6.153H44.731L42.2,48.273l.207-.31,1.967,1.967,3.986-7.972,2.58.553a8.247,8.247,0,0,1,6.485,8.022ZM46.293,41.514l-2.477,4.954L41.445,44.1l2.982-2.982Zm-2.52-4.543-.7.234V39.57L40,42.647,36.919,39.57V37.2l-.7-.234a7.963,7.963,0,0,1-5.452-7.564V18.821c1.911-.158,3.941-.266,6.037-.32l5.508,4.59,2.538-4.231,4.377,5.106v5.441A7.963,7.963,0,0,1,43.773,36.971ZM52.3,28.714H51.276v-.6l2.776-2.776-1.45-1.45-1.326,1.326V22.561H52.3a3.077,3.077,0,0,1,0,6.153Zm4.521-5.493a5.163,5.163,0,0,0-1.444-1.683V19.576c4.241.735,5.769,1.589,6.105,1.956-.222.235-1.157.958-4.661,1.689Z" transform="translate(0 0)"/>
      </g>
    </g>
  </g>
</svg>
