<svg xmlns="http://www.w3.org/2000/svg" xmlns:xlink="http://www.w3.org/1999/xlink" width="118" height="118" viewBox="0 0 118 118">
  <defs>
    <filter id="Trazado_896985" x="0" y="0" width="118" height="118" filterUnits="userSpaceOnUse">
      <feOffset dy="3" input="SourceAlpha"/>
      <feGaussianBlur stdDeviation="3" result="blur"/>
      <feFlood flood-opacity="0.161"/>
      <feComposite operator="in" in2="blur"/>
      <feComposite in="SourceGraphic"/>
    </filter>
  </defs>
  <g id="Grupo_1182385" data-name="Grupo 1182385" transform="translate(-268.051 -4328.475)">
    <g id="Grupo_1181844" data-name="Grupo 1181844" transform="translate(277.051 4334.475)">
      <g id="Grupo_1111318" data-name="Grupo 1111318" transform="translate(0)">
        <g id="Grupo_1109826" data-name="Grupo 1109826" transform="translate(0 0)">
          <g id="Grupo_1098742" data-name="Grupo 1098742">
            <g transform="matrix(1, 0, 0, 1, -9, -6)" filter="url(#Trazado_896985)">
              <g id="Trazado_896985-2" data-name="Trazado 896985" transform="translate(9 6)" fill="#9ad354" opacity="0.859">
                <path d="M 49.99993515014648 98.5 C 43.45182037353516 98.5 37.10037612915039 97.21788024902344 31.12203598022461 94.68925476074219 C 25.34687805175781 92.24656677246094 20.15993499755859 88.74932098388672 15.70530700683594 84.29469299316406 C 11.25067806243896 79.84006500244141 7.753435134887695 74.65312194824219 5.310749530792236 68.87796783447266 C 2.782120943069458 62.89962387084961 1.500006556510925 56.54818344116211 1.500006556510925 50.00006866455078 C 1.500006556510925 43.45180892944336 2.782120943069458 37.10036849975586 5.310749530792236 31.12202453613281 C 7.753435134887695 25.34686851501465 11.25067806243896 20.15992546081543 15.70530700683594 15.70529651641846 C 20.15993499755859 11.25066757202148 25.34687805175781 7.753424644470215 31.12203598022461 5.310739040374756 C 37.10037612915039 2.782110452651978 43.45182037353516 1.499996185302734 49.99993515014648 1.499996185302734 C 56.54804992675781 1.499996185302734 62.89949417114258 2.782110452651978 68.87783813476562 5.310739040374756 C 74.65299224853516 7.753424644470215 79.83993530273438 11.25066757202148 84.29457855224609 15.70529651641846 C 88.74920654296875 20.15992546081543 92.24643707275391 25.34686851501465 94.68911743164062 31.12202453613281 C 97.21775054931641 37.10036849975586 98.4998779296875 43.45180892944336 98.4998779296875 49.99992370605469 C 98.4998779296875 56.54818344116211 97.21775054931641 62.89962387084961 94.68911743164062 68.87796783447266 C 92.24643707275391 74.65312194824219 88.74920654296875 79.84006500244141 84.29457855224609 84.29469299316406 C 79.83993530273438 88.74932098388672 74.65299224853516 92.24656677246094 68.87783813476562 94.68925476074219 C 62.89949417114258 97.21788024902344 56.54804992675781 98.5 49.99993515014648 98.5 Z" stroke="none"/>
                <path d="M 49.99993515014648 2.999992370605469 C 43.65365982055664 2.999992370605469 37.49881362915039 4.242256164550781 31.70636749267578 6.6922607421875 C 26.10999298095703 9.059318542480469 21.08332061767578 12.44859313964844 16.76596832275391 16.76596832275391 C 12.44859313964844 21.08332061767578 9.059318542480469 26.10999298095703 6.6922607421875 31.70636749267578 C 4.242256164550781 37.49880981445312 3 43.65365600585938 3 50.00005722045898 C 3 56.34633636474609 4.242256164550781 62.50118255615234 6.6922607421875 68.29362487792969 C 9.059318542480469 73.88999938964844 12.44859313964844 78.91667175292969 16.76596832275391 83.23402404785156 C 21.08332061767578 87.55139923095703 26.10999298095703 90.940673828125 31.70636749267578 93.30773162841797 C 37.49881362915039 95.75773620605469 43.65365982055664 97 49.99993515014648 97 C 56.34621047973633 97 62.50105667114258 95.75773620605469 68.29350280761719 93.30773162841797 C 73.88987731933594 90.940673828125 78.91654968261719 87.55139923095703 83.23390197753906 83.23402404785156 C 87.55126953125 78.91667175292969 90.9405517578125 73.88999938964844 93.30760955810547 68.29362487792969 C 95.75761413574219 62.50118255615234 96.99987030029297 56.34633636474609 96.99987030029297 49.99993515014648 C 96.99987030029297 43.65365600585938 95.75761413574219 37.49880981445312 93.30760955810547 31.70636749267578 C 90.9405517578125 26.10999298095703 87.55126953125 21.08332061767578 83.23390197753906 16.76596832275391 C 78.91654968261719 12.44859313964844 73.88987731933594 9.059318542480469 68.29350280761719 6.6922607421875 C 62.50105667114258 4.242256164550781 56.34621047973633 2.999992370605469 49.99993515014648 2.999992370605469 M 49.99993515014648 -7.62939453125e-06 C 77.6141357421875 -7.62939453125e-06 99.99987030029297 22.38573455810547 99.99987030029297 49.99993515014648 L 99.99987030029297 50.00005722045898 C 99.99987030029297 77.6142578125 77.6141357421875 100 49.99993515014648 100 C 22.38573455810547 100 0 77.6142578125 0 50.00005722045898 L 0 49.99993515014648 C 0 22.38573455810547 22.38573455810547 -7.62939453125e-06 49.99993515014648 -7.62939453125e-06 Z" stroke="none" fill="#fff"/>
              </g>
            </g>
            <g id="Rectángulo_400907" data-name="Rectángulo 400907" transform="translate(0)" fill="none" stroke="#fff" stroke-width="3">
              <rect width="100" height="100" rx="50" stroke="none"/>
              <rect x="1.5" y="1.5" width="97" height="97" rx="48.5" fill="none"/>
            </g>
          </g>
        </g>
      </g>
    </g>
    <g id="growth_555099" transform="translate(294.146 4351.5)">
      <rect id="Rectángulo_408458" data-name="Rectángulo 408458" width="10.961" height="23.124" transform="translate(1.301 41.366)" fill="#43cfef"/>
      <g id="Grupo_1182383" data-name="Grupo 1182383" transform="translate(22.504 27.246)">
        <path id="Trazado_915357" data-name="Trazado 915357" d="M255.984,222.4h0c0-.022-.52-5.178,2.344-7.989s7.933-2.313,7.955-2.311h0c0,.043.637,5.305-2.222,8.112S255.984,222.4,255.984,222.4Z" transform="translate(-245.552 -212.061)" fill="#68e09e"/>
        <path id="Trazado_915358" data-name="Trazado 915358" d="M177.33,220.207c-2.86-2.806-2.226-8.069-2.222-8.112h0c.022,0,5.089-.5,7.955,2.311s2.348,7.966,2.344,7.989h0S180.2,223.025,177.33,220.207Z" transform="translate(-175.045 -212.059)" fill="#68e09e"/>
      </g>
      <path id="Trazado_915359" data-name="Trazado 915359" d="M153.016,299.6a16.532,16.532,0,0,1,28.119,2.725l.7,1.449-9,4.689Z" transform="translate(-133.342 -255.335)" fill="#ffc757"/>
      <path id="Trazado_915360" data-name="Trazado 915360" d="M146.62,332.824h0a3.857,3.857,0,0,0-4.683-.879l-19.372,10.1-6.1-2.891a3.836,3.836,0,0,0,.445-1.8h0a3.854,3.854,0,0,0-3.854-3.854H95.329v14.388l16.91,5.033a11.749,11.749,0,0,0,8.958-.936l24.363-13.228A3.857,3.857,0,0,0,146.62,332.824Z" transform="translate(-83.067 -288.916)" fill="#ffac7f"/>
      <rect id="Rectángulo_408459" data-name="Rectángulo 408459" width="37.492" height="19.527" transform="translate(14.157 1.285)" fill="#00b783"/>
      <g id="Grupo_1182384" data-name="Grupo 1182384" transform="translate(14.158 1.285)">
        <path id="Trazado_915361" data-name="Trazado 915361" d="M363.9,10a4.882,4.882,0,0,0,4.882,4.882V10Z" transform="translate(-331.287 -9.999)" fill="#68e09e"/>
        <path id="Trazado_915362" data-name="Trazado 915362" d="M110.084,14.881A4.882,4.882,0,0,0,114.966,10h-4.882Z" transform="translate(-110.084 -9.999)" fill="#68e09e"/>
        <path id="Trazado_915363" data-name="Trazado 915363" d="M114.966,128.869a4.882,4.882,0,0,0-4.882-4.882v4.882Z" transform="translate(-110.084 -109.342)" fill="#68e09e"/>
        <path id="Trazado_915364" data-name="Trazado 915364" d="M368.779,123.987a4.882,4.882,0,0,0-4.882,4.882h4.882Z" transform="translate(-331.287 -109.342)" fill="#68e09e"/>
        <circle id="Elipse_11700" data-name="Elipse 11700" cx="5.139" cy="5.139" r="5.139" transform="translate(13.619 4.638)" fill="#68e09e"/>
      </g>
      <path id="Trazado_915365" data-name="Trazado 915365" d="M40.265,353a1.285,1.285,0,0,0,.9-2.2l-.01-.01a1.285,1.285,0,1,0-1.806,1.828l.01.01A1.281,1.281,0,0,0,40.265,353Z" transform="translate(-33.949 -305.394)"/>
      <path id="Trazado_915366" data-name="Trazado 915366" d="M64.519,43.061a5.129,5.129,0,0,0-6.243-1.171L49.044,46.7a1.285,1.285,0,0,0-.095-.272,17.818,17.818,0,0,0-9.114-8.669,7.918,7.918,0,0,0,2.078-1.449C45,33.277,44.6,28.029,44.519,27.2a1.285,1.285,0,0,0-1.19-1.2c-.7-.063-5.809-.4-8.947,2.675-.067.065-.13.133-.193.2V22.1H51.649a1.285,1.285,0,0,0,1.285-1.285V1.285A1.285,1.285,0,0,0,51.649,0H14.158a1.285,1.285,0,0,0-1.285,1.285V20.812A1.285,1.285,0,0,0,14.158,22.1H31.619V28.88c-.065-.069-.13-.139-.2-.206C28.3,25.61,23.221,25.934,22.488,26a1.285,1.285,0,0,0-1.2,1.191c-.082.789-.5,6.073,2.6,9.121h0a7.924,7.924,0,0,0,2.078,1.45c-.392.166-.779.346-1.162.541a17.974,17.974,0,0,0-6.009,5h-5.25V41.366a1.285,1.285,0,0,0-1.285-1.285H1.3a1.285,1.285,0,1,0,0,2.569h9.676V63.206H1.3a1.285,1.285,0,1,0,0,2.569H12.262a1.285,1.285,0,0,0,1.285-1.285v-3.8L28.8,65.234A12.95,12.95,0,0,0,38.742,64.2l8.191-4.447a1.285,1.285,0,1,0-1.226-2.258l-8.191,4.447a10.391,10.391,0,0,1-7.978.833L13.546,58.012V45.866H29.99a2.569,2.569,0,1,1,0,5.139H20.74a1.285,1.285,0,1,0,0,2.569h9.25a5.126,5.126,0,0,0,3.831-1.718l5.126,2.43a1.285,1.285,0,0,0,1.144-.022l19.372-10.1a2.572,2.572,0,0,1,2.416,4.542l-6.82,3.7a1.285,1.285,0,1,0,1.226,2.258l6.82-3.7a5.141,5.141,0,0,0,1.414-7.906ZM15.442,14.781V7.316a6.184,6.184,0,0,0,4.746-4.746h25.43a6.184,6.184,0,0,0,4.746,4.746v7.465a6.184,6.184,0,0,0-4.746,4.746H20.189A6.184,6.184,0,0,0,15.442,14.781ZM48.29,19.527a3.615,3.615,0,0,1,2.074-2.074v2.074ZM50.365,4.644a3.615,3.615,0,0,1-2.074-2.074h2.074ZM17.517,2.569a3.615,3.615,0,0,1-2.074,2.074V2.569ZM15.442,17.453a3.615,3.615,0,0,1,2.074,2.074H15.442V17.453ZM36.181,30.509c1.662-1.63,4.335-1.938,5.832-1.973.007,1.538-.236,4.308-1.9,5.94a7.174,7.174,0,0,1-4,1.744l2.888-2.888a1.285,1.285,0,1,0-1.817-1.817l-2.811,2.811A7.065,7.065,0,0,1,36.181,30.509ZM25.688,34.476c-1.664-1.633-1.906-4.4-1.9-5.94,1.495.034,4.169.342,5.832,1.973a7.064,7.064,0,0,1,1.8,3.818l-2.811-2.811A1.285,1.285,0,0,0,26.8,33.332l2.88,2.88a7.182,7.182,0,0,1-3.987-1.735ZM39.47,51.691,35,49.572A5.135,5.135,0,0,0,29.99,43.3H22.215A15.1,15.1,0,0,1,32.9,38.927a15.339,15.339,0,0,1,13.733,8.62,1.288,1.288,0,0,0,.2.3Z"/>
      <path id="Trazado_915367" data-name="Trazado 915367" d="M388.039,426.523a1.285,1.285,0,1,0,.908.377A1.294,1.294,0,0,0,388.039,426.523Z" transform="translate(-337.05 -371.723)"/>
      <path id="Trazado_915368" data-name="Trazado 915368" d="M218.839,44.578a1.285,1.285,0,1,0-2.53-.446,3.855,3.855,0,1,1-4.692-4.425,1.285,1.285,0,0,0-.595-2.5,6.424,6.424,0,1,0,7.817,7.37Z" transform="translate(-179.597 -32.397)"/>
      <path id="Trazado_915369" data-name="Trazado 915369" d="M275.161,50.426a1.285,1.285,0,0,0,1.9-1.724,1.39,1.39,0,0,0-.441-.338,1.193,1.193,0,0,1,.349.242,1.285,1.285,0,1,0-1.841,1.792Zm.912-2.183.048,0c-.033,0-.066,0-.1,0Zm-.063,0a1.282,1.282,0,0,0-.8.337A1.258,1.258,0,0,1,276.01,48.245Z" transform="translate(-239.452 -42.022)"/>
    </g>
  </g>
</svg>
