<svg xmlns="http://www.w3.org/2000/svg" xmlns:xlink="http://www.w3.org/1999/xlink" width="118" height="118" viewBox="0 0 118 118">
  <defs>
    <filter id="Trazado_896985" x="0" y="0" width="118" height="118" filterUnits="userSpaceOnUse">
      <feOffset dy="3" input="SourceAlpha"/>
      <feGaussianBlur stdDeviation="3" result="blur"/>
      <feFlood flood-opacity="0.161"/>
      <feComposite operator="in" in2="blur"/>
      <feComposite in="SourceGraphic"/>
    </filter>
  </defs>
  <g id="Grupo_1182393" data-name="Grupo 1182393" transform="translate(-1213.109 -4328.475)">
    <g id="Grupo_1181849" data-name="Grupo 1181849" transform="translate(1222.109 4334.475)">
      <g id="Grupo_1111318" data-name="Grupo 1111318" transform="translate(0)">
        <g id="Grupo_1109826" data-name="Grupo 1109826" transform="translate(0 0)">
          <g id="Grupo_1098742" data-name="Grupo 1098742">
            <g transform="matrix(1, 0, 0, 1, -9, -6)" filter="url(#Trazado_896985)">
              <g id="Trazado_896985-2" data-name="Trazado 896985" transform="translate(9 6)" fill="#9ad354" opacity="0.859">
                <path d="M 49.99993515014648 98.5 C 43.45182037353516 98.5 37.10037612915039 97.21788024902344 31.12203598022461 94.68925476074219 C 25.34687805175781 92.24656677246094 20.15993499755859 88.74932098388672 15.70530700683594 84.29469299316406 C 11.25067806243896 79.84006500244141 7.753435134887695 74.65312194824219 5.310749530792236 68.87796783447266 C 2.782120943069458 62.89962387084961 1.500006556510925 56.54818344116211 1.500006556510925 50.00006866455078 C 1.500006556510925 43.45180892944336 2.782120943069458 37.10036849975586 5.310749530792236 31.12202453613281 C 7.753435134887695 25.34686851501465 11.25067806243896 20.15992546081543 15.70530700683594 15.70529651641846 C 20.15993499755859 11.25066757202148 25.34687805175781 7.753424644470215 31.12203598022461 5.310739040374756 C 37.10037612915039 2.782110452651978 43.45182037353516 1.499996185302734 49.99993515014648 1.499996185302734 C 56.54804992675781 1.499996185302734 62.89949417114258 2.782110452651978 68.87783813476562 5.310739040374756 C 74.65299224853516 7.753424644470215 79.83993530273438 11.25066757202148 84.29457855224609 15.70529651641846 C 88.74920654296875 20.15992546081543 92.24643707275391 25.34686851501465 94.68911743164062 31.12202453613281 C 97.21775054931641 37.10036849975586 98.4998779296875 43.45180892944336 98.4998779296875 49.99992370605469 C 98.4998779296875 56.54818344116211 97.21775054931641 62.89962387084961 94.68911743164062 68.87796783447266 C 92.24643707275391 74.65312194824219 88.74920654296875 79.84006500244141 84.29457855224609 84.29469299316406 C 79.83993530273438 88.74932098388672 74.65299224853516 92.24656677246094 68.87783813476562 94.68925476074219 C 62.89949417114258 97.21788024902344 56.54804992675781 98.5 49.99993515014648 98.5 Z" stroke="none"/>
                <path d="M 49.99993515014648 2.999992370605469 C 43.65365982055664 2.999992370605469 37.49881362915039 4.242256164550781 31.70636749267578 6.6922607421875 C 26.10999298095703 9.059318542480469 21.08332061767578 12.44859313964844 16.76596832275391 16.76596832275391 C 12.44859313964844 21.08332061767578 9.059318542480469 26.10999298095703 6.6922607421875 31.70636749267578 C 4.242256164550781 37.49880981445312 3 43.65365600585938 3 50.00005722045898 C 3 56.34633636474609 4.242256164550781 62.50118255615234 6.6922607421875 68.29362487792969 C 9.059318542480469 73.88999938964844 12.44859313964844 78.91667175292969 16.76596832275391 83.23402404785156 C 21.08332061767578 87.55139923095703 26.10999298095703 90.940673828125 31.70636749267578 93.30773162841797 C 37.49881362915039 95.75773620605469 43.65365982055664 97 49.99993515014648 97 C 56.34621047973633 97 62.50105667114258 95.75773620605469 68.29350280761719 93.30773162841797 C 73.88987731933594 90.940673828125 78.91654968261719 87.55139923095703 83.23390197753906 83.23402404785156 C 87.55126953125 78.91667175292969 90.9405517578125 73.88999938964844 93.30760955810547 68.29362487792969 C 95.75761413574219 62.50118255615234 96.99987030029297 56.34633636474609 96.99987030029297 49.99993515014648 C 96.99987030029297 43.65365600585938 95.75761413574219 37.49880981445312 93.30760955810547 31.70636749267578 C 90.9405517578125 26.10999298095703 87.55126953125 21.08332061767578 83.23390197753906 16.76596832275391 C 78.91654968261719 12.44859313964844 73.88987731933594 9.059318542480469 68.29350280761719 6.6922607421875 C 62.50105667114258 4.242256164550781 56.34621047973633 2.999992370605469 49.99993515014648 2.999992370605469 M 49.99993515014648 -7.62939453125e-06 C 77.6141357421875 -7.62939453125e-06 99.99987030029297 22.38573455810547 99.99987030029297 49.99993515014648 L 99.99987030029297 50.00005722045898 C 99.99987030029297 77.6142578125 77.6141357421875 100 49.99993515014648 100 C 22.38573455810547 100 0 77.6142578125 0 50.00005722045898 L 0 49.99993515014648 C 0 22.38573455810547 22.38573455810547 -7.62939453125e-06 49.99993515014648 -7.62939453125e-06 Z" stroke="none" fill="#fff"/>
              </g>
            </g>
            <g id="Rectángulo_400907" data-name="Rectángulo 400907" transform="translate(0)" fill="none" stroke="#fff" stroke-width="3">
              <rect width="100" height="100" rx="50" stroke="none"/>
              <rect x="1.5" y="1.5" width="97" height="97" rx="48.5" fill="none"/>
            </g>
          </g>
        </g>
      </g>
    </g>
    <g id="_x33_68-Employee_x2C__Office_x2C__Time_x2C__Worker" transform="translate(1199.08 4329.487)">
      <path id="Trazado_915435" data-name="Trazado 915435" d="M83.645,50A3.645,3.645,0,1,1,80,53.645,3.644,3.644,0,0,1,83.645,50Z" transform="translate(-34.169 -25.627)" fill="#fb2b3a"/>
      <path id="Trazado_915436" data-name="Trazado 915436" d="M52.916,280A2.916,2.916,0,1,1,50,282.916,2.915,2.915,0,0,1,52.916,280Z" transform="translate(-8.542 -222.097)" fill="#fb2b3a"/>
      <path id="Trazado_915437" data-name="Trazado 915437" d="M182.072,450v5.831H150V450h32.072Z" transform="translate(-93.964 -367.314)" fill="#4a78ff"/>
      <path id="Trazado_915438" data-name="Trazado 915438" d="M340,370h4.373v11.662H340Z" transform="translate(-256.266 -298.977)" fill="#2663f0"/>
      <path id="Trazado_915439" data-name="Trazado 915439" d="M150,370h4.373v11.662H150Z" transform="translate(-93.964 -298.977)" fill="#2663f0"/>
      <g id="Grupo_1182392" data-name="Grupo 1182392" transform="translate(50.205 71.023)">
        <path id="Trazado_915440" data-name="Trazado 915440" d="M375.831,375.013v12.48H370V370h.818A5.014,5.014,0,0,1,375.831,375.013Z" transform="translate(-332.097 -370)" fill="#07cc66"/>
        <path id="Trazado_915441" data-name="Trazado 915441" d="M115.831,381.662v5.831H110v-12.48A5.014,5.014,0,0,1,115.013,370h.818Z" transform="translate(-110 -370)" fill="#07cc66"/>
        <path id="Trazado_915442" data-name="Trazado 915442" d="M203.325,370v11.662H180V370h1.458l5.831,7.289,5.172-3.739,5.032,3.739Z" transform="translate(-169.795 -370)" fill="#07cc66"/>
      </g>
      <path id="Trazado_915443" data-name="Trazado 915443" d="M274.249,350l2.095,2.916-5.831,7.289-5.032-3.739Z" transform="translate(-192.609 -281.892)" fill="#4a78ff"/>
      <path id="Trazado_915444" data-name="Trazado 915444" d="M201,356.465l-5.172,3.739L190,352.916,192.095,350Z" transform="translate(-128.133 -281.892)" fill="#4a78ff"/>
      <path id="Trazado_915445" data-name="Trazado 915445" d="M204.239,38.754a14.585,14.585,0,0,0-8.13,11.655H182.948a12.391,12.391,0,1,1,21.291-11.655Z" transform="translate(-119.591 -8.542)" fill="#ffd400"/>
      <path id="Trazado_915446" data-name="Trazado 915446" d="M305.005,80a14.578,14.578,0,1,1-8.795,26.2V98.83a5.711,5.711,0,0,0-5.71-5.71A14.58,14.58,0,0,1,305.005,80Z" transform="translate(-213.982 -51.253)" fill="#bdf9ff"/>
      <path id="Trazado_915447" data-name="Trazado 915447" d="M224.311,228.32a8.99,8.99,0,0,1-17.981,0v-8.99h17.981Z" transform="translate(-142.082 -170.272)" fill="#ffd5ab"/>
      <path id="Trazado_915448" data-name="Trazado 915448" d="M182.172,175.71v1.481H162.831A5.831,5.831,0,0,1,157,171.36V170h19.462a5.711,5.711,0,0,1,5.71,5.71Z" transform="translate(-99.944 -128.133)" fill="#c86d36"/>
      <path id="Trazado_915449" data-name="Trazado 915449" d="M461.458,420A1.458,1.458,0,1,1,460,421.458,1.458,1.458,0,0,1,461.458,420Z" transform="translate(-358.772 -341.688)"/>
      <path id="Trazado_915450" data-name="Trazado 915450" d="M431.458,30A1.458,1.458,0,1,1,430,31.458,1.458,1.458,0,0,1,431.458,30Z" transform="translate(-333.146 -8.542)"/>
      <path id="Trazado_915451" data-name="Trazado 915451" d="M421.458,320A1.458,1.458,0,1,1,420,321.458,1.458,1.458,0,0,1,421.458,320Z" transform="translate(-324.603 -256.266)"/>
      <path id="Trazado_915452" data-name="Trazado 915452" d="M131.458,250A1.458,1.458,0,1,1,130,251.458,1.458,1.458,0,0,1,131.458,250Z" transform="translate(-76.88 -196.47)"/>
      <path id="Trazado_915453" data-name="Trazado 915453" d="M61.458,140A1.458,1.458,0,1,1,60,141.458,1.458,1.458,0,0,1,61.458,140Z" transform="translate(-17.084 -102.506)"/>
      <path id="Trazado_915454" data-name="Trazado 915454" d="M41.458,390A1.458,1.458,0,1,1,40,391.458,1.458,1.458,0,0,1,41.458,390Z" transform="translate(0 -316.061)"/>
      <path id="Trazado_915455" data-name="Trazado 915455" d="M341.662,380.409h-5.831a1.458,1.458,0,1,1,0-2.916H340.2V366.471a3.56,3.56,0,0,0-3.556-3.556h-5.191a1.458,1.458,0,0,1,0-2.916h5.191a6.478,6.478,0,0,1,6.471,6.471v12.48A1.458,1.458,0,0,1,341.662,380.409Z" transform="translate(-247.724 -290.435)"/>
      <path id="Trazado_915456" data-name="Trazado 915456" d="M107.289,380.409h-5.831A1.458,1.458,0,0,1,100,378.951v-12.48A6.479,6.479,0,0,1,106.471,360h6.649a1.458,1.458,0,0,1,0,2.916h-6.649a3.56,3.56,0,0,0-3.556,3.556v11.022h4.373a1.458,1.458,0,0,1,0,2.916Z" transform="translate(-51.253 -290.435)"/>
      <path id="Trazado_915457" data-name="Trazado 915457" d="M261.969,353.119a1.451,1.451,0,0,1-.868-.288l-5.032-3.739a1.458,1.458,0,0,1,0-2.343l8.769-6.465a1.458,1.458,0,0,1,2.049.323l2.095,2.916a1.458,1.458,0,0,1-.046,1.761l-5.831,7.289A1.454,1.454,0,0,1,261.969,353.119Zm-2.581-5.193,2.322,1.726,4.262-5.327-.589-.819Z" transform="translate(-184.067 -273.349)"/>
      <path id="Trazado_915458" data-name="Trazado 915458" d="M187.29,353.12a1.455,1.455,0,0,1-1.139-.547l-5.831-7.289a1.458,1.458,0,0,1-.046-1.761l2.095-2.916a1.458,1.458,0,0,1,2.04-.329l8.909,6.465a1.458,1.458,0,0,1,0,2.361l-5.172,3.739A1.451,1.451,0,0,1,187.29,353.12Zm-4-8.794,4.273,5.342,2.416-1.747-6.094-4.423Z" transform="translate(-119.591 -273.35)"/>
      <path id="Trazado_915459" data-name="Trazado 915459" d="M173.53,448.747H141.458A1.458,1.458,0,0,1,140,447.289v-5.831A1.458,1.458,0,0,1,141.458,440H173.53a1.458,1.458,0,0,1,1.458,1.458v5.831A1.458,1.458,0,0,1,173.53,448.747Zm-30.614-2.916h29.156v-2.916H142.916Z" transform="translate(-85.422 -358.772)"/>
      <path id="Trazado_915460" data-name="Trazado 915460" d="M331.458,374.578A1.458,1.458,0,0,1,330,373.12V361.458a1.458,1.458,0,1,1,2.916,0V373.12A1.458,1.458,0,0,1,331.458,374.578Z" transform="translate(-247.724 -290.435)"/>
      <path id="Trazado_915461" data-name="Trazado 915461" d="M361.458,374.578A1.458,1.458,0,0,1,360,373.12V361.458a1.458,1.458,0,0,1,2.916,0V373.12A1.458,1.458,0,0,1,361.458,374.578Z" transform="translate(-273.35 -290.435)"/>
      <path id="Trazado_915462" data-name="Trazado 915462" d="M141.458,374.578A1.458,1.458,0,0,1,140,373.12V361.458a1.458,1.458,0,1,1,2.916,0V373.12A1.458,1.458,0,0,1,141.458,374.578Z" transform="translate(-85.422 -290.435)"/>
      <path id="Trazado_915463" data-name="Trazado 915463" d="M171.458,374.578A1.458,1.458,0,0,1,170,373.12V361.458a1.458,1.458,0,1,1,2.916,0V373.12A1.458,1.458,0,0,1,171.458,374.578Z" transform="translate(-111.049 -290.435)"/>
      <path id="Trazado_915464" data-name="Trazado 915464" d="M381.458,253.935A1.458,1.458,0,0,1,380,252.477v-3.239a1.458,1.458,0,1,1,2.916,0v3.239A1.458,1.458,0,0,1,381.458,253.935Z" transform="translate(-290.435 -194.574)"/>
      <path id="Trazado_915465" data-name="Trazado 915465" d="M381.458,76.155A1.458,1.458,0,0,1,380,74.7V71.458a1.458,1.458,0,0,1,2.916,0V74.7A1.458,1.458,0,0,1,381.458,76.155Z" transform="translate(-290.435 -42.711)"/>
      <path id="Trazado_915466" data-name="Trazado 915466" d="M436.458,104.5a1.458,1.458,0,0,1-1.031-2.489l2.29-2.29a1.458,1.458,0,0,1,2.062,2.062l-2.29,2.29A1.454,1.454,0,0,1,436.458,104.5Z" transform="translate(-337.417 -67.73)"/>
      <path id="Trazado_915467" data-name="Trazado 915467" d="M462.477,172.916h-3.239a1.458,1.458,0,1,1,0-2.916h3.239a1.458,1.458,0,1,1,0,2.916Z" transform="translate(-356.876 -128.133)"/>
      <path id="Trazado_915468" data-name="Trazado 915468" d="M313.038,104.5a1.453,1.453,0,0,1-1.031-.427l-2.29-2.29a1.458,1.458,0,0,1,2.062-2.062l2.29,2.29a1.458,1.458,0,0,1-1.031,2.489Z" transform="translate(-230.033 -67.73)"/>
      <path id="Trazado_915469" data-name="Trazado 915469" d="M438.748,230.205a1.453,1.453,0,0,1-1.031-.427l-2.29-2.29a1.458,1.458,0,1,1,2.062-2.062l2.29,2.29a1.458,1.458,0,0,1-1.031,2.489Z" transform="translate(-337.417 -175.114)"/>
      <path id="Trazado_915470" data-name="Trazado 915470" d="M352.987,155.554a1.456,1.456,0,0,1-1.031-.427l-4.859-4.859a1.458,1.458,0,1,1,2.062-2.062l4.014,4.014,3.865-2.576a1.458,1.458,0,1,1,1.617,2.426L353.8,155.31A1.455,1.455,0,0,1,352.987,155.554Z" transform="translate(-261.964 -109.152)"/>
      <path id="Trazado_915471" data-name="Trazado 915471" d="M296.462,102.072a15.891,15.891,0,0,1-9.675-3.248,1.458,1.458,0,1,1,1.761-2.324,13.126,13.126,0,1,0-1.363-19.741,13.131,13.131,0,0,0-3.777,7.963,1.458,1.458,0,0,1-2.9-.287,16.052,16.052,0,0,1,8.943-12.822,16.037,16.037,0,1,1,7.013,30.46Z" transform="translate(-205.438 -42.711)"/>
      <path id="Trazado_915472" data-name="Trazado 915472" d="M206.778,230.226a10.46,10.46,0,0,1-10.448-10.448v-8.99a1.458,1.458,0,1,1,2.916,0v8.99a7.532,7.532,0,1,0,15.065,0v-8.99a1.458,1.458,0,1,1,2.916,0v8.99a10.447,10.447,0,0,1-10.448,10.448Z" transform="translate(-133.54 -161.729)"/>
      <path id="Trazado_915473" data-name="Trazado 915473" d="M174.406,43.325a1.454,1.454,0,0,1-1.112-.514,13.848,13.848,0,1,1,23.8-13.027,1.458,1.458,0,1,1-2.787.855,10.934,10.934,0,1,0-18.786,10.284,1.458,1.458,0,0,1-1.11,2.4Z" transform="translate(-111.049)"/>
      <path id="Trazado_915474" data-name="Trazado 915474" d="M173.63,170.107H154.289A7.3,7.3,0,0,1,147,162.818v-1.36A1.458,1.458,0,0,1,148.458,160H167.92a7.176,7.176,0,0,1,7.168,7.168v1.481A1.458,1.458,0,0,1,173.63,170.107Zm-23.713-7.191a4.379,4.379,0,0,0,4.372,4.276h17.883v-.023a4.257,4.257,0,0,0-4.252-4.252Z" transform="translate(-91.402 -119.591)"/>
      <path id="Trazado_915475" data-name="Trazado 915475" d="M44.373,278.747a4.373,4.373,0,1,1,4.373-4.373A4.378,4.378,0,0,1,44.373,278.747Zm0-5.831a1.458,1.458,0,1,0,1.458,1.458A1.459,1.459,0,0,0,44.373,272.916Z" transform="translate(0 -213.555)"/>
      <path id="Trazado_915476" data-name="Trazado 915476" d="M75.1,50.2a5.1,5.1,0,1,1,5.1-5.1A5.108,5.108,0,0,1,75.1,50.2Zm0-7.289A2.187,2.187,0,1,0,77.289,45.1,2.189,2.189,0,0,0,75.1,42.916Z" transform="translate(-25.627 -17.084)"/>
    </g>
  </g>
</svg>
