<svg xmlns="http://www.w3.org/2000/svg" width="85" height="85" viewBox="0 0 85 85">
  <g id="Grupo_1182297" data-name="Grupo 1182297" transform="translate(-180 -3297.063)">
    <g id="Grupo_1181815" data-name="Grupo 1181815" transform="translate(16445.764 12316.588)">
      <g id="Grupo_1112415" data-name="Grupo 1112415" transform="translate(-16265.764 -9019.525)">
        <g id="Grupo_1098742" data-name="Grupo 1098742" transform="translate(0 0)">
          <g id="Rect치ngulo_400898" data-name="Rect치ngulo 400898" transform="translate(0.001 0)" fill="#fffae6" stroke="#997b00" stroke-width="3">
            <rect width="85" height="85" rx="42.5" stroke="none"/>
            <rect x="1.5" y="1.5" width="82" height="82" rx="41" fill="none"/>
          </g>
          <g id="Rect치ngulo_400907" data-name="Rect치ngulo 400907" transform="translate(0 0)" fill="none" stroke="#997b00" stroke-width="3">
            <rect width="85" height="85" rx="42.5" stroke="none"/>
            <rect x="1.5" y="1.5" width="82" height="82" rx="41" fill="none"/>
          </g>
        </g>
      </g>
    </g>
    <g id="paper_5382983" transform="translate(190.07 3312.551)">
      <path id="Trazado_914844" data-name="Trazado 914844" d="M53.717,1V45.646H48.36V21.537a29.65,29.65,0,0,0-9.822-9.822H18V1Z" transform="translate(-0.749 -0.107)" fill="#b58254"/>
      <path id="Trazado_914845" data-name="Trazado 914845" d="M47.717,57.646H12V13H37.895v9.822h9.822Z" transform="translate(-0.107 -1.392)" fill="#f5f2ff"/>
      <path id="Trazado_914846" data-name="Trazado 914846" d="M38.287,54.358v3.572H24V54.358a2.568,2.568,0,0,1,2.17-2.464A2.579,2.579,0,0,0,27.8,50.625C28.59,49,31.143,49,31.143,49s2.554,0,3.34,1.625a2.579,2.579,0,0,0,1.634,1.268,2.568,2.568,0,0,1,2.17,2.464Z" transform="translate(-1.392 -5.246)" fill="#b58254"/>
      <path id="Trazado_914847" data-name="Trazado 914847" d="M47,5h6.251v6.251H47Z" transform="translate(-3.855 -0.535)" fill="#6fc500"/>
      <path id="Trazado_914848" data-name="Trazado 914848" d="M50.822,22.822H41V13A29.65,29.65,0,0,1,50.822,22.822Z" transform="translate(-3.212 -1.392)" fill="#b3b3c6"/>
      <path id="Trazado_914849" data-name="Trazado 914849" d="M41.86,33s.893,9.822-9.822,9.822c0,0-.018-.2-.018-.545C32.02,40.215,32.672,33,41.86,33Z" transform="translate(-2.251 -3.533)" fill="#54b700"/>
      <path id="Trazado_914850" data-name="Trazado 914850" d="M30.838,42.278c0,.348-.018.545-.018.545C20.1,42.822,21,33,21,33,30.186,33,30.838,40.215,30.838,42.278Z" transform="translate(-1.069 -3.533)" fill="#6fc500"/>
      <g id="Grupo_1182296" data-name="Grupo 1182296" transform="translate(11)">
        <path id="Trazado_914851" data-name="Trazado 914851" d="M38.954,40.523a10.939,10.939,0,0,0,2.507-7.71A.893.893,0,0,0,40.572,32c-3.575,0-6.335,1.038-8.2,3.085a9.033,9.033,0,0,0-1.636,2.574A9.033,9.033,0,0,0,29.1,35.085C27.226,33.038,24.466,32,20.891,32a.893.893,0,0,0-.889.813,10.927,10.927,0,0,0,2.507,7.71,10.193,10.193,0,0,0,7.311,3.052v2.8a4.221,4.221,0,0,0-3.255,2.043,1.652,1.652,0,0,1-1.072.8,3.386,3.386,0,0,0-2.817,3.326v2.679H20.891a.893.893,0,1,0,0,1.786H40.535a.893.893,0,1,0,0-1.786H38.749V52.537a3.389,3.389,0,0,0-2.817-3.328,1.646,1.646,0,0,1-1.072-.8,4.223,4.223,0,0,0-3.255-2.042V43.576a10.209,10.209,0,0,0,7.348-3.053ZM33.685,36.29a8.44,8.44,0,0,1,6-2.479,8.786,8.786,0,0,1-2.055,5.508,8.44,8.44,0,0,1-6,2.479A8.785,8.785,0,0,1,33.685,36.29ZM21.775,33.811a8.447,8.447,0,0,1,5.992,2.467A8.833,8.833,0,0,1,29.829,41.8a8.445,8.445,0,0,1-5.992-2.467,8.824,8.824,0,0,1-2.063-5.519ZM33.254,49.192a3.418,3.418,0,0,0,2.195,1.737c1.514.427,1.514,1.286,1.514,1.609v2.679h-12.5V52.537c0-.323,0-1.182,1.514-1.608a3.423,3.423,0,0,0,2.195-1.737c.441-.908,1.986-1.116,2.539-1.119S32.813,48.284,33.254,49.192Z" transform="translate(-11.961 -3.426)" fill="#352727"/>
        <path id="Trazado_914852" data-name="Trazado 914852" d="M28.1,38.833l-3.572-3.572a.893.893,0,1,0-1.263,1.263L26.833,40.1A.893.893,0,0,0,28.1,38.833Z" transform="translate(-12.285 -3.747)" fill="#352727"/>
        <path id="Trazado_914853" data-name="Trazado 914853" d="M40.1,35.262a.892.892,0,0,0-1.263,0l-3.572,3.572A.893.893,0,1,0,36.524,40.1L40.1,36.524A.892.892,0,0,0,40.1,35.262Z" transform="translate(-13.57 -3.747)" fill="#352727"/>
        <path id="Trazado_914854" data-name="Trazado 914854" d="M28.786,55h-.893a.893.893,0,0,0,0,1.786h.893a.893.893,0,0,0,0-1.786Z" transform="translate(-12.713 -5.889)" fill="#352727"/>
        <path id="Trazado_914855" data-name="Trazado 914855" d="M34.893,56.786h.893a.893.893,0,0,0,0-1.786h-.893a.893.893,0,0,0,0,1.786Z" transform="translate(-13.463 -5.889)" fill="#352727"/>
        <path id="Trazado_914856" data-name="Trazado 914856" d="M31,52.893a.893.893,0,0,0,.893.893h.893a.893.893,0,0,0,0-1.786h-.893A.893.893,0,0,0,31,52.893Z" transform="translate(-13.141 -5.568)" fill="#352727"/>
        <path id="Trazado_914857" data-name="Trazado 914857" d="M20.893,20.786h9.822a.893.893,0,1,0,0-1.786H20.893a.893.893,0,1,0,0,1.786Z" transform="translate(-11.964 -2.034)" fill="#352727"/>
        <path id="Trazado_914858" data-name="Trazado 914858" d="M20.893,24.786h2.679a.893.893,0,0,0,0-1.786H20.893a.893.893,0,1,0,0,1.786Z" transform="translate(-11.964 -2.463)" fill="#352727"/>
        <path id="Trazado_914859" data-name="Trazado 914859" d="M35.893,20.786h.893a.893.893,0,1,0,0-1.786h-.893a.893.893,0,1,0,0,1.786Z" transform="translate(-13.57 -2.034)" fill="#352727"/>
        <path id="Trazado_914860" data-name="Trazado 914860" d="M35.929,23H27.893a.893.893,0,1,0,0,1.786h8.036a.893.893,0,1,0,0-1.786Z" transform="translate(-12.713 -2.463)" fill="#352727"/>
        <path id="Trazado_914861" data-name="Trazado 914861" d="M20.893,28.786H37.859a.893.893,0,0,0,0-1.786H20.893a.893.893,0,1,0,0,1.786Z" transform="translate(-11.964 -2.891)" fill="#352727"/>
        <path id="Trazado_914862" data-name="Trazado 914862" d="M24.893,5.786h9.822a.893.893,0,0,0,0-1.786H24.893a.893.893,0,0,0,0,1.786Z" transform="translate(-12.392 -0.428)" fill="#352727"/>
        <path id="Trazado_914863" data-name="Trazado 914863" d="M24.893,9.786h2.679a.893.893,0,0,0,0-1.786H24.893a.893.893,0,1,0,0,1.786Z" transform="translate(-12.392 -0.857)" fill="#352727"/>
        <path id="Trazado_914864" data-name="Trazado 914864" d="M39.893,5.786h.893a.893.893,0,0,0,0-1.786h-.893a.893.893,0,0,0,0,1.786Z" transform="translate(-13.998 -0.428)" fill="#352727"/>
        <path id="Trazado_914865" data-name="Trazado 914865" d="M39.929,8H31.893a.893.893,0,1,0,0,1.786h8.036a.893.893,0,0,0,0-1.786Z" transform="translate(-13.141 -0.857)" fill="#352727"/>
        <path id="Trazado_914866" data-name="Trazado 914866" d="M47.61,57.147a.893.893,0,0,0,.893-.893V46.432h4.465a.893.893,0,0,0,.893-.893V.893A.893.893,0,0,0,52.968,0H17.251a.893.893,0,0,0-.893.893v9.822H11.893a.893.893,0,0,0-.893.893V56.255a.893.893,0,0,0,.893.893ZM38.681,13.256A29.328,29.328,0,0,1,46,20.537H38.681ZM12.786,12.5h6.639a.893.893,0,1,0,0-1.786H18.143V1.786H52.075V44.646H48.5V21.43a.9.9,0,0,0-.118-.443A30.266,30.266,0,0,0,38.231,10.833a.886.886,0,0,0-.443-.118H23.5a.893.893,0,1,0,0,1.786H36.895V21.43a.893.893,0,0,0,.893.893h8.929V55.362H12.786Z" transform="translate(-11)" fill="#352727"/>
        <path id="Trazado_914867" data-name="Trazado 914867" d="M46.893,12.036h6.251a.893.893,0,0,0,.893-.893V4.893A.893.893,0,0,0,53.143,4H46.893A.893.893,0,0,0,46,4.893v6.251A.893.893,0,0,0,46.893,12.036Zm.893-6.251h4.465v4.465H47.786Z" transform="translate(-14.747 -0.428)" fill="#352727"/>
      </g>
    </g>
  </g>
</svg>
