<svg xmlns="http://www.w3.org/2000/svg" xmlns:xlink="http://www.w3.org/1999/xlink" width="107.999" height="108" viewBox="0 0 107.999 108">
  <defs>
    <filter id="Trazado_874925" x="0" y="0" width="107.999" height="108" filterUnits="userSpaceOnUse">
      <feOffset dy="3" input="SourceAlpha"/>
      <feGaussianBlur stdDeviation="3" result="blur"/>
      <feFlood flood-opacity="0.161"/>
      <feComposite operator="in" in2="blur"/>
      <feComposite in="SourceGraphic"/>
    </filter>
  </defs>
  <g id="Grupo_1182694" data-name="Grupo 1182694" transform="translate(-202.051 -3043.627)">
    <g id="Grupo_1181960" data-name="Grupo 1181960" transform="translate(211.051 3049.627)">
      <g id="Grupo_1111316" data-name="Grupo 1111316" transform="translate(0 0)">
        <g id="Grupo_1109835" data-name="Grupo 1109835" transform="translate(0 0)">
          <g id="Grupo_1107913" data-name="Grupo 1107913">
            <g transform="matrix(1, 0, 0, 1, -9, -6)" filter="url(#Trazado_874925)">
              <g id="Trazado_874925-2" data-name="Trazado 874925" transform="translate(9 6)" fill="#9cc8ff" opacity="0.859">
                <path d="M 44.99971771240234 88.49987030029297 C 39.12662887573242 88.49987030029297 33.43001937866211 87.34996032714844 28.06811714172363 85.08206939697266 C 22.88839340209961 82.89122009277344 18.23619270324707 79.75453186035156 14.24076747894287 75.75910949707031 C 10.2453556060791 71.76369476318359 7.108654975891113 67.11151123046875 4.917805194854736 61.9317741394043 C 2.649917602539062 56.56988525390625 1.50000524520874 50.87327194213867 1.50000524520874 45.00019836425781 C 1.50000524520874 39.1265983581543 2.649917602539062 33.42998504638672 4.917805194854736 28.0680980682373 C 7.108654975891113 22.88836097717285 10.2453556060791 18.23617172241211 14.24076747894287 14.24075984954834 C 18.23619270324707 10.24533557891846 22.88839340209961 7.10864782333374 28.06811714172363 4.917797565460205 C 33.43001937866211 2.64991021156311 39.12662887573242 1.499997615814209 44.99971771240234 1.499997615814209 C 50.87280654907227 1.499997615814209 56.56941604614258 2.64991021156311 61.93131637573242 4.917797565460205 C 67.11105346679688 7.10864782333374 71.76324462890625 10.24533557891846 75.7586669921875 14.24075984954834 C 79.75408935546875 18.23617172241211 82.89079284667969 22.88836097717285 85.08162689208984 28.0680980682373 C 87.34953308105469 33.42998504638672 88.49944305419922 39.1265983581543 88.49944305419922 44.99967193603516 C 88.49944305419922 50.87327194213867 87.34953308105469 56.56988525390625 85.08162689208984 61.9317741394043 C 82.89079284667969 67.11151123046875 79.75408935546875 71.76369476318359 75.7586669921875 75.75910949707031 C 71.76324462890625 79.75453186035156 67.11105346679688 82.89122009277344 61.93131637573242 85.08206939697266 C 56.56941604614258 87.34996032714844 50.87280654907227 88.49987030029297 44.99971771240234 88.49987030029297 Z" stroke="none"/>
                <path d="M 44.99971771240234 2.999992370605469 C 39.32847595214844 2.999992370605469 33.82846069335938 4.110038757324219 28.65244674682617 6.299308776855469 C 23.65151977539062 8.414520263671875 19.15959167480469 11.44326019287109 15.30142974853516 15.30142211914062 C 11.44329071044922 19.15956115722656 8.414535522460938 23.6514892578125 6.29931640625 28.65242004394531 C 4.11004638671875 33.82842254638672 3 39.32843399047852 3 45.00019073486328 C 3 50.67143630981445 4.11004638671875 56.17144775390625 6.29931640625 61.34745025634766 C 8.414535522460938 66.34837341308594 11.44329071044922 70.84030914306641 15.30142974853516 74.69844818115234 C 19.15957641601562 78.55659484863281 23.65151977539062 81.58533477783203 28.65244674682617 83.70054626464844 C 33.82846069335938 85.88982391357422 39.32847595214844 86.99986267089844 44.99971771240234 86.99986267089844 C 50.67095947265625 86.99986267089844 56.17097473144531 85.88982391357422 61.34698867797852 83.70054626464844 C 66.34791564941406 81.58533477783203 70.83985900878906 78.55659484863281 74.69800567626953 74.69844818115234 C 78.55614471435547 70.84030914306641 81.58489990234375 66.34837341308594 83.70011901855469 61.34745025634766 C 85.88938903808594 56.17144775390625 86.99943542480469 50.67143630981445 86.99943542480469 44.99967956542969 C 86.99943542480469 39.32843399047852 85.88938903808594 33.82842254638672 83.70011901855469 28.65242004394531 C 81.58489990234375 23.6514892578125 78.55614471435547 19.15956115722656 74.69800567626953 15.30142211914062 C 70.83984375 11.44326019287109 66.34791564941406 8.414520263671875 61.34698867797852 6.299308776855469 C 56.17097473144531 4.110038757324219 50.67095947265625 2.999992370605469 44.99971771240234 2.999992370605469 M 44.99971771240234 -7.62939453125e-06 C 69.85237121582031 -7.62939453125e-06 89.99943542480469 20.14703369140625 89.99943542480469 44.99967956542969 L 89.99943542480469 45.00019073486328 C 89.99943542480469 69.85283660888672 69.85237121582031 89.99986267089844 44.99971771240234 89.99986267089844 C 20.14706420898438 89.99986267089844 0 69.85283660888672 0 45.00019073486328 L 0 44.99967956542969 C 0 20.14703369140625 20.14706420898438 -7.62939453125e-06 44.99971771240234 -7.62939453125e-06 Z" stroke="none" fill="#fff"/>
              </g>
            </g>
            <g id="Trazado_874923" data-name="Trazado 874923" fill="none">
              <path d="M45,0A45,45,0,0,1,90,45h0A45,45,0,0,1,0,45H0A45,45,0,0,1,45,0Z" stroke="none"/>
              <path d="M 44.99971771240234 2.999992370605469 C 39.32847595214844 2.999992370605469 33.82846069335938 4.110038757324219 28.65244674682617 6.299308776855469 C 23.65151977539062 8.414520263671875 19.15959167480469 11.44326019287109 15.30142974853516 15.30142211914062 C 11.44329071044922 19.15956115722656 8.414535522460938 23.6514892578125 6.29931640625 28.65242004394531 C 4.11004638671875 33.82842254638672 3 39.32843399047852 3 45.00019073486328 C 3 50.67143630981445 4.11004638671875 56.17144775390625 6.29931640625 61.34745025634766 C 8.414535522460938 66.34837341308594 11.44329071044922 70.84030914306641 15.30142974853516 74.69844818115234 C 19.15957641601562 78.55659484863281 23.65151977539062 81.58533477783203 28.65244674682617 83.70054626464844 C 33.82846069335938 85.88982391357422 39.32847595214844 86.99986267089844 44.99971771240234 86.99986267089844 C 50.67095947265625 86.99986267089844 56.17097473144531 85.88982391357422 61.34698867797852 83.70054626464844 C 66.34791564941406 81.58533477783203 70.83985900878906 78.55659484863281 74.69800567626953 74.69844818115234 C 78.55614471435547 70.84030914306641 81.58489990234375 66.34837341308594 83.70011901855469 61.34745025634766 C 85.88938903808594 56.17144775390625 86.99943542480469 50.67143630981445 86.99943542480469 44.99967956542969 C 86.99943542480469 39.32843399047852 85.88938903808594 33.82842254638672 83.70011901855469 28.65242004394531 C 81.58489990234375 23.6514892578125 78.55614471435547 19.15956115722656 74.69800567626953 15.30142211914062 C 70.83984375 11.44326019287109 66.34791564941406 8.414520263671875 61.34698867797852 6.299308776855469 C 56.17097473144531 4.110038757324219 50.67095947265625 2.999992370605469 44.99971771240234 2.999992370605469 M 44.99971771240234 -7.62939453125e-06 C 69.85237121582031 -7.62939453125e-06 89.99943542480469 20.14703369140625 89.99943542480469 44.99967956542969 L 89.99943542480469 45.00019073486328 C 89.99943542480469 69.85283660888672 69.85237121582031 89.99986267089844 44.99971771240234 89.99986267089844 C 20.14706420898438 89.99986267089844 0 69.85283660888672 0 45.00019073486328 L 0 44.99967956542969 C 0 20.14703369140625 20.14706420898438 -7.62939453125e-06 44.99971771240234 -7.62939453125e-06 Z" stroke="none" fill="#fff"/>
            </g>
          </g>
        </g>
      </g>
    </g>
    <g id="idea_2813563" transform="translate(222.941 3061.518)">
      <g id="Grupo_1182692" data-name="Grupo 1182692" transform="translate(0.97 0.969)">
        <g id="Grupo_1182683" data-name="Grupo 1182683" transform="translate(29.25)">
          <path id="Trazado_916111" data-name="Trazado 916111" d="M236.73,16.3h-.363a2.438,2.438,0,0,1-2.432-2.271l-.27-3.933a2.438,2.438,0,0,1,2.432-2.6h.9a2.438,2.438,0,0,1,2.432,2.6l-.27,3.933A2.438,2.438,0,0,1,236.73,16.3Z" transform="translate(-233.659 -7.495)" fill="#f9f48e"/>
        </g>
        <g id="Grupo_1182684" data-name="Grupo 1182684" transform="translate(50.381 5.794)">
          <path id="Trazado_916112" data-name="Trazado 916112" d="M398.014,59.681l-.257-.257a2.438,2.438,0,0,1-.114-3.326l2.59-2.972a2.438,2.438,0,0,1,3.561-.122l.639.639a2.438,2.438,0,0,1-.122,3.561L401.34,59.8A2.438,2.438,0,0,1,398.014,59.681Z" transform="translate(-397.043 -52.291)" fill="#f9f48e"/>
        </g>
        <g id="Grupo_1182685" data-name="Grupo 1182685" transform="translate(0 29.25)">
          <path id="Trazado_916113" data-name="Trazado 916113" d="M436.394,236.726v-.363a2.438,2.438,0,0,1,2.271-2.432l3.933-.27a2.438,2.438,0,0,1,2.6,2.432v.9a2.438,2.438,0,0,1-2.6,2.432l-3.933-.27A2.438,2.438,0,0,1,436.394,236.726Z" transform="translate(-380.924 -233.655)" fill="#f9f48e"/>
          <path id="Trazado_916114" data-name="Trazado 916114" d="M16.308,236.364v.363a2.438,2.438,0,0,1-2.271,2.432l-3.933.27A2.438,2.438,0,0,1,7.5,237v-.9a2.438,2.438,0,0,1,2.6-2.432l3.933.27A2.438,2.438,0,0,1,16.308,236.364Z" transform="translate(-7.5 -233.656)" fill="#f9f48e"/>
        </g>
        <g id="Grupo_1182686" data-name="Grupo 1182686" transform="translate(5.794 5.794)">
          <path id="Trazado_916115" data-name="Trazado 916115" d="M59.685,59.423l-.257.257a2.438,2.438,0,0,1-3.326.114L53.131,57.2a2.438,2.438,0,0,1-.122-3.561L53.648,53a2.438,2.438,0,0,1,3.561.122L59.8,56.1A2.438,2.438,0,0,1,59.685,59.423Z" transform="translate(-52.295 -52.29)" fill="#f9f48e"/>
        </g>
        <g id="Grupo_1182687" data-name="Grupo 1182687" transform="translate(5.794 48.441)">
          <path id="Trazado_916116" data-name="Trazado 916116" d="M59.428,382.754l.257.257a2.438,2.438,0,0,1,.114,3.326l-2.59,2.972a2.438,2.438,0,0,1-3.561.122l-.639-.639a2.438,2.438,0,0,1,.122-3.561l2.972-2.59A2.438,2.438,0,0,1,59.428,382.754Z" transform="translate(-52.295 -382.04)" fill="#f9f48e"/>
        </g>
        <g id="Grupo_1182688" data-name="Grupo 1182688" transform="translate(50.381 48.441)">
          <path id="Trazado_916117" data-name="Trazado 916117" d="M397.757,383.01l.257-.257a2.438,2.438,0,0,1,3.326-.114l2.972,2.59a2.438,2.438,0,0,1,.122,3.561l-.639.638a2.438,2.438,0,0,1-3.561-.122l-2.59-2.972A2.438,2.438,0,0,1,397.757,383.01Z" transform="translate(-397.043 -382.039)" fill="#f9f48e"/>
        </g>
        <g id="Grupo_1182691" data-name="Grupo 1182691" transform="translate(13.554 12.601)">
          <path id="Trazado_916118" data-name="Trazado 916118" d="M139.277,147.379a7.175,7.175,0,0,1,3.921-6.434,11.441,11.441,0,0,0,6.317-9.7,161.262,161.262,0,0,0-.088-16.918,9.724,9.724,0,0,0-9.154-9.132,161.271,161.271,0,0,0-18.55,0,9.724,9.724,0,0,0-9.154,9.132,161.258,161.258,0,0,0-.088,16.918,11.441,11.441,0,0,0,6.317,9.7,7.176,7.176,0,0,1,3.921,6.434l8.758,2.8Z" transform="translate(-112.3 -104.924)" fill="#ffef4a"/>
          <path id="Trazado_916119" data-name="Trazado 916119" d="M125.617,149.845l-2.9-.927a7.177,7.177,0,0,0-3.921-6.434,11.437,11.437,0,0,1-6.317-9.7,160.839,160.839,0,0,1,.088-16.918,9.724,9.724,0,0,1,9.153-9.132c.243-.014.485-.027.728-.039-1.932,1.609-3.285,4.78-3.417,8.489q-.318,8.895-.058,17.791c.132,4.481,1.763,8.31,4.1,10.2C124.629,144.433,125.6,147.032,125.617,149.845Z" transform="translate(-112.296 -106.462)" fill="#ffd321"/>
          <path id="Trazado_916120" data-name="Trazado 916120" d="M204.631,442.407h-6.994a4.782,4.782,0,0,1-4.782-4.782v-4.441h16.557v4.441A4.782,4.782,0,0,1,204.631,442.407Z" transform="translate(-182.436 -390.729)" fill="#c3bec6"/>
          <path id="Trazado_916121" data-name="Trazado 916121" d="M202.768,442.407h-5.132a4.781,4.781,0,0,1-4.781-4.781v-4.441h5.132v4.441A4.781,4.781,0,0,0,202.768,442.407Z" transform="translate(-182.436 -390.729)" fill="#b4acb7"/>
          <g id="Grupo_1182689" data-name="Grupo 1182689" transform="translate(13.566 34.801)">
            <path id="Trazado_916122" data-name="Trazado 916122" d="M224.478,374.005h-4.316a2.973,2.973,0,0,0-2.974,2.974v4.68h10.263v-4.68A2.974,2.974,0,0,0,224.478,374.005Z" transform="translate(-217.189 -374.005)" fill="#e27d47"/>
            <path id="Trazado_916123" data-name="Trazado 916123" d="M223.87,374.006a2.973,2.973,0,0,0-2.973,2.973v4.681h-3.708v-4.681a2.973,2.973,0,0,1,2.973-2.973Z" transform="translate(-217.189 -374.006)" fill="#dd6938"/>
          </g>
          <g id="Grupo_1182690" data-name="Grupo 1182690" transform="translate(5.451 4.428)">
            <path id="Trazado_916124" data-name="Trazado 916124" d="M180.622,150.426a1.224,1.224,0,0,0-1.012-.834q-.891-.115-1.782-.176a1.232,1.232,0,0,1-1.052-.765l-.006-.014a1.232,1.232,0,0,1,.2-1.284q.586-.673,1.135-1.385a1.223,1.223,0,0,0,.125-1.305,6.353,6.353,0,0,0-2.8-2.8,1.223,1.223,0,0,0-1.305.125q-.712.548-1.385,1.135a1.232,1.232,0,0,1-1.284.2l-.014-.006a1.232,1.232,0,0,1-.765-1.052q-.061-.891-.176-1.782a1.224,1.224,0,0,0-.834-1.012,6.36,6.36,0,0,0-3.958,0,1.224,1.224,0,0,0-.834,1.012q-.115.891-.176,1.782a1.233,1.233,0,0,1-.765,1.052l-.014.006a1.232,1.232,0,0,1-1.284-.2q-.673-.586-1.385-1.135a1.223,1.223,0,0,0-1.305-.125,6.353,6.353,0,0,0-2.8,2.8,1.223,1.223,0,0,0,.125,1.305q.548.712,1.135,1.385a1.232,1.232,0,0,1,.2,1.284l-.006.014a1.232,1.232,0,0,1-1.052.765q-.891.061-1.782.176a1.224,1.224,0,0,0-1.012.834,6.359,6.359,0,0,0,0,3.958,1.224,1.224,0,0,0,1.012.834q.891.115,1.782.176a1.233,1.233,0,0,1,1.052.765l.006.014a1.232,1.232,0,0,1-.2,1.284q-.586.673-1.135,1.385a1.223,1.223,0,0,0-.125,1.305,6.353,6.353,0,0,0,2.8,2.8,1.223,1.223,0,0,0,1.305-.125q.712-.548,1.385-1.135a1.232,1.232,0,0,1,1.284-.2l.014.006a1.233,1.233,0,0,1,.765,1.052q.061.891.176,1.782a1.224,1.224,0,0,0,.834,1.012,6.359,6.359,0,0,0,3.958,0,1.224,1.224,0,0,0,.834-1.012q.115-.891.176-1.782a1.232,1.232,0,0,1,.765-1.052l.014-.006a1.232,1.232,0,0,1,1.284.2q.673.586,1.385,1.135a1.223,1.223,0,0,0,1.305.125,6.353,6.353,0,0,0,2.8-2.8,1.223,1.223,0,0,0-.125-1.305q-.548-.712-1.135-1.385a1.232,1.232,0,0,1-.2-1.284l.006-.014a1.233,1.233,0,0,1,1.052-.765q.891-.061,1.782-.176a1.224,1.224,0,0,0,1.012-.834A6.359,6.359,0,0,0,180.622,150.426Zm-12.931,7.366a5.387,5.387,0,1,1,5.387-5.387A5.387,5.387,0,0,1,167.691,157.792Z" transform="translate(-154.445 -139.159)" fill="#f9f6f9"/>
            <path id="Trazado_916125" data-name="Trazado 916125" d="M158.615,161.012a1.318,1.318,0,0,1,.125-1.36q.548-.742,1.135-1.443a1.326,1.326,0,0,0,.2-1.338c0-.005,0-.01-.006-.016a1.239,1.239,0,0,0-1.052-.8q-.891-.063-1.783-.184a1.237,1.237,0,0,1-1.012-.869,6.892,6.892,0,0,1,0-4.125,1.237,1.237,0,0,1,1.012-.869q.892-.12,1.783-.184a1.239,1.239,0,0,0,1.052-.8c0-.005,0-.01.006-.016a1.326,1.326,0,0,0-.2-1.338q-.586-.7-1.135-1.443a1.318,1.318,0,0,1-.125-1.36,6.512,6.512,0,0,1,2.21-2.561,1.21,1.21,0,0,0-.877.088,6.351,6.351,0,0,0-2.8,2.8,1.223,1.223,0,0,0,.125,1.305q.548.712,1.135,1.385a1.232,1.232,0,0,1,.2,1.284l-.006.014a1.232,1.232,0,0,1-1.051.765q-.891.061-1.783.176a1.224,1.224,0,0,0-1.012.834,6.36,6.36,0,0,0,0,3.959,1.224,1.224,0,0,0,1.012.834q.892.115,1.783.176a1.232,1.232,0,0,1,1.051.765l.006.014a1.232,1.232,0,0,1-.2,1.284q-.585.673-1.135,1.385a1.223,1.223,0,0,0-.125,1.305,6.351,6.351,0,0,0,2.8,2.8,1.21,1.21,0,0,0,.877.088A6.512,6.512,0,0,1,158.615,161.012Zm7.729,4.351q-.115-.929-.176-1.858a1.281,1.281,0,0,0-.765-1.1l-.014-.006a1.2,1.2,0,0,0-.953,0,1.215,1.215,0,0,1,.266.678q.061.891.176,1.783a1.224,1.224,0,0,0,.834,1.012,6.775,6.775,0,0,0,.982.236,1.31,1.31,0,0,1-.351-.746Zm-.632-25.351a1.224,1.224,0,0,0-.834,1.012q-.115.892-.176,1.783a1.215,1.215,0,0,1-.266.678,1.2,1.2,0,0,0,.953,0l.014-.006a1.281,1.281,0,0,0,.765-1.1q.061-.928.176-1.858a1.31,1.31,0,0,1,.351-.746A6.76,6.76,0,0,0,165.712,140.011Z" transform="translate(-154.445 -139.695)" fill="#e2dfe2"/>
          </g>
        </g>
      </g>
      <g id="Grupo_1182693" data-name="Grupo 1182693" transform="translate(0 0)">
        <path id="Trazado_916126" data-name="Trazado 916126" d="M143.973,109.7a.97.97,0,1,0-1.938.088c.225,4.942.221,9.952-.012,14.891a10.493,10.493,0,0,1-5.783,8.882,8.182,8.182,0,0,0-4.4,6.332h-1.267V136.18a3.948,3.948,0,0,0-3.944-3.944h-4.316a3.948,3.948,0,0,0-3.944,3.944v3.711h-1.267a8.182,8.182,0,0,0-4.4-6.332,10.492,10.492,0,0,1-5.783-8.882,161.345,161.345,0,0,1,.087-16.816,8.747,8.747,0,0,1,8.242-8.22,161.206,161.206,0,0,1,18.439,0,8.731,8.731,0,0,1,7.967,6.494.97.97,0,1,0,1.876-.495,10.667,10.667,0,0,0-9.731-7.937,163.1,163.1,0,0,0-18.662,0,10.687,10.687,0,0,0-10.067,10.045,163.245,163.245,0,0,0-.088,17.02,12.433,12.433,0,0,0,6.853,10.526,6.245,6.245,0,0,1,3.384,5.567V145.3a5.738,5.738,0,0,0,1.518,3.894.97.97,0,1,0,1.428-1.313,3.806,3.806,0,0,1-.881-1.611h14.367a3.819,3.819,0,0,1-3.687,2.842h-7.02a.97.97,0,1,0,0,1.94h7.02a5.759,5.759,0,0,0,5.753-5.751v-4.441a6.245,6.245,0,0,1,3.384-5.567,12.434,12.434,0,0,0,6.853-10.526C144.2,119.77,144.2,114.7,143.973,109.7ZM120.313,136.18a2.006,2.006,0,0,1,2-2h4.316a2.006,2.006,0,0,1,2,2v3.71h-8.323v-3.71Zm11.471,8.152H117.165v-2.5h14.619Z" transform="translate(-91.253 -84.835)"/>
        <path id="Trazado_916127" data-name="Trazado 916127" d="M214.07,192.432a6.357,6.357,0,1,0,6.357,6.357A6.364,6.364,0,0,0,214.07,192.432Zm0,10.774a4.417,4.417,0,1,1,4.417-4.417A4.422,4.422,0,0,1,214.07,203.206Z" transform="translate(-180.849 -167.544)"/>
        <path id="Trazado_916128" data-name="Trazado 916128" d="M171.365,149.839c.612-.042,1.231-.1,1.841-.182a2.2,2.2,0,0,0,1.811-1.5h0a7.331,7.331,0,0,0,0-4.549,2.2,2.2,0,0,0-1.811-1.5c-.609-.079-1.228-.14-1.84-.182a.262.262,0,0,1-.222-.167l-.006-.016a.263.263,0,0,1,.038-.275c.4-.463.8-.944,1.173-1.43a2.2,2.2,0,0,0,.219-2.342,7.332,7.332,0,0,0-3.216-3.216,2.2,2.2,0,0,0-2.342.219c-.487.375-.968.77-1.43,1.173a.262.262,0,0,1-.275.038l-.016-.007a.262.262,0,0,1-.167-.221c-.042-.611-.1-1.23-.182-1.84a2.2,2.2,0,0,0-1.5-1.811,7.332,7.332,0,0,0-4.548,0,2.2,2.2,0,0,0-1.5,1.811c-.079.609-.14,1.228-.182,1.841a.262.262,0,0,1-.167.221l-.016.007a.262.262,0,0,1-.275-.038c-.463-.4-.945-.8-1.43-1.173a2.2,2.2,0,0,0-2.342-.219,7.333,7.333,0,0,0-3.216,3.216,2.2,2.2,0,0,0,.219,2.342c.375.486.769.967,1.172,1.43a.26.26,0,0,1,.041.268l-.009.023a.262.262,0,0,1-.221.167c-.612.042-1.231.1-1.84.182a2.2,2.2,0,0,0-1.811,1.5,7.332,7.332,0,0,0,0,4.548,2.2,2.2,0,0,0,1.811,1.5c.609.079,1.228.14,1.84.182a.262.262,0,0,1,.221.167l.006.016a.262.262,0,0,1-.038.275c-.4.463-.8.944-1.173,1.43a2.2,2.2,0,0,0-.219,2.342,7.333,7.333,0,0,0,3.216,3.216,2.2,2.2,0,0,0,2.342-.219c.486-.374.967-.769,1.43-1.173a.263.263,0,0,1,.276-.038l.016.006a.262.262,0,0,1,.167.221c.042.613.1,1.232.182,1.84a2.2,2.2,0,0,0,1.5,1.811,7.332,7.332,0,0,0,4.548,0,2.2,2.2,0,0,0,1.5-1.811c.079-.611.14-1.23.182-1.84a.262.262,0,0,1,.167-.221l.016-.006a.262.262,0,0,1,.275.038c.462.4.944.8,1.43,1.173a2.2,2.2,0,0,0,2.342.219,7.332,7.332,0,0,0,3.216-3.216,2.2,2.2,0,0,0-.219-2.342c-.375-.486-.769-.968-1.173-1.43a.261.261,0,0,1-.04-.272l.008-.019a.262.262,0,0,1,.222-.167Zm-2.014-.573-.005.013a2.191,2.191,0,0,0,.367,2.293c.378.434.748.885,1.1,1.34a.253.253,0,0,1,.031.268,5.357,5.357,0,0,1-2.381,2.381.253.253,0,0,1-.268-.031c-.456-.352-.907-.721-1.34-1.1a2.191,2.191,0,0,0-2.293-.367l-.013.005a2.19,2.19,0,0,0-1.362,1.881c-.039.572-.1,1.153-.171,1.725a.253.253,0,0,1-.168.212,5.356,5.356,0,0,1-3.367,0,.253.253,0,0,1-.168-.212c-.074-.57-.131-1.151-.171-1.725a2.19,2.19,0,0,0-1.362-1.881l-.013-.005a2.232,2.232,0,0,0-.857-.172,2.18,2.18,0,0,0-1.436.539c-.434.378-.885.748-1.34,1.1a.253.253,0,0,1-.268.031,5.358,5.358,0,0,1-2.381-2.381.254.254,0,0,1,.031-.268c.351-.456.721-.907,1.1-1.341a2.191,2.191,0,0,0,.367-2.293l-.005-.013a2.19,2.19,0,0,0-1.881-1.362c-.574-.04-1.154-.1-1.725-.171a.253.253,0,0,1-.212-.168,5.357,5.357,0,0,1,0-3.368.253.253,0,0,1,.212-.168c.571-.074,1.151-.131,1.725-.171a2.187,2.187,0,0,0,1.878-1.354l.009-.021a2.19,2.19,0,0,0-.367-2.293c-.378-.434-.748-.885-1.1-1.34a.253.253,0,0,1-.031-.269,5.358,5.358,0,0,1,2.381-2.381.253.253,0,0,1,.268.031c.455.351.906.721,1.34,1.1a2.191,2.191,0,0,0,2.293.367l.013-.005a2.19,2.19,0,0,0,1.362-1.881c.04-.574.1-1.155.171-1.725a.253.253,0,0,1,.168-.212,5.357,5.357,0,0,1,3.368,0,.253.253,0,0,1,.168.212c.074.572.132,1.153.171,1.725a2.186,2.186,0,0,0,1.352,1.877l.023.009a2.19,2.19,0,0,0,2.293-.367c.433-.378.884-.747,1.34-1.1a.253.253,0,0,1,.268-.031,5.357,5.357,0,0,1,2.381,2.381.253.253,0,0,1-.031.269c-.351.456-.721.907-1.1,1.34a2.191,2.191,0,0,0-.367,2.294l0,.012a2.19,2.19,0,0,0,1.881,1.362c.574.039,1.154.1,1.725.171a.253.253,0,0,1,.212.168,5.357,5.357,0,0,1,0,3.367.253.253,0,0,1-.212.168c-.571.074-1.151.131-1.725.171a2.191,2.191,0,0,0-1.881,1.362Z" transform="translate(-127.941 -114.636)"/>
        <path id="Trazado_916129" data-name="Trazado 916129" d="M226.44,7.574a3.418,3.418,0,0,0,3.4,3.175h.364a3.418,3.418,0,0,0,3.4-3.175l.27-3.933A3.407,3.407,0,0,0,230.472,0h-.9a3.408,3.408,0,0,0-3.4,3.641ZM228.5,2.406a1.453,1.453,0,0,1,1.073-.466h.9a1.468,1.468,0,0,1,1.464,1.568l-.27,3.933A1.472,1.472,0,0,1,230.2,8.808h-.364a1.472,1.472,0,0,1-1.464-1.367l-.27-3.933a1.454,1.454,0,0,1,.392-1.1Z" transform="translate(-196.912 0)"/>
        <path id="Trazado_916130" data-name="Trazado 916130" d="M390.825,53.84a3.418,3.418,0,0,0,4.649.159l2.972-2.59a3.408,3.408,0,0,0,.171-4.979l-.639-.639a3.408,3.408,0,0,0-4.978.171l-2.59,2.972a3.418,3.418,0,0,0,.159,4.649Zm1.046-3.631,2.59-2.972a1.468,1.468,0,0,1,2.144-.073l.639.639a1.468,1.468,0,0,1-.073,2.144l-2.972,2.59a1.472,1.472,0,0,1-2-.069l-.257-.257A1.472,1.472,0,0,1,391.872,50.209Z" transform="translate(-339.189 -39)"/>
        <path id="Trazado_916131" data-name="Trazado 916131" d="M438.56,227.079A3.419,3.419,0,0,0,436,226.17l-3.933.27a3.418,3.418,0,0,0-3.175,3.4v.363a3.418,3.418,0,0,0,3.174,3.4l3.933.27q.116.008.231.008a3.407,3.407,0,0,0,3.41-3.408v-.9A3.42,3.42,0,0,0,438.56,227.079Zm-.858,3.394a1.468,1.468,0,0,1-1.568,1.464l-3.933-.27a1.472,1.472,0,0,1-1.367-1.464v-.363a1.472,1.472,0,0,1,1.367-1.464l3.933-.27q.052,0,.1,0a1.468,1.468,0,0,1,1.464,1.468v.9Z" transform="translate(-373.424 -196.912)"/>
        <path id="Trazado_916132" data-name="Trazado 916132" d="M10.748,230.2v-.363a3.418,3.418,0,0,0-3.174-3.4l-3.933-.27A3.408,3.408,0,0,0,0,229.569v.9a3.407,3.407,0,0,0,3.41,3.408q.115,0,.231-.008l3.933-.27a3.418,3.418,0,0,0,3.175-3.4Zm-7.24,1.734a1.468,1.468,0,0,1-1.568-1.464v-.9A1.468,1.468,0,0,1,3.4,228.1c.035,0,.069,0,.1,0l3.933.27a1.472,1.472,0,0,1,1.367,1.464v.363a1.472,1.472,0,0,1-1.367,1.464Z" transform="translate(0 -196.911)"/>
        <path id="Trazado_916133" data-name="Trazado 916133" d="M45.963,51.41,48.935,54a3.418,3.418,0,0,0,4.649-.159l.257-.257A3.418,3.418,0,0,0,54,48.935l-2.59-2.972a3.408,3.408,0,0,0-4.979-.171l-.639.639a3.408,3.408,0,0,0,.171,4.979Zm1.2-3.607.638-.638a1.452,1.452,0,0,1,1.036-.43h.052a1.453,1.453,0,0,1,1.056.5l2.59,2.972a1.472,1.472,0,0,1-.069,2l-.257.257a1.472,1.472,0,0,1-2,.069l-2.972-2.59a1.468,1.468,0,0,1-.073-2.144Z" transform="translate(-39.001 -39.001)"/>
        <path id="Trazado_916134" data-name="Trazado 916134" d="M53.584,375.566a3.418,3.418,0,0,0-4.649-.159L45.963,378a3.408,3.408,0,0,0-.171,4.979l.639.639a3.421,3.421,0,0,0,2.411,1l.115,0a3.419,3.419,0,0,0,2.452-1.167L54,380.472a3.418,3.418,0,0,0-.159-4.649ZM52.537,379.2l-2.59,2.972a1.468,1.468,0,0,1-2.144.073l-.639-.639a1.468,1.468,0,0,1,.073-2.144l2.972-2.59a1.472,1.472,0,0,1,2,.069l.257.257a1.472,1.472,0,0,1,.069,2Z" transform="translate(-39.001 -326.127)"/>
        <path id="Trazado_916135" data-name="Trazado 916135" d="M398.444,378l-2.972-2.59a3.418,3.418,0,0,0-4.649.159l-.257.257a3.418,3.418,0,0,0-.159,4.649l2.59,2.972a3.419,3.419,0,0,0,2.452,1.167l.116,0a3.421,3.421,0,0,0,2.411-1l.639-.638a3.408,3.408,0,0,0-.171-4.979Zm-1.2,3.607-.638.638a1.468,1.468,0,0,1-2.144-.073l-2.59-2.972a1.472,1.472,0,0,1,.069-2l.257-.257a1.472,1.472,0,0,1,2-.069l2.972,2.59a1.468,1.468,0,0,1,.073,2.144Z" transform="translate(-339.188 -326.128)"/>
      </g>
    </g>
  </g>
</svg>
