<svg xmlns="http://www.w3.org/2000/svg" width="85" height="85" viewBox="0 0 85 85">
  <g id="Grupo_1182454" data-name="Grupo 1182454" transform="translate(-180 -3500.543)">
    <g id="Grupo_1181921" data-name="Grupo 1181921" transform="translate(16445.764 12520.068)">
      <g id="Grupo_1112415" data-name="Grupo 1112415" transform="translate(-16265.764 -9019.525)">
        <g id="Grupo_1098742" data-name="Grupo 1098742" transform="translate(0 0)">
          <g id="Rect치ngulo_400898" data-name="Rect치ngulo 400898" transform="translate(0.001 0)" fill="#ffea99" stroke="#997b00" stroke-width="3">
            <rect width="85" height="85" rx="42.5" stroke="none"/>
            <rect x="1.5" y="1.5" width="82" height="82" rx="41" fill="none"/>
          </g>
          <g id="Rect치ngulo_400907" data-name="Rect치ngulo 400907" transform="translate(0 0)" fill="none" stroke="#997b00" stroke-width="3">
            <rect width="85" height="85" rx="42.5" stroke="none"/>
            <rect x="1.5" y="1.5" width="82" height="82" rx="41" fill="none"/>
          </g>
        </g>
      </g>
    </g>
    <g id="Layer_x0020_1" transform="translate(182.178 3501.299)">
      <g id="_277258712" transform="translate(9.139 11.516)">
        <g id="Grupo_1182452" data-name="Grupo 1182452" transform="translate(0.683 0.682)">
          <path id="_277263104" d="M37.338,42.946l1.471-4.227c1.721.211,3.522-.457,5.154-.93.941-.273,1.79-.541,2.577-.781l1.379,4.323c-.766.212-1.884.452-2.728.7-2.727.79-4.993,1.55-7.853.919Z" transform="translate(-26.683 -27.44)" fill="#f4af19"/>
          <path id="_277262360" d="M109.743,41.33l1.379-4.323c.787.24,1.636.509,2.577.781,1.632.473,3.433,1.14,5.154.93l1.471,4.227c-2.86.631-5.126-.129-7.853-.919C111.627,41.782,110.509,41.542,109.743,41.33Z" transform="translate(-69.977 -27.44)" fill="#f4af19"/>
          <path id="_277262216" d="M84.5,132.267H75.47v-9.111H84.5Z" transform="translate(-49.483 -78.952)" fill="#be694f" fill-rule="evenodd"/>
          <path id="_277262072" d="M75.47,55.445H84.5V75.655H75.47Z" transform="translate(-49.483 -38.465)" fill="#be694f" fill-rule="evenodd"/>
          <rect id="_277262552" width="21.315" height="18.15" rx="9.075" transform="translate(19.844)" fill="#29af5c"/>
          <g id="Grupo_1182449" data-name="Grupo 1182449" transform="translate(49.882 22.689)">
            <path id="_277262240" d="M137.291,80.308q-4.777-5.331,0-10.663Q142.068,74.977,137.291,80.308Z" transform="translate(-134.903 -69.645)" fill="#29af5c" fill-rule="evenodd"/>
            <path id="_277261472" d="M139.149,84.193a.681.681,0,0,0,1.362,0V77.25a.681.681,0,0,0-1.362,0Z" transform="translate(-137.442 -73.785)" fill="#26874a"/>
          </g>
          <g id="Grupo_1182450" data-name="Grupo 1182450" transform="translate(6.343 22.689)">
            <path id="_277261232" d="M29,80.308q-4.777-5.331,0-10.663Q33.779,74.977,29,80.308Z" transform="translate(-26.614 -69.645)" fill="#29af5c" fill-rule="evenodd"/>
            <path id="_277261856" d="M30.861,84.193a.681.681,0,0,0,1.362,0V77.25a.681.681,0,0,0-1.362,0Z" transform="translate(-29.154 -73.785)" fill="#26874a"/>
          </g>
          <path id="_277261496" d="M73.362,113.407h9.029a5.931,5.931,0,0,0,0-7.695H73.362a5.931,5.931,0,0,0,0,7.695Z" transform="translate(-47.376 -68.521)" fill="#f4af19" fill-rule="evenodd"/>
          <path id="_277261808" d="M76.695,144.123H55.337a3.238,3.238,0,0,0-3.229,3.229v3.229H79.924v-3.229A3.238,3.238,0,0,0,76.695,144.123Z" transform="translate(-35.515 -91.489)" fill="#f4af19" fill-rule="evenodd"/>
          <path id="_277261040" d="M119.125,93.97h17.464V94.2a8.757,8.757,0,0,1-8.732,8.732h0a8.757,8.757,0,0,1-8.732-8.732Z" transform="translate(-75.586 -61.5)" fill="#be694f" fill-rule="evenodd"/>
          <path id="_277260728" d="M10.837,93.97H28.3V94.2a8.757,8.757,0,0,1-8.732,8.732h0A8.757,8.757,0,0,1,10.837,94.2Z" transform="translate(-10.837 -61.5)" fill="#be694f" fill-rule="evenodd"/>
          <path id="_277260560" d="M86.7,35.332q.082-6.987,7.069-7.069Q93.686,35.25,86.7,35.332Z" transform="translate(-56.197 -22.212)" fill="#a3e261" fill-rule="evenodd"/>
          <path id="_277260632" d="M76.185,35.332q-.082-6.987-7.069-7.069Q69.2,35.25,76.185,35.332Z" transform="translate(-45.684 -22.212)" fill="#a3e261" fill-rule="evenodd"/>
          <path id="_277260800" d="M78.9,38.044q-.006-.527-.052-1.015L74.813,33a.681.681,0,0,0-.963.963l4.032,4.032Q78.37,38.037,78.9,38.044Z" transform="translate(-48.396 -24.924)" fill="#89bc54" fill-rule="evenodd"/>
          <path id="_277260200" d="M86.7,38.044q.006-.527.052-1.015L90.782,33a.681.681,0,0,1,.963.963l-4.032,4.032Q87.226,38.037,86.7,38.044Z" transform="translate(-56.197 -24.924)" fill="#89bc54" fill-rule="evenodd"/>
          <g id="Grupo_1182451" data-name="Grupo 1182451" transform="translate(5.136 8.871)">
            <circle id="_277259936" cx="3.596" cy="3.596" r="3.596" fill="#be694f"/>
            <circle id="_277259888" cx="3.596" cy="3.596" r="3.596" transform="translate(43.539)" fill="#be694f"/>
          </g>
        </g>
        <g id="Grupo_1182453" data-name="Grupo 1182453">
          <path id="_277259744" d="M51.775,148.89H78.23v-2.548a2.551,2.551,0,0,0-2.548-2.549H54.323a2.551,2.551,0,0,0-2.548,2.549Zm27.135,1.362H51.095a.681.681,0,0,1-.681-.681v-3.228a3.914,3.914,0,0,1,3.909-3.91h21.36a3.914,3.914,0,0,1,3.909,3.91v3.228a.681.681,0,0,1-.681.681Z" transform="translate(-33.818 -89.796)" fill-rule="evenodd"/>
          <path id="_277260272" d="M83.487,132.269a.681.681,0,0,1-.681-.681V124.52H75.137v7.069a.681.681,0,0,1-1.362,0v-7.75a.681.681,0,0,1,.681-.681h9.031a.681.681,0,0,1,.681.681v7.75a.681.681,0,0,1-.681.681Z" transform="translate(-47.787 -78.271)" fill-rule="evenodd"/>
          <path id="_277260104" d="M72.35,113.077a.681.681,0,0,1-.519-.239,6.612,6.612,0,0,1,0-8.579.681.681,0,0,1,1.037.884,5.248,5.248,0,0,0,0,6.811.681.681,0,0,1-.517,1.123Zm9.028,0a.681.681,0,0,1-.518-1.123,5.25,5.25,0,0,0,0-6.811.681.681,0,1,1,1.035-.884,6.612,6.612,0,0,1,0,8.579A.681.681,0,0,1,81.378,113.077Z" transform="translate(-45.679 -66.827)" fill-rule="evenodd"/>
          <path id="_277259840" d="M83.487,76.336H74.455a.681.681,0,0,1-.681-.681V56.124a.681.681,0,1,1,1.361,0v18.85h7.669V56.124a.681.681,0,1,1,1.361,0V75.655a.681.681,0,0,1-.681.681Z" transform="translate(-47.787 -37.782)" fill-rule="evenodd"/>
          <path id="_277259792" d="M117.171,38.424a13.978,13.978,0,0,1-3.967-.786c-.238-.072-.474-.143-.7-.21-.7-.2-1.333-.4-1.949-.588l-.638-.2a.681.681,0,1,1,.4-1.3l.642.2c.61.188,1.24.383,1.926.581.237.069.478.141.721.215a10.589,10.589,0,0,0,4.162.693.681.681,0,1,1,.165,1.352A6.189,6.189,0,0,1,117.171,38.424Zm0,4.424a18.977,18.977,0,0,1-5.4-1.035l-.5-.147c-.453-.131-.993-.263-1.516-.39-.438-.106-.851-.207-1.2-.3a.681.681,0,1,1,.363-1.312c.332.092.736.19,1.163.294.536.131,1.092.266,1.573.405l.508.148c2.513.734,4.5,1.315,7.009.76a.681.681,0,1,1,.292,1.33,10.505,10.505,0,0,1-2.284.252Z" transform="translate(-68.281 -25.744)" fill-rule="evenodd"/>
          <path id="_277260296" d="M134.485,34.943a2.915,2.915,0,1,0,2.915,2.915,2.919,2.919,0,0,0-2.915-2.915Zm0,7.192a4.277,4.277,0,1,1,4.276-4.277A4.282,4.282,0,0,1,134.485,42.135Z" transform="translate(-81.53 -24.71)" fill-rule="evenodd"/>
          <path id="_277259816" d="M38.465,38.424a6.2,6.2,0,0,1-.753-.044.681.681,0,0,1,.165-1.352,10.593,10.593,0,0,0,4.162-.693c.243-.074.484-.146.721-.215.684-.2,1.312-.392,1.92-.579l.648-.2a.681.681,0,0,1,.4,1.3l-.644.2c-.614.189-1.248.385-1.943.586-.231.067-.467.139-.7.211A13.987,13.987,0,0,1,38.465,38.424Zm0,4.424a10.511,10.511,0,0,1-2.284-.252.681.681,0,1,1,.292-1.33c2.512.554,4.5-.026,7.01-.76l.508-.148c.481-.139,1.037-.274,1.574-.405.426-.1.83-.2,1.162-.294a.681.681,0,1,1,.363,1.312c-.353.1-.766.2-1.2.3-.522.127-1.064.259-1.516.39l-.5.147a19,19,0,0,1-5.4,1.035Z" transform="translate(-24.986 -25.744)" fill-rule="evenodd"/>
          <path id="_277259120" d="M26.193,34.943a2.915,2.915,0,1,0,2.915,2.915A2.919,2.919,0,0,0,26.193,34.943Zm0,7.192a4.277,4.277,0,1,1,4.276-4.277A4.281,4.281,0,0,1,26.193,42.135Z" transform="translate(-16.779 -24.71)" fill-rule="evenodd"/>
          <path id="_277258880" d="M27.287,69.238a.683.683,0,0,1-.6-.361L18.553,53.6,10.422,68.877a.681.681,0,1,1-1.2-.64L17.952,51.83a.681.681,0,0,1,1.2,0l8.732,16.408a.681.681,0,0,1-.6,1Z" transform="translate(-9.139 -35.405)" fill-rule="evenodd"/>
          <path id="_277258832" d="M10.513,93.639a8.052,8.052,0,0,0,16.079,0Zm8.039,8.967a9.424,9.424,0,0,1-9.414-9.413v-.235a.681.681,0,0,1,.681-.681H27.284a.681.681,0,0,1,.681.681v.235a9.424,9.424,0,0,1-9.413,9.413Z" transform="translate(-9.139 -59.806)" fill-rule="evenodd"/>
          <path id="_277258928" d="M68.253,12.878a8.395,8.395,0,1,0,0,16.789h3.165a8.395,8.395,0,1,0,0-16.789Zm3.165,18.151H68.253a9.756,9.756,0,1,1,0-19.513h3.165a9.756,9.756,0,1,1,0,19.513Z" transform="translate(-38.651 -11.516)" fill-rule="evenodd"/>
          <path id="_277259360" d="M92.048,27.957c-3.591.246-5.406,2.061-5.652,5.652,3.591-.246,5.406-2.061,5.652-5.652ZM85.688,35a.679.679,0,0,1-.681-.689c.058-5.007,2.735-7.684,7.742-7.743h.008a.682.682,0,0,1,.681.689C93.378,32.262,90.7,34.939,85.695,35Z" transform="translate(-54.503 -20.515)" fill-rule="evenodd"/>
          <path id="_277258808" d="M85.687,38.722a.681.681,0,0,1-.482-1.162l4.566-4.565a.681.681,0,0,1,.963.963l-4.566,4.565A.68.68,0,0,1,85.687,38.722Z" transform="translate(-54.503 -24.24)" fill-rule="evenodd"/>
          <path id="_277259288" d="M68.811,27.957c.247,3.591,2.061,5.406,5.652,5.652-.247-3.591-2.061-5.406-5.652-5.652ZM75.173,35h-.009c-5.007-.059-7.684-2.736-7.743-7.743a.682.682,0,0,1,.689-.689c5.006.059,7.683,2.736,7.743,7.743a.687.687,0,0,1-.2.489.679.679,0,0,1-.481.2Z" transform="translate(-43.988 -20.516)" fill-rule="evenodd"/>
          <path id="_277259192" d="M78.9,38.722a.681.681,0,0,1-.482-.2l-4.566-4.565a.681.681,0,1,1,.963-.963l4.566,4.565a.681.681,0,0,1-.481,1.162Z" transform="translate(-47.712 -24.24)" fill-rule="evenodd"/>
          <path id="_277259168" d="M27.58,69.636c-2.294,2.639-2.294,5.135,0,7.774C29.872,74.771,29.872,72.274,27.58,69.636Zm0,9.458a.685.685,0,0,1-.488-.205c-3.428-3.51-3.428-7.222,0-10.732a.681.681,0,0,1,.974,0c3.43,3.51,3.43,7.222,0,10.732A.679.679,0,0,1,27.58,79.094Z" transform="translate(-18.336 -45.261)" fill-rule="evenodd"/>
          <path id="_277259144" d="M31.117,84.246a.681.681,0,0,1-.681-.681V77.25a.681.681,0,1,1,1.361,0v6.316A.681.681,0,0,1,31.117,84.246Z" transform="translate(-21.873 -50.413)" fill-rule="evenodd"/>
          <path id="_277258544" d="M135.579,69.238a.68.68,0,0,1-.6-.361L126.846,53.6l-8.132,15.278a.681.681,0,1,1-1.2-.64l8.732-16.408a.681.681,0,0,1,1.2,0l8.732,16.408a.681.681,0,0,1-.6,1Z" transform="translate(-73.892 -35.405)" fill-rule="evenodd"/>
          <path id="_277258112" d="M118.807,93.639a8.052,8.052,0,0,0,16.079,0Zm8.04,8.967a9.424,9.424,0,0,1-9.413-9.413v-.235a.681.681,0,0,1,.681-.681H135.58a.681.681,0,0,1,.681.681v.235A9.424,9.424,0,0,1,126.847,102.606Z" transform="translate(-73.892 -59.806)" fill-rule="evenodd"/>
          <path id="_277258496" d="M136.3,69.636c-2.292,2.639-2.292,5.135,0,7.774C138.589,74.771,138.589,72.274,136.3,69.636Zm0,9.458a.68.68,0,0,1-.487-.205c-3.43-3.51-3.43-7.222,0-10.732a.681.681,0,0,1,.974,0c3.428,3.51,3.428,7.222,0,10.732A.682.682,0,0,1,136.3,79.094Z" transform="translate(-83.341 -45.261)" fill-rule="evenodd"/>
          <path id="_277258208" d="M139.832,84.246a.681.681,0,0,1-.681-.681V77.25a.681.681,0,1,1,1.362,0v6.316A.681.681,0,0,1,139.832,84.246Z" transform="translate(-86.878 -50.413)" fill-rule="evenodd"/>
        </g>
      </g>
    </g>
  </g>
</svg>
