<svg xmlns="http://www.w3.org/2000/svg" xmlns:xlink="http://www.w3.org/1999/xlink" width="118" height="118" viewBox="0 0 118 118">
  <defs>
    <filter id="Trazado_896985" x="0" y="0" width="118" height="118" filterUnits="userSpaceOnUse">
      <feOffset dy="3" input="SourceAlpha"/>
      <feGaussianBlur stdDeviation="3" result="blur"/>
      <feFlood flood-opacity="0.161"/>
      <feComposite operator="in" in2="blur"/>
      <feComposite in="SourceGraphic"/>
    </filter>
  </defs>
  <g id="Grupo_1182391" data-name="Grupo 1182391" transform="translate(-899.051 -4328.475)">
    <g id="Grupo_1181848" data-name="Grupo 1181848" transform="translate(908.051 4334.475)">
      <g id="Grupo_1111318" data-name="Grupo 1111318" transform="translate(0)">
        <g id="Grupo_1109826" data-name="Grupo 1109826" transform="translate(0 0)">
          <g id="Grupo_1098742" data-name="Grupo 1098742">
            <g transform="matrix(1, 0, 0, 1, -9, -6)" filter="url(#Trazado_896985)">
              <g id="Trazado_896985-2" data-name="Trazado 896985" transform="translate(9 6)" fill="#9ad354" opacity="0.859">
                <path d="M 49.99993515014648 98.5 C 43.45182037353516 98.5 37.10037612915039 97.21788024902344 31.12203598022461 94.68925476074219 C 25.34687805175781 92.24656677246094 20.15993499755859 88.74932098388672 15.70530700683594 84.29469299316406 C 11.25067806243896 79.84006500244141 7.753435134887695 74.65312194824219 5.310749530792236 68.87796783447266 C 2.782120943069458 62.89962387084961 1.500006556510925 56.54818344116211 1.500006556510925 50.00006866455078 C 1.500006556510925 43.45180892944336 2.782120943069458 37.10036849975586 5.310749530792236 31.12202453613281 C 7.753435134887695 25.34686851501465 11.25067806243896 20.15992546081543 15.70530700683594 15.70529651641846 C 20.15993499755859 11.25066757202148 25.34687805175781 7.753424644470215 31.12203598022461 5.310739040374756 C 37.10037612915039 2.782110452651978 43.45182037353516 1.499996185302734 49.99993515014648 1.499996185302734 C 56.54804992675781 1.499996185302734 62.89949417114258 2.782110452651978 68.87783813476562 5.310739040374756 C 74.65299224853516 7.753424644470215 79.83993530273438 11.25066757202148 84.29457855224609 15.70529651641846 C 88.74920654296875 20.15992546081543 92.24643707275391 25.34686851501465 94.68911743164062 31.12202453613281 C 97.21775054931641 37.10036849975586 98.4998779296875 43.45180892944336 98.4998779296875 49.99992370605469 C 98.4998779296875 56.54818344116211 97.21775054931641 62.89962387084961 94.68911743164062 68.87796783447266 C 92.24643707275391 74.65312194824219 88.74920654296875 79.84006500244141 84.29457855224609 84.29469299316406 C 79.83993530273438 88.74932098388672 74.65299224853516 92.24656677246094 68.87783813476562 94.68925476074219 C 62.89949417114258 97.21788024902344 56.54804992675781 98.5 49.99993515014648 98.5 Z" stroke="none"/>
                <path d="M 49.99993515014648 2.999992370605469 C 43.65365982055664 2.999992370605469 37.49881362915039 4.242256164550781 31.70636749267578 6.6922607421875 C 26.10999298095703 9.059318542480469 21.08332061767578 12.44859313964844 16.76596832275391 16.76596832275391 C 12.44859313964844 21.08332061767578 9.059318542480469 26.10999298095703 6.6922607421875 31.70636749267578 C 4.242256164550781 37.49880981445312 3 43.65365600585938 3 50.00005722045898 C 3 56.34633636474609 4.242256164550781 62.50118255615234 6.6922607421875 68.29362487792969 C 9.059318542480469 73.88999938964844 12.44859313964844 78.91667175292969 16.76596832275391 83.23402404785156 C 21.08332061767578 87.55139923095703 26.10999298095703 90.940673828125 31.70636749267578 93.30773162841797 C 37.49881362915039 95.75773620605469 43.65365982055664 97 49.99993515014648 97 C 56.34621047973633 97 62.50105667114258 95.75773620605469 68.29350280761719 93.30773162841797 C 73.88987731933594 90.940673828125 78.91654968261719 87.55139923095703 83.23390197753906 83.23402404785156 C 87.55126953125 78.91667175292969 90.9405517578125 73.88999938964844 93.30760955810547 68.29362487792969 C 95.75761413574219 62.50118255615234 96.99987030029297 56.34633636474609 96.99987030029297 49.99993515014648 C 96.99987030029297 43.65365600585938 95.75761413574219 37.49880981445312 93.30760955810547 31.70636749267578 C 90.9405517578125 26.10999298095703 87.55126953125 21.08332061767578 83.23390197753906 16.76596832275391 C 78.91654968261719 12.44859313964844 73.88987731933594 9.059318542480469 68.29350280761719 6.6922607421875 C 62.50105667114258 4.242256164550781 56.34621047973633 2.999992370605469 49.99993515014648 2.999992370605469 M 49.99993515014648 -7.62939453125e-06 C 77.6141357421875 -7.62939453125e-06 99.99987030029297 22.38573455810547 99.99987030029297 49.99993515014648 L 99.99987030029297 50.00005722045898 C 99.99987030029297 77.6142578125 77.6141357421875 100 49.99993515014648 100 C 22.38573455810547 100 0 77.6142578125 0 50.00005722045898 L 0 49.99993515014648 C 0 22.38573455810547 22.38573455810547 -7.62939453125e-06 49.99993515014648 -7.62939453125e-06 Z" stroke="none" fill="#fff"/>
              </g>
            </g>
            <g id="Rectángulo_400907" data-name="Rectángulo 400907" transform="translate(0)" fill="none" stroke="#fff" stroke-width="3">
              <rect width="100" height="100" rx="50" stroke="none"/>
              <rect x="1.5" y="1.5" width="97" height="97" rx="48.5" fill="none"/>
            </g>
          </g>
        </g>
      </g>
    </g>
    <g id="camping_6434979" transform="translate(920.43 4327.975)">
      <g id="Grupo_1182388" data-name="Grupo 1182388" transform="translate(7.5 25.018)">
        <path id="Trazado_915403" data-name="Trazado 915403" d="M277.341,263.785v13.99a.671.671,0,0,0,.671.671h20.367a.67.67,0,0,0,.671-.671v-13.99A24.725,24.725,0,0,0,277.341,263.785Z" transform="translate(-242.03 -230.359)" fill="#fff2e2"/>
        <path id="Trazado_915404" data-name="Trazado 915404" d="M418.777,272.33v15.054a.671.671,0,0,1-.671.671h2.617a.671.671,0,0,0,.671-.671v-13.99Q420.086,272.788,418.777,272.33Z" transform="translate(-364.375 -239.967)" fill="#fedbbd"/>
        <path id="Trazado_915405" data-name="Trazado 915405" d="M318.686,312.741v8.778h10.888v-8.778a.4.4,0,0,0-.2-.346,9.6,9.6,0,0,0-10.5,0A.4.4,0,0,0,318.686,312.741Z" transform="translate(-277.965 -273.432)" fill="#7a8c98"/>
        <path id="Trazado_915406" data-name="Trazado 915406" d="M234.947,235.881c8.434,0,15.683,6.029,18.871,14.661-1.2-12.055-9.189-21.372-18.871-21.372s-17.676,9.318-18.872,21.372C219.263,241.91,226.512,235.881,234.947,235.881Z" transform="translate(-188.781 -202.455)" fill="#967676"/>
        <path id="Trazado_915407" data-name="Trazado 915407" d="M28.455,163.975v-18.1h-10.6v18.1a1.214,1.214,0,0,1-.76,1.126l-7.665,3.084A3.073,3.073,0,0,0,7.5,171.036v18.647a.826.826,0,0,0,.826.826H37.981a.826.826,0,0,0,.826-.825V171.036a3.073,3.073,0,0,0-1.926-2.851L29.215,165.1A1.213,1.213,0,0,1,28.455,163.975Z" transform="translate(-7.5 -130.057)" fill="#fff2e2"/>
        <path id="Trazado_915408" data-name="Trazado 915408" d="M158.675,168.185l-7.665-3.084a1.213,1.213,0,0,1-.76-1.126v-18.1h-2.617v19.412a1.213,1.213,0,0,0,.76,1.125l8.252,3.321a2.137,2.137,0,0,1,1.339,1.982v17.972a.825.825,0,0,1-.825.825h2.617a.826.826,0,0,0,.826-.825V171.036A3.073,3.073,0,0,0,158.675,168.185Z" transform="translate(-129.295 -130.057)" fill="#fedbbd"/>
        <path id="Trazado_915409" data-name="Trazado 915409" d="M44.608,163.974V152.168l-4.986-6.3h-.631L34,152.168v11.806a1.214,1.214,0,0,1-.76,1.126l-7.159,2.88,7.883,2.569a.653.653,0,0,1,.418.416l1.028,3.112a.666.666,0,0,0,.633.457h6.519a.666.666,0,0,0,.633-.457l1.028-3.112a.653.653,0,0,1,.418-.416l7.883-2.569-7.159-2.88A1.213,1.213,0,0,1,44.608,163.974Z" transform="translate(-23.653 -130.056)" fill="#2ed1e2"/>
        <path id="Trazado_915410" data-name="Trazado 915410" d="M154.926,188.909l3.243-1.057-7.159-2.88a1.213,1.213,0,0,1-.76-1.126V172.039l-2.617-3.3v16.42a1.213,1.213,0,0,0,.76,1.125Z" transform="translate(-129.295 -149.928)" fill="#03bed7"/>
        <path id="Trazado_915411" data-name="Trazado 915411" d="M35.2,33.851v-.025a8.808,8.808,0,0,1,8.808-8.808h6.441a8.808,8.808,0,0,1,8.808,8.808v.025H35.2Z" transform="translate(-31.573 -25.018)" fill="#fff2e2"/>
        <path id="Trazado_915412" data-name="Trazado 915412" d="M133.481,25.018h-2.748a8.808,8.808,0,0,1,8.808,8.808v.025h2.748v-.025A8.808,8.808,0,0,0,133.481,25.018Z" transform="translate(-114.607 -25.018)" fill="#fedbbd"/>
        <rect id="Rectángulo_408460" data-name="Rectángulo 408460" width="26.524" height="9.293" transform="translate(2.391 10.842)" fill="#ae6c6c"/>
        <path id="Trazado_915413" data-name="Trazado 915413" d="M45.04,162.679H21.757a2.469,2.469,0,0,1,0-4.939H45.04a2.469,2.469,0,0,1,0,4.939Z" transform="translate(-17.745 -140.372)" fill="#ffa78f"/>
        <path id="Trazado_915414" data-name="Trazado 915414" d="M75.032,105.278v12.184c0,4.3-6.161,8.319-9.233,8.319s-9.232-4.021-9.232-8.319V105.278Z" transform="translate(-50.146 -94.775)" fill="#ffa78f"/>
        <path id="Trazado_915415" data-name="Trazado 915415" d="M125.04,105.278v12.184c0,3.749-4.688,7.287-7.925,8.13a5.287,5.287,0,0,0,1.309.189c3.072,0,9.233-4.021,9.233-8.319V105.278H125.04Z" transform="translate(-102.771 -94.775)" fill="#f89580"/>
        <path id="Trazado_915416" data-name="Trazado 915416" d="M12.884,80.3v1.942a1.45,1.45,0,0,0,1.45,1.45h27a1.45,1.45,0,0,0,1.45-1.45V80.3a1.45,1.45,0,0,0-1.45-1.45h-27A1.45,1.45,0,0,0,12.884,80.3Z" transform="translate(-12.179 -71.801)" fill="#2ed1e2"/>
        <path id="Trazado_915417" data-name="Trazado 915417" d="M212.022,78.845h-2.748a1.45,1.45,0,0,1,1.45,1.45v1.942a1.45,1.45,0,0,1-1.45,1.45h2.748a1.45,1.45,0,0,0,1.45-1.45V80.3A1.45,1.45,0,0,0,212.022,78.845Z" transform="translate(-182.87 -71.801)" fill="#03bed7"/>
        <path id="Trazado_915418" data-name="Trazado 915418" d="M350.9,53.4a6.9,6.9,0,0,1-8.227,9.892.429.429,0,0,0-.54.566,8.124,8.124,0,1,0,9.229-11.083A.428.428,0,0,0,350.9,53.4Z" transform="translate(-298.312 -49.137)" fill="#fee45a"/>
      </g>
      <g id="Grupo_1182390" data-name="Grupo 1182390" transform="translate(7.5 25.018)">
        <path id="Trazado_915419" data-name="Trazado 915419" d="M299.049,308.528v10.317a.671.671,0,0,1-.671.671H278.012a.671.671,0,0,1-.671-.671V308.528" transform="translate(-242.03 -271.428)" fill="none" stroke="#000" stroke-linecap="round" stroke-linejoin="round" stroke-miterlimit="10" stroke-width="1"/>
        <path id="Trazado_915420" data-name="Trazado 915420" d="M329.574,321.518V312.74a.4.4,0,0,0-.2-.346,9.6,9.6,0,0,0-10.5,0,.4.4,0,0,0-.2.346v8.778" transform="translate(-277.965 -273.431)" fill="none" stroke="#000" stroke-linecap="round" stroke-linejoin="round" stroke-miterlimit="10" stroke-width="1"/>
        <path id="Trazado_915421" data-name="Trazado 915421" d="M271.279,255.189c4.932,3.762,8.432,10.313,9.191,17.967-3.188-8.631-10.437-14.661-18.871-14.661a19.132,19.132,0,0,0-14.859,7.534" transform="translate(-215.434 -225.069)" fill="none" stroke="#000" stroke-linecap="round" stroke-linejoin="round" stroke-miterlimit="10" stroke-width="1"/>
        <path id="Trazado_915422" data-name="Trazado 915422" d="M236.29,240.878c3.343-7.023,9.36-11.708,16.226-11.708a15.136,15.136,0,0,1,5.689,1.115" transform="translate(-206.351 -202.455)" fill="none" stroke="#000" stroke-linecap="round" stroke-linejoin="round" stroke-miterlimit="10" stroke-width="1"/>
        <line id="Línea_709" data-name="Línea 709" y1="29.447" transform="translate(15.653 31.005)" fill="none" stroke="#000" stroke-linecap="round" stroke-linejoin="round" stroke-miterlimit="10" stroke-width="1"/>
        <path id="Trazado_915423" data-name="Trazado 915423" d="M36.55,32.061a8.811,8.811,0,0,1,8.631-7.043h6.441a8.811,8.811,0,0,1,8.631,7.043" transform="translate(-32.749 -25.018)" fill="none" stroke="#000" stroke-linecap="round" stroke-linejoin="round" stroke-miterlimit="10" stroke-width="1"/>
        <line id="Línea_710" data-name="Línea 710" y1="6.089" transform="translate(2.391 11.886)" fill="none" stroke="#000" stroke-linecap="round" stroke-linejoin="round" stroke-miterlimit="10" stroke-width="1"/>
        <line id="Línea_711" data-name="Línea 711" y1="6.089" transform="translate(28.916 11.886)" fill="none" stroke="#000" stroke-linecap="round" stroke-linejoin="round" stroke-miterlimit="10" stroke-width="1"/>
        <path id="Trazado_915424" data-name="Trazado 915424" d="M26.084,314.829l7.883,2.569a.653.653,0,0,1,.418.416l1.028,3.112a.666.666,0,0,0,.633.457h6.519a.666.666,0,0,0,.633-.457l1.028-3.112a.653.653,0,0,1,.418-.416l7.883-2.569" transform="translate(-23.652 -276.905)" fill="none" stroke="#000" stroke-linecap="round" stroke-linejoin="round" stroke-miterlimit="10" stroke-width="1"/>
        <path id="Trazado_915425" data-name="Trazado 915425" d="M17.852,245.209v5.1a1.214,1.214,0,0,1-.76,1.126l-7.665,3.084A3.075,3.075,0,0,0,7.5,257.374v9.559" transform="translate(-7.501 -216.395)" fill="none" stroke="#000" stroke-linecap="round" stroke-linejoin="round" stroke-miterlimit="10" stroke-width="1"/>
        <path id="Trazado_915426" data-name="Trazado 915426" d="M28.455,245.209v5.1a1.214,1.214,0,0,0,.76,1.126l7.665,3.084a3.075,3.075,0,0,1,1.926,2.851v18.647a.825.825,0,0,1-.826.825H8.326a.825.825,0,0,1-.826-.826v-4.508" transform="translate(-7.5 -216.395)" fill="none" stroke="#000" stroke-linecap="round" stroke-linejoin="round" stroke-miterlimit="10" stroke-width="1"/>
        <path id="Trazado_915427" data-name="Trazado 915427" d="M197.67,157.74h2.409a2.469,2.469,0,1,1,0,4.939H197.67" transform="translate(-172.785 -140.372)" fill="none" stroke="#000" stroke-linecap="round" stroke-linejoin="round" stroke-miterlimit="10" stroke-width="1"/>
        <path id="Trazado_915428" data-name="Trazado 915428" d="M24.167,162.679H21.757a2.469,2.469,0,0,1,0-4.939h2.409" transform="translate(-17.745 -140.372)" fill="none" stroke="#000" stroke-linecap="round" stroke-linejoin="round" stroke-miterlimit="10" stroke-width="1"/>
        <path id="Trazado_915429" data-name="Trazado 915429" d="M75.032,115.849v10.8c0,4.3-6.161,8.319-9.233,8.319s-9.232-4.021-9.232-8.319v-10.8" transform="translate(-50.146 -103.963)" fill="none" stroke="#000" stroke-linecap="round" stroke-linejoin="round" stroke-miterlimit="10" stroke-width="1"/>
        <path id="Trazado_915430" data-name="Trazado 915430" d="M107.9,208.139a3.517,3.517,0,0,0,5.031,0" transform="translate(-94.758 -184.176)" fill="none" stroke="#000" stroke-linecap="round" stroke-linejoin="round" stroke-miterlimit="10" stroke-width="1"/>
        <line id="Línea_712" data-name="Línea 712" y2="0.909" transform="translate(11.646 18.66)" fill="none" stroke="#000" stroke-linecap="round" stroke-linejoin="round" stroke-miterlimit="10" stroke-width="1"/>
        <path id="Trazado_915431" data-name="Trazado 915431" d="M83.033,139.64a2.463,2.463,0,0,1,3.523,0" transform="translate(-73.149 -123.996)" fill="none" stroke="#000" stroke-linecap="round" stroke-linejoin="round" stroke-miterlimit="10" stroke-width="1"/>
        <line id="Línea_713" data-name="Línea 713" y2="0.909" transform="translate(19.66 18.66)" fill="none" stroke="#000" stroke-linecap="round" stroke-linejoin="round" stroke-miterlimit="10" stroke-width="1"/>
        <path id="Trazado_915432" data-name="Trazado 915432" d="M144.278,139.64a2.463,2.463,0,0,1,3.523,0" transform="translate(-126.379 -123.996)" fill="none" stroke="#000" stroke-linecap="round" stroke-linejoin="round" stroke-miterlimit="10" stroke-width="1"/>
        <path id="Trazado_915433" data-name="Trazado 915433" d="M12.884,80.3v1.942a1.45,1.45,0,0,0,1.45,1.45h27a1.45,1.45,0,0,0,1.45-1.45V80.3a1.45,1.45,0,0,0-1.45-1.45h-27A1.45,1.45,0,0,0,12.884,80.3Z" transform="translate(-12.179 -71.801)" fill="none" stroke="#000" stroke-linecap="round" stroke-linejoin="round" stroke-miterlimit="10" stroke-width="1"/>
        <g id="Grupo_1182389" data-name="Grupo 1182389" transform="translate(5.51 48.437)">
          <line id="Línea_714" data-name="Línea 714" y1="12.015" transform="translate(0 0)" fill="none" stroke="#000" stroke-linecap="round" stroke-linejoin="round" stroke-miterlimit="10" stroke-width="1"/>
          <line id="Línea_715" data-name="Línea 715" y1="12.015" transform="translate(20.286 0)" fill="none" stroke="#000" stroke-linecap="round" stroke-linejoin="round" stroke-miterlimit="10" stroke-width="1"/>
        </g>
        <path id="Trazado_915434" data-name="Trazado 915434" d="M350.9,53.4a6.9,6.9,0,0,1-8.227,9.892.429.429,0,0,0-.54.566,8.124,8.124,0,1,0,9.229-11.083A.428.428,0,0,0,350.9,53.4Z" transform="translate(-298.312 -49.137)" fill="none" stroke="#000" stroke-linecap="round" stroke-linejoin="round" stroke-miterlimit="10" stroke-width="1"/>
      </g>
    </g>
  </g>
</svg>
