<svg xmlns="http://www.w3.org/2000/svg" width="85" height="85" viewBox="0 0 85 85">
  <g id="Grupo_1181840" data-name="Grupo 1181840" transform="translate(16265.764 9019.525)">
    <g id="Grupo_1112415" data-name="Grupo 1112415" transform="translate(-16265.764 -9019.525)">
      <g id="Grupo_1098742" data-name="Grupo 1098742" transform="translate(0 0)">
        <g id="Rect치ngulo_400898" data-name="Rect치ngulo 400898" transform="translate(0.001 0)" fill="#ffea99" stroke="#997b00" stroke-width="3">
          <rect width="85" height="85" rx="42.5" stroke="none"/>
          <rect x="1.5" y="1.5" width="82" height="82" rx="41" fill="none"/>
        </g>
        <g id="Rect치ngulo_400907" data-name="Rect치ngulo 400907" transform="translate(0 0)" fill="none" stroke="#997b00" stroke-width="3">
          <rect width="85" height="85" rx="42.5" stroke="none"/>
          <rect x="1.5" y="1.5" width="82" height="82" rx="41" fill="none"/>
        </g>
      </g>
    </g>
    <g id="saving_3708010" transform="translate(-16253.037 -9008.865)">
      <g id="Grupo_1182349" data-name="Grupo 1182349" transform="translate(1.914 1.914)">
        <g id="Grupo_1182327" data-name="Grupo 1182327" transform="translate(13.705)">
          <path id="Trazado_915078" data-name="Trazado 915078" d="M40.756,11.137a1.833,1.833,0,0,1-1.827,1.827h-2.7a18.092,18.092,0,0,1-5.29-.786,17.878,17.878,0,0,1-4.833-2.284,3.514,3.514,0,0,0-5.455,2.924v3.8h-.914a2.737,2.737,0,0,0-1.407.393A10.017,10.017,0,0,1,27.014,2H43.67a2.558,2.558,0,0,1,2.567,2.567,2.561,2.561,0,0,1-1.946,2.485l-1.709.429A6.245,6.245,0,0,1,44.411,11.9v1.17a6.277,6.277,0,0,1-.886,3.207l-.448.74a2.737,2.737,0,0,0-1.407-.393h-.914Z" transform="translate(-17 -2)" fill="#b27946"/>
        </g>
        <g id="Grupo_1182328" data-name="Grupo 1182328" transform="translate(18.402 27.776)">
          <path id="Trazado_915079" data-name="Trazado 915079" d="M39.372,37.517H22.926a2.48,2.48,0,0,0-.786.119,10.159,10.159,0,0,1,3.636-4.048L28.463,32.4v.009a2.632,2.632,0,0,0-.055.539,2.741,2.741,0,1,0,5.482,0,2.632,2.632,0,0,0-.055-.539V32.4a10.049,10.049,0,0,1,6.323,5.235A2.481,2.481,0,0,0,39.372,37.517Z" transform="translate(-22.14 -32.4)" fill="#fcd770"/>
        </g>
        <g id="Grupo_1182329" data-name="Grupo 1182329" transform="translate(16.446 32.893)">
          <path id="Trazado_915080" data-name="Trazado 915080" d="M39.973,38.119a2.733,2.733,0,0,1,1.955,2.622.916.916,0,0,1-.914.914h-20.1A.916.916,0,0,1,20,40.741a2.737,2.737,0,0,1,1.955-2.622A2.48,2.48,0,0,1,22.741,38H39.187A2.481,2.481,0,0,1,39.973,38.119Z" transform="translate(-20 -38)" fill="#aab2bd"/>
        </g>
        <g id="Grupo_1182330" data-name="Grupo 1182330" transform="translate(17.36 36.547)">
          <path id="Trazado_915081" data-name="Trazado 915081" d="M41.1,48.4V46.514a3.579,3.579,0,0,0-.384-1.626L39.274,42H22.827l-1.444,2.887A3.579,3.579,0,0,0,21,46.514V48.4a1.833,1.833,0,0,1,1.827,1.827v1.827A1.833,1.833,0,0,1,21,53.878v2.741a3.654,3.654,0,0,0,3.655,3.655H37.446A3.654,3.654,0,0,0,41.1,56.619V53.878a1.833,1.833,0,0,1-1.827-1.827V50.223A1.833,1.833,0,0,1,41.1,48.4Z" transform="translate(-21 -42)" fill="#ccd1d9"/>
        </g>
        <g id="Grupo_1182331" data-name="Grupo 1182331" transform="translate(35.634 42.943)">
          <path id="Trazado_915082" data-name="Trazado 915082" d="M43.741,49a.916.916,0,0,1,.914.914v3.655a.916.916,0,0,1-.914.914h-.914A1.833,1.833,0,0,1,41,52.655V50.827A1.833,1.833,0,0,1,42.827,49Z" transform="translate(-41 -49)" fill="#f0d0b4"/>
        </g>
        <g id="Grupo_1182332" data-name="Grupo 1182332" transform="translate(15.533 42.943)">
          <path id="Trazado_915083" data-name="Trazado 915083" d="M22.655,52.655a1.833,1.833,0,0,1-1.827,1.827h-.914A.916.916,0,0,1,19,53.568V49.914A.916.916,0,0,1,19.914,49h.914a1.833,1.833,0,0,1,1.827,1.827Z" transform="translate(-19 -49)" fill="#f0d0b4"/>
        </g>
        <g id="Grupo_1182333" data-name="Grupo 1182333" transform="translate(24.669 27.411)">
          <path id="Trazado_915084" data-name="Trazado 915084" d="M34.482,32.914a2.741,2.741,0,1,1-5.482,0,2.632,2.632,0,0,1,.055-.539v-.009a10.055,10.055,0,0,1,5.372,0v.009A2.631,2.631,0,0,1,34.482,32.914Z" transform="translate(-29 -32)" fill="#f0d0b4"/>
        </g>
        <g id="Grupo_1182334" data-name="Grupo 1182334" transform="translate(37.461 14.619)">
          <path id="Trazado_915085" data-name="Trazado 915085" d="M45.321,18.393a2.74,2.74,0,0,1-1.407,5.089H43V18h.914a2.737,2.737,0,0,1,1.407.393Z" transform="translate(-43 -18)" fill="#f0d0b4"/>
        </g>
        <g id="Grupo_1182335" data-name="Grupo 1182335" transform="translate(17.36 7.309)">
          <path id="Trazado_915086" data-name="Trazado 915086" d="M21,22.792V13.509a3.514,3.514,0,0,1,5.455-2.924,17.878,17.878,0,0,0,4.833,2.284,18.092,18.092,0,0,0,5.29.786h2.7A1.833,1.833,0,0,0,41.1,11.827V22.792A7.307,7.307,0,0,1,33.792,30.1H28.309A7.307,7.307,0,0,1,21,22.792Z" transform="translate(-21 -10)" fill="#f0d0b4"/>
        </g>
        <g id="Grupo_1182336" data-name="Grupo 1182336" transform="translate(13.705 14.619)">
          <path id="Trazado_915087" data-name="Trazado 915087" d="M20.655,18v5.482h-.914a2.741,2.741,0,0,1,0-5.482Z" transform="translate(-17 -18)" fill="#f0d0b4"/>
        </g>
        <g id="Grupo_1182337" data-name="Grupo 1182337" transform="translate(47.512 49.339)">
          <path id="Trazado_915088" data-name="Trazado 915088" d="M61.309,56v.914a4.57,4.57,0,0,1-4.568,4.568H54v-.914A4.57,4.57,0,0,1,58.568,56Z" transform="translate(-54 -56)" fill="#b4dd7f"/>
        </g>
        <g id="Grupo_1182338" data-name="Grupo 1182338" transform="translate(47.512 40.202)">
          <path id="Trazado_915089" data-name="Trazado 915089" d="M61.309,46v.914a4.57,4.57,0,0,1-4.568,4.568H54v-.914A4.57,4.57,0,0,1,58.568,46Z" transform="translate(-54 -46)" fill="#b4dd7f"/>
        </g>
        <g id="Grupo_1182339" data-name="Grupo 1182339" transform="translate(40.202 38.375)">
          <path id="Trazado_915090" data-name="Trazado 915090" d="M53.3,48.413v1.069H50.568A4.57,4.57,0,0,1,46,44.914V44h2.741A4.561,4.561,0,0,1,53.3,48.413Z" transform="translate(-46 -44)" fill="#b4dd7f"/>
        </g>
        <g id="Grupo_1182340" data-name="Grupo 1182340" transform="translate(47.512 27.411)">
          <path id="Trazado_915091" data-name="Trazado 915091" d="M61.309,32v.914a4.57,4.57,0,0,1-4.568,4.568H54v-.914A4.57,4.57,0,0,1,58.568,32Z" transform="translate(-54 -32)" fill="#b4dd7f"/>
        </g>
        <g id="Grupo_1182341" data-name="Grupo 1182341" transform="translate(40.202 29.238)">
          <path id="Trazado_915092" data-name="Trazado 915092" d="M53.3,38.413v1.069H50.568A4.57,4.57,0,0,1,46,34.914V34h2.741A4.561,4.561,0,0,1,53.3,38.413Z" transform="translate(-46 -34)" fill="#b4dd7f"/>
        </g>
        <g id="Grupo_1182342" data-name="Grupo 1182342" transform="translate(7.319 29.238)">
          <path id="Trazado_915093" data-name="Trazado 915093" d="M17.31,34v.914a4.57,4.57,0,0,1-4.568,4.568H10.01V38.413A4.561,4.561,0,0,1,14.569,34Z" transform="translate(-10.01 -34)" fill="#b4dd7f"/>
        </g>
        <g id="Grupo_1182343" data-name="Grupo 1182343" transform="translate(7.319 38.375)">
          <path id="Trazado_915094" data-name="Trazado 915094" d="M17.31,44v.914a4.57,4.57,0,0,1-4.568,4.568H10.01V48.413A4.561,4.561,0,0,1,14.569,44Z" transform="translate(-10.01 -44)" fill="#b4dd7f"/>
        </g>
        <g id="Grupo_1182344" data-name="Grupo 1182344" transform="translate(0 49.339)">
          <path id="Trazado_915095" data-name="Trazado 915095" d="M9.309,60.568v.914H6.568A4.57,4.57,0,0,1,2,56.914V56H4.741A4.57,4.57,0,0,1,9.309,60.568Z" transform="translate(-2 -56)" fill="#b4dd7f"/>
        </g>
        <g id="Grupo_1182345" data-name="Grupo 1182345" transform="translate(0 40.202)">
          <path id="Trazado_915096" data-name="Trazado 915096" d="M9.309,50.568v.914H6.568A4.57,4.57,0,0,1,2,46.914V46H4.741A4.57,4.57,0,0,1,9.309,50.568Z" transform="translate(-2 -46)" fill="#b4dd7f"/>
        </g>
        <g id="Grupo_1182346" data-name="Grupo 1182346" transform="translate(0 27.411)">
          <path id="Trazado_915097" data-name="Trazado 915097" d="M9.309,36.568v.914H6.568A4.57,4.57,0,0,1,2,32.914V32H4.741A4.57,4.57,0,0,1,9.309,36.568Z" transform="translate(-2 -32)" fill="#b4dd7f"/>
        </g>
        <g id="Grupo_1182347" data-name="Grupo 1182347" transform="translate(44.771 16.446)">
          <path id="Trazado_915098" data-name="Trazado 915098" d="M54.2,28.826l-.457.311h-.009l-.448-.311A5.123,5.123,0,0,1,51,24.568a5.185,5.185,0,0,1,.6-2.412,5.244,5.244,0,0,1,1.681-1.846L53.741,20l.457.311a5.123,5.123,0,0,1,2.284,4.258,5.185,5.185,0,0,1-.6,2.412A5.244,5.244,0,0,1,54.2,28.826Z" transform="translate(-51 -20)" fill="#a0d468"/>
        </g>
        <g id="Grupo_1182348" data-name="Grupo 1182348" transform="translate(4.568 16.446)">
          <path id="Trazado_915099" data-name="Trazado 915099" d="M10.2,28.826l-.448.311H9.741l-.457-.311A5.244,5.244,0,0,1,7.6,26.981,5.185,5.185,0,0,1,7,24.568a5.123,5.123,0,0,1,2.284-4.258L9.741,20l.457.311a5.244,5.244,0,0,1,1.681,1.846,5.185,5.185,0,0,1,.6,2.412A5.123,5.123,0,0,1,10.2,28.826Z" transform="translate(-7 -20)" fill="#a0d468"/>
        </g>
      </g>
      <g id="Grupo_1182350" data-name="Grupo 1182350" transform="translate(1 1)">
        <path id="Trazado_915100" data-name="Trazado 915100" d="M30.741,48.655h1.827a.914.914,0,0,1,.914.914h1.827a2.744,2.744,0,0,0-2.741-2.741V45H30.741v1.827a2.741,2.741,0,0,0,0,5.482h1.827a.914.914,0,1,1,0,1.827H30.741a.914.914,0,0,1-.914-.914H28a2.744,2.744,0,0,0,2.741,2.741v1.827h1.827V55.964a2.741,2.741,0,0,0,0-5.482H30.741a.914.914,0,1,1,0-1.827Z" transform="translate(-3.331 -4.798)"/>
        <path id="Trazado_915101" data-name="Trazado 915101" d="M41.583,43.943v-.965a4.611,4.611,0,0,0-.482-2.043l-.781-1.561h.349A1.829,1.829,0,0,0,42.5,37.547a3.658,3.658,0,0,0-2.225-3.362A10.92,10.92,0,0,0,35.98,29.8a8.24,8.24,0,0,0,5.552-6.875h.054a3.65,3.65,0,0,0,2.6-6.216l.033-.055a7.171,7.171,0,0,0,1.019-3.682v-1.17A7.2,7.2,0,0,0,44.1,7.938l.332-.084A3.479,3.479,0,0,0,43.586,1H26.93A10.888,10.888,0,0,0,17.1,16.665a3.649,3.649,0,0,0,2.552,6.263h.054a8.238,8.238,0,0,0,5.55,6.875,10.919,10.919,0,0,0-4.293,4.382,3.658,3.658,0,0,0-2.225,3.362,1.829,1.829,0,0,0,1.827,1.827h.349l-.78,1.561a4.593,4.593,0,0,0-.482,2.042v.965a1.829,1.829,0,0,0-1.827,1.827v3.655a1.829,1.829,0,0,0,1.827,1.827V53.08a4.574,4.574,0,0,0,4.568,4.568H37.015a4.574,4.574,0,0,0,4.568-4.568V51.253a1.829,1.829,0,0,0,1.827-1.827V45.771a1.829,1.829,0,0,0-1.827-1.827ZM30.619,30.238a9.178,9.178,0,0,1,1.807.2,1.817,1.817,0,0,1-3.615,0A9.178,9.178,0,0,1,30.619,30.238ZM41.584,21.1V17.446a1.827,1.827,0,0,1,0,3.655ZM17.828,19.274a1.83,1.83,0,0,1,1.827-1.827V21.1A1.83,1.83,0,0,1,17.828,19.274Zm1.826-6.544v2.889a3.6,3.6,0,0,0-.962.145A9.071,9.071,0,0,1,26.93,2.827H43.586a1.652,1.652,0,0,1,.4,3.255L40.71,6.9l1.141,1.14a5.362,5.362,0,0,1,1.56,3.765v1.17a5.327,5.327,0,0,1-.758,2.74l-.04.067a3.643,3.643,0,0,0-1.028-.164h0V11.051a2.744,2.744,0,0,0-2.741-2.741h-.914v1.827h.914a.914.914,0,0,1,0,1.827h-2.7a17.3,17.3,0,0,1-9.619-2.913,4.421,4.421,0,0,0-6.872,3.678Zm8.224,15.681a6.4,6.4,0,0,1-6.4-6.4V12.73a2.592,2.592,0,0,1,4.031-2.157,19.121,19.121,0,0,0,10.633,3.219h2.7a2.722,2.722,0,0,0,.914-.157v8.379a6.4,6.4,0,0,1-6.4,6.4Zm-.841,2.559a3.655,3.655,0,0,0,7.161,0,9.041,9.041,0,0,1,3.71,2.923H23.329A9.041,9.041,0,0,1,27.038,30.97ZM22.4,35.72H38.842a1.832,1.832,0,0,1,1.829,1.827h-20.1A1.829,1.829,0,0,1,22.4,35.72ZM19.655,45.771h.914a.914.914,0,0,1,.914.914v1.827a.914.914,0,0,1-.914.914h-.914Zm17.36,10.051H24.223a2.744,2.744,0,0,1-2.741-2.741v-2a2.737,2.737,0,0,0,1.827-2.573V46.684a2.737,2.737,0,0,0-1.827-2.573V42.978a2.758,2.758,0,0,1,.289-1.226l1.19-2.377H38.277l1.19,2.377a2.761,2.761,0,0,1,.289,1.226v1.133a2.737,2.737,0,0,0-1.827,2.573v1.827a2.737,2.737,0,0,0,1.827,2.573v2A2.744,2.744,0,0,1,37.015,55.821Zm3.655-6.4a.914.914,0,0,1-.914-.914V46.684a.914.914,0,0,1,.914-.914h.914l0,3.655Z" transform="translate(-2.295 -1)"/>
        <path id="Trazado_915102" data-name="Trazado 915102" d="M28.483,20.655H30.31a3.655,3.655,0,1,0-7.309,0h1.827a1.827,1.827,0,1,1,3.655,0Z" transform="translate(-2.899 -2.381)"/>
        <path id="Trazado_915103" data-name="Trazado 915103" d="M36.656,18.827a1.829,1.829,0,0,1,1.827,1.827H40.31a3.655,3.655,0,1,0-7.309,0h1.827A1.829,1.829,0,0,1,36.656,18.827Z" transform="translate(-3.762 -2.381)"/>
        <path id="Trazado_915104" data-name="Trazado 915104" d="M36.047,25.4l.048-.141-1.732-.582-.048.143a2.89,2.89,0,0,1-5.481,0l-.047-.141-1.736.571.048.144a4.716,4.716,0,0,0,8.948,0Z" transform="translate(-3.249 -3.044)"/>
        <path id="Trazado_915105" data-name="Trazado 915105" d="M54.137,39.084V37.256h1.827a5.488,5.488,0,0,0,5.482-5.482V29.947H57.792a5.453,5.453,0,0,0-3.66,1.413V29.526l.058-.039a6.035,6.035,0,0,0,0-10.043l-.968-.645-.968.645a6.036,6.036,0,0,0,0,10.043l.048.032v3.658a5.453,5.453,0,0,0-3.649-1.4H45V33.6a5.488,5.488,0,0,0,5.482,5.482H52.3v3.23a5.453,5.453,0,0,0-3.649-1.4H45v1.827a5.488,5.488,0,0,0,5.482,5.482H52.3V58.271h.005v.914h3.655A5.488,5.488,0,0,0,61.446,53.7V51.875H57.792a5.453,5.453,0,0,0-3.66,1.413v-3.24h1.833a5.488,5.488,0,0,0,5.482-5.482V42.738H57.792a5.453,5.453,0,0,0-3.66,1.413V39.084Zm3.655-7.309h1.827a3.658,3.658,0,0,1-3.655,3.655H54.137A3.658,3.658,0,0,1,57.792,31.774ZM50.482,46.393a3.658,3.658,0,0,1-3.655-3.655h1.827a3.655,3.655,0,0,1,3.649,3.6v.053ZM57.792,53.7h1.827a3.658,3.658,0,0,1-3.655,3.655H54.137A3.658,3.658,0,0,1,57.792,53.7Zm0-9.137h1.827a3.658,3.658,0,0,1-3.655,3.655H54.137A3.658,3.658,0,0,1,57.792,44.566Zm-6.4-20.1a4.2,4.2,0,0,1,1.827-3.47,4.209,4.209,0,0,1,0,6.94A4.2,4.2,0,0,1,51.4,24.465Zm-.914,12.792A3.658,3.658,0,0,1,46.827,33.6h1.827A3.655,3.655,0,0,1,52.3,37.2v.053Z" transform="translate(-4.798 -2.536)"/>
        <path id="Trazado_915106" data-name="Trazado 915106" d="M17.446,40.911H13.792a5.453,5.453,0,0,0-3.649,1.4v-3.23h1.822A5.488,5.488,0,0,0,17.446,33.6V31.774H13.792a5.453,5.453,0,0,0-3.649,1.4V29.518l.048-.032a6.036,6.036,0,0,0,0-10.043L9.223,18.8l-.968.645a6.036,6.036,0,0,0,0,10.043l.058.039v1.834a5.449,5.449,0,0,0-3.659-1.413H1v1.827a5.488,5.488,0,0,0,5.482,5.482H8.309v1.827h.005v5.067a5.453,5.453,0,0,0-3.66-1.413H1v1.827a5.488,5.488,0,0,0,5.482,5.482H8.315v3.24a5.453,5.453,0,0,0-3.66-1.413H1V53.7a5.488,5.488,0,0,0,5.482,5.482h3.655v-.914h.005V48.22h1.822a5.488,5.488,0,0,0,5.482-5.482ZM13.792,33.6h1.827a3.658,3.658,0,0,1-3.655,3.655H10.142V37.2A3.655,3.655,0,0,1,13.792,33.6ZM7.4,24.465a4.2,4.2,0,0,1,1.827-3.47,4.209,4.209,0,0,1,0,6.94A4.2,4.2,0,0,1,7.4,24.465ZM6.482,35.429a3.658,3.658,0,0,1-3.655-3.655H4.655a3.658,3.658,0,0,1,3.655,3.655Zm0,12.792a3.658,3.658,0,0,1-3.655-3.655H4.655A3.658,3.658,0,0,1,8.309,48.22Zm0,9.137A3.658,3.658,0,0,1,2.827,53.7H4.655a3.658,3.658,0,0,1,3.655,3.655Zm5.482-10.964H10.142V46.34a3.655,3.655,0,0,1,3.649-3.6h1.827A3.658,3.658,0,0,1,11.964,46.393Z" transform="translate(-1 -2.536)"/>
      </g>
    </g>
  </g>
</svg>
