<svg xmlns="http://www.w3.org/2000/svg" xmlns:xlink="http://www.w3.org/1999/xlink" width="117.796" height="118" viewBox="0 0 117.796 118">
  <defs>
    <filter id="Trazado_896985" x="0" y="0" width="117.796" height="118" filterUnits="userSpaceOnUse">
      <feOffset dy="3" input="SourceAlpha"/>
      <feGaussianBlur stdDeviation="3" result="blur"/>
      <feFlood flood-opacity="0.161"/>
      <feComposite operator="in" in2="blur"/>
      <feComposite in="SourceGraphic"/>
    </filter>
  </defs>
  <g id="Grupo_1182085" data-name="Grupo 1182085" transform="translate(-321.847 -3975.238)">
    <g id="Grupo_1111318" data-name="Grupo 1111318" transform="translate(330.847 3981.238)">
      <g id="Grupo_1109826" data-name="Grupo 1109826" transform="translate(0)">
        <g id="Grupo_1098742" data-name="Grupo 1098742">
          <g transform="matrix(1, 0, 0, 1, -9, -6)" filter="url(#Trazado_896985)">
            <g id="Trazado_896985-2" data-name="Trazado 896985" transform="translate(9 6)" fill="#9ad354" opacity="0.859">
              <path d="M 49.8980712890625 98.5 C 43.36408615112305 98.5 37.02632904052734 97.21802520751953 31.06082916259766 94.68968200683594 C 25.29788589477539 92.24718475341797 20.12185668945312 88.75016784667969 15.67654228210449 84.29578399658203 C 11.23102855682373 79.84117889404297 7.740914344787598 74.65422821044922 5.303171157836914 68.87898254394531 C 2.779571294784546 62.90033721923828 1.49999988079071 56.54855346679688 1.49999988079071 50.00006866455078 C 1.49999988079071 43.45143890380859 2.779571294784546 37.09965515136719 5.303171157836914 31.12102508544922 C 7.740914344787598 25.34578132629395 11.23102855682373 20.1588249206543 15.67654228210449 15.70422458648682 C 20.12185668945312 11.24982452392578 25.29788589477539 7.752810478210449 31.06082916259766 5.310324668884277 C 37.02632904052734 2.781967639923096 43.36408615112305 1.499996185302734 49.8980712890625 1.499996185302734 C 56.43205642700195 1.499996185302734 62.76981353759766 2.781967639923096 68.73531341552734 5.310324668884277 C 74.49826049804688 7.752810478210449 79.67428588867188 11.24982452392578 84.11959838867188 15.70422458648682 C 88.56511688232422 20.1588249206543 92.05522918701172 25.34578132629395 94.49297332763672 31.12102508544922 C 97.01657104492188 37.09965515136719 98.296142578125 43.45143890380859 98.296142578125 49.99992370605469 C 98.296142578125 56.54855346679688 97.01657104492188 62.90033721923828 94.49297332763672 68.87898254394531 C 92.05522918701172 74.65422821044922 88.56511688232422 79.84117889404297 84.11959838867188 84.29578399658203 C 79.67428588867188 88.75016784667969 74.49826049804688 92.24718475341797 68.73531341552734 94.68968200683594 C 62.76981353759766 97.21802520751953 56.43205642700195 98.5 49.8980712890625 98.5 Z" stroke="none"/>
              <path d="M 49.8980712890625 2.999992370605469 C 43.56630325317383 2.999992370605469 37.42547225952148 4.241966247558594 31.64616394042969 6.691398620605469 C 26.06210327148438 9.058074951171875 21.04636383056641 12.44692230224609 16.73828887939453 16.7637939453125 C 12.42977905273438 21.08108520507812 9.047409057617188 26.10781097412109 6.685104370117188 31.70433807373047 C 4.239837646484375 37.49737930297852 2.999992370605469 43.65290451049805 2.999992370605469 50.00005722045898 C 2.999992370605469 56.34708786010742 4.239837646484375 62.50262832641602 6.685104370117188 68.295654296875 C 9.047409057617188 73.89218139648438 12.42977905273438 78.91889953613281 16.73828887939453 83.23619842529297 C 21.04636383056641 87.55307006835938 26.06208801269531 90.94191741943359 31.64616394042969 93.30859375 C 37.42547225952148 95.75802612304688 43.56630325317383 97 49.8980712890625 97 C 56.22983932495117 97 62.37065505981445 95.75802612304688 68.14997863769531 93.30859375 C 73.73403930664062 90.94191741943359 78.74977874755859 87.55307006835938 83.05785369873047 83.23619842529297 C 87.36634826660156 78.91889953613281 90.74873352050781 73.89218139648438 93.11103820800781 68.295654296875 C 95.55630493164062 62.50262832641602 96.79615020751953 56.34708786010742 96.79615020751953 49.99993515014648 C 96.79615020751953 43.65290451049805 95.55630493164062 37.49737930297852 93.11103820800781 31.70433807373047 C 90.74873352050781 26.10781097412109 87.36634826660156 21.08108520507812 83.05785369873047 16.7637939453125 C 78.74977874755859 12.44692230224609 73.73403930664062 9.058074951171875 68.14997863769531 6.691398620605469 C 62.37065505981445 4.241966247558594 56.22982406616211 2.999992370605469 49.8980712890625 2.999992370605469 M 49.8980712890625 -7.62939453125e-06 C 77.45600891113281 -7.62939453125e-06 99.79615020751953 22.38573455810547 99.79615020751953 49.99993515014648 L 99.79615020751953 50.00005722045898 C 99.79615020751953 77.61427307128906 77.45600891113281 100 49.8980712890625 100 C 22.34011840820312 100 -7.62939453125e-06 77.61427307128906 -7.62939453125e-06 50.00005722045898 L -7.62939453125e-06 49.99993515014648 C -7.62939453125e-06 22.38573455810547 22.34011840820312 -7.62939453125e-06 49.8980712890625 -7.62939453125e-06 Z" stroke="none" fill="#fff"/>
            </g>
          </g>
          <g id="Rectángulo_400907" data-name="Rectángulo 400907" transform="translate(0.204)" fill="none" stroke="#fff" stroke-width="3">
            <rect width="99.796" height="100" rx="49.898" stroke="none"/>
            <rect x="1.5" y="1.5" width="96.796" height="97" rx="48.398" fill="none"/>
          </g>
        </g>
      </g>
    </g>
    <g id="cow_2501906" transform="translate(348.847 3995.44)">
      <g id="Grupo_1182035" data-name="Grupo 1182035" transform="translate(6.059 7.415)">
        <g id="Grupo_1182026" data-name="Grupo 1182026" transform="translate(10.604 16.95)">
          <path id="Trazado_909823" data-name="Trazado 909823" d="M25.534,23a3.19,3.19,0,0,1,3.178,3.178,3.174,3.174,0,0,1-3.178,3.178H19.188a3.174,3.174,0,0,1-3.178-3.178A3.207,3.207,0,0,1,19.188,23Z" transform="translate(-16.01 -23)" fill="#ffd2a6"/>
        </g>
        <g id="Grupo_1182027" data-name="Grupo 1182027" transform="translate(2.129)">
          <path id="Trazado_909824" data-name="Trazado 909824" d="M31.316,9.119h6.345a6.348,6.348,0,0,1-6.356,6.356l-3.178,9.29a3.141,3.141,0,0,0-2.119-.816H19.663a3.114,3.114,0,0,0-2.108.816l-.011-.011-3.178-9.28A6.348,6.348,0,0,1,8.01,9.119h6.345A2.118,2.118,0,0,1,16.474,7H29.2A2.118,2.118,0,0,1,31.316,9.119Z" transform="translate(-8.01 -7)" fill="#965353"/>
        </g>
        <g id="Grupo_1182028" data-name="Grupo 1182028" transform="translate(42.374 32.84)">
          <path id="Trazado_909825" data-name="Trazado 909825" d="M58.712,48.593v2.119H46V48.593a6.36,6.36,0,0,1,4.237-6V38h4.237v4.6A6.37,6.37,0,0,1,58.712,48.593Z" transform="translate(-46 -38)" fill="#ccd1d9"/>
        </g>
        <g id="Grupo_1182029" data-name="Grupo 1182029" transform="translate(42.374 45.552)">
          <path id="Trazado_909826" data-name="Trazado 909826" d="M58.712,50V61.653a2.118,2.118,0,0,1-2.119,2.119H48.119A2.118,2.118,0,0,1,46,61.653V50Z" transform="translate(-46 -50)" fill="#e6e9ed"/>
        </g>
        <g id="Grupo_1182030" data-name="Grupo 1182030" transform="translate(45.552 29.662)">
          <path id="Trazado_909827" data-name="Trazado 909827" d="M49,35h6.356v3.178H49Z" transform="translate(-49 -35)" fill="#e6e9ed"/>
        </g>
        <g id="Grupo_1182031" data-name="Grupo 1182031" transform="translate(0.011 54.027)">
          <path id="Trazado_909828" data-name="Trazado 909828" d="M10.237,63.3H6.01V58h8.475v5.3Z" transform="translate(-6.01 -58)" fill="#656d78"/>
        </g>
        <g id="Grupo_1182032" data-name="Grupo 1182032" transform="translate(25.424 54.027)">
          <path id="Trazado_909829" data-name="Trazado 909829" d="M38.475,61.178V63.3H30V58h8.475Z" transform="translate(-30 -58)" fill="#656d78"/>
        </g>
        <g id="Grupo_1182033" data-name="Grupo 1182033" transform="translate(8.485 40.255)">
          <path id="Trazado_909830" data-name="Trazado 909830" d="M14.01,45H30.949A8.469,8.469,0,0,1,14.01,45Z" transform="translate(-14.01 -45)" fill="#ccd1d9"/>
        </g>
        <g id="Grupo_1182034" data-name="Grupo 1182034" transform="translate(0 8.475)">
          <path id="Trazado_909831" data-name="Trazado 909831" d="M14.485,46.78V60.552H6.011V23.475H6a2.116,2.116,0,0,1,2.119-2.108A6.365,6.365,0,0,0,14.485,15l3.178,9.28.011.011a3.124,3.124,0,0,0-1.07,2.362,3.174,3.174,0,0,0,3.178,3.178h6.345a3.174,3.174,0,0,0,2.119-5.54L31.424,15a6.366,6.366,0,0,0,6.367,6.367A2.106,2.106,0,0,1,39.9,23.475V60.552H31.424V46.78Z" transform="translate(-6 -15)" fill="#844747"/>
        </g>
      </g>
      <g id="Grupo_1182084" data-name="Grupo 1182084" transform="translate(5.001)">
        <g id="Grupo_1182036" data-name="Grupo 1182036" transform="translate(25.425 8.475)">
          <path id="Trazado_909832" data-name="Trazado 909832" d="M30.061,16.475a1.059,1.059,0,1,1,0-2.119,5.3,5.3,0,0,0,5.3-5.3,1.059,1.059,0,1,1,2.119,0,7.425,7.425,0,0,1-7.415,7.415Z" transform="translate(-29.002 -8)"/>
        </g>
        <g id="Grupo_1182037" data-name="Grupo 1182037" transform="translate(25.427 8.475)">
          <path id="Trazado_909833" data-name="Trazado 909833" d="M36.417,10.119H30.063a1.059,1.059,0,0,1,0-2.119h6.354a1.059,1.059,0,1,1,0,2.119Z" transform="translate(-29.004 -8)"/>
        </g>
        <g id="Grupo_1182038" data-name="Grupo 1182038" transform="translate(23.311 6.356)">
          <path id="Trazado_909834" data-name="Trazado 909834" d="M30.183,10.235a1.058,1.058,0,0,1-1.059-1.059,1.058,1.058,0,0,0-1.058-1.057,1.059,1.059,0,0,1,0-2.119,3.181,3.181,0,0,1,3.177,3.176A1.058,1.058,0,0,1,30.183,10.235Z" transform="translate(-27.006 -6)"/>
        </g>
        <g id="Grupo_1182039" data-name="Grupo 1182039" transform="translate(2.125 8.475)">
          <path id="Trazado_909835" data-name="Trazado 909835" d="M14.422,16.475A7.425,7.425,0,0,1,7.007,9.059a1.059,1.059,0,1,1,2.119,0,5.3,5.3,0,0,0,5.3,5.3,1.059,1.059,0,1,1,0,2.119Z" transform="translate(-7.007 -8)"/>
        </g>
        <g id="Grupo_1182040" data-name="Grupo 1182040" transform="translate(2.125 8.475)">
          <path id="Trazado_909836" data-name="Trazado 909836" d="M14.42,10.119H8.066A1.059,1.059,0,0,1,8.066,8H14.42a1.059,1.059,0,0,1,0,2.119Z" transform="translate(-7.007 -8)"/>
        </g>
        <g id="Grupo_1182041" data-name="Grupo 1182041" transform="translate(8.478 6.356)">
          <path id="Trazado_909837" data-name="Trazado 909837" d="M14.063,10.235A1.058,1.058,0,0,1,13,9.176,3.181,3.181,0,0,1,16.181,6a1.059,1.059,0,1,1,0,2.119,1.058,1.058,0,0,0-1.058,1.057,1.058,1.058,0,0,1-1.059,1.059Z" transform="translate(-13.004 -6)"/>
        </g>
        <g id="Grupo_1182042" data-name="Grupo 1182042" transform="translate(10.596 6.356)">
          <path id="Trazado_909838" data-name="Trazado 909838" d="M28.778,8.119H16.062a1.059,1.059,0,0,1,0-2.119H28.778a1.059,1.059,0,0,1,0,2.119Z" transform="translate(-15.003 -6)"/>
        </g>
        <g id="Grupo_1182043" data-name="Grupo 1182043" transform="translate(8.479)">
          <path id="Trazado_909839" data-name="Trazado 909839" d="M20.42,8.475A7.425,7.425,0,0,1,13,1.059a1.059,1.059,0,1,1,2.119,0,5.3,5.3,0,0,0,5.3,5.3,1.059,1.059,0,0,1,0,2.119Z" transform="translate(-13.005)"/>
        </g>
        <g id="Grupo_1182044" data-name="Grupo 1182044" transform="translate(19.071)">
          <path id="Trazado_909840" data-name="Trazado 909840" d="M24.063,8.475a1.059,1.059,0,1,1,0-2.119,5.3,5.3,0,0,0,5.3-5.3,1.059,1.059,0,0,1,2.119,0A7.425,7.425,0,0,1,24.063,8.475Z" transform="translate(-23.004)"/>
        </g>
        <g id="Grupo_1182045" data-name="Grupo 1182045" transform="translate(8.481 14.831)">
          <path id="Trazado_909841" data-name="Trazado 909841" d="M17.248,25.4a1.059,1.059,0,0,1-1-.716L13.064,15.4a1.06,1.06,0,1,1,2.005-.688L18.251,24a1.061,1.061,0,0,1-.659,1.346A1.091,1.091,0,0,1,17.248,25.4Z" transform="translate(-13.007 -14)"/>
        </g>
        <g id="Grupo_1182046" data-name="Grupo 1182046" transform="translate(22.244 14.831)">
          <path id="Trazado_909842" data-name="Trazado 909842" d="M27.058,25.409a1.08,1.08,0,0,1-.343-.057,1.061,1.061,0,0,1-.659-1.346l3.181-9.29a1.06,1.06,0,1,1,2.005.688l-3.181,9.29A1.062,1.062,0,0,1,27.058,25.409Z" transform="translate(-25.999 -14)"/>
        </g>
        <g id="Grupo_1182047" data-name="Grupo 1182047" transform="translate(10.6 23.308)">
          <path id="Trazado_909843" data-name="Trazado 909843" d="M19.244,30.477a4.237,4.237,0,1,1,0-8.475,1.059,1.059,0,0,1,0,2.119,2.119,2.119,0,1,0,0,4.237,1.059,1.059,0,0,1,0,2.119Z" transform="translate(-15.007 -22.002)"/>
        </g>
        <g id="Grupo_1182048" data-name="Grupo 1182048" transform="translate(20.123 23.308)">
          <path id="Trazado_909844" data-name="Trazado 909844" d="M25.056,30.477a1.059,1.059,0,1,1,0-2.119,2.119,2.119,0,0,0,0-4.237,1.059,1.059,0,1,1,0-2.119,4.237,4.237,0,0,1,0,8.475Z" transform="translate(-23.997 -22.002)"/>
        </g>
        <g id="Grupo_1182049" data-name="Grupo 1182049" transform="translate(13.778 29.664)">
          <path id="Trazado_909845" data-name="Trazado 909845" d="M25.412,30.121H19.066a1.059,1.059,0,1,1,0-2.119h6.345a1.059,1.059,0,0,1,0,2.119Z" transform="translate(-18.007 -28.002)"/>
        </g>
        <g id="Grupo_1182050" data-name="Grupo 1182050" transform="translate(13.783 23.306)">
          <path id="Trazado_909846" data-name="Trazado 909846" d="M25.412,24.119h-6.34a1.059,1.059,0,1,1,0-2.119h6.34a1.059,1.059,0,0,1,0,2.119Z" transform="translate(-18.012 -22)"/>
        </g>
        <g id="Grupo_1182051" data-name="Grupo 1182051" transform="translate(2.118 14.831)">
          <path id="Trazado_909847" data-name="Trazado 909847" d="M8.059,22.483a1.059,1.059,0,1,1,0-2.119,5.31,5.31,0,0,0,5.3-5.305,1.059,1.059,0,1,1,2.119,0A7.432,7.432,0,0,1,8.059,22.483Z" transform="translate(-7 -14)"/>
        </g>
        <g id="Grupo_1182052" data-name="Grupo 1182052" transform="translate(25.422 14.831)">
          <path id="Trazado_909848" data-name="Trazado 909848" d="M36.422,22.483A7.432,7.432,0,0,1,29,15.059a1.059,1.059,0,1,1,2.119,0,5.31,5.31,0,0,0,5.3,5.305,1.059,1.059,0,1,1,0,2.119Z" transform="translate(-28.999 -14)"/>
        </g>
        <g id="Grupo_1182053" data-name="Grupo 1182053" transform="translate(31.785 21.195)">
          <path id="Trazado_909849" data-name="Trazado 909849" d="M38.18,24.243a1.058,1.058,0,0,1-1.059-1.059,1.057,1.057,0,0,0-1.056-1.057,1.059,1.059,0,0,1,0-2.119,3.179,3.179,0,0,1,3.175,3.176A1.058,1.058,0,0,1,38.18,24.243Z" transform="translate(-35.005 -20.008)"/>
        </g>
        <g id="Grupo_1182054" data-name="Grupo 1182054" transform="translate(33.898 23.308)">
          <path id="Trazado_909850" data-name="Trazado 909850" d="M38.059,66.49A1.058,1.058,0,0,1,37,65.431V23.061a1.059,1.059,0,0,1,2.119,0v42.37A1.058,1.058,0,0,1,38.059,66.49Z" transform="translate(-37 -22.002)"/>
        </g>
        <g id="Grupo_1182055" data-name="Grupo 1182055" transform="translate(0 21.195)">
          <path id="Trazado_909851" data-name="Trazado 909851" d="M6.06,24.243A1.058,1.058,0,0,1,5,23.184a3.181,3.181,0,0,1,3.177-3.176,1.059,1.059,0,0,1,0,2.119A1.058,1.058,0,0,0,7.12,23.184,1.058,1.058,0,0,1,6.06,24.243Z" transform="translate(-5.001 -20.008)"/>
        </g>
        <g id="Grupo_1182056" data-name="Grupo 1182056" transform="translate(0.004 23.308)">
          <path id="Trazado_909852" data-name="Trazado 909852" d="M6.064,66.49a1.058,1.058,0,0,1-1.059-1.059V23.061a1.059,1.059,0,0,1,2.119,0v42.37A1.058,1.058,0,0,1,6.064,66.49Z" transform="translate(-5.005 -22.002)"/>
        </g>
        <g id="Grupo_1182057" data-name="Grupo 1182057" transform="translate(0.004 65.677)">
          <path id="Trazado_909853" data-name="Trazado 909853" d="M14.54,64.117H6.064a1.059,1.059,0,1,1,0-2.119H14.54a1.059,1.059,0,1,1,0,2.119Z" transform="translate(-5.005 -61.998)"/>
        </g>
        <g id="Grupo_1182058" data-name="Grupo 1182058" transform="translate(8.48 46.609)">
          <path id="Trazado_909854" data-name="Trazado 909854" d="M14.065,65.185a1.058,1.058,0,0,1-1.059-1.059V45.057a1.059,1.059,0,1,1,2.119,0V64.126A1.058,1.058,0,0,1,14.065,65.185Z" transform="translate(-13.006 -43.998)"/>
        </g>
        <g id="Grupo_1182059" data-name="Grupo 1182059" transform="translate(25.422 65.677)">
          <path id="Trazado_909855" data-name="Trazado 909855" d="M38.534,64.117H30.058a1.059,1.059,0,1,1,0-2.119h8.476a1.059,1.059,0,0,1,0,2.119Z" transform="translate(-28.999 -61.998)"/>
        </g>
        <g id="Grupo_1182060" data-name="Grupo 1182060" transform="translate(25.422 46.609)">
          <path id="Trazado_909856" data-name="Trazado 909856" d="M30.058,65.185A1.058,1.058,0,0,1,29,64.126V45.057a1.059,1.059,0,1,1,2.119,0V64.126A1.058,1.058,0,0,1,30.058,65.185Z" transform="translate(-28.999 -43.998)"/>
        </g>
        <g id="Grupo_1182061" data-name="Grupo 1182061" transform="translate(8.48 46.609)">
          <path id="Trazado_909857" data-name="Trazado 909857" d="M31.007,46.117H14.065a1.059,1.059,0,0,1,0-2.119H31.007a1.059,1.059,0,0,1,0,2.119Z" transform="translate(-13.006 -43.998)"/>
        </g>
        <g id="Grupo_1182062" data-name="Grupo 1182062" transform="translate(4.237 64.62)">
          <path id="Trazado_909858" data-name="Trazado 909858" d="M10.06,64.178A1.058,1.058,0,0,1,9,63.119V62.059a1.059,1.059,0,0,1,2.119,0v1.059A1.058,1.058,0,0,1,10.06,64.178Z" transform="translate(-9.001 -61)"/>
        </g>
        <g id="Grupo_1182063" data-name="Grupo 1182063" transform="translate(0.004 60.383)">
          <path id="Trazado_909859" data-name="Trazado 909859" d="M14.54,59.119H6.064a1.059,1.059,0,0,1,0-2.119H14.54a1.059,1.059,0,0,1,0,2.119Z" transform="translate(-5.005 -57)"/>
        </g>
        <g id="Grupo_1182064" data-name="Grupo 1182064" transform="translate(29.662 64.62)">
          <path id="Trazado_909860" data-name="Trazado 909860" d="M34.06,64.178A1.058,1.058,0,0,1,33,63.119V62.059a1.059,1.059,0,0,1,2.119,0v1.059A1.058,1.058,0,0,1,34.06,64.178Z" transform="translate(-33.001 -61)"/>
        </g>
        <g id="Grupo_1182065" data-name="Grupo 1182065" transform="translate(25.424 60.383)">
          <path id="Trazado_909861" data-name="Trazado 909861" d="M38.536,59.119H30.06a1.059,1.059,0,1,1,0-2.119h8.476a1.059,1.059,0,0,1,0,2.119Z" transform="translate(-29.001 -57)"/>
        </g>
        <g id="Grupo_1182066" data-name="Grupo 1182066" transform="translate(8.48 46.596)">
          <path id="Trazado_909862" data-name="Trazado 909862" d="M22.537,54.577a9.542,9.542,0,0,1-9.531-9.532,1.059,1.059,0,0,1,2.119,0,7.412,7.412,0,1,0,14.823,0,1.059,1.059,0,0,1,2.119,0A9.541,9.541,0,0,1,22.537,54.577Z" transform="translate(-13.006 -43.986)"/>
        </g>
        <g id="Grupo_1182067" data-name="Grupo 1182067" transform="translate(16.952 55.069)">
          <path id="Trazado_909863" data-name="Trazado 909863" d="M22.062,60.476A1.058,1.058,0,0,1,21,59.416V53.043a1.059,1.059,0,0,1,2.119,0v6.373A1.058,1.058,0,0,1,22.062,60.476Z" transform="translate(-21.003 -51.984)"/>
        </g>
        <g id="Grupo_1182068" data-name="Grupo 1182068" transform="translate(16.952 61.442)">
          <path id="Trazado_909864" data-name="Trazado 909864" d="M24.179,62.235A3.18,3.18,0,0,1,21,59.059a1.059,1.059,0,1,1,2.119,0,1.057,1.057,0,0,0,1.057,1.057,1.059,1.059,0,1,1,0,2.119Z" transform="translate(-21.003 -58)"/>
        </g>
        <g id="Grupo_1182069" data-name="Grupo 1182069" transform="translate(19.068 63.559)">
          <path id="Trazado_909865" data-name="Trazado 909865" d="M30.414,62.117H24.06a1.059,1.059,0,1,1,0-2.119h6.354a1.059,1.059,0,1,1,0,2.119Z" transform="translate(-23.001 -59.998)"/>
        </g>
        <g id="Grupo_1182070" data-name="Grupo 1182070" transform="translate(36.014 61.442)">
          <path id="Trazado_909866" data-name="Trazado 909866" d="M40.056,62.235a1.059,1.059,0,1,1,0-2.119,1.057,1.057,0,0,0,1.057-1.057,1.059,1.059,0,1,1,2.119,0A3.18,3.18,0,0,1,40.056,62.235Z" transform="translate(-38.997 -58)"/>
        </g>
        <g id="Grupo_1182071" data-name="Grupo 1182071" transform="translate(33.901 63.559)">
          <path id="Trazado_909867" data-name="Trazado 909867" d="M40.175,62.117H38.062a1.059,1.059,0,1,1,0-2.119h2.112a1.059,1.059,0,0,1,0,2.119Z" transform="translate(-37.003 -59.998)"/>
        </g>
        <g id="Grupo_1182072" data-name="Grupo 1182072" transform="translate(45.55 36.02)">
          <path id="Trazado_909868" data-name="Trazado 909868" d="M55.415,39.3H49.058A1.058,1.058,0,0,1,48,38.239V35.061A1.058,1.058,0,0,1,49.058,34h6.357a1.058,1.058,0,0,1,1.059,1.059v3.178A1.058,1.058,0,0,1,55.415,39.3Zm-5.3-2.119h4.238V36.121H50.118Z" transform="translate(-47.999 -34.002)"/>
        </g>
        <g id="Grupo_1182073" data-name="Grupo 1182073" transform="translate(46.609 39.198)">
          <path id="Trazado_909869" data-name="Trazado 909869" d="M54.3,43.718a1.058,1.058,0,0,1-1.059-1.059V39.121h-2.12v3.536a1.059,1.059,0,1,1-2.119,0v-4.6A1.058,1.058,0,0,1,50.058,37H54.3a1.058,1.058,0,0,1,1.059,1.059v4.6A1.058,1.058,0,0,1,54.3,43.718Z" transform="translate(-48.999 -37.002)"/>
        </g>
        <g id="Grupo_1182074" data-name="Grupo 1182074" transform="translate(50.848 43.793)">
          <path id="Trazado_909870" data-name="Trazado 909870" d="M58.295,49.453a1.058,1.058,0,0,1-1.059-1.059,5.312,5.312,0,0,0-3.53-5,1.059,1.059,0,0,1,.708-2,7.432,7.432,0,0,1,4.941,6.993A1.058,1.058,0,0,1,58.295,49.453Z" transform="translate(-53 -41.34)"/>
        </g>
        <g id="Grupo_1182075" data-name="Grupo 1182075" transform="translate(42.371 43.792)">
          <path id="Trazado_909871" data-name="Trazado 909871" d="M46.057,49.453A1.058,1.058,0,0,1,45,48.393,7.429,7.429,0,0,1,49.943,41.4a1.058,1.058,0,0,1,.706,2,5.309,5.309,0,0,0-3.532,5,1.059,1.059,0,0,1-1.059,1.06Z" transform="translate(-44.998 -41.339)"/>
        </g>
        <g id="Grupo_1182076" data-name="Grupo 1182076" transform="translate(42.371 49.787)">
          <path id="Trazado_909872" data-name="Trazado 909872" d="M46.057,62.888A1.058,1.058,0,0,1,45,61.829V48.057a1.059,1.059,0,0,1,2.119,0V61.829A1.058,1.058,0,0,1,46.057,62.888Z" transform="translate(-44.998 -46.998)"/>
        </g>
        <g id="Grupo_1182077" data-name="Grupo 1182077" transform="translate(42.371 63.559)">
          <path id="Trazado_909873" data-name="Trazado 909873" d="M48.176,64.235A3.182,3.182,0,0,1,45,61.057a1.059,1.059,0,0,1,2.119,0,1.06,1.06,0,0,0,1.059,1.059,1.059,1.059,0,1,1,0,2.119Z" transform="translate(-44.998 -59.998)"/>
        </g>
        <g id="Grupo_1182078" data-name="Grupo 1182078" transform="translate(55.084 49.787)">
          <path id="Trazado_909874" data-name="Trazado 909874" d="M58.058,62.888A1.058,1.058,0,0,1,57,61.829V48.057a1.059,1.059,0,0,1,2.119,0V61.829A1.058,1.058,0,0,1,58.058,62.888Z" transform="translate(-56.999 -46.998)"/>
        </g>
        <g id="Grupo_1182079" data-name="Grupo 1182079" transform="translate(52.965 63.559)">
          <path id="Trazado_909875" data-name="Trazado 909875" d="M56.058,64.235a1.059,1.059,0,1,1,0-2.119,1.06,1.06,0,0,0,1.059-1.059,1.059,1.059,0,0,1,2.119,0A3.182,3.182,0,0,1,56.058,64.235Z" transform="translate(-54.999 -59.998)"/>
        </g>
        <g id="Grupo_1182080" data-name="Grupo 1182080" transform="translate(44.489 65.677)">
          <path id="Trazado_909876" data-name="Trazado 909876" d="M56.533,64.117H48.057a1.059,1.059,0,0,1,0-2.119h8.476a1.059,1.059,0,0,1,0,2.119Z" transform="translate(-46.998 -61.998)"/>
        </g>
        <g id="Grupo_1182081" data-name="Grupo 1182081" transform="translate(42.371 51.908)">
          <path id="Trazado_909877" data-name="Trazado 909877" d="M58.771,51.119H46.057a1.059,1.059,0,1,1,0-2.119H58.771a1.059,1.059,0,1,1,0,2.119Z" transform="translate(-44.998 -49)"/>
        </g>
        <g id="Grupo_1182082" data-name="Grupo 1182082" transform="translate(38.133 30.723)">
          <path id="Trazado_909878" data-name="Trazado 909878" d="M52.651,36.417a1.058,1.058,0,0,1-1.059-1.059,4.237,4.237,0,1,0-8.475,0,1.059,1.059,0,0,1-2.119,0,6.356,6.356,0,1,1,12.712,0A1.058,1.058,0,0,1,52.651,36.417Z" transform="translate(-40.998 -29.002)"/>
        </g>
        <g id="Grupo_1182083" data-name="Grupo 1182083" transform="translate(38.133 36.02)">
          <path id="Trazado_909879" data-name="Trazado 909879" d="M42.057,61.543A1.058,1.058,0,0,1,41,60.484V35.061a1.059,1.059,0,0,1,2.119,0V60.484A1.058,1.058,0,0,1,42.057,61.543Z" transform="translate(-40.998 -34.002)"/>
        </g>
      </g>
    </g>
  </g>
</svg>
