<svg xmlns="http://www.w3.org/2000/svg" width="85" height="85" viewBox="0 0 85 85">
  <g id="Grupo_1182289" data-name="Grupo 1182289" transform="translate(-180 -5848.238)">
    <g id="Grupo_1181767" data-name="Grupo 1181767" transform="translate(16445.764 14867.764)">
      <g id="Grupo_1112415" data-name="Grupo 1112415" transform="translate(-16265.764 -9019.525)">
        <g id="Grupo_1098742" data-name="Grupo 1098742" transform="translate(0 0)">
          <g id="Rect치ngulo_400898" data-name="Rect치ngulo 400898" transform="translate(0.001 0)" fill="#fffae6" stroke="#997b00" stroke-width="3">
            <rect width="85" height="85" rx="42.5" stroke="none"/>
            <rect x="1.5" y="1.5" width="82" height="82" rx="41" fill="none"/>
          </g>
          <g id="Rect치ngulo_400907" data-name="Rect치ngulo 400907" transform="translate(0 0)" fill="none" stroke="#997b00" stroke-width="3">
            <rect width="85" height="85" rx="42.5" stroke="none"/>
            <rect x="1.5" y="1.5" width="82" height="82" rx="41" fill="none"/>
          </g>
        </g>
      </g>
    </g>
    <g id="sowing-seeds_4496373" transform="translate(191.051 5860)">
      <g id="Grupo_1182287" data-name="Grupo 1182287">
        <g id="Grupo_1182269" data-name="Grupo 1182269">
          <path id="Trazado_914800" data-name="Trazado 914800" d="M19,48.17,30,61H19V48.17Z" fill="#fcd770"/>
        </g>
        <g id="Grupo_1182270" data-name="Grupo 1182270">
          <path id="Trazado_914801" data-name="Trazado 914801" d="M23.51,46.93l-.16.02a5.519,5.519,0,0,1-.71.05H22a4.941,4.941,0,0,1-3-1,4.691,4.691,0,0,1-.54-.46A5.022,5.022,0,0,1,17,42a.487.487,0,0,1,.01-.12A4.988,4.988,0,0,1,22,37h.64a5.519,5.519,0,0,1,.71.05L37,39v6l-4,.57Z" fill="#fcd770"/>
        </g>
        <g id="Grupo_1182271" data-name="Grupo 1182271">
          <path id="Trazado_914802" data-name="Trazado 914802" d="M33,45.57V58L23.51,46.93Z" fill="#fcd770"/>
        </g>
        <g id="Grupo_1182272" data-name="Grupo 1182272">
          <path id="Trazado_914803" data-name="Trazado 914803" d="M19,46a4.941,4.941,0,0,0,3,1h.64a5.519,5.519,0,0,0,.71-.05l.16-.02L33,58v3H30L19,48.17Z" fill="#ffeaa7"/>
        </g>
        <g id="Grupo_1182273" data-name="Grupo 1182273">
          <path id="Trazado_914804" data-name="Trazado 914804" d="M2.45,43.08l16.71-6.25A10.073,10.073,0,0,0,21,37h1a4.988,4.988,0,0,0-4.99,4.88H17L3.79,46.83l-.24.09A2.151,2.151,0,0,1,3,47a2,2,0,0,1-1.92-1.45,1.967,1.967,0,0,1,.95-2.29A1.567,1.567,0,0,1,2.45,43.08Z" fill="#aab2bd"/>
        </g>
        <g id="Grupo_1182274" data-name="Grupo 1182274">
          <path id="Trazado_914805" data-name="Trazado 914805" d="M17,42a5.022,5.022,0,0,0,1.46,3.54A4.691,4.691,0,0,0,19,46V57l-5.25,1.75a4.777,4.777,0,0,1-1.54.25,4.851,4.851,0,0,1-4.47-2.95L3.79,46.83,17,41.88h.01A.487.487,0,0,0,17,42Z" fill="#ccd1d9"/>
        </g>
        <g id="Grupo_1182275" data-name="Grupo 1182275">
          <path id="Trazado_914806" data-name="Trazado 914806" d="M61,60v1H39V60a3,3,0,0,1,3-3H58A3,3,0,0,1,61,60Z" fill="#ccd1d9"/>
        </g>
        <g id="Grupo_1182276" data-name="Grupo 1182276">
          <path id="Trazado_914807" data-name="Trazado 914807" d="M13.09,33.11a10.008,10.008,0,0,0,6.07,3.72L2.45,43.08a1.567,1.567,0,0,0-.42.18,2.99,2.99,0,0,1,.37-4.79A2.942,2.942,0,0,1,2,37a2.99,2.99,0,0,1,5.88-.78,2.922,2.922,0,0,1,2.2-.01,4,4,0,0,1,3-3.1Z" fill="#b4dd7f"/>
        </g>
        <g id="Grupo_1182277" data-name="Grupo 1182277">
          <path id="Trazado_914808" data-name="Trazado 914808" d="M39,11H7A9.894,9.894,0,0,0,9.94,7.47,9.907,9.907,0,0,0,11,3a2.006,2.006,0,0,1,2-2H33a1.955,1.955,0,0,1,1.41.59A1.955,1.955,0,0,1,35,3,9.993,9.993,0,0,0,39,11Z" fill="#cf9e76"/>
        </g>
        <g id="Grupo_1182278" data-name="Grupo 1182278">
          <path id="Trazado_914809" data-name="Trazado 914809" d="M43,12v2a1,1,0,0,1-1,1H4a1,1,0,0,1-1-1V12a1,1,0,0,1,1-1H42A1,1,0,0,1,43,12Z" fill="#d3a06c"/>
        </g>
        <g id="Grupo_1182279" data-name="Grupo 1182279">
          <path id="Trazado_914810" data-name="Trazado 914810" d="M35,15h4a12.173,12.173,0,0,1-.99,4.78A2.98,2.98,0,0,0,36,19H35Z" fill="#656d78"/>
        </g>
        <g id="Grupo_1182280" data-name="Grupo 1182280">
          <path id="Trazado_914811" data-name="Trazado 914811" d="M11,15v4H10a2.98,2.98,0,0,0-2.01.78A11.963,11.963,0,0,1,7,15Z" fill="#656d78"/>
        </g>
        <g id="Grupo_1182281" data-name="Grupo 1182281">
          <path id="Trazado_914812" data-name="Trazado 914812" d="M43,39a2.006,2.006,0,0,1,2,2,3.995,3.995,0,0,1-4,4H37V39l1.41-1.41A2.006,2.006,0,0,1,39.83,37H40a2.006,2.006,0,0,1,2,2Z" fill="#f0d0b4"/>
        </g>
        <g id="Grupo_1182282" data-name="Grupo 1182282">
          <path id="Trazado_914813" data-name="Trazado 914813" d="M38.01,19.78A2.961,2.961,0,0,1,39,22a3,3,0,0,1-3,3H35V19h1a2.98,2.98,0,0,1,2.01.78Z" fill="#f0d0b4"/>
        </g>
        <g id="Grupo_1182283" data-name="Grupo 1182283">
          <path id="Trazado_914814" data-name="Trazado 914814" d="M35,25v2A10,10,0,0,1,25,37H21a9.974,9.974,0,0,1-7.91-3.89A9.94,9.94,0,0,1,11,27V15H35V25Z" fill="#f0d0b4"/>
        </g>
        <g id="Grupo_1182284" data-name="Grupo 1182284">
          <path id="Trazado_914815" data-name="Trazado 914815" d="M11,19v6H10a3,3,0,0,1-3-3,3.013,3.013,0,0,1,3-3Z" fill="#f0d0b4"/>
        </g>
        <g id="Grupo_1182285" data-name="Grupo 1182285">
          <path id="Trazado_914816" data-name="Trazado 914816" d="M19,29h8a4,4,0,0,1-8,0Z" fill="#ff826e"/>
        </g>
        <g id="Grupo_1182286" data-name="Grupo 1182286">
          <path id="Trazado_914817" data-name="Trazado 914817" d="M27,29H17a3.995,3.995,0,0,1,4-4h4a4,4,0,0,1,4,4Z" fill="#969faa"/>
        </g>
      </g>
      <g id="Grupo_1182288" data-name="Grupo 1182288">
        <path id="Trazado_914818" data-name="Trazado 914818" d="M25,24H21a5.006,5.006,0,0,0-5,5v1h2.1a5,5,0,0,0,9.8,0H30V29A5.006,5.006,0,0,0,25,24Zm2.829,4H26V26.176A3.015,3.015,0,0,1,27.829,28ZM22,26h2v2H22Zm-2,.176V28H18.171A3.015,3.015,0,0,1,20,26.176ZM23,32a3,3,0,0,1-2.816-2h5.631A2.994,2.994,0,0,1,23,32Z"/>
        <path id="Trazado_914819" data-name="Trazado 914819" d="M18,20a2,2,0,0,1,2,2h2a4,4,0,0,0-8,0h2A2,2,0,0,1,18,20Z"/>
        <path id="Trazado_914820" data-name="Trazado 914820" d="M28,18a4,4,0,0,0-4,4h2a2,2,0,0,1,4,0h2A4,4,0,0,0,28,18Z"/>
        <path id="Trazado_914821" data-name="Trazado 914821" d="M37.071,46H41a5.006,5.006,0,0,0,5-5,3,3,0,0,0-3-3h-.171A3.006,3.006,0,0,0,40,36h-.172a2.986,2.986,0,0,0-2.121.878l-1.062,1.061-6.971-1A11.005,11.005,0,0,0,36,27V26a4,4,0,0,0,4-4,3.961,3.961,0,0,0-.843-2.428A12.949,12.949,0,0,0,39.949,16H42a2,2,0,0,0,2-2V12a2,2,0,0,0-2-2H39.364A9.038,9.038,0,0,1,36,3a3,3,0,0,0-3-3H13a3,3,0,0,0-3,3,9.038,9.038,0,0,1-3.364,7H4a2,2,0,0,0-2,2v2a2,2,0,0,0,2,2H6.05a12.959,12.959,0,0,0,.793,3.572A3.979,3.979,0,0,0,10,26v1a10.922,10.922,0,0,0,1.572,5.638,5.01,5.01,0,0,0-2.163,2.385,3.718,3.718,0,0,0-.937.014A3.992,3.992,0,0,0,1,37a3.837,3.837,0,0,0,.182,1.169,3.94,3.94,0,0,0-.533,4.98A2.992,2.992,0,0,0,3,48c.062,0,.129-.01.192-.014l3.625,8.459A5.864,5.864,0,0,0,14.065,59.7L18,58.387V62H34V46.439Zm2.757-8H40a1,1,0,0,1,1,1v1h2a1,1,0,0,1,1,1,3,3,0,0,1-3,3H38V39.413l1.121-1.12A1,1,0,0,1,39.828,38ZM36,44.133,23.212,45.96a4.146,4.146,0,0,1-.567.04H22a4,4,0,0,1,0-8h.645a4.1,4.1,0,0,1,.565.04L36,39.867ZM25,36H21a9.01,9.01,0,0,1-9-9V16H34V27A9.01,9.01,0,0,1,25,36ZM36,24V20a2,2,0,0,1,0,4Zm1.5-5.7A3.982,3.982,0,0,0,36,18V16h1.949a10.932,10.932,0,0,1-.453,2.3ZM36.523,10H30.415l-.586-.586A6.189,6.189,0,0,1,28.087,6H34.44A11.084,11.084,0,0,0,36.523,10ZM26.067,6A8.143,8.143,0,0,0,27.7,10H18.3a8.152,8.152,0,0,0,1.633-4ZM13,2H33a1,1,0,0,1,1,1c0,.336.029.668.059,1H11.941c.03-.332.059-.664.059-1a1,1,0,0,1,1-1ZM11.561,6h6.353a6.189,6.189,0,0,1-1.742,3.414L15.586,10H9.477A11.1,11.1,0,0,0,11.561,6ZM4,12H42v2H4Zm6,4v2a3.968,3.968,0,0,0-1.5.3A10.952,10.952,0,0,1,8.051,16ZM8,22a2,2,0,0,1,2-2v4A2,2,0,0,1,8,22ZM2.935,39.315l.805-.51-.47-.828A1.969,1.969,0,0,1,3,37a1.993,1.993,0,0,1,3.919-.52l.294,1.087,1.044-.42a1.941,1.941,0,0,1,1.46-.007l1.109.433.234-1.168a3,3,0,0,1,1.707-2.134,11.053,11.053,0,0,0,3.421,2.606L2.317,42.062a1.969,1.969,0,0,1,.618-2.747Zm-.9,5.957a1.025,1.025,0,0,1,.761-1.26l14.187-5.3a5.966,5.966,0,0,0-.921,2.448l-12.779,4.8a.988.988,0,0,1-1.248-.686ZM13.432,57.8a3.869,3.869,0,0,1-4.778-2.146L5.117,47.4,16.138,43.27A5.992,5.992,0,0,0,18,46.459v9.82ZM20,50.87,27.826,60H20ZM30.46,60,20,47.8V47.65A5.951,5.951,0,0,0,22,48h.645c.147,0,.293-.02.44-.031L32,58.37V60ZM32,55.3,25.454,47.66,32,46.725Z"/>
        <path id="Trazado_914822" data-name="Trazado 914822" d="M16.293,46.293,15,47.586l-2.293-2.293-1.414,1.414L13.586,49,12,50.586,8.707,47.293,7.293,48.707,10.586,52,9.293,53.293l1.414,1.414L12,53.414l2.293,2.293,1.414-1.414L13.414,52,15,50.414l1.293,1.293,1.414-1.414L16.414,49l1.293-1.293Z"/>
        <path id="Trazado_914823" data-name="Trazado 914823" d="M58,56H42a4,4,0,0,0-4,4v2H62V60A4,4,0,0,0,58,56ZM40,60a2,2,0,0,1,2-2H58a2,2,0,0,1,2,2Z"/>
        <path id="Trazado_914824" data-name="Trazado 914824" d="M40,48h2v2H40Z"/>
        <path id="Trazado_914825" data-name="Trazado 914825" d="M44,50h2v4H44Z"/>
        <path id="Trazado_914826" data-name="Trazado 914826" d="M44,46h2v2H44Z"/>
      </g>
    </g>
  </g>
</svg>
