<svg xmlns="http://www.w3.org/2000/svg" xmlns:xlink="http://www.w3.org/1999/xlink" width="93" height="93" viewBox="0 0 93 93">
  <defs>
    <filter id="Trazado_874925" x="0" y="0" width="93" height="93" filterUnits="userSpaceOnUse">
      <feOffset dy="3" input="SourceAlpha"/>
      <feGaussianBlur stdDeviation="3" result="blur"/>
      <feFlood flood-opacity="0.161"/>
      <feComposite operator="in" in2="blur"/>
      <feComposite in="SourceGraphic"/>
    </filter>
  </defs>
  <g id="Grupo_1182268" data-name="Grupo 1182268" transform="translate(-196.083 -4957.605)">
    <g id="Grupo_1181754" data-name="Grupo 1181754" transform="translate(205.083 4963.605)">
      <g id="Grupo_1111316" data-name="Grupo 1111316" transform="translate(0 0)">
        <g id="Grupo_1109835" data-name="Grupo 1109835" transform="translate(0 0)">
          <g id="Grupo_1107913" data-name="Grupo 1107913">
            <g transform="matrix(1, 0, 0, 1, -9, -6)" filter="url(#Trazado_874925)">
              <g id="Trazado_874925-2" data-name="Trazado 874925" transform="translate(9 6)" fill="#9ad354" opacity="0.859">
                <path d="M 37.49980926513672 73.49993133544922 C 32.63919830322266 73.49993133544922 27.9247875213623 72.54830932617188 23.48752021789551 70.6715087890625 C 19.20086479187012 68.85840606689453 15.35074234008789 66.26248168945312 12.04409790039062 62.95585250854492 C 8.737453460693359 59.64920806884766 6.141531467437744 55.79909515380859 4.328420162200928 51.512451171875 C 2.45162034034729 47.0751838684082 1.499998211860657 42.36078262329102 1.499998211860657 37.50018310546875 C 1.499998211860657 32.63914108276367 2.45162034034729 27.92473983764648 4.328420162200928 23.48748397827148 C 6.141520500183105 19.20083999633789 8.737453460693359 15.35071754455566 12.04409790039062 12.0440845489502 C 15.35074234008789 8.73745059967041 19.20086479187012 6.141528606414795 23.48752021789551 4.328428745269775 C 27.9247875213623 2.451628446578979 32.63919830322266 1.500006318092346 37.49980926513672 1.500006318092346 C 42.36042022705078 1.500006318092346 47.07483291625977 2.451628446578979 51.5120964050293 4.328428745269775 C 55.79875183105469 6.141528606414795 59.64887619018555 8.73745059967041 62.95552062988281 12.0440845489502 C 66.26216125488281 15.35071754455566 68.85810089111328 19.20083999633789 70.67119598388672 23.48748397827148 C 72.54799652099609 27.92473983764648 73.49961853027344 32.63914108276367 73.49961853027344 37.49974060058594 C 73.49961853027344 42.36078262329102 72.54799652099609 47.0751838684082 70.67119598388672 51.512451171875 C 68.85808563232422 55.79909515380859 66.26216125488281 59.64920806884766 62.95552062988281 62.95585250854492 C 59.64887619018555 66.26248168945312 55.79875183105469 68.85840606689453 51.5120964050293 70.6715087890625 C 47.07483291625977 72.54830932617188 42.36042022705078 73.49993133544922 37.49980926513672 73.49993133544922 Z" stroke="none"/>
                <path d="M 37.49980926513672 3 C 32.84104537963867 3 28.32322311401367 3.911750793457031 24.07184600830078 5.709922790527344 C 19.96398544311523 7.447402954101562 16.27412033081055 9.935371398925781 13.10475921630859 13.1047477722168 C 9.935386657714844 16.27411270141602 7.447410583496094 19.96396255493164 5.709938049316406 24.07181167602539 C 3.9117431640625 28.32317352294922 3 32.84098815917969 3 37.50017547607422 C 3 42.158935546875 3.9117431640625 46.67673492431641 5.709938049316406 50.9281120300293 C 7.447410583496094 55.03596115112305 9.935386657714844 58.72581100463867 13.10475921630859 61.89517211914062 C 16.27412033081055 65.06455230712891 19.96398544311523 67.55252075195312 24.07184600830078 69.29000091552734 C 28.32322311401367 71.08817291259766 32.84104537963867 71.99992370605469 37.49980926513672 71.99992370605469 C 42.15857315063477 71.99992370605469 46.67639923095703 71.08817291259766 50.92777252197266 69.29000091552734 C 55.03563690185547 67.55252075195312 58.72549438476562 65.06455230712891 61.89485931396484 61.89517211914062 C 65.06423187255859 58.72581100463867 67.55220794677734 55.03596115112305 69.28968811035156 50.9281120300293 C 71.08787536621094 46.67673492431641 71.99961853027344 42.158935546875 71.99961853027344 37.49973678588867 C 71.99961853027344 32.84098815917969 71.08787536621094 28.32317352294922 69.28968811035156 24.07181167602539 C 67.55220794677734 19.96396255493164 65.06423187255859 16.27411270141602 61.89485931396484 13.1047477722168 C 58.72549438476562 9.935371398925781 55.03563690185547 7.447402954101562 50.92777252197266 5.709922790527344 C 46.67639923095703 3.911750793457031 42.15857315063477 3 37.49980926513672 3 M 37.49980926513672 0 C 58.21038436889648 0 74.99961853027344 16.78921127319336 74.99961853027344 37.49973678588867 L 74.99961853027344 37.50017547607422 C 74.99961853027344 58.21071243286133 58.21038436889648 74.99992370605469 37.49980926513672 74.99992370605469 C 16.78923416137695 74.99992370605469 0 58.21071243286133 0 37.50017547607422 L 0 37.49973678588867 C 0 16.78921127319336 16.78923416137695 0 37.49980926513672 0 Z" stroke="none" fill="#fff"/>
              </g>
            </g>
            <g id="Trazado_874923" data-name="Trazado 874923" fill="none">
              <path d="M37.5,0A37.5,37.5,0,0,1,75,37.5h0a37.5,37.5,0,0,1-75,0H0A37.5,37.5,0,0,1,37.5,0Z" stroke="none"/>
              <path d="M 37.49980926513672 3 C 32.84104537963867 3 28.32322311401367 3.911750793457031 24.07184600830078 5.709922790527344 C 19.96398544311523 7.447402954101562 16.27412033081055 9.935371398925781 13.10475921630859 13.1047477722168 C 9.935386657714844 16.27411270141602 7.447410583496094 19.96396255493164 5.709938049316406 24.07181167602539 C 3.9117431640625 28.32317352294922 3 32.84098815917969 3 37.50017547607422 C 3 42.158935546875 3.9117431640625 46.67673492431641 5.709938049316406 50.9281120300293 C 7.447410583496094 55.03596115112305 9.935386657714844 58.72581100463867 13.10475921630859 61.89517211914062 C 16.27412033081055 65.06455230712891 19.96398544311523 67.55252075195312 24.07184600830078 69.29000091552734 C 28.32322311401367 71.08817291259766 32.84104537963867 71.99992370605469 37.49980926513672 71.99992370605469 C 42.15857315063477 71.99992370605469 46.67639923095703 71.08817291259766 50.92777252197266 69.29000091552734 C 55.03563690185547 67.55252075195312 58.72549438476562 65.06455230712891 61.89485931396484 61.89517211914062 C 65.06423187255859 58.72581100463867 67.55220794677734 55.03596115112305 69.28968811035156 50.9281120300293 C 71.08787536621094 46.67673492431641 71.99961853027344 42.158935546875 71.99961853027344 37.49973678588867 C 71.99961853027344 32.84098815917969 71.08787536621094 28.32317352294922 69.28968811035156 24.07181167602539 C 67.55220794677734 19.96396255493164 65.06423187255859 16.27411270141602 61.89485931396484 13.1047477722168 C 58.72549438476562 9.935371398925781 55.03563690185547 7.447402954101562 50.92777252197266 5.709922790527344 C 46.67639923095703 3.911750793457031 42.15857315063477 3 37.49980926513672 3 M 37.49980926513672 0 C 58.21038436889648 0 74.99961853027344 16.78921127319336 74.99961853027344 37.49973678588867 L 74.99961853027344 37.50017547607422 C 74.99961853027344 58.21071243286133 58.21038436889648 74.99992370605469 37.49980926513672 74.99992370605469 C 16.78923416137695 74.99992370605469 0 58.21071243286133 0 37.50017547607422 L 0 37.49973678588867 C 0 16.78921127319336 16.78923416137695 0 37.49980926513672 0 Z" stroke="none" fill="#fff"/>
            </g>
          </g>
        </g>
      </g>
    </g>
    <g id="farmer_4695452" transform="translate(218.847 4975.796)">
      <g id="Grupo_1182266" data-name="Grupo 1182266" transform="translate(0.781 0.781)">
        <g id="Grupo_1182249" data-name="Grupo 1182249" transform="translate(29.67 37.477)">
          <path id="Trazado_914781" data-name="Trazado 914781" d="M54.616,49v9.369H40.562a1.566,1.566,0,0,0,1.562-1.562V53.685a1.566,1.566,0,0,0-1.562-1.562H39V49Z" transform="translate(-39 -49)" fill="#dfb28b"/>
        </g>
        <g id="Grupo_1182250" data-name="Grupo 1182250" transform="translate(28.108 34.354)">
          <path id="Trazado_914782" data-name="Trazado 914782" d="M55.739,45.781v1.562a.783.783,0,0,1-.781.781H37.781A.783.783,0,0,1,37,47.342V45.781A.783.783,0,0,1,37.781,45H54.958A.783.783,0,0,1,55.739,45.781Z" transform="translate(-37 -45)" fill="#d3a06c"/>
        </g>
        <g id="Grupo_1182251" data-name="Grupo 1182251" transform="translate(16.396 15.616)">
          <path id="Trazado_914783" data-name="Trazado 914783" d="M27.059,45.228A3.815,3.815,0,0,0,25.537,40.2L22,38.177a8.584,8.584,0,0,0,8.589-8.589V21h3.123V42.081a.783.783,0,0,0,.781.781h.781v3.123H34.36a1.566,1.566,0,0,0-1.109.461l-1.1,1.1v-.781a.783.783,0,0,0-.781-.781H26.685Z" transform="translate(-22 -21)" fill="#656d78"/>
        </g>
        <g id="Grupo_1182252" data-name="Grupo 1182252" transform="translate(3.123 15.616)">
          <path id="Trazado_914784" data-name="Trazado 914784" d="M16.251,38.169v.023c-.109-.008-.211-.016-.32-.016A3.122,3.122,0,0,0,12.808,41.3v7.808a3.122,3.122,0,0,0,3.123,3.123H10.465A5.461,5.461,0,0,1,5,46.766V21H8.123v8.589a8.594,8.594,0,0,0,8.128,8.581Z" transform="translate(-5 -21)" fill="#656d78"/>
        </g>
        <g id="Grupo_1182253" data-name="Grupo 1182253" transform="translate(10.931 32.793)">
          <path id="Trazado_914785" data-name="Trazado 914785" d="M21.246,50.808h6.246v6.246H18.123A3.122,3.122,0,0,1,15,53.931V46.123A3.122,3.122,0,0,1,18.123,43c.109,0,.211.008.32.016a3.6,3.6,0,0,1,1.889.9,3.143,3.143,0,0,1,.914,2.21Z" transform="translate(-15 -43)" fill="#fcd770"/>
        </g>
        <g id="Grupo_1182254" data-name="Grupo 1182254" transform="translate(14.374 32.785)">
          <path id="Trazado_914786" data-name="Trazado 914786" d="M21.3,43.911a3.6,3.6,0,0,0-1.889-.9V42.99c.156,0,.3.008.461.008h1.562l3.537,2.022a3.815,3.815,0,0,1,1.523,5.028l-.375.757h-3.9V46.121A3.143,3.143,0,0,0,21.3,43.911Z" transform="translate(-19.41 -42.99)" fill="#fcd770"/>
        </g>
        <g id="Grupo_1182255" data-name="Grupo 1182255" transform="translate(23.423 40.6)">
          <path id="Trazado_914787" data-name="Trazado 914787" d="M34.123,54.562v3.9a.783.783,0,0,1-.781.781H31V53h2.342a.783.783,0,0,1,.781.781Z" transform="translate(-31 -53)" fill="#ffc729"/>
        </g>
        <g id="Grupo_1182256" data-name="Grupo 1182256" transform="translate(25.766 40.6)">
          <path id="Trazado_914788" data-name="Trazado 914788" d="M41.027,54.562v3.123a1.566,1.566,0,0,1-1.562,1.562H34a.783.783,0,0,0,.781-.781v-3.9l1.1-1.1A1.566,1.566,0,0,1,36.99,53h2.475A1.566,1.566,0,0,1,41.027,54.562Z" transform="translate(-34 -53)" fill="#f0d0b4"/>
        </g>
        <g id="Grupo_1182257" data-name="Grupo 1182257" transform="translate(6.246 15.616)">
          <path id="Trazado_914789" data-name="Trazado 914789" d="M27.739,21v8.589a8.584,8.584,0,0,1-8.589,8.589H17.589c-.156,0-.3-.008-.461-.008A8.594,8.594,0,0,1,9,29.589V21Z" transform="translate(-9 -21)" fill="#f0d0b4"/>
        </g>
        <g id="Grupo_1182258" data-name="Grupo 1182258" transform="translate(39.039 31.231)">
          <path id="Trazado_914790" data-name="Trazado 914790" d="M57.246,44.123H51a3.115,3.115,0,0,1,2.858-3.107A1.515,1.515,0,0,1,54.123,41a3.119,3.119,0,0,1,3.123,3.123Z" transform="translate(-51 -41)" fill="#b4dd7f"/>
        </g>
        <g id="Grupo_1182259" data-name="Grupo 1182259" transform="translate(29.67 31.231)">
          <path id="Trazado_914791" data-name="Trazado 914791" d="M45.246,44.123H39A3.122,3.122,0,0,1,42.123,41c.094,0,.18.008.273.016a3.111,3.111,0,0,1,2.85,3.107Z" transform="translate(-39 -41)" fill="#b4dd7f"/>
        </g>
        <g id="Grupo_1182260" data-name="Grupo 1182260" transform="translate(33.066 28.108)">
          <path id="Trazado_914792" data-name="Trazado 914792" d="M52.181,40.123v.016a3.115,3.115,0,0,0-2.858,3.107H46.2a3.111,3.111,0,0,0-2.85-3.107v-.031a4.687,4.687,0,0,1,8.831.016Z" transform="translate(-43.35 -37)" fill="#a0d468"/>
        </g>
        <g id="Grupo_1182261" data-name="Grupo 1182261" transform="translate(3.123)">
          <path id="Trazado_914793" data-name="Trazado 914793" d="M28.041,5.4l-.265-2.983A1.569,1.569,0,0,0,26.214,1H8.771A1.569,1.569,0,0,0,7.21,2.421L6.944,5.4A28.947,28.947,0,0,1,5,13.492H29.985A28.947,28.947,0,0,1,28.041,5.4Z" transform="translate(-5 -1)" fill="#cf9e76"/>
        </g>
        <g id="Grupo_1182262" data-name="Grupo 1182262" transform="translate(23.423 6.246)">
          <circle id="Elipse_11692" data-name="Elipse 11692" cx="1.5" cy="1.5" r="1.5" transform="translate(0 0.177)" fill="#d3a06c"/>
        </g>
        <g id="Grupo_1182263" data-name="Grupo 1182263" transform="translate(14.054 6.246)">
          <circle id="Elipse_11693" data-name="Elipse 11693" cx="1.5" cy="1.5" r="1.5" transform="translate(0.369 0.177)" fill="#d3a06c"/>
        </g>
        <g id="Grupo_1182264" data-name="Grupo 1182264" transform="translate(4.685 6.246)">
          <circle id="Elipse_11694" data-name="Elipse 11694" cx="1.5" cy="1.5" r="1.5" transform="translate(-0.261 0.177)" fill="#d3a06c"/>
        </g>
        <g id="Grupo_1182265" data-name="Grupo 1182265" transform="translate(0 12.492)">
          <path id="Trazado_914794" data-name="Trazado 914794" d="M32.231,17.781v1.562a.783.783,0,0,1-.781.781H1.781A.783.783,0,0,1,1,19.342V17.781A.783.783,0,0,1,1.781,17H31.45A.783.783,0,0,1,32.231,17.781Z" transform="translate(-1 -17)" fill="#d3a06c"/>
        </g>
      </g>
      <g id="Grupo_1182267" data-name="Grupo 1182267" transform="translate(0 0)">
        <path id="Trazado_914795" data-name="Trazado 914795" d="M23.738,34.3l.041-.12-1.48-.5-.041.123a2.469,2.469,0,0,1-4.685,0l-.041-.12-1.48.5.041.118a4.03,4.03,0,0,0,7.645,0Z" transform="translate(-3.519 -7.384)"/>
        <path id="Trazado_914796" data-name="Trazado 914796" d="M16.685,27.123h1.562a3.123,3.123,0,0,0-6.246,0h1.562a1.562,1.562,0,1,1,3.123,0Z" transform="translate(-2.631 -5.261)"/>
        <path id="Trazado_914797" data-name="Trazado 914797" d="M25.123,25.562a1.563,1.563,0,0,1,1.562,1.562h1.562a3.123,3.123,0,1,0-6.246,0h1.562A1.563,1.563,0,0,1,25.123,25.562Z" transform="translate(-4.823 -5.261)"/>
        <path id="Trazado_914798" data-name="Trazado 914798" d="M20.342,12.685A2.342,2.342,0,1,0,18,10.342,2.345,2.345,0,0,0,20.342,12.685Zm0-3.123a.781.781,0,1,1-.781.781A.782.782,0,0,1,20.342,9.562Z" transform="translate(-3.946 -1.754)"/>
        <path id="Trazado_914799" data-name="Trazado 914799" d="M46.847,34.354h-.079a3.9,3.9,0,0,0-3.575-3.1,5.441,5.441,0,0,0-9.868,0,3.9,3.9,0,0,0-3.575,3.1h-.08a1.563,1.563,0,0,0-1.562,1.562v1.562a1.563,1.563,0,0,0,1.562,1.562V40.6h-.134a2.325,2.325,0,0,0-1.656.686l-.026.026a1.559,1.559,0,0,0-1.307-.712H23.1a4.586,4.586,0,0,0-2-5.683l-1.543-.882a9.377,9.377,0,0,0,6.987-9.051V17.177h1.562V31.231H29.67V17.177h1.562a1.563,1.563,0,0,0,1.562-1.562V14.054a1.563,1.563,0,0,0-1.562-1.562H29.438a28.017,28.017,0,0,1-1.714-7.381L27.452,2.13A2.329,2.329,0,0,0,25.121,0H7.672A2.331,2.331,0,0,0,5.34,2.13L5.068,5.111a27.985,27.985,0,0,1-1.713,7.381H1.562A1.563,1.563,0,0,0,0,14.054v1.562a1.563,1.563,0,0,0,1.562,1.562H3.123V42.162a6.254,6.254,0,0,0,6.246,6.246V46.847a4.689,4.689,0,0,1-4.685-4.685V17.177H6.246v7.808a9.377,9.377,0,0,0,6.067,8.757A3.877,3.877,0,0,0,10.931,36.7V44.5a3.908,3.908,0,0,0,3.9,3.9H46.847V39.039a1.563,1.563,0,0,0,1.562-1.562V35.916A1.563,1.563,0,0,0,46.847,34.354ZM21.862,38.916a3.061,3.061,0,0,1-.322,1.362l-.161.322H18.739V36.7a3.878,3.878,0,0,0-.3-1.5l1.892,1.081a3.05,3.05,0,0,1,1.534,2.643ZM25.9,2.272l.272,2.98c.032.356.091.708.136,1.063a2.341,2.341,0,1,0,.837,4.16q.282,1.02.638,2.018H24.587A19.029,19.029,0,0,1,20.47,2.443l-.088-.881h4.739A.777.777,0,0,1,25.9,2.272Zm.649,6.316a.781.781,0,1,1-.781-.781A.782.782,0,0,1,26.546,8.589ZM13.98,1.562h4.833l.1,1.037a20.584,20.584,0,0,0,3.7,9.894H10.171a20.584,20.584,0,0,0,3.7-9.894ZM5.65,10.475a2.347,2.347,0,1,0,.838-4.16c.045-.354.1-.706.136-1.062L6.9,2.272a.777.777,0,0,1,.777-.711H12.41l-.088.881A19.023,19.023,0,0,1,8.205,12.492H5.013Q5.369,11.493,5.65,10.475ZM7.027,7.808a.781.781,0,1,1-.781.781A.782.782,0,0,1,7.027,7.808ZM1.562,14.054h29.67v1.562H1.562ZM7.808,24.985V17.177H24.985v7.808a7.817,7.817,0,0,1-7.808,7.808H15.616A7.817,7.817,0,0,1,7.808,24.985ZM12.492,44.5V36.7a2.342,2.342,0,0,1,4.685,0v4.361l-1.333,1.333,1.1,1.1,1.333-1.333h5.142v4.685H14.835A2.345,2.345,0,0,1,12.492,44.5Zm14.054,2.342H24.985V42.162h1.562ZM45.141,34.354h-4.4a2.328,2.328,0,0,1,4.4,0ZM38.258,29.67A3.9,3.9,0,0,1,41.552,31.5a3.909,3.909,0,0,0-2.434,2.855H37.4A3.909,3.909,0,0,0,34.964,31.5,3.906,3.906,0,0,1,38.258,29.67Zm-4.685,3.123a2.339,2.339,0,0,1,2.2,1.562h-4.4A2.337,2.337,0,0,1,33.573,32.793Zm8.265,6.246,3.446,3.446v3.257l-6.7-6.7Zm-5.465,0,7.808,7.808H40.924l-7.808-7.808Zm-2.082,3.384,4.425,4.424H34.211a2.316,2.316,0,0,0,.144-.781V42.943A2.284,2.284,0,0,0,34.291,42.423Zm-3.06-3.061,1.3,1.3a2.329,2.329,0,0,0-.52-.062h-.781Zm-3.123,7.485V43.266l.875-.875a.788.788,0,0,1,.552-.229h2.477a.782.782,0,0,1,.781.781v3.123a.782.782,0,0,1-.781.781Zm17.177-6.569-1.238-1.238h1.238Zm-15.616-2.8V35.916H46.847v1.562Z" transform="translate(0 0)"/>
      </g>
    </g>
  </g>
</svg>
