<svg xmlns="http://www.w3.org/2000/svg" xmlns:xlink="http://www.w3.org/1999/xlink" width="85" height="85" viewBox="0 0 85 85">
  <defs>
    <clipPath id="clip-path">
      <path id="path2961" d="M0-682.665H57.495v57.495H0Z" transform="translate(0 682.665)"/>
    </clipPath>
  </defs>
  <g id="Grupo_1182299" data-name="Grupo 1182299" transform="translate(-180 -4949.557)">
    <g id="Grupo_1181826" data-name="Grupo 1181826" transform="translate(16445.764 13969.082)">
      <g id="Grupo_1112415" data-name="Grupo 1112415" transform="translate(-16265.764 -9019.525)">
        <g id="Grupo_1098742" data-name="Grupo 1098742" transform="translate(0 0)">
          <g id="Rect치ngulo_400898" data-name="Rect치ngulo 400898" transform="translate(0.001 0)" fill="#fffae6" stroke="#997b00" stroke-width="3">
            <rect width="85" height="85" rx="42.5" stroke="none"/>
            <rect x="1.5" y="1.5" width="82" height="82" rx="41" fill="none"/>
          </g>
          <g id="Rect치ngulo_400907" data-name="Rect치ngulo 400907" transform="translate(0 0)" fill="none" stroke="#997b00" stroke-width="3">
            <rect width="85" height="85" rx="42.5" stroke="none"/>
            <rect x="1.5" y="1.5" width="82" height="82" rx="41" fill="none"/>
          </g>
        </g>
      </g>
    </g>
    <g id="g2955" transform="translate(193.753 5648.09)">
      <g id="g2957" transform="translate(0 -682.665)">
        <g id="g2959" clip-path="url(#clip-path)">
          <g id="g2965" transform="translate(5.718 0.843)">
            <path id="path2967" d="M-39.21-346.41l.162,23.952H-24.8l-.067-18.96a15.758,15.758,0,0,0,2.885-9.252l-.2-19.421a2.619,2.619,0,0,0-2.485-2.639,2.579,2.579,0,0,0-2.673,2.577v-2.772a2.579,2.579,0,0,0-2.579-2.579,2.579,2.579,0,0,0-2.579,2.579v-1.322a2.619,2.619,0,0,0-2.485-2.639,2.579,2.579,0,0,0-2.673,2.577v-1.319a2.619,2.619,0,0,0-2.485-2.639,2.579,2.579,0,0,0-2.673,2.577v21.35Z" transform="translate(42.816 378.268)" fill="#ca6f59"/>
          </g>
          <g id="g2969" transform="translate(10.875 6.379)">
            <path id="path2971" d="M-170.441-241.652c0-.054,0-.109,0-.163l-.2-19.421a2.619,2.619,0,0,0-2.485-2.638,2.566,2.566,0,0,0-1.939.778,2.674,2.674,0,0,1,.752,1.86l.036,3.506h-10.629a1.207,1.207,0,0,0-1.208,1.208v19.042a1.208,1.208,0,0,0,1.208,1.208h7.794a1.341,1.341,0,0,1,1.181,1.971A15.736,15.736,0,0,1-177-232.563l.067,18.961h3.672l-.067-18.961a15.756,15.756,0,0,0,2.887-9.089" transform="translate(186.116 263.876)" fill="#bc5d4c"/>
          </g>
          <g id="g2973" transform="translate(5.718 0.843)">
            <path id="path2975" d="M-195.854-606.85l-.067-18.96a15.759,15.759,0,0,0,2.885-9.252l-.2-19.421a2.619,2.619,0,0,0-2.485-2.639,2.579,2.579,0,0,0-2.673,2.577v-2.772a2.579,2.579,0,0,0-2.579-2.579,2.579,2.579,0,0,0-2.579,2.579v-1.322a2.619,2.619,0,0,0-2.485-2.639,2.579,2.579,0,0,0-2.673,2.577v-1.319a2.619,2.619,0,0,0-2.485-2.639,2.579,2.579,0,0,0-2.673,2.577v21.35l3.606,7.929.162,23.952" transform="translate(213.866 662.66)" fill="none" stroke="#000" stroke-linecap="round" stroke-linejoin="round" stroke-miterlimit="10" stroke-width="1"/>
          </g>
          <g id="g2977" transform="translate(0.852 10.684)">
            <path id="path2979" d="M-66.713-127.737l.005-8.673a3.07,3.07,0,0,0-3.53-3.039,3.117,3.117,0,0,0-2.611,3.1v12.9a10.969,10.969,0,0,0,10.969,10.969h3.414v-4.318a11.356,11.356,0,0,0-7.61-10.721Z" transform="translate(72.848 139.484)" fill="#d78878"/>
          </g>
          <g id="g2981" transform="translate(10.875 24.428)">
            <path id="path2983" d="M-47.405-97.281v.607h-3.152a1.207,1.207,0,0,1-1.208-1.208v-8.346a11.362,11.362,0,0,1,4.36,8.947" transform="translate(51.765 106.228)" fill="#ca6f59"/>
          </g>
          <g id="g2985" transform="translate(0.852 10.684)">
            <path id="path2987" d="M-146.748-198.881a11.354,11.354,0,0,0-6.724-6.32l-.637-.222.005-8.673a3.07,3.07,0,0,0-3.53-3.039,3.117,3.117,0,0,0-2.611,3.1v12.9a10.969,10.969,0,0,0,10.969,10.969h3.414" transform="translate(160.244 217.171)" fill="none" stroke="#000" stroke-linecap="round" stroke-linejoin="round" stroke-miterlimit="10" stroke-width="1"/>
          </g>
          <g id="g2989" transform="translate(21.19 8.957)">
            <path id="path2991" d="M0,0V10.336" fill="none" stroke="#000" stroke-linecap="round" stroke-linejoin="round" stroke-miterlimit="10" stroke-width="1"/>
          </g>
          <g id="g2993" transform="translate(16.033 6.186)">
            <path id="path2995" d="M0,0V13.108" fill="none" stroke="#000" stroke-linecap="round" stroke-linejoin="round" stroke-miterlimit="10" stroke-width="1"/>
          </g>
          <g id="g2997" transform="translate(10.875 4.802)">
            <path id="path2999" d="M0,0V14.492" fill="none" stroke="#000" stroke-linecap="round" stroke-linejoin="round" stroke-miterlimit="10" stroke-width="1"/>
          </g>
          <g id="g3001" transform="translate(30.946 0.843)">
            <path id="path3003" d="M-187.294-346.41l-.162,23.952H-201.7l.067-18.96a15.758,15.758,0,0,1-2.885-9.252l.2-19.421a2.619,2.619,0,0,1,2.485-2.639,2.579,2.579,0,0,1,2.673,2.577v-2.772a2.579,2.579,0,0,1,2.579-2.579A2.579,2.579,0,0,1-194-372.925v-1.322a2.619,2.619,0,0,1,2.485-2.639,2.579,2.579,0,0,1,2.673,2.577v-1.319a2.619,2.619,0,0,1,2.485-2.639,2.579,2.579,0,0,1,2.673,2.577v21.35Z" transform="translate(204.519 378.268)" fill="#ca6f59"/>
          </g>
          <g id="g3005" transform="translate(30.945 12.525)">
            <path id="path3007" d="M-170.438-13.131V5.911a1.207,1.207,0,0,1-1.208,1.208h-13.519a15.729,15.729,0,0,1-.948-5.381c0-.053,0-.107,0-.161l.164-15.915h14.3a1.207,1.207,0,0,1,1.208,1.208" transform="translate(186.113 14.339)" fill="#bc5d4c"/>
          </g>
          <g id="g3009" transform="translate(44.541 0.842)">
            <path id="path3011" d="M-78.686-28.042V-6.691l-3.606,7.928-.163,23.952h-3.467l.162-23.952,3.606-7.928V-28.042a2.569,2.569,0,0,0-.834-1.9,2.519,2.519,0,0,1,1.63-.679,2.58,2.58,0,0,1,2.673,2.577" transform="translate(85.922 30.621)" fill="#bc5d4c"/>
          </g>
          <g id="g3013" transform="translate(48.008 8.606)">
            <path id="path3015" d="M0-522.437l.162-23.952,3.606-7.929v-16.166" transform="translate(0 570.484)" fill="none" stroke="#000" stroke-linecap="round" stroke-linejoin="round" stroke-miterlimit="10" stroke-width="1"/>
          </g>
          <g id="g3017" transform="translate(30.946 0.843)">
            <path id="path3019" d="M-226.5-40.546V-41.7a2.579,2.579,0,0,0-2.673-2.577,2.619,2.619,0,0,0-2.485,2.639v1.319a2.579,2.579,0,0,0-2.673-2.577,2.619,2.619,0,0,0-2.485,2.639v1.322A2.578,2.578,0,0,0-239.4-41.51a2.579,2.579,0,0,0-2.579,2.579v2.772a2.579,2.579,0,0,0-2.673-2.577,2.619,2.619,0,0,0-2.485,2.639l-.2,19.421a15.758,15.758,0,0,0,2.885,9.252l-.067,18.96" transform="translate(247.335 44.274)" fill="none" stroke="#000" stroke-linecap="round" stroke-linejoin="round" stroke-miterlimit="10" stroke-width="1"/>
          </g>
          <g id="g3021" transform="translate(42.26 10.684)">
            <path id="path3023" d="M-89.675-127.737l-.005-8.673a3.07,3.07,0,0,1,3.53-3.039,3.117,3.117,0,0,1,2.611,3.1v12.9a10.969,10.969,0,0,1-10.969,10.969h-3.414v-4.318a11.356,11.356,0,0,1,7.61-10.721Z" transform="translate(97.922 139.484)" fill="#d78878"/>
          </g>
          <g id="g3025" transform="translate(42.26 24.428)">
            <path id="path3027" d="M-47.405,0V8.346a1.207,1.207,0,0,1-1.208,1.208h-3.152V8.947A11.362,11.362,0,0,1-47.405,0" transform="translate(51.765)" fill="#ca6f59"/>
          </g>
          <g id="g3029" transform="translate(42.261 10.684)">
            <path id="path3031" d="M-156.387-34.105v12.9a10.968,10.968,0,0,1-10.969,10.968h-3.413v-.007A10.967,10.967,0,0,0-160.161-21.2v-12.9a3.179,3.179,0,0,0-1.19-2.482,3.049,3.049,0,0,1,2.352-.62,3.117,3.117,0,0,1,2.611,3.1" transform="translate(170.769 37.242)" fill="#ca6f59"/>
          </g>
          <g id="g3033" transform="translate(42.26 10.684)">
            <path id="path3035" d="M-9.641-198.881a11.354,11.354,0,0,1,6.724-6.32l.637-.222-.005-8.673a3.07,3.07,0,0,1,3.53-3.039,3.117,3.117,0,0,1,2.611,3.1v12.9A10.969,10.969,0,0,1-7.114-190.163h-3.414" transform="translate(10.528 217.171)" fill="none" stroke="#000" stroke-linecap="round" stroke-linejoin="round" stroke-miterlimit="10" stroke-width="1"/>
          </g>
          <g id="g3037" transform="translate(36.305 8.957)">
            <path id="path3039" d="M0,0V10.336" fill="none" stroke="#000" stroke-linecap="round" stroke-linejoin="round" stroke-miterlimit="10" stroke-width="1"/>
          </g>
          <g id="g3041" transform="translate(41.462 6.186)">
            <path id="path3043" d="M0,0V13.108" fill="none" stroke="#000" stroke-linecap="round" stroke-linejoin="round" stroke-miterlimit="10" stroke-width="1"/>
          </g>
          <g id="g3045" transform="translate(46.619 4.802)">
            <path id="path3047" d="M0,0V14.492" fill="none" stroke="#000" stroke-linecap="round" stroke-linejoin="round" stroke-miterlimit="10" stroke-width="1"/>
          </g>
          <g id="g3049" transform="translate(10.875 9.95)">
            <path id="path3051" d="M-375.534-233.32h-33.329a1.208,1.208,0,0,1-1.208-1.208V-253.57a1.208,1.208,0,0,1,1.208-1.208h33.329a1.208,1.208,0,0,1,1.208,1.208v19.042a1.208,1.208,0,0,1-1.208,1.208" transform="translate(410.071 254.778)" fill="#eff5f6"/>
          </g>
          <g id="g3053" transform="translate(41.789 9.95)">
            <path id="path3055" d="M-52.528-13.132V5.911a1.208,1.208,0,0,1-1.208,1.208h-3.623a1.208,1.208,0,0,0,1.208-1.208V-13.132a1.208,1.208,0,0,0-1.208-1.208h3.623a1.208,1.208,0,0,1,1.208,1.208" transform="translate(57.359 14.34)" fill="#deecf0"/>
          </g>
          <g id="g3057" transform="translate(10.875 9.95)">
            <path id="path3059" d="M-117.925-233.32h23.691a1.208,1.208,0,0,0,1.208-1.208V-253.57a1.208,1.208,0,0,0-1.208-1.208h-33.329a1.208,1.208,0,0,0-1.208,1.208v19.042a1.208,1.208,0,0,0,1.208,1.208h5.6" transform="translate(128.77 254.778)" fill="none" stroke="#000" stroke-linecap="round" stroke-linejoin="round" stroke-miterlimit="10" stroke-width="1"/>
          </g>
          <path id="path3061" d="M172.145-521.5h28.5v14.212h-28.5Z" transform="translate(-157.647 535.074)" fill="#07e29c"/>
          <path id="path3063" d="M466.474-507.29h3.71V-521.5h-3.71Z" transform="translate(-427.187 535.075)" fill="#0dd290"/>
          <g id="g3065" transform="translate(14.498 13.573)">
            <path id="path3067" d="M-211.029,0h-19.408V14.212h28.5V0h-5.056" transform="translate(230.437)" fill="none" stroke="#000" stroke-linecap="round" stroke-linejoin="round" stroke-miterlimit="10" stroke-width="1"/>
          </g>
          <path id="path3069" d="M172.145-478.943h28.5v3.459h-28.5Z" transform="translate(-157.647 496.101)" fill="#6cf5c2"/>
          <path id="path3071" d="M466.474-475.484h3.71v-3.459h-3.71Z" transform="translate(-427.187 496.1)" fill="#00f3a6"/>
          <path id="path3073" d="M172.145-478.943h28.5v3.459h-28.5Z" transform="translate(-157.647 496.101)" fill="none" stroke="#000" stroke-linecap="round" stroke-linejoin="round" stroke-miterlimit="10" stroke-width="1"/>
          <path id="path3075" d="M172.145-393.826h28.5v3.459h-28.5Z" transform="translate(-157.647 418.152)" fill="#6cf5c2"/>
          <path id="path3077" d="M466.474-390.367h3.71v-3.459h-3.71Z" transform="translate(-427.187 418.152)" fill="#00f3a6"/>
          <path id="path3079" d="M172.145-393.826h28.5v3.459h-28.5Z" transform="translate(-157.647 418.152)" fill="none" stroke="#000" stroke-linecap="round" stroke-linejoin="round" stroke-miterlimit="10" stroke-width="1"/>
        </g>
      </g>
    </g>
  </g>
</svg>
