<svg xmlns="http://www.w3.org/2000/svg" xmlns:xlink="http://www.w3.org/1999/xlink" width="107.999" height="108" viewBox="0 0 107.999 108">
  <defs>
    <filter id="Trazado_874925" x="0" y="0" width="107.999" height="108" filterUnits="userSpaceOnUse">
      <feOffset dy="3" input="SourceAlpha"/>
      <feGaussianBlur stdDeviation="3" result="blur"/>
      <feFlood flood-opacity="0.161"/>
      <feComposite operator="in" in2="blur"/>
      <feComposite in="SourceGraphic"/>
    </filter>
  </defs>
  <g id="Grupo_1181780" data-name="Grupo 1181780" transform="translate(8.999 6)">
    <g id="Grupo_1111552" data-name="Grupo 1111552" transform="translate(0 0)">
      <g id="Grupo_1111316" data-name="Grupo 1111316">
        <g id="Grupo_1109835" data-name="Grupo 1109835" transform="translate(0)">
          <g id="Grupo_1107913" data-name="Grupo 1107913">
            <g transform="matrix(1, 0, 0, 1, -9, -6)" filter="url(#Trazado_874925)">
              <g id="Trazado_874925-2" data-name="Trazado 874925" transform="translate(9 6)" fill="#9cc8ff" opacity="0.859">
                <path d="M 44.99971008300781 88.49985504150391 C 39.12662124633789 88.49985504150391 33.43002319335938 87.34993743896484 28.06812286376953 85.08205413818359 C 22.88838577270508 82.89120483398438 18.23619842529297 79.7545166015625 14.24077224731445 75.75908660888672 C 10.24534797668457 71.76367950439453 7.108647346496582 67.11148834228516 4.917809963226318 61.93176651000977 C 2.649909973144531 56.56986618041992 1.499997615814209 50.87326431274414 1.499997615814209 45.00019073486328 C 1.499997615814209 39.12659072875977 2.649909973144531 33.42998886108398 4.917809963226318 28.06809043884277 C 7.108647346496582 22.88836479187012 10.24534797668457 18.23617744445801 14.24077224731445 14.24076461791992 C 18.23619842529297 10.24534034729004 22.88838577270508 7.108652591705322 28.06812286376953 4.917802333831787 C 33.43002319335938 2.649914979934692 39.12662124633789 1.500002503395081 44.99971008300781 1.500002503395081 C 50.87279891967773 1.500002503395081 56.56939697265625 2.649914979934692 61.93129730224609 4.917802333831787 C 67.11103820800781 7.108652591705322 71.76322174072266 10.24534034729004 75.75864410400391 14.24076461791992 C 79.75407409667969 18.23617744445801 82.89076995849609 22.88836479187012 85.08161163330078 28.06809043884277 C 87.34951019287109 33.42998886108398 88.49942016601562 39.12659072875977 88.49942016601562 44.99966430664062 C 88.49942016601562 50.87326431274414 87.34951019287109 56.56986618041992 85.08161163330078 61.93176651000977 C 82.89076995849609 67.11148834228516 79.75407409667969 71.76367950439453 75.75864410400391 75.75908660888672 C 71.76322174072266 79.7545166015625 67.11103820800781 82.89120483398438 61.93129730224609 85.08205413818359 C 56.56939697265625 87.34993743896484 50.87279891967773 88.49985504150391 44.99971008300781 88.49985504150391 Z" stroke="none"/>
                <path d="M 44.99971008300781 3 C 39.32846832275391 3 33.82845306396484 4.110038757324219 28.65243911743164 6.29931640625 C 23.65151214599609 8.414527893066406 19.15956878662109 11.44326782226562 15.30142211914062 15.30141448974609 C 11.44328308105469 19.15955352783203 8.414527893066406 23.65148162841797 6.299308776855469 28.65241241455078 C 4.110038757324219 33.82841491699219 2.999992370605469 39.32842636108398 2.999992370605469 45.00018310546875 C 2.999992370605469 50.67142868041992 4.110038757324219 56.17142868041992 6.299308776855469 61.34742736816406 C 8.414527893066406 66.34835815429688 11.44328308105469 70.84028625488281 15.30142211914062 74.69844055175781 C 19.15958404541016 78.55658721923828 23.65151214599609 81.5853271484375 28.65243911743164 83.70053863525391 C 33.82845306396484 85.88981628417969 39.32846832275391 86.99985504150391 44.99971008300781 86.99985504150391 C 50.67095184326172 86.99985504150391 56.17096710205078 85.88981628417969 61.34698104858398 83.70053863525391 C 66.34790802001953 81.5853271484375 70.83983612060547 78.55658721923828 74.697998046875 74.69844055175781 C 78.55613708496094 70.84028625488281 81.58489990234375 66.34835815429688 83.70011138916016 61.34742736816406 C 85.88938140869141 56.17142868041992 86.99942779541016 50.67142868041992 86.99942779541016 44.99967193603516 C 86.99942779541016 39.32842636108398 85.88938140869141 33.82841491699219 83.70011138916016 28.65241241455078 C 81.58489990234375 23.65148162841797 78.55613708496094 19.15955352783203 74.697998046875 15.30141448974609 C 70.83985137939453 11.44326782226562 66.34790802001953 8.414527893066406 61.34698104858398 6.29931640625 C 56.17096710205078 4.110038757324219 50.67095184326172 3 44.99971008300781 3 M 44.99971008300781 0 C 69.85237121582031 0 89.99942779541016 20.14702606201172 89.99942779541016 44.99967193603516 L 89.99942779541016 45.00018310546875 C 89.99942779541016 69.85281372070312 69.85237121582031 89.99985504150391 44.99971008300781 89.99985504150391 C 20.14705657958984 89.99985504150391 -7.62939453125e-06 69.85281372070312 -7.62939453125e-06 45.00018310546875 L -7.62939453125e-06 44.99967193603516 C -7.62939453125e-06 20.14702606201172 20.14705657958984 0 44.99971008300781 0 Z" stroke="none" fill="#fff"/>
              </g>
            </g>
            <g id="Trazado_874923" data-name="Trazado 874923" fill="none">
              <path d="M45,0A45,45,0,0,1,90,45h0A45,45,0,0,1,0,45H0A45,45,0,0,1,45,0Z" stroke="none"/>
              <path d="M 44.99971008300781 3 C 39.32846832275391 3 33.82845306396484 4.110038757324219 28.65243911743164 6.29931640625 C 23.65151214599609 8.414527893066406 19.15956878662109 11.44326782226562 15.30142211914062 15.30141448974609 C 11.44328308105469 19.15955352783203 8.414527893066406 23.65148162841797 6.299308776855469 28.65241241455078 C 4.110038757324219 33.82841491699219 2.999992370605469 39.32842636108398 2.999992370605469 45.00018310546875 C 2.999992370605469 50.67142868041992 4.110038757324219 56.17142868041992 6.299308776855469 61.34742736816406 C 8.414527893066406 66.34835815429688 11.44328308105469 70.84028625488281 15.30142211914062 74.69844055175781 C 19.15958404541016 78.55658721923828 23.65151214599609 81.5853271484375 28.65243911743164 83.70053863525391 C 33.82845306396484 85.88981628417969 39.32846832275391 86.99985504150391 44.99971008300781 86.99985504150391 C 50.67095184326172 86.99985504150391 56.17096710205078 85.88981628417969 61.34698104858398 83.70053863525391 C 66.34790802001953 81.5853271484375 70.83983612060547 78.55658721923828 74.697998046875 74.69844055175781 C 78.55613708496094 70.84028625488281 81.58489990234375 66.34835815429688 83.70011138916016 61.34742736816406 C 85.88938140869141 56.17142868041992 86.99942779541016 50.67142868041992 86.99942779541016 44.99967193603516 C 86.99942779541016 39.32842636108398 85.88938140869141 33.82841491699219 83.70011138916016 28.65241241455078 C 81.58489990234375 23.65148162841797 78.55613708496094 19.15955352783203 74.697998046875 15.30141448974609 C 70.83985137939453 11.44326782226562 66.34790802001953 8.414527893066406 61.34698104858398 6.29931640625 C 56.17096710205078 4.110038757324219 50.67095184326172 3 44.99971008300781 3 M 44.99971008300781 0 C 69.85237121582031 0 89.99942779541016 20.14702606201172 89.99942779541016 44.99967193603516 L 89.99942779541016 45.00018310546875 C 89.99942779541016 69.85281372070312 69.85237121582031 89.99985504150391 44.99971008300781 89.99985504150391 C 20.14705657958984 89.99985504150391 -7.62939453125e-06 69.85281372070312 -7.62939453125e-06 45.00018310546875 L -7.62939453125e-06 44.99967193603516 C -7.62939453125e-06 20.14702606201172 20.14705657958984 0 44.99971008300781 0 Z" stroke="none" fill="#fff"/>
            </g>
          </g>
        </g>
      </g>
    </g>
    <path id="Trazado_909642" data-name="Trazado 909642" d="M45,0A45,45,0,0,1,90,45h0A45,45,0,0,1,0,45H0A45,45,0,0,1,45,0Z" transform="translate(0 0)" fill="none"/>
    <g id="sowing-seeds_5863725" transform="translate(12.784 12.546)">
      <g id="Grupo_1182722" data-name="Grupo 1182722" transform="translate(0.975 0.975)">
        <g id="Grupo_1182695" data-name="Grupo 1182695" transform="translate(23.393 9.747)">
          <path id="Trazado_916136" data-name="Trazado 916136" d="M56.191,11.975v1.949a.978.978,0,0,1-.975.975H25.975A.978.978,0,0,1,25,13.924V11.975A.978.978,0,0,1,25.975,11H55.216A.978.978,0,0,1,56.191,11.975Z" transform="translate(-25 -11)" fill="#dfb28b"/>
        </g>
        <g id="Grupo_1182696" data-name="Grupo 1182696" transform="translate(40.938 0)">
          <path id="Trazado_916137" data-name="Trazado 916137" d="M50.954,8.505l1.793,2.242H45.924A14.6,14.6,0,0,1,43,1.975V1h3.275a1.95,1.95,0,0,1,1.91,1.569,13.862,13.862,0,0,0,2.768,5.936Z" transform="translate(-43 -1)" fill="#cf9e76"/>
        </g>
        <g id="Grupo_1182697" data-name="Grupo 1182697" transform="translate(27.292)">
          <path id="Trazado_916138" data-name="Trazado 916138" d="M38.747,1v.975a14.6,14.6,0,0,1-2.924,8.772H29l1.793-2.242a13.862,13.862,0,0,0,2.768-5.936A1.95,1.95,0,0,1,35.472,1Z" transform="translate(-29 -1)" fill="#cf9e76"/>
        </g>
        <g id="Grupo_1182698" data-name="Grupo 1182698" transform="translate(34.115 0)">
          <path id="Trazado_916139" data-name="Trazado 916139" d="M45.747,10.747H36a14.6,14.6,0,0,0,2.924-8.772V1h3.9v.975A14.6,14.6,0,0,0,45.747,10.747Z" transform="translate(-36 -1)" fill="#d3a06c"/>
        </g>
        <g id="Grupo_1182699" data-name="Grupo 1182699" transform="translate(49.827 32.604)">
          <path id="Trazado_916140" data-name="Trazado 916140" d="M58.836,34.45l-.546,2.32a7.781,7.781,0,0,1-4.552,5.4L52.12,37.5l5.049-2.291Z" transform="translate(-52.12 -34.45)" fill="#d3a06c"/>
        </g>
        <g id="Grupo_1182700" data-name="Grupo 1182700" transform="translate(52.517 23.139)">
          <path id="Trazado_916141" data-name="Trazado 916141" d="M54.88,28.181l5.731-3.441a2.057,2.057,0,0,1,.234.975,2.248,2.248,0,0,1-.058.507L58.906,34.2l-1.667.76Z" transform="translate(-54.88 -24.74)" fill="#d3a06c"/>
        </g>
        <g id="Grupo_1182701" data-name="Grupo 1182701" transform="translate(43.862 21.512)">
          <path id="Trazado_916142" data-name="Trazado 916142" d="M47.988,25.8l4.9-2.729,1.764,5.068-2.983,1.793A6.805,6.805,0,0,0,46,26.9Z" transform="translate(-46 -23.07)" fill="#d3a06c"/>
        </g>
        <g id="Grupo_1182702" data-name="Grupo 1182702" transform="translate(40.938 19.738)">
          <path id="Trazado_916143" data-name="Trazado 916143" d="M46.353,21.25l1.56,4.5-1.988,1.1H43V23.93a5.114,5.114,0,0,0,3.343-2.68Z" transform="translate(-43 -21.25)" fill="#d3a06c"/>
        </g>
        <g id="Grupo_1182703" data-name="Grupo 1182703" transform="translate(46.786 35.167)">
          <path id="Trazado_916144" data-name="Trazado 916144" d="M52.041,37.567l1.618,4.669a7.739,7.739,0,0,1-3.041.614H49v-4a4.878,4.878,0,0,0,2.476-1.326,4.284,4.284,0,0,0,.39-.448Z" transform="translate(-49 -37.08)" fill="#b27946"/>
        </g>
        <g id="Grupo_1182704" data-name="Grupo 1182704" transform="translate(49.534 26.58)">
          <path id="Trazado_916145" data-name="Trazado 916145" d="M57.161,35.054l-5.049,2.291-.175-.487a5.944,5.944,0,0,0,1.033-3,6.823,6.823,0,0,0-1.15-3.792L54.8,28.27Z" transform="translate(-51.82 -28.27)" fill="#b27946"/>
        </g>
        <g id="Grupo_1182705" data-name="Grupo 1182705" transform="translate(50.753 20.732)">
          <path id="Trazado_916146" data-name="Trazado 916146" d="M60.565,24.678l-5.731,3.441L53.07,23.05l1.4-.78,4.688,1.248a2.188,2.188,0,0,1,1.4,1.16Z" transform="translate(-53.07 -22.27)" fill="#b27946"/>
        </g>
        <g id="Grupo_1182706" data-name="Grupo 1182706" transform="translate(44.281 18.734)">
          <path id="Trazado_916147" data-name="Trazado 916147" d="M46.82,20.22l7.486,2L52.9,23,48,25.727l-1.56-4.5h-.01a5.226,5.226,0,0,0,.39-1Z" transform="translate(-46.43 -20.22)" fill="#b27946"/>
        </g>
        <g id="Grupo_1182707" data-name="Grupo 1182707" transform="translate(0 48.735)">
          <path id="Trazado_916148" data-name="Trazado 916148" d="M5.874,60.747H54.609a4.874,4.874,0,0,0,0-9.747H5.874a4.874,4.874,0,0,0,0,9.747Z" transform="translate(-1 -51)" fill="#ecc19c"/>
        </g>
        <g id="Grupo_1182708" data-name="Grupo 1182708" transform="translate(31.191 36.941)">
          <path id="Trazado_916149" data-name="Trazado 916149" d="M46.812,49.885,44.7,47.77l-2.115,2.115a2.721,2.721,0,0,0-.556.809h-8.3a2.721,2.721,0,0,0-.556-.809L33,49.719V39H47.621a4.593,4.593,0,0,0,.975-.1V50.694H47.367a2.721,2.721,0,0,0-.556-.809Z" transform="translate(-33 -38.9)" fill="#969faa"/>
        </g>
        <g id="Grupo_1182709" data-name="Grupo 1182709" transform="translate(38.013 25.342)">
          <path id="Trazado_916150" data-name="Trazado 916150" d="M44.874,32.848H41.949A2.89,2.89,0,0,0,40,33.6V28.949L42.924,27h2.924a6.822,6.822,0,0,1,6.823,6.823,5.944,5.944,0,0,1-1.033,3,4.284,4.284,0,0,1-.39.448A4.878,4.878,0,0,1,48.772,38.6a4.593,4.593,0,0,1-.975.1H44.874Z" transform="translate(-40 -27)" fill="#fcd770"/>
        </g>
        <g id="Grupo_1182710" data-name="Grupo 1182710" transform="translate(21.443 25.342)">
          <path id="Trazado_916151" data-name="Trazado 916151" d="M32.747,32.848H23V27H36.646l2.924,1.949V33.6a1.168,1.168,0,0,0-.117.107,2.922,2.922,0,0,0,2.066,4.99H32.747Z" transform="translate(-23 -27)" fill="#fcd770"/>
        </g>
        <g id="Grupo_1182711" data-name="Grupo 1182711" transform="translate(15.595 25.342)">
          <path id="Trazado_916152" data-name="Trazado 916152" d="M22.848,27v5.848H19.924a2.924,2.924,0,0,1,0-5.848Z" transform="translate(-17 -27)" fill="#f0d0b4"/>
        </g>
        <g id="Grupo_1182712" data-name="Grupo 1182712" transform="translate(37.039 31.191)">
          <path id="Trazado_916153" data-name="Trazado 916153" d="M44.848,33v5.848H41.924a2.922,2.922,0,0,1-2.066-4.99,1.169,1.169,0,0,1,.117-.107A2.89,2.89,0,0,1,41.924,33Z" transform="translate(-39 -33)" fill="#f0d0b4"/>
        </g>
        <g id="Grupo_1182713" data-name="Grupo 1182713" transform="translate(44.827 13.646)">
          <path id="Trazado_916154" data-name="Trazado 916154" d="M50.9,15.975A2.92,2.92,0,0,1,47.974,18.9H46.99a.475.475,0,0,0,.01-.117V15h3.9Z" transform="translate(-46.99 -15)" fill="#f0d0b4"/>
        </g>
        <g id="Grupo_1182714" data-name="Grupo 1182714" transform="translate(31.191 13.646)">
          <path id="Trazado_916155" data-name="Trazado 916155" d="M39.823,15h6.823v3.782a.475.475,0,0,1-.01.117,4.792,4.792,0,0,1-.156,1.189,5.225,5.225,0,0,1-.39,1,5.114,5.114,0,0,1-3.343,2.68V26.7l-2.924,1.949L36.9,26.7V23.772A5.138,5.138,0,0,1,33.01,18.9a.475.475,0,0,1-.01-.117V15Z" transform="translate(-33 -15)" fill="#f0d0b4"/>
        </g>
        <g id="Grupo_1182715" data-name="Grupo 1182715" transform="translate(27.292 13.646)">
          <path id="Trazado_916156" data-name="Trazado 916156" d="M32.9,18.782a.475.475,0,0,0,.01.117h-.984A2.92,2.92,0,0,1,29,15.975V15h3.9Z" transform="translate(-29 -15)" fill="#f0d0b4"/>
        </g>
        <g id="Grupo_1182716" data-name="Grupo 1182716" transform="translate(39.963 45.811)">
          <path id="Trazado_916157" data-name="Trazado 916157" d="M47.595,50.924a2.672,2.672,0,0,1,.253,1.14,2.762,2.762,0,0,1-2.758,2.758h-.331A2.762,2.762,0,0,1,42,52.065a6.535,6.535,0,0,1,.253-1.14,2.721,2.721,0,0,1,.556-.809L44.924,48l2.115,2.115a2.721,2.721,0,0,1,.556.809Z" transform="translate(-42 -48)" fill="#cf9e76"/>
        </g>
        <g id="Grupo_1182717" data-name="Grupo 1182717" transform="translate(26.317 45.811)">
          <path id="Trazado_916158" data-name="Trazado 916158" d="M33.595,50.924a2.672,2.672,0,0,1,.253,1.14,2.762,2.762,0,0,1-2.758,2.758h-.331A2.762,2.762,0,0,1,28,52.065a2.672,2.672,0,0,1,.253-1.14,2.721,2.721,0,0,1,.556-.809L30.924,48l1.949,1.949.166.166a2.721,2.721,0,0,1,.556.809Z" transform="translate(-28 -48)" fill="#cf9e76"/>
        </g>
        <g id="Grupo_1182718" data-name="Grupo 1182718" transform="translate(12.671 45.811)">
          <path id="Trazado_916159" data-name="Trazado 916159" d="M19.595,50.924a2.672,2.672,0,0,1,.253,1.14,2.762,2.762,0,0,1-2.758,2.758h-.331A2.762,2.762,0,0,1,14,52.065a2.672,2.672,0,0,1,.253-1.14,2.721,2.721,0,0,1,.556-.809L16.924,48l2.115,2.115A2.721,2.721,0,0,1,19.595,50.924Z" transform="translate(-14 -48)" fill="#cf9e76"/>
        </g>
        <g id="Grupo_1182719" data-name="Grupo 1182719" transform="translate(5.848 40.938)">
          <circle id="Elipse_11705" data-name="Elipse 11705" cx="2" cy="2" r="2" transform="translate(0.393 0.304)" fill="#dfb28b"/>
        </g>
        <g id="Grupo_1182720" data-name="Grupo 1182720" transform="translate(17.545 35.089)">
          <circle id="Elipse_11706" data-name="Elipse 11706" cx="2" cy="2" r="2" transform="translate(-0.304 0.152)" fill="#dfb28b"/>
        </g>
        <g id="Grupo_1182721" data-name="Grupo 1182721" transform="translate(9.747 31.191)">
          <ellipse id="Elipse_11707" data-name="Elipse 11707" cx="1.5" cy="2" rx="1.5" ry="2" transform="translate(0.494 0.051)" fill="#dfb28b"/>
        </g>
      </g>
      <g id="Grupo_1182723" data-name="Grupo 1182723" transform="translate(0 0)">
        <path id="Trazado_916160" data-name="Trazado 916160" d="M54.583,48.735H48.735V42.887h.647a8.74,8.74,0,0,0,8.539-6.762l2.425-10.308a3.178,3.178,0,0,0-2.275-3.8L47.916,19.307A3.889,3.889,0,0,0,50.685,15.6h3.9a1.951,1.951,0,0,0,1.949-1.949V11.7a1.951,1.951,0,0,0-1.949-1.949H52.128l-1.5-1.875A12.938,12.938,0,0,1,48.055,2.35,2.931,2.931,0,0,0,45.187,0H34.738a2.932,2.932,0,0,0-2.868,2.35A12.938,12.938,0,0,1,29.3,7.872L27.8,9.747H25.342A1.951,1.951,0,0,0,23.393,11.7v1.949A1.951,1.951,0,0,0,25.342,15.6h1.949a3.9,3.9,0,0,0,3.9,3.9H31.3A6.1,6.1,0,0,0,35.089,24.1v1.239h-15.6a3.9,3.9,0,0,0,0,7.8h11.7V46.382l-.975-.975-2.805,2.806a3.739,3.739,0,0,0-.429.521H19.805a3.822,3.822,0,0,0-.429-.521L16.57,45.408l-2.805,2.806a3.739,3.739,0,0,0-.429.521H5.848a5.848,5.848,0,1,0,0,11.7H54.583a5.848,5.848,0,0,0,0-11.7ZM43.862,45.408l-2.805,2.806c-.045.045-.077.1-.119.144V43.117A2.909,2.909,0,0,0,39.322,40.5l-.872-.436-.872,1.744.872.436a.972.972,0,0,1,.539.872v5.618H33.451a3.8,3.8,0,0,0-.311-.377v-9.37H46.786v9.37c-.042-.047-.074-.1-.119-.144Zm1.949,5.445a1.784,1.784,0,0,1-1.783,1.782h-.334a1.782,1.782,0,0,1-1.259-3.042l1.427-1.428,1.428,1.428a1.8,1.8,0,0,1,.521,1.26Zm-3.6-23.561h2.629a5.854,5.854,0,0,1,5.848,5.848,3.9,3.9,0,0,1-3.9,3.9H44.836v-3.9h1.546a2.337,2.337,0,0,1,1.664.689l1.379-1.378a4.274,4.274,0,0,0-3.043-1.26H40.938a3.839,3.839,0,0,0-.975.138V28.788Zm16.146-1.516L56.68,32.888l-.263.12L54.67,27.987Zm-3.718,8.042-2.256,1.025a5.79,5.79,0,0,0,.255-1.7,7.736,7.736,0,0,0-.813-3.445l1.141-.685Zm-3.889-5.751a7.818,7.818,0,0,0-3.1-2.194L51.187,23.9l1.122,3.225ZM47.365,23.8l-1-2.888,4.191,1.118Zm-2.423-1.035.694,2-1.052.584h-1.7V24.1a6.092,6.092,0,0,0,2.055-1.341ZM38.988,35.089a1.951,1.951,0,0,1,1.949-1.949h1.949v3.9H40.938A1.951,1.951,0,0,1,38.988,35.089Zm9.747,5.848V38.647a5.827,5.827,0,0,0,1.464-.768l.974,2.8a6.811,6.811,0,0,1-1.791.26Zm4.232-1.032-.957-2.753,4.105-1.867-.092.391a6.787,6.787,0,0,1-3.057,4.228Zm4.674-15.974-3.625,2.175-1.1-3.162.348-.193L57.57,23.9C57.6,23.906,57.616,23.922,57.641,23.931ZM46.786,17.545V15.6h1.949A1.951,1.951,0,0,1,46.786,17.545ZM46.143,2.733A14.886,14.886,0,0,0,49.106,9.09l.525.657H45.347a13.741,13.741,0,0,1-2.46-7.8h2.3a.978.978,0,0,1,.956.784Zm-3.1,7.014H36.882a15.691,15.691,0,0,0,2.106-7.8h1.949A15.691,15.691,0,0,0,43.044,9.747ZM30.82,9.09a14.891,14.891,0,0,0,2.962-6.357.978.978,0,0,1,.956-.784h2.3a13.734,13.734,0,0,1-2.461,7.8H30.294Zm-5.478,4.556V11.7H54.583v1.949Zm3.9,1.949h1.949v1.949A1.951,1.951,0,0,1,29.241,15.6Zm3.9,2.8V15.6h4.874v1.949h1.949V15.6h4.874v2.8a4.166,4.166,0,0,1-3.161,4.048l-.738.185V25.8l-1.949,1.3-1.949-1.3V22.633l-.738-.184A4.168,4.168,0,0,1,33.14,18.4Zm2.629,8.892,2.245,1.5v3.75a3.806,3.806,0,0,0-.433,4.5H33.14V31.594a4.276,4.276,0,0,0-1.259-3.042L30.5,29.93a2.331,2.331,0,0,1,.65,1.26H23.393v-3.9ZM17.545,29.241a1.951,1.951,0,0,1,1.949-1.949h1.949v3.9H19.494A1.951,1.951,0,0,1,17.545,29.241ZM28.789,49.592l1.427-1.428,1.428,1.428a1.782,1.782,0,0,1-1.261,3.042h-.334a1.782,1.782,0,0,1-1.259-3.042Zm-13.646,0,1.427-1.428L18,49.592a1.782,1.782,0,0,1-1.261,3.042H16.4a1.782,1.782,0,0,1-1.259-3.042Zm39.44,8.89H5.848a3.9,3.9,0,1,1,0-7.8h6.839c0,.057-.017.11-.017.168A3.736,3.736,0,0,0,16.4,54.583h.334a3.736,3.736,0,0,0,3.731-3.731c0-.057-.014-.111-.017-.168h5.881c0,.057-.017.11-.017.168a3.736,3.736,0,0,0,3.732,3.731h.334a3.736,3.736,0,0,0,3.731-3.731c0-.057-.014-.111-.017-.168h5.881c0,.057-.017.11-.017.168A3.736,3.736,0,0,0,43.7,54.583h.334a3.736,3.736,0,0,0,3.731-3.731c0-.057-.014-.111-.017-.168h6.839a3.9,3.9,0,0,1,0,7.8Z" transform="translate(0 0)"/>
        <path id="Trazado_916161" data-name="Trazado 916161" d="M39.932,21.932a3.3,3.3,0,0,0,2.353-.975l.286-.286-1.378-1.378-.286.286a1.41,1.41,0,0,1-1.949,0l-.286-.286-1.378,1.378.285.286A3.306,3.306,0,0,0,39.932,21.932Z" transform="translate(-0.943 -0.488)"/>
        <path id="Trazado_916162" data-name="Trazado 916162" d="M12.924,37.848A2.924,2.924,0,1,0,10,34.924,2.928,2.928,0,0,0,12.924,37.848Zm0-3.9a.975.975,0,1,1-.975.975A.976.976,0,0,1,12.924,33.949Z" transform="translate(-0.253 -0.809)"/>
        <path id="Trazado_916163" data-name="Trazado 916163" d="M23.848,38.924a2.924,2.924,0,1,0-2.924,2.924A2.928,2.928,0,0,0,23.848,38.924Zm-3.9,0a.975.975,0,1,1,.975.975A.976.976,0,0,1,19.949,38.924Z" transform="translate(-0.455 -0.911)"/>
        <path id="Trazado_916164" data-name="Trazado 916164" d="M8.924,47.848A2.924,2.924,0,1,0,6,44.924,2.928,2.928,0,0,0,8.924,47.848Zm0-3.9a.975.975,0,1,1-.975.975A.976.976,0,0,1,8.924,43.949Z" transform="translate(-0.152 -1.062)"/>
      </g>
    </g>
  </g>
</svg>
