<svg xmlns="http://www.w3.org/2000/svg" width="85" height="85" viewBox="0 0 85 85">
  <g id="Grupo_1182298" data-name="Grupo 1182298" transform="translate(-179 -1904.116)">
    <g id="Grupo_1181793" data-name="Grupo 1181793" transform="translate(16444.764 10923.642)">
      <g id="Grupo_1112415" data-name="Grupo 1112415" transform="translate(-16265.764 -9019.525)">
        <g id="Grupo_1098742" data-name="Grupo 1098742" transform="translate(0 0)">
          <g id="Rect치ngulo_400898" data-name="Rect치ngulo 400898" transform="translate(0.001 0)" fill="#ffea99" stroke="#997b00" stroke-width="3">
            <rect width="85" height="85" rx="42.5" stroke="none"/>
            <rect x="1.5" y="1.5" width="82" height="82" rx="41" fill="none"/>
          </g>
          <g id="Rect치ngulo_400907" data-name="Rect치ngulo 400907" transform="translate(0 0)" fill="none" stroke="#997b00" stroke-width="3">
            <rect width="85" height="85" rx="42.5" stroke="none"/>
            <rect x="1.5" y="1.5" width="82" height="82" rx="41" fill="none"/>
          </g>
        </g>
      </g>
    </g>
    <g id="nurturing_11279997_1_" data-name="nurturing_11279997 (1)" transform="translate(174.231 1895.052)">
      <path id="Trazado_914868" data-name="Trazado 914868" d="M91.49,34.18h37.4V74.417H91.49Z" transform="translate(-62.967 -7.119)" fill="#f1f1f2" fill-rule="evenodd"/>
      <path id="Trazado_914869" data-name="Trazado 914869" d="M58.71,190.534a.221.221,0,0,0,.22.22H96.774a.221.221,0,0,0,.22-.22V164.42l.513.086a3.768,3.768,0,0,1,3.137,3.71v25.7H55.15v-25.7a3.768,3.768,0,0,1,3.035-3.691l.525-.1Z" transform="translate(-30.629 -123.016)" fill="#968996" fill-rule="evenodd"/>
      <path id="Trazado_914870" data-name="Trazado 914870" d="M80.046,436.25v2.386a2.342,2.342,0,0,1-2.342,2.341H31.072a2.342,2.342,0,0,1-2.342-2.341V436.25Z" transform="translate(-7.119 -364.91)" fill="#968996" fill-rule="evenodd"/>
      <path id="Trazado_914871" data-name="Trazado 914871" d="M120.19,66.22h13.435V83.166H120.19Z" transform="translate(-88.507 -35.631)" fill="#87d4ed" fill-rule="evenodd"/>
      <path id="Trazado_914872" data-name="Trazado 914872" d="M130.543,62.44a.22.22,0,0,0-.22-.22H116.45a.217.217,0,0,0-.22.22V79.827a.217.217,0,0,0,.22.22h13.873a.22.22,0,0,0,.22-.22Z" transform="translate(-84.983 -32.071)" fill="#ffd064" fill-rule="evenodd"/>
      <path id="Trazado_914873" data-name="Trazado 914873" d="M298.7,165.782a.819.819,0,0,1,.123-1.533.216.216,0,0,0,.159-.155,1.237,1.237,0,0,1,.041-.128.232.232,0,0,0-.005-.129,1.347,1.347,0,0,1-.086-.483,1.413,1.413,0,0,1,2.19-1.175.218.218,0,0,0,.134.039c.107-.008.214-.008.317-.007h.061a.219.219,0,0,0,.209-.146,1.054,1.054,0,0,1,1.994.019.227.227,0,0,0,.182.148l.077.01h.009a.214.214,0,0,0,.215-.1.947.947,0,1,1,1.57,1.056.22.22,0,0,0-.014.229.215.215,0,0,0,.192.119.892.892,0,0,1,.894.891c0,.761-.888,1.152-1.489,1.373a2.529,2.529,0,0,1-1.382.111c-.109-.024-.217-.053-.324-.081a1.609,1.609,0,0,0-1.564.132l-.077.056-.092.02a2.692,2.692,0,0,1-1.056-.073,2.575,2.575,0,0,0-.77-.076h-.238a4.049,4.049,0,0,1-1.212-.1l-.052-.02Z" transform="translate(-246.931 -120.293)" fill="#87d4ed" fill-rule="evenodd"/>
      <path id="Trazado_914874" data-name="Trazado 914874" d="M278.183,77.182a.951.951,0,0,0,.012-.167,1.389,1.389,0,0,0-2.071-1.207l-.293.166-.237-.239a1.483,1.483,0,0,0-.653-.388l-.335-.1.15-3.4.66.47a3.64,3.64,0,0,0,2.123.726,3.907,3.907,0,0,0,2.4-.912,6.427,6.427,0,0,0,2.082-3.081,5.086,5.086,0,0,0-.01-3.387.223.223,0,0,0-.193-.137,7.857,7.857,0,0,0-3.9.874,6.738,6.738,0,0,0-2.794,2.479l-.384.664-.38-.666a7.421,7.421,0,0,0-3.1-2.767,8.709,8.709,0,0,0-4.339-.977.221.221,0,0,0-.193.137,5.648,5.648,0,0,0-.011,3.753,7.1,7.1,0,0,0,2.3,3.408,4.308,4.308,0,0,0,2.655,1.007,3.881,3.881,0,0,0,1.912-.522l.69-.387-.123,2.769-.246.111a1.564,1.564,0,0,0-.6.48l-.213.282-.322-.145a1.849,1.849,0,0,0-2.606,1.687,1.63,1.63,0,0,0,.013.22l.039.271-.226.155a1.267,1.267,0,0,0,.28,2.216,4.316,4.316,0,0,0,1.374.128,3.684,3.684,0,0,1,.836.042l.012,0,.012,0a3.192,3.192,0,0,0,.89.124,1.287,1.287,0,0,0,.7-.159c.409-.318.764-.216,1.227-.09.113.031.227.061.341.087a2.986,2.986,0,0,0,1.634-.128c.806-.3,1.772-.794,1.772-1.787a1.331,1.331,0,0,0-.683-1.164l-.272-.152Z" transform="translate(-218.624 -34.659)" fill="#87d4ed" fill-rule="evenodd"/>
      <path id="Trazado_914875" data-name="Trazado 914875" d="M164.98,105.474a2.325,2.325,0,1,1-2.325-2.324A2.326,2.326,0,0,1,164.98,105.474Z" transform="translate(-124.226 -68.494)" fill="#f6dccd" fill-rule="evenodd"/>
      <path id="Trazado_914876" data-name="Trazado 914876" d="M153.891,149.95a1.856,1.856,0,0,1,1.857,1.855v1.853H148.49V151.8a1.856,1.856,0,0,1,1.857-1.855Z" transform="translate(-113.69 -110.14)" fill="#87d4ed" fill-rule="evenodd"/>
      <path id="Trazado_914877" data-name="Trazado 914877" d="M276.537,76.217a3.566,3.566,0,0,1-3.731-.619,6.652,6.652,0,0,1-2.053-2.88,5.576,5.576,0,0,1-.259-3.318l.088-.33.341,0a8.353,8.353,0,0,1,4.125,1.2,6.573,6.573,0,0,1,2.591,2.633,2.567,2.567,0,0,1,.1,2.2l-.265.584-4.164-4.237a.221.221,0,0,0-.316.308l4.128,4.2Z" transform="translate(-222.127 -38.167)" fill="#00da92" fill-rule="evenodd"/>
      <path id="Trazado_914878" data-name="Trazado 914878" d="M343.773,78.644a.455.455,0,0,1-.154-.34v-.181l2.946-2.991a.221.221,0,0,0-.006-.314.217.217,0,0,0-.307,0l-3.311,3.36.3-1.453a2.875,2.875,0,0,1,.221-.646,5.874,5.874,0,0,1,2.3-2.349,7.508,7.508,0,0,1,3.665-1.087l.351-.007.085.341a5.063,5.063,0,0,1-.26,2.946,5.951,5.951,0,0,1-1.828,2.548,3.12,3.12,0,0,1-3.955.2l-.023-.017Z" transform="translate(-286.726 -41.344)" fill="#00da92" fill-rule="evenodd"/>
      <path id="Trazado_914879" data-name="Trazado 914879" d="M44.679,47.1H32.125V31.03H44.679ZM46,47.756V30.369a.661.661,0,0,0-.661-.661H31.467a.658.658,0,0,0-.661.661V47.756a.658.658,0,0,0,.661.661H45.34A.661.661,0,0,0,46,47.756Zm14.771-10.97a2.7,2.7,0,0,1-3.43.187s-.009-.009-.009-.013L60.152,34.1a.66.66,0,0,0-.939-.928l-2.271,2.3a2.412,2.412,0,0,1,.188-.547,6.651,6.651,0,0,1,5.576-3.182,5.341,5.341,0,0,1-1.934,5.042Zm-3.741,5.588.067.009a.65.65,0,0,0,.656-.3.507.507,0,0,1,.935.27.493.493,0,0,1-.095.294.663.663,0,0,0-.05.687.655.655,0,0,0,.585.359.451.451,0,0,1,.454.45c0,.354-.382.659-1.2.96a2.074,2.074,0,0,1-1.133.095c-.108-.023-.207-.051-.306-.077a2.044,2.044,0,0,0-1.938.2,2.38,2.38,0,0,1-.818-.056,2.842,2.842,0,0,0-.917-.1h-.242a4.144,4.144,0,0,1-1.052-.068.044.044,0,0,0-.018-.008.379.379,0,0,1,.032-.708.658.658,0,0,0,.481-.469.623.623,0,0,1,.032-.1.66.66,0,0,0-.009-.427.913.913,0,0,1-.058-.33.971.971,0,0,1,1.507-.807.654.654,0,0,0,.41.11c.09-.007.18-.007.283-.006H54.7a.664.664,0,0,0,.626-.441.614.614,0,0,1,.58-.41.608.608,0,0,1,.58.42A.661.661,0,0,0,57.031,42.374Zm-6.079-5.288a5.984,5.984,0,0,1-2.158-5.738c2.81.031,5.5,1.815,6.322,3.581a2.113,2.113,0,0,1,.1,1.828L51.5,32.978a.661.661,0,1,0-.944.926l3.678,3.742A3.168,3.168,0,0,1,50.952,37.086Zm12.27-6.653a8.174,8.174,0,0,0-7.1,3.572,8.989,8.989,0,0,0-7.842-3.967.659.659,0,0,0-.576.41c-.98,2.4.108,5.846,2.428,7.675a4.724,4.724,0,0,0,2.927,1.1,4.313,4.313,0,0,0,2.127-.578l-.076,1.708a1.992,1.992,0,0,0-.769.617,2.268,2.268,0,0,0-.935-.2,2.294,2.294,0,0,0-2.293,2.29,2.024,2.024,0,0,0,.018.283,1.708,1.708,0,0,0,.378,2.992,4.46,4.46,0,0,0,1.529.154,4.5,4.5,0,0,1,.71.024,3.682,3.682,0,0,0,1.034.149,1.618,1.618,0,0,0,.976-.251c.211-.163.341-.149.841-.013.112.031.229.062.36.091a3.414,3.414,0,0,0,1.884-.144c.512-.188,2.059-.762,2.059-2.2a1.771,1.771,0,0,0-.909-1.548,1.477,1.477,0,0,0,.018-.242,1.83,1.83,0,0,0-2.73-1.59,1.936,1.936,0,0,0-.846-.5l.1-2.24a4.073,4.073,0,0,0,2.379.807,4.317,4.317,0,0,0,2.675-1.007c2.109-1.663,3.1-4.794,2.208-6.981a.666.666,0,0,0-.575-.41Zm-4.676,32.1a.661.661,0,0,1-.661.661H34.448a.661.661,0,0,1,0-1.322H57.884A.662.662,0,0,1,58.546,62.529Zm0-4.89a.661.661,0,0,1-.661.661H34.448a.661.661,0,0,1,0-1.322H57.884A.662.662,0,0,1,58.546,57.64Zm0-4.891a.661.661,0,0,1-.661.661H40.092a.661.661,0,0,1,0-1.322H57.886A.662.662,0,0,1,58.546,52.749ZM35.24,41.665v1.413h6.376V41.665A1.416,1.416,0,0,0,40.2,40.251H36.656a1.416,1.416,0,0,0-1.416,1.414ZM38.428,35.1a1.883,1.883,0,1,0,1.884,1.883A1.886,1.886,0,0,0,38.428,35.1Zm-3.849,9.3h7.7a.661.661,0,0,0,.661-.661V41.665A2.741,2.741,0,0,0,40.9,39.019a3.206,3.206,0,1,0-4.936,0,2.741,2.741,0,0,0-2.042,2.646v2.074a.66.66,0,0,0,.661.661ZM72.486,73.726a1.9,1.9,0,0,1-1.9,1.9H23.953a1.9,1.9,0,0,1-1.9-1.9V71.78H72.486ZM24.961,45.2V70.458H69.577V45.2a3.327,3.327,0,0,0-2.77-3.276V67.518a.661.661,0,0,1-.661.661H28.3a.661.661,0,0,1-.661-.661V41.94a3.328,3.328,0,0,0-2.68,3.26Zm4-17.7V66.857H65.484V27.5ZM73.147,70.458H70.9V45.2a4.648,4.648,0,0,0-4.092-4.61V26.841a.661.661,0,0,0-.661-.661H28.3a.661.661,0,0,0-.661.661V40.6a4.651,4.651,0,0,0-4,4.6V70.458H21.391a.661.661,0,0,0-.661.661v2.607a3.225,3.225,0,0,0,3.224,3.222h46.63a3.225,3.225,0,0,0,3.224-3.222V71.119A.663.663,0,0,0,73.147,70.458Z" fill-rule="evenodd"/>
    </g>
  </g>
</svg>
